<svg xmlns="http://www.w3.org/2000/svg" xmlns:v="https://svgstorm.com"
viewBox = "37 37 435 435">
<g fill="None" fill-opacity="0.0" stroke="#000000" stroke-opacity="0.00" stroke-width="0.3"><path d="
M 0.00 512.00 
L 512.00 512.00
L 512.00 0.00
L 0.00 0.00
L 0.00 512.00
M 467.00 117.00 
C 467.41 119.71 467.79 122.31 468.00 125.00
C 470.14 151.95 468.00 179.96 468.00 207.00
C 468.00 236.91 468.89 267.12 468.00 297.00 C 467.11 326.88 470.36 357.22 468.00 387.00
C 465.61 417.11 450.32 442.61 421.77 457.77 C 393.22 472.93 349.56 467.72 315.00 468.00 C 280.44 468.28 232.61 468.35 198.00 468.00 C 163.39 467.65 119.73 472.98 90.92 458.08 C 62.12 443.17 46.41 417.30 44.00 387.00
C 41.64 357.22 44.89 326.88 44.00 297.00 C 43.11 267.12 44.00 236.91 44.00 207.00
C 44.00 180.04 41.58 151.84 44.00 125.00
C 44.19 122.88 44.65 121.13 45.00 119.00
C 49.82 89.94 64.48 66.62 93.08 53.08 C 121.67 39.54 164.15 44.18 198.00 44.00 C 231.85 43.82 278.35 43.54 312.00 44.00 C 345.65 44.46 389.57 39.31 417.69 52.31 C 445.82 65.30 462.63 88.35 467.00 117.00 Z"/>
</g>
<g fill="None" fill-opacity="0.0" stroke="#15B5EC" stroke-opacity="0.99" stroke-width="0.3"><path d="
M 45.00 119.00 
C 48.36 113.83 55.62 120.42 59.92 118.14 C 64.23 115.86 68.62 120.06 74.31 118.72 C 79.99 117.37 80.74 119.26 88.77 118.58 C 96.80 117.89 108.71 117.83 116.92 117.86 C 125.14 117.89 124.09 116.82 131.31 117.28 C 138.52 117.74 137.59 116.84 145.77 117.42 C 153.95 118.01 165.69 118.21 173.92 118.14 C 182.16 118.07 181.98 118.84 188.31 118.72 C 194.63 118.60 197.71 120.46 203.00 113.00
C 206.85 117.43 211.79 111.24 218.10 109.09 C 224.41 106.95 235.17 106.33 242.74 107.60 C 250.31 108.86 254.91 111.88 260.92 109.86 C 266.93 107.84 279.01 107.27 286.22 107.78 C 293.43 108.29 299.58 113.52 304.77 114.58 C 309.96 115.64 313.22 117.23 317.92 118.14 C 322.63 119.05 324.59 116.29 329.77 117.42 C 334.96 118.56 335.00 116.50 341.77 117.42 C 348.54 118.35 358.39 118.19 365.31 117.28 C 372.22 116.38 371.52 117.85 377.31 117.28 C 383.09 116.72 383.46 117.88 389.31 117.28 C 395.15 116.69 393.69 117.82 400.92 117.86 C 408.16 117.90 417.94 118.11 424.92 117.86 C 431.91 117.61 432.40 116.07 436.00 121.00
C 436.75 117.20 440.46 115.89 440.00 121.00
C 440.75 117.20 444.46 115.89 444.00 121.00
C 444.75 117.20 448.46 115.89 448.00 121.00
C 448.76 117.20 452.46 115.89 452.00 121.00
C 452.75 117.20 456.46 115.89 456.00 121.00
C 456.75 117.20 460.46 115.89 460.00 121.00
C 460.76 117.20 464.46 115.89 464.00 121.00
C 465.93 120.30 463.85 116.34 467.00 117.00
C 462.63 88.35 445.82 65.30 417.69 52.31 C 389.57 39.31 345.65 44.46 312.00 44.00 C 278.35 43.54 231.85 43.82 198.00 44.00 C 164.15 44.18 121.67 39.54 93.08 53.08 C 64.48 66.62 49.82 89.94 45.00 119.00 Z"/>
</g>
<g fill="None" fill-opacity="0.0" stroke="#14A8E9" stroke-opacity="1.00" stroke-width="0.3"><path d="
M 45.00 119.00 
C 44.65 121.13 44.19 122.88 44.00 125.00
C 44.07 138.78 45.00 154.47 45.00 169.00
C 46.37 172.94 52.79 168.70 56.92 169.86 C 61.06 171.02 62.00 169.43 68.92 169.86 C 75.85 170.29 86.16 169.83 92.92 169.86 C 99.69 169.89 100.57 167.86 104.00 173.00
C 104.75 169.20 108.46 167.89 108.00 173.00
C 108.75 169.20 112.46 167.89 112.00 173.00
C 112.75 169.20 116.46 167.89 116.00 173.00
C 116.75 169.20 120.46 167.89 120.00 173.00
C 120.75 169.20 124.46 167.89 124.00 173.00
C 124.75 169.20 128.46 167.89 128.00 173.00
C 128.75 169.20 132.46 167.89 132.00 173.00
C 132.75 169.20 136.46 167.89 136.00 173.00
C 136.75 169.20 140.46 167.89 140.00 173.00
C 140.75 169.20 144.46 167.89 144.00 173.00
C 145.43 168.61 147.50 168.62 149.00 173.00
C 149.20 168.95 152.35 168.89 153.00 173.00
C 153.20 168.95 156.35 168.89 157.00 173.00
C 157.20 168.95 160.35 168.89 161.00 173.00
C 161.20 168.95 164.35 168.89 165.00 173.00
C 165.20 168.95 168.35 168.89 169.00 173.00
C 169.20 168.95 172.35 168.89 173.00 173.00
C 173.20 168.95 176.35 168.89 177.00 173.00
C 177.20 168.95 180.35 168.89 181.00 173.00
C 181.20 168.95 184.35 168.89 185.00 173.00
C 184.42 169.70 189.43 167.94 188.00 173.00
C 189.94 170.84 192.82 167.26 192.00 173.00
C 193.94 170.84 196.82 167.26 196.00 173.00
C 198.74 169.96 199.72 168.32 201.00 173.00
C 205.22 164.95 200.94 157.41 204.00 149.00
C 200.82 147.43 200.23 147.25 199.00 144.00
C 202.04 141.71 201.18 136.68 202.00 133.00
C 207.53 130.15 211.73 119.06 220.22 116.22 C 228.72 113.39 237.21 111.13 246.22 115.78 C 255.24 120.43 264.13 115.97 272.70 113.69 C 281.27 111.42 291.16 114.70 298.70 120.30 C 306.24 125.90 308.46 136.53 314.00 143.00
C 310.01 143.97 313.69 155.79 310.00 149.00
C 309.69 155.85 307.78 160.18 308.00 167.00
C 310.17 162.85 312.45 170.56 312.00 173.00
C 313.94 170.84 316.82 167.26 316.00 173.00
C 317.94 170.84 320.82 167.26 320.00 173.00
C 321.94 170.84 324.82 167.26 324.00 173.00
C 325.94 170.84 328.82 167.26 328.00 173.00
C 329.94 170.84 332.82 167.26 332.00 173.00
C 333.94 170.84 336.82 167.26 336.00 173.00
C 337.94 170.84 340.82 167.26 340.00 173.00
C 341.94 170.84 344.82 167.26 344.00 173.00
C 345.94 170.84 348.82 167.26 348.00 173.00
C 349.94 170.84 352.82 167.26 352.00 173.00
C 353.94 170.84 356.82 167.26 356.00 173.00
C 357.94 170.84 360.82 167.26 360.00 173.00
C 361.72 170.10 363.56 174.51 363.00 169.00
C 363.75 172.80 367.46 174.11 367.00 169.00
C 367.75 172.80 371.46 174.11 371.00 169.00
C 371.75 172.80 375.46 174.11 375.00 169.00
C 375.75 172.80 379.46 174.11 379.00 169.00
C 379.75 172.80 383.46 174.11 383.00 169.00
C 383.75 172.80 387.46 174.11 387.00 169.00
C 387.75 172.80 391.46 174.11 391.00 169.00
C 391.75 172.80 395.46 174.11 395.00 169.00
C 395.75 172.80 399.46 174.11 399.00 169.00
C 399.73 172.44 402.84 174.00 403.00 170.00
C 404.06 172.65 407.09 173.63 407.00 170.00
C 408.06 172.65 411.09 173.63 411.00 170.00
C 412.06 172.65 415.09 173.63 415.00 170.00
C 416.06 172.65 419.09 173.63 419.00 170.00
C 420.06 172.65 423.09 173.63 423.00 170.00
C 424.06 172.65 427.09 173.63 427.00 170.00
C 428.06 172.65 431.09 173.63 431.00 170.00
C 432.06 172.65 435.09 173.63 435.00 170.00
C 436.06 172.65 439.09 173.63 439.00 170.00
C 442.99 173.60 448.09 171.70 452.77 172.58 C 457.45 173.45 461.72 169.88 467.00 173.00
C 467.00 157.12 467.74 140.07 468.00 125.00
C 467.79 122.31 467.41 119.71 467.00 117.00
C 463.85 116.34 465.93 120.30 464.00 121.00
C 464.46 115.89 460.76 117.20 460.00 121.00
C 460.46 115.89 456.75 117.20 456.00 121.00
C 456.46 115.89 452.75 117.20 452.00 121.00
C 452.46 115.89 448.76 117.20 448.00 121.00
C 448.46 115.89 444.75 117.20 444.00 121.00
C 444.46 115.89 440.75 117.20 440.00 121.00
C 440.46 115.89 436.75 117.20 436.00 121.00
C 432.40 116.07 431.91 117.61 424.92 117.86 C 417.94 118.11 408.16 117.90 400.92 117.86 C 393.69 117.82 395.15 116.69 389.31 117.28 C 383.46 117.88 383.09 116.72 377.31 117.28 C 371.52 117.85 372.22 116.38 365.31 117.28 C 358.39 118.19 348.54 118.35 341.77 117.42 C 335.00 116.50 334.96 118.56 329.77 117.42 C 324.59 116.29 322.63 119.05 317.92 118.14 C 313.22 117.23 309.96 115.64 304.77 114.58 C 299.58 113.52 293.43 108.29 286.22 107.78 C 279.01 107.27 266.93 107.84 260.92 109.86 C 254.91 111.88 250.31 108.86 242.74 107.60 C 235.17 106.33 224.41 106.95 218.10 109.09 C 211.79 111.24 206.85 117.43 203.00 113.00
C 197.71 120.46 194.63 118.60 188.31 118.72 C 181.98 118.84 182.16 118.07 173.92 118.14 C 165.69 118.21 153.95 118.01 145.77 117.42 C 137.59 116.84 138.52 117.74 131.31 117.28 C 124.09 116.82 125.14 117.89 116.92 117.86 C 108.71 117.83 96.80 117.89 88.77 118.58 C 80.74 119.26 79.99 117.37 74.31 118.72 C 68.62 120.06 64.23 115.86 59.92 118.14 C 55.62 120.42 48.36 113.83 45.00 119.00 Z"/>
</g>
<g fill="None" fill-opacity="0.0" stroke="#1499E5" stroke-opacity="1.00" stroke-width="0.3"><path d="
M 45.00 169.00 
C 45.00 181.67 45.00 194.33 45.00 207.00
C 45.00 223.67 45.00 240.33 45.00 257.00
C 45.93 254.87 49.65 255.43 48.00 259.00
C 49.94 256.84 52.82 253.26 52.00 259.00
C 53.94 256.84 56.82 253.26 56.00 259.00
C 57.94 256.84 60.82 253.26 60.00 259.00
C 61.94 256.84 64.82 253.26 64.00 259.00
C 65.94 256.84 68.82 253.26 68.00 259.00
C 69.94 256.84 72.82 253.26 72.00 259.00
C 73.94 256.84 76.82 253.26 76.00 259.00
C 77.94 256.84 80.82 253.26 80.00 259.00
C 81.94 256.84 84.82 253.26 84.00 259.00
C 86.74 255.96 87.72 254.31 89.00 259.00
C 90.56 256.54 91.69 254.07 93.00 259.00
C 94.56 256.54 95.69 254.07 97.00 259.00
C 98.56 256.54 99.69 254.07 101.00 259.00
C 102.56 256.54 103.69 254.07 105.00 259.00
C 106.56 256.54 107.69 254.07 109.00 259.00
C 110.56 256.54 111.69 254.07 113.00 259.00
C 114.56 256.54 115.69 254.07 117.00 259.00
C 118.56 256.54 119.69 254.07 121.00 259.00
C 122.56 256.54 123.69 254.07 125.00 259.00
C 126.56 256.54 127.69 254.07 129.00 259.00
C 129.45 256.95 131.05 257.48 132.00 255.00
C 130.83 259.45 136.09 259.62 135.00 255.00
C 135.75 258.80 139.46 260.11 139.00 255.00
C 139.75 258.80 143.46 260.11 143.00 255.00
C 143.75 258.80 147.46 260.11 147.00 255.00
C 147.75 258.80 151.46 260.11 151.00 255.00
C 151.75 258.80 155.46 260.11 155.00 255.00
C 155.75 258.80 159.46 260.11 159.00 255.00
C 159.75 258.80 163.46 260.11 163.00 255.00
C 163.75 258.80 167.46 260.11 167.00 255.00
C 168.15 257.24 168.48 257.51 171.00 258.00
C 178.71 248.94 186.00 232.99 194.75 223.75 C 203.51 214.52 207.68 205.10 218.30 193.30 C 228.93 181.50 219.84 162.70 216.00 151.00
C 209.72 138.57 217.25 124.90 230.01 122.01 C 242.76 119.12 251.61 129.86 257.00 140.00
C 259.28 123.74 281.93 114.81 293.00 128.00
C 295.38 130.50 295.81 131.88 297.00 135.00
C 299.59 141.77 298.06 146.03 296.00 153.00
C 292.37 165.29 279.60 181.29 290.30 192.70 C 301.00 204.10 304.44 213.40 313.26 223.74 C 322.07 234.09 327.98 246.81 338.00 253.00
C 334.99 256.65 345.72 259.01 346.00 263.00
C 351.06 260.96 355.47 262.35 360.75 262.60 C 366.04 262.86 370.41 260.10 375.00 264.00
C 377.19 262.27 377.76 260.10 379.00 264.00
C 381.19 262.27 381.76 260.10 383.00 264.00
C 385.19 262.27 385.76 260.10 387.00 264.00
C 389.19 262.27 389.76 260.10 391.00 264.00
C 393.19 262.27 393.76 260.10 395.00 264.00
C 397.19 262.27 397.76 260.10 399.00 264.00
C 401.19 262.27 401.76 260.10 403.00 264.00
C 405.19 262.27 405.76 260.10 407.00 264.00
C 409.19 262.27 409.76 260.10 411.00 264.00
C 413.19 262.27 413.76 260.10 415.00 264.00
C 417.19 262.27 417.76 260.10 419.00 264.00
C 421.19 262.27 421.76 260.10 423.00 264.00
C 425.19 262.27 425.76 260.10 427.00 264.00
C 429.19 262.27 429.76 260.10 431.00 264.00
C 433.19 262.27 433.76 260.10 435.00 264.00
C 437.19 262.27 437.76 260.10 439.00 264.00
C 441.19 262.27 441.76 260.10 443.00 264.00
C 445.19 262.27 445.76 260.10 447.00 264.00
C 449.19 262.27 449.76 260.10 451.00 264.00
C 453.19 262.27 453.76 260.10 455.00 264.00
C 457.19 262.27 457.76 260.10 459.00 264.00
C 461.19 262.27 461.76 260.10 463.00 264.00
C 465.30 262.86 465.03 260.03 467.00 263.00
C 467.00 244.33 467.00 225.67 467.00 207.00
C 467.00 195.67 467.00 184.33 467.00 173.00
C 461.72 169.88 457.45 173.45 452.77 172.58 C 448.09 171.70 442.99 173.60 439.00 170.00
C 439.09 173.63 436.06 172.65 435.00 170.00
C 435.09 173.63 432.06 172.65 431.00 170.00
C 431.09 173.63 428.06 172.65 427.00 170.00
C 427.09 173.63 424.06 172.65 423.00 170.00
C 423.09 173.63 420.06 172.65 419.00 170.00
C 419.09 173.63 416.06 172.65 415.00 170.00
C 415.09 173.63 412.06 172.65 411.00 170.00
C 411.09 173.63 408.06 172.65 407.00 170.00
C 407.09 173.63 404.06 172.65 403.00 170.00
C 402.84 174.00 399.73 172.44 399.00 169.00
C 399.46 174.11 395.75 172.80 395.00 169.00
C 395.46 174.11 391.75 172.80 391.00 169.00
C 391.46 174.11 387.75 172.80 387.00 169.00
C 387.46 174.11 383.75 172.80 383.00 169.00
C 383.46 174.11 379.75 172.80 379.00 169.00
C 379.46 174.11 375.75 172.80 375.00 169.00
C 375.46 174.11 371.75 172.80 371.00 169.00
C 371.46 174.11 367.75 172.80 367.00 169.00
C 367.46 174.11 363.75 172.80 363.00 169.00
C 363.56 174.51 361.72 170.10 360.00 173.00
C 360.82 167.26 357.94 170.84 356.00 173.00
C 356.82 167.26 353.94 170.84 352.00 173.00
C 352.82 167.26 349.94 170.84 348.00 173.00
C 348.82 167.26 345.94 170.84 344.00 173.00
C 344.82 167.26 341.94 170.84 340.00 173.00
C 340.82 167.26 337.94 170.84 336.00 173.00
C 336.82 167.26 333.94 170.84 332.00 173.00
C 332.82 167.26 329.94 170.84 328.00 173.00
C 328.82 167.26 325.94 170.84 324.00 173.00
C 324.82 167.26 321.94 170.84 320.00 173.00
C 320.82 167.26 317.94 170.84 316.00 173.00
C 316.82 167.26 313.94 170.84 312.00 173.00
C 312.45 170.56 310.17 162.85 308.00 167.00
C 307.78 160.18 309.69 155.85 310.00 149.00
C 313.69 155.79 310.01 143.97 314.00 143.00
C 308.46 136.53 306.24 125.90 298.70 120.30 C 291.16 114.70 281.27 111.42 272.70 113.69 C 264.13 115.97 255.24 120.43 246.22 115.78 C 237.21 111.13 228.72 113.39 220.22 116.22 C 211.73 119.06 207.53 130.15 202.00 133.00
C 201.18 136.68 202.04 141.71 199.00 144.00
C 200.23 147.25 200.82 147.43 204.00 149.00
C 200.94 157.41 205.22 164.95 201.00 173.00
C 199.72 168.32 198.74 169.96 196.00 173.00
C 196.82 167.26 193.94 170.84 192.00 173.00
C 192.82 167.26 189.94 170.84 188.00 173.00
C 189.43 167.94 184.42 169.70 185.00 173.00
C 184.35 168.89 181.20 168.95 181.00 173.00
C 180.35 168.89 177.20 168.95 177.00 173.00
C 176.35 168.89 173.20 168.95 173.00 173.00
C 172.35 168.89 169.20 168.95 169.00 173.00
C 168.35 168.89 165.20 168.95 165.00 173.00
C 164.35 168.89 161.20 168.95 161.00 173.00
C 160.35 168.89 157.20 168.95 157.00 173.00
C 156.35 168.89 153.20 168.95 153.00 173.00
C 152.35 168.89 149.20 168.95 149.00 173.00
C 147.50 168.62 145.43 168.61 144.00 173.00
C 144.46 167.89 140.75 169.20 140.00 173.00
C 140.46 167.89 136.75 169.20 136.00 173.00
C 136.46 167.89 132.75 169.20 132.00 173.00
C 132.46 167.89 128.75 169.20 128.00 173.00
C 128.46 167.89 124.75 169.20 124.00 173.00
C 124.46 167.89 120.75 169.20 120.00 173.00
C 120.46 167.89 116.75 169.20 116.00 173.00
C 116.46 167.89 112.75 169.20 112.00 173.00
C 112.46 167.89 108.75 169.20 108.00 173.00
C 108.46 167.89 104.75 169.20 104.00 173.00
C 100.57 167.86 99.69 169.89 92.92 169.86 C 86.16 169.83 75.85 170.29 68.92 169.86 C 62.00 169.43 61.06 171.02 56.92 169.86 C 52.79 168.70 46.37 172.94 45.00 169.00 Z"/>
</g>
<g fill="None" fill-opacity="0.0" stroke="#FBFDFD" stroke-opacity="1.00" stroke-width="0.3"><path d="
M 216.00 151.00 
C 221.20 161.29 228.11 170.54 233.00 181.00
C 224.45 192.89 218.43 207.10 210.00 219.00
C 204.67 227.80 200.98 235.42 195.70 244.70 C 190.42 253.98 185.79 259.51 181.08 270.08 C 176.37 280.65 170.11 287.93 157.00 286.00 C 143.89 284.07 130.12 285.67 117.93 286.93 C 105.74 288.19 103.91 306.53 107.00 315.00
C 111.45 319.54 123.46 314.88 130.00 316.00 C 136.54 317.12 145.77 316.16 153.00 317.00 C 160.23 317.84 169.34 316.62 177.00 317.00 C 184.66 317.38 193.14 316.83 201.00 317.00 C 208.86 317.17 217.04 316.92 225.00 317.00 C 232.96 317.08 240.97 316.96 249.00 317.00 C 257.03 317.04 264.87 316.98 273.00 317.00 C 281.13 317.02 289.82 316.99 298.00 317.00
C 298.00 302.94 290.81 286.03 274.00 286.00 C 257.19 285.98 236.19 286.00 219.00 286.00
C 216.33 286.00 213.67 286.00 211.00 286.00
C 208.00 286.00 205.00 286.00 202.00 286.00
C 232.78 232.87 263.08 181.43 293.00 128.00
C 281.93 114.81 259.28 123.74 257.00 140.00
C 251.61 129.86 242.76 119.12 230.01 122.01 C 217.25 124.90 209.72 138.57 216.00 151.00 Z"/>
</g>
<g fill="None" fill-opacity="0.0" stroke="#14A2E8" stroke-opacity="0.50" stroke-width="0.3"><path d="
M 44.00 207.00 
C 44.00 206.96 45.00 207.00 45.00 207.00
C 45.00 194.33 45.00 181.67 45.00 169.00
C 45.00 154.47 44.07 138.78 44.00 125.00
C 41.58 151.84 44.00 180.04 44.00 207.00 Z"/>
</g>
<g fill="None" fill-opacity="0.0" stroke="#14A2E7" stroke-opacity="0.50" stroke-width="0.3"><path d="
M 467.00 173.00 
C 467.00 184.33 467.00 195.67 467.00 207.00
C 467.00 206.96 468.00 207.00 468.00 207.00
C 468.00 179.96 470.14 151.95 468.00 125.00
C 467.74 140.07 467.00 157.12 467.00 173.00 Z"/>
</g>
<g fill="None" fill-opacity="0.0" stroke="#D9ECFD" stroke-opacity="1.00" stroke-width="0.3"><path d="
M 211.00 286.00 
C 215.52 283.77 216.61 273.36 220.30 269.30 C 224.00 265.24 226.60 257.84 229.92 252.92 C 233.23 248.00 236.57 241.13 239.77 235.77 C 242.97 230.41 246.28 224.75 249.26 219.26 C 252.23 213.76 255.87 208.30 258.77 202.77 C 261.67 197.24 265.89 191.37 268.77 185.77 C 271.65 180.17 275.47 174.88 278.30 169.30 C 281.14 163.73 285.43 158.41 287.77 152.77 C 290.11 147.13 296.94 141.20 297.00 135.00
C 295.81 131.88 295.38 130.50 293.00 128.00
C 263.08 181.43 232.78 232.87 202.00 286.00
C 205.00 286.00 208.00 286.00 211.00 286.00 Z"/>
</g>
<g fill="None" fill-opacity="0.0" stroke="#BDDFFD" stroke-opacity="1.00" stroke-width="0.3"><path d="
M 211.00 286.00 
C 213.67 286.00 216.33 286.00 219.00 286.00
C 237.36 250.16 260.80 216.19 280.00 181.00
C 282.11 170.87 291.58 161.93 296.00 153.00
C 298.06 146.03 299.59 141.77 297.00 135.00
C 296.94 141.20 290.11 147.13 287.77 152.77 C 285.43 158.41 281.14 163.73 278.30 169.30 C 275.47 174.88 271.65 180.17 268.77 185.77 C 265.89 191.37 261.67 197.24 258.77 202.77 C 255.87 208.30 252.23 213.76 249.26 219.26 C 246.28 224.75 242.97 230.41 239.77 235.77 C 236.57 241.13 233.23 248.00 229.92 252.92 C 226.60 257.84 224.00 265.24 220.30 269.30 C 216.61 273.36 215.52 283.77 211.00 286.00 Z"/>
</g>
<g fill="None" fill-opacity="0.0" stroke="#138ADF" stroke-opacity="1.00" stroke-width="0.3"><path d="
M 45.00 257.00 
C 45.00 279.00 45.00 301.00 45.00 323.00
C 45.71 325.04 55.88 323.77 58.77 324.58 C 61.66 325.38 68.54 322.55 72.25 323.81 C 75.97 325.07 82.94 321.80 86.00 325.00
C 88.03 323.23 86.53 319.52 87.00 317.00
C 88.47 321.42 88.42 318.76 91.00 321.00
C 90.30 313.20 93.87 305.38 94.00 297.00
C 100.20 295.81 104.68 285.22 112.75 282.61 C 120.82 279.99 132.80 276.32 143.00 278.00 C 153.20 279.68 165.86 277.14 172.25 270.25 C 178.63 263.36 178.71 252.08 185.30 246.30 C 191.90 240.52 194.63 233.76 201.00 227.00
C 199.83 231.49 195.95 234.80 194.00 239.00
C 201.58 235.12 203.05 224.12 210.00 219.00
C 218.43 207.10 224.45 192.89 233.00 181.00
C 228.11 170.54 221.20 161.29 216.00 151.00
C 219.84 162.70 228.93 181.50 218.30 193.30 C 207.68 205.10 203.51 214.52 194.75 223.75 C 186.00 232.99 178.71 248.94 171.00 258.00
C 168.48 257.51 168.15 257.24 167.00 255.00
C 167.46 260.11 163.75 258.80 163.00 255.00
C 163.46 260.11 159.75 258.80 159.00 255.00
C 159.46 260.11 155.75 258.80 155.00 255.00
C 155.46 260.11 151.75 258.80 151.00 255.00
C 151.46 260.11 147.75 258.80 147.00 255.00
C 147.46 260.11 143.75 258.80 143.00 255.00
C 143.46 260.11 139.75 258.80 139.00 255.00
C 139.46 260.11 135.75 258.80 135.00 255.00
C 136.09 259.62 130.83 259.45 132.00 255.00
C 131.05 257.48 129.45 256.95 129.00 259.00
C 127.69 254.07 126.56 256.54 125.00 259.00
C 123.69 254.07 122.56 256.54 121.00 259.00
C 119.69 254.07 118.56 256.54 117.00 259.00
C 115.69 254.07 114.56 256.54 113.00 259.00
C 111.69 254.07 110.56 256.54 109.00 259.00
C 107.69 254.07 106.56 256.54 105.00 259.00
C 103.69 254.07 102.56 256.54 101.00 259.00
C 99.69 254.07 98.56 256.54 97.00 259.00
C 95.69 254.07 94.56 256.54 93.00 259.00
C 91.69 254.07 90.56 256.54 89.00 259.00
C 87.72 254.31 86.74 255.96 84.00 259.00
C 84.82 253.26 81.94 256.84 80.00 259.00
C 80.82 253.26 77.94 256.84 76.00 259.00
C 76.82 253.26 73.94 256.84 72.00 259.00
C 72.82 253.26 69.94 256.84 68.00 259.00
C 68.82 253.26 65.94 256.84 64.00 259.00
C 64.82 253.26 61.94 256.84 60.00 259.00
C 60.82 253.26 57.94 256.84 56.00 259.00
C 56.82 253.26 53.94 256.84 52.00 259.00
C 52.82 253.26 49.94 256.84 48.00 259.00
C 49.65 255.43 45.93 254.87 45.00 257.00 Z"/>
</g>
<g fill="None" fill-opacity="0.0" stroke="#1389DF" stroke-opacity="1.00" stroke-width="0.3"><path d="
M 280.00 181.00 
C 279.47 183.55 280.61 185.62 280.00 188.00
C 280.88 187.26 282.00 186.51 283.00 186.00
C 292.33 201.99 301.06 218.63 311.00 234.00
C 317.46 241.86 323.87 250.20 329.00 259.00
C 328.28 247.96 334.34 260.54 338.25 264.75 C 342.16 268.96 345.67 275.02 352.22 275.78 C 358.78 276.53 364.76 276.35 371.03 276.02 C 377.30 275.69 386.24 275.69 393.00 278.00
C 391.71 282.34 395.82 277.05 399.77 283.23 C 403.72 289.41 405.78 285.14 410.75 293.25 C 415.73 301.35 415.39 312.17 420.00 321.00
C 422.17 316.85 424.45 324.56 424.00 327.00
C 425.94 324.84 428.82 321.26 428.00 327.00
C 429.94 324.84 432.82 321.26 432.00 327.00
C 433.94 324.84 436.82 321.26 436.00 327.00
C 437.94 324.84 440.82 321.26 440.00 327.00
C 441.94 324.84 444.82 321.26 444.00 327.00
C 446.74 323.96 447.72 322.32 449.00 327.00
C 450.56 324.54 451.69 322.07 453.00 327.00
C 454.56 324.54 455.69 322.07 457.00 327.00
C 458.56 324.54 459.69 322.07 461.00 327.00
C 461.45 324.95 463.05 325.48 464.00 323.00
C 463.66 327.78 464.38 325.18 467.00 326.00
C 467.00 305.00 467.00 284.00 467.00 263.00
C 465.03 260.03 465.30 262.86 463.00 264.00
C 461.76 260.10 461.19 262.27 459.00 264.00
C 457.76 260.10 457.19 262.27 455.00 264.00
C 453.76 260.10 453.19 262.27 451.00 264.00
C 449.76 260.10 449.19 262.27 447.00 264.00
C 445.76 260.10 445.19 262.27 443.00 264.00
C 441.76 260.10 441.19 262.27 439.00 264.00
C 437.76 260.10 437.19 262.27 435.00 264.00
C 433.76 260.10 433.19 262.27 431.00 264.00
C 429.76 260.10 429.19 262.27 427.00 264.00
C 425.76 260.10 425.19 262.27 423.00 264.00
C 421.76 260.10 421.19 262.27 419.00 264.00
C 417.76 260.10 417.19 262.27 415.00 264.00
C 413.76 260.10 413.19 262.27 411.00 264.00
C 409.76 260.10 409.19 262.27 407.00 264.00
C 405.76 260.10 405.19 262.27 403.00 264.00
C 401.76 260.10 401.19 262.27 399.00 264.00
C 397.76 260.10 397.19 262.27 395.00 264.00
C 393.76 260.10 393.19 262.27 391.00 264.00
C 389.76 260.10 389.19 262.27 387.00 264.00
C 385.76 260.10 385.19 262.27 383.00 264.00
C 381.76 260.10 381.19 262.27 379.00 264.00
C 377.76 260.10 377.19 262.27 375.00 264.00
C 370.41 260.10 366.04 262.86 360.75 262.60 C 355.47 262.35 351.06 260.96 346.00 263.00
C 345.72 259.01 334.99 256.65 338.00 253.00
C 327.98 246.81 322.07 234.09 313.26 223.74 C 304.44 213.40 301.00 204.10 290.30 192.70 C 279.60 181.29 292.37 165.29 296.00 153.00
C 291.58 161.93 282.11 170.87 280.00 181.00 Z"/>
</g>
<g fill="None" fill-opacity="0.0" stroke="#1379D8" stroke-opacity="1.00" stroke-width="0.3"><path d="
M 219.00 286.00 
C 236.19 286.00 257.19 285.98 274.00 286.00 C 290.81 286.03 298.00 302.94 298.00 317.00
C 298.00 318.63 298.19 320.39 298.00 322.00
C 297.84 323.31 298.12 324.68 298.00 326.00
C 296.33 326.00 294.67 326.00 293.00 326.00
C 282.09 330.03 269.54 330.43 257.00 330.00 C 244.46 329.57 226.82 330.49 215.00 330.00 C 203.18 329.51 182.02 327.01 184.00 341.00 C 185.98 354.99 181.60 360.24 175.70 369.70 C 169.79 379.16 164.08 387.35 153.78 389.78 C 143.47 392.21 132.09 387.55 127.25 376.75 C 122.40 365.95 127.94 354.31 132.97 342.97 C 138.01 331.63 120.33 329.53 115.00 324.00
C 114.10 323.06 112.88 321.89 112.00 321.00
C 109.96 318.92 108.05 317.89 107.00 315.00
C 103.91 306.53 105.74 288.19 117.93 286.93 C 130.12 285.67 143.89 284.07 157.00 286.00 C 170.11 287.93 176.37 280.65 181.08 270.08 C 185.79 259.51 190.42 253.98 195.70 244.70 C 200.98 235.42 204.67 227.80 210.00 219.00
C 203.05 224.12 201.58 235.12 194.00 239.00
C 195.95 234.80 199.83 231.49 201.00 227.00
C 194.63 233.76 191.90 240.52 185.30 246.30 C 178.71 252.08 178.63 263.36 172.25 270.25 C 165.86 277.14 153.20 279.68 143.00 278.00 C 132.80 276.32 120.82 279.99 112.75 282.61 C 104.68 285.22 100.20 295.81 94.00 297.00
C 93.87 305.38 90.30 313.20 91.00 321.00
C 88.42 318.76 88.47 321.42 87.00 317.00
C 86.53 319.52 88.03 323.23 86.00 325.00
C 82.94 321.80 75.97 325.07 72.25 323.81 C 68.54 322.55 61.66 325.38 58.77 324.58 C 55.88 323.77 45.71 325.04 45.00 323.00
C 45.00 342.31 45.54 361.70 45.00 381.00
C 46.56 385.49 56.14 379.88 59.31 381.28 C 62.47 382.69 69.65 381.59 73.77 381.42 C 77.89 381.26 83.33 382.75 87.92 382.14 C 92.52 381.53 97.66 382.32 102.31 382.72 C 106.95 383.11 111.95 380.09 117.00 383.00
C 118.63 379.95 115.76 377.31 116.00 374.00
C 121.24 369.48 118.03 358.87 124.00 353.00
C 120.88 365.47 122.14 381.39 132.25 389.75 C 142.35 398.12 155.40 398.23 164.77 390.76 C 174.14 383.30 179.58 368.86 185.00 359.00
C 185.44 365.27 183.69 371.97 184.00 379.00
C 181.74 375.16 182.95 380.33 180.00 380.00
C 182.72 386.82 177.11 389.05 174.00 395.00
C 172.41 391.38 170.17 396.78 170.00 399.00
C 181.66 397.34 192.69 397.71 203.92 398.14 C 215.16 398.57 226.49 396.89 237.77 397.42 C 249.05 397.96 259.92 397.52 271.31 397.28 C 282.69 397.05 293.65 398.40 304.92 397.86 C 316.19 397.32 327.39 397.72 339.00 399.00
C 338.84 393.95 336.44 390.73 338.00 384.00
C 329.77 375.67 326.71 364.62 325.00 354.00
C 335.95 369.01 338.82 386.40 358.25 390.20 C 377.68 394.00 397.59 373.05 386.00 353.00
C 389.98 354.61 389.65 361.10 391.00 365.00
C 395.40 361.47 393.60 374.05 393.00 377.00
C 396.36 376.02 396.25 375.52 395.00 381.00
C 407.92 382.90 418.84 381.19 430.92 381.86 C 443.01 382.53 454.91 380.23 467.00 383.00
C 465.90 364.15 467.00 344.89 467.00 326.00
C 464.38 325.18 463.66 327.78 464.00 323.00
C 463.05 325.48 461.45 324.95 461.00 327.00
C 459.69 322.07 458.56 324.54 457.00 327.00
C 455.69 322.07 454.56 324.54 453.00 327.00
C 451.69 322.07 450.56 324.54 449.00 327.00
C 447.72 322.32 446.74 323.96 444.00 327.00
C 444.82 321.26 441.94 324.84 440.00 327.00
C 440.82 321.26 437.94 324.84 436.00 327.00
C 436.82 321.26 433.94 324.84 432.00 327.00
C 432.82 321.26 429.94 324.84 428.00 327.00
C 428.82 321.26 425.94 324.84 424.00 327.00
C 424.45 324.56 422.17 316.85 420.00 321.00
C 415.39 312.17 415.73 301.35 410.75 293.25 C 405.78 285.14 403.72 289.41 399.77 283.23 C 395.82 277.05 391.71 282.34 393.00 278.00
C 386.24 275.69 377.30 275.69 371.03 276.02 C 364.76 276.35 358.78 276.53 352.22 275.78 C 345.67 275.02 342.16 268.96 338.25 264.75 C 334.34 260.54 328.28 247.96 329.00 259.00
C 323.87 250.20 317.46 241.86 311.00 234.00
C 320.73 251.09 330.78 268.62 340.00 286.00
C 354.19 286.37 372.19 285.50 386.00 286.00 C 399.81 286.50 407.98 301.07 404.00 313.00
C 402.74 316.47 399.73 318.76 397.00 321.00
C 393.73 323.68 391.02 324.52 387.00 326.00
C 370.29 332.17 378.48 343.91 381.00 356.00
C 392.08 379.76 361.07 396.27 346.00 376.00
C 343.22 372.27 341.36 367.97 339.00 364.00
C 334.31 356.10 330.11 348.59 325.25 340.75 C 320.39 332.92 316.63 324.20 311.69 316.31 C 306.75 308.42 302.98 301.01 298.08 292.92 C 293.17 284.84 289.30 277.17 284.08 268.92 C 278.86 260.67 276.85 254.13 270.25 245.75 C 263.65 237.38 267.16 223.76 267.78 213.78 C 268.40 203.80 277.76 196.75 280.00 188.00
C 280.61 185.62 279.47 183.55 280.00 181.00
C 260.80 216.19 237.36 250.16 219.00 286.00
M 261.00 233.00 
C 265.45 241.32 268.79 250.73 272.66 258.68 C 276.53 266.63 281.36 279.83 268.32 279.66 C 255.29 279.49 247.58 281.49 236.00 277.00
C 234.83 267.04 239.50 258.30 243.77 250.77 C 248.04 243.24 250.98 231.66 261.00 233.00 Z"/>
</g>
<g fill="None" fill-opacity="0.0" stroke="#FDFEFD" stroke-opacity="1.00" stroke-width="0.3"><path d="
M 280.00 188.00 
C 277.76 196.75 268.40 203.80 267.78 213.78 C 267.16 223.76 263.65 237.38 270.25 245.75 C 276.85 254.13 278.86 260.67 284.08 268.92 C 289.30 277.17 293.17 284.84 298.08 292.92 C 302.98 301.01 306.75 308.42 311.69 316.31 C 316.63 324.20 320.39 332.92 325.25 340.75 C 330.11 348.59 334.31 356.10 339.00 364.00
C 339.85 364.75 341.02 365.49 342.00 366.00
C 350.03 355.26 365.13 350.34 371.00 339.00
C 368.52 334.73 366.65 330.15 364.00 326.00
C 363.44 325.13 362.61 324.02 362.00 323.00
C 360.57 320.62 357.77 318.19 358.00 315.00
C 373.13 313.73 389.97 317.58 404.00 313.00
C 407.98 301.07 399.81 286.50 386.00 286.00 C 372.19 285.50 354.19 286.37 340.00 286.00
C 330.78 268.62 320.73 251.09 311.00 234.00
C 301.06 218.63 292.33 201.99 283.00 186.00
C 282.00 186.51 280.88 187.26 280.00 188.00 Z"/>
</g>
<g fill="None" fill-opacity="0.0" stroke="#1388E2" stroke-opacity="0.50" stroke-width="0.3"><path d="
M 44.00 387.00 
C 44.05 385.77 44.95 382.91 45.00 381.00
C 45.54 361.70 45.00 342.31 45.00 323.00
C 45.00 301.00 45.00 279.00 45.00 257.00
C 45.00 240.33 45.00 223.67 45.00 207.00
C 45.00 207.00 44.00 206.96 44.00 207.00
C 44.00 236.91 43.11 267.12 44.00 297.00 C 44.89 326.88 41.64 357.22 44.00 387.00 Z"/>
</g>
<g fill="None" fill-opacity="0.0" stroke="#1287E1" stroke-opacity="0.50" stroke-width="0.3"><path d="
M 467.00 263.00 
C 467.00 284.00 467.00 305.00 467.00 326.00
C 467.00 344.89 465.90 364.15 467.00 383.00
C 467.08 384.42 467.92 386.23 468.00 387.00
C 470.36 357.22 467.11 326.88 468.00 297.00 C 468.89 267.12 468.00 236.91 468.00 207.00
C 468.00 207.00 467.00 206.96 467.00 207.00
C 467.00 225.67 467.00 244.33 467.00 263.00 Z"/>
</g>
<g fill="None" fill-opacity="0.0" stroke="#1287D8" stroke-opacity="1.00" stroke-width="0.3"><path d="
M 261.00 233.00 
C 250.98 231.66 248.04 243.24 243.77 250.77 C 239.50 258.30 234.83 267.04 236.00 277.00
C 247.58 281.49 255.29 279.49 268.32 279.66 C 281.36 279.83 276.53 266.63 272.66 258.68 C 268.79 250.73 265.45 241.32 261.00 233.00 Z"/>
</g>
<g fill="None" fill-opacity="0.0" stroke="#D4EAFE" stroke-opacity="1.00" stroke-width="0.3"><path d="
M 362.00 323.00 
C 362.44 318.47 373.71 322.13 378.00 321.00 C 382.29 319.87 392.36 322.39 397.00 321.00
C 399.73 318.76 402.74 316.47 404.00 313.00
C 389.97 317.58 373.13 313.73 358.00 315.00
C 357.77 318.19 360.57 320.62 362.00 323.00 Z"/>
</g>
<g fill="None" fill-opacity="0.0" stroke="#CBE6FE" stroke-opacity="1.00" stroke-width="0.3"><path d="
M 112.00 321.00 
C 123.21 324.36 136.35 319.73 148.00 322.00 C 159.65 324.27 172.87 320.99 185.00 322.00 C 197.13 323.01 210.66 321.52 223.00 322.00 C 235.34 322.48 247.56 321.76 260.00 322.00 C 272.44 322.24 285.50 321.82 298.00 322.00
C 298.19 320.39 298.00 318.63 298.00 317.00
C 289.82 316.99 281.13 317.02 273.00 317.00 C 264.87 316.98 257.03 317.04 249.00 317.00 C 240.97 316.96 232.96 317.08 225.00 317.00 C 217.04 316.92 208.86 317.17 201.00 317.00 C 193.14 316.83 184.66 317.38 177.00 317.00 C 169.34 316.62 160.23 317.84 153.00 317.00 C 145.77 316.16 136.54 317.12 130.00 316.00 C 123.46 314.88 111.45 319.54 107.00 315.00
C 108.05 317.89 109.96 318.92 112.00 321.00 Z"/>
</g>
<g fill="None" fill-opacity="0.0" stroke="#A7D4FE" stroke-opacity="1.00" stroke-width="0.3"><path d="
M 115.00 324.00 
C 126.73 330.99 144.23 324.31 158.00 326.00 C 171.77 327.69 188.61 325.55 203.00 326.00 C 217.39 326.45 233.41 326.49 248.00 326.00 C 262.59 325.51 278.47 327.76 293.00 326.00
C 294.67 326.00 296.33 326.00 298.00 326.00
C 298.12 324.68 297.84 323.31 298.00 322.00
C 285.50 321.82 272.44 322.24 260.00 322.00 C 247.56 321.76 235.34 322.48 223.00 322.00 C 210.66 321.52 197.13 323.01 185.00 322.00 C 172.87 320.99 159.65 324.27 148.00 322.00 C 136.35 319.73 123.21 324.36 112.00 321.00
C 112.88 321.89 114.10 323.06 115.00 324.00 Z"/>
</g>
<g fill="None" fill-opacity="0.0" stroke="#A8D4FD" stroke-opacity="1.00" stroke-width="0.3"><path d="
M 362.00 323.00 
C 362.61 324.02 363.44 325.13 364.00 326.00
C 368.41 328.07 382.07 326.66 387.00 326.00
C 391.02 324.52 393.73 323.68 397.00 321.00
C 392.36 322.39 382.29 319.87 378.00 321.00 C 373.71 322.13 362.44 318.47 362.00 323.00 Z"/>
</g>
<g fill="None" fill-opacity="0.0" stroke="#146BBE" stroke-opacity="1.00" stroke-width="0.3"><path d="
M 293.00 326.00 
C 278.47 327.76 262.59 325.51 248.00 326.00 C 233.41 326.49 217.39 326.45 203.00 326.00 C 188.61 325.55 171.77 327.69 158.00 326.00 C 144.23 324.31 126.73 330.99 115.00 324.00
C 120.33 329.53 138.01 331.63 132.97 342.97 C 127.94 354.31 122.40 365.95 127.25 376.75 C 132.09 387.55 143.47 392.21 153.78 389.78 C 164.08 387.35 169.79 379.16 175.70 369.70 C 181.60 360.24 185.98 354.99 184.00 341.00 C 182.02 327.01 203.18 329.51 215.00 330.00 C 226.82 330.49 244.46 329.57 257.00 330.00 C 269.54 330.43 282.09 330.03 293.00 326.00
M 169.00 332.00 
C 171.47 333.09 173.84 334.39 176.00 336.00
C 189.15 345.78 177.27 355.17 172.23 366.23 C 167.19 377.29 158.20 388.27 145.00 385.00
C 143.69 384.68 142.97 384.38 142.00 384.00
C 132.06 380.06 126.61 370.87 129.98 359.98 C 133.35 349.08 139.12 346.48 143.30 335.30 C 147.49 324.13 159.38 327.75 169.00 332.00 Z"/>
</g>
<g fill="None" fill-opacity="0.0" stroke="#1569B7" stroke-opacity="1.00" stroke-width="0.3"><path d="
M 371.00 339.00 
C 373.58 343.43 376.33 348.62 379.00 353.00
C 379.56 353.91 380.47 354.86 381.00 356.00
C 378.48 343.91 370.29 332.17 387.00 326.00
C 382.07 326.66 368.41 328.07 364.00 326.00
C 366.65 330.15 368.52 334.73 371.00 339.00 Z"/>
</g>
<g fill="None" fill-opacity="0.0" stroke="#FAFCFC" stroke-opacity="1.00" stroke-width="0.3"><path d="
M 142.00 384.00 
C 140.73 381.50 148.07 374.30 148.92 370.92 C 149.77 367.55 155.13 362.17 156.30 358.30 C 157.48 354.44 162.68 349.74 163.77 345.77 C 164.86 341.80 172.14 335.99 169.00 332.00
C 159.38 327.75 147.49 324.13 143.30 335.30 C 139.12 346.48 133.35 349.08 129.98 359.98 C 126.61 370.87 132.06 380.06 142.00 384.00 Z"/>
</g>
<g fill="None" fill-opacity="0.0" stroke="#E4F1FD" stroke-opacity="1.00" stroke-width="0.3"><path d="
M 142.00 384.00 
C 142.97 384.38 143.69 384.68 145.00 385.00
C 153.41 385.70 155.67 376.62 158.78 370.78 C 161.88 364.93 167.24 358.88 169.26 353.26 C 171.27 347.64 179.99 340.74 176.00 336.00
C 173.84 334.39 171.47 333.09 169.00 332.00
C 172.14 335.99 164.86 341.80 163.77 345.77 C 162.68 349.74 157.48 354.44 156.30 358.30 C 155.13 362.17 149.77 367.55 148.92 370.92 C 148.07 374.30 140.73 381.50 142.00 384.00 Z"/>
</g>
<g fill="None" fill-opacity="0.0" stroke="#C2E0FC" stroke-opacity="1.00" stroke-width="0.3"><path d="
M 145.00 385.00 
C 158.20 388.27 167.19 377.29 172.23 366.23 C 177.27 355.17 189.15 345.78 176.00 336.00
C 179.99 340.74 171.27 347.64 169.26 353.26 C 167.24 358.88 161.88 364.93 158.78 370.78 C 155.67 376.62 153.41 385.70 145.00 385.00 Z"/>
</g>
<g fill="None" fill-opacity="0.0" stroke="#DBEDFD" stroke-opacity="1.00" stroke-width="0.3"><path d="
M 339.00 364.00 
C 341.36 367.97 343.22 372.27 346.00 376.00
C 347.05 377.11 348.80 378.13 350.00 379.00
C 357.76 369.10 371.12 363.55 379.00 353.00
C 376.33 348.62 373.58 343.43 371.00 339.00
C 365.13 350.34 350.03 355.26 342.00 366.00
C 341.02 365.49 339.85 364.75 339.00 364.00 Z"/>
</g>
<g fill="None" fill-opacity="0.0" stroke="#146FDA" stroke-opacity="0.99" stroke-width="0.3"><path d="
M 45.00 381.00 
C 44.95 382.91 44.05 385.77 44.00 387.00
C 46.41 417.30 62.12 443.17 90.92 458.08 C 119.73 472.98 163.39 467.65 198.00 468.00 C 232.61 468.35 280.44 468.28 315.00 468.00 C 349.56 467.72 393.22 472.93 421.77 457.77 C 450.32 442.61 465.61 417.11 468.00 387.00
C 467.92 386.23 467.08 384.42 467.00 383.00
C 454.91 380.23 443.01 382.53 430.92 381.86 C 418.84 381.19 407.92 382.90 395.00 381.00
C 396.25 375.52 396.36 376.02 393.00 377.00
C 393.60 374.05 395.40 361.47 391.00 365.00
C 389.65 361.10 389.98 354.61 386.00 353.00
C 397.59 373.05 377.68 394.00 358.25 390.20 C 338.82 386.40 335.95 369.01 325.00 354.00
C 326.71 364.62 329.77 375.67 338.00 384.00
C 336.44 390.73 338.84 393.95 339.00 399.00
C 327.39 397.72 316.19 397.32 304.92 397.86 C 293.65 398.40 282.69 397.05 271.31 397.28 C 259.92 397.52 249.05 397.96 237.77 397.42 C 226.49 396.89 215.16 398.57 203.92 398.14 C 192.69 397.71 181.66 397.34 170.00 399.00
C 170.17 396.78 172.41 391.38 174.00 395.00
C 177.11 389.05 182.72 386.82 180.00 380.00
C 182.95 380.33 181.74 375.16 184.00 379.00
C 183.69 371.97 185.44 365.27 185.00 359.00
C 179.58 368.86 174.14 383.30 164.77 390.76 C 155.40 398.23 142.35 398.12 132.25 389.75 C 122.14 381.39 120.88 365.47 124.00 353.00
C 118.03 358.87 121.24 369.48 116.00 374.00
C 115.76 377.31 118.63 379.95 117.00 383.00
C 111.95 380.09 106.95 383.11 102.31 382.72 C 97.66 382.32 92.52 381.53 87.92 382.14 C 83.33 382.75 77.89 381.26 73.77 381.42 C 69.65 381.59 62.47 382.69 59.31 381.28 C 56.14 379.88 46.56 385.49 45.00 381.00 Z"/>
</g>
<g fill="None" fill-opacity="0.0" stroke="#BADDFD" stroke-opacity="1.00" stroke-width="0.3"><path d="
M 346.00 376.00 
C 361.07 396.27 392.08 379.76 381.00 356.00
C 380.47 354.86 379.56 353.91 379.00 353.00
C 371.12 363.55 357.76 369.10 350.00 379.00
C 348.80 378.13 347.05 377.11 346.00 376.00 Z"/>
</g>
<g fill="#000000" fill-opacity="0.00" stroke="None">
<path d="
M 0.00 512.00 
L 512.00 512.00
L 512.00 0.00
L 0.00 0.00
L 0.00 512.00
M 467.00 117.00 
C 467.41 119.71 467.79 122.31 468.00 125.00
C 470.14 151.95 468.00 179.96 468.00 207.00
C 468.00 236.91 468.89 267.12 468.00 297.00 C 467.11 326.88 470.36 357.22 468.00 387.00
C 465.61 417.11 450.32 442.61 421.77 457.77 C 393.22 472.93 349.56 467.72 315.00 468.00 C 280.44 468.28 232.61 468.35 198.00 468.00 C 163.39 467.65 119.73 472.98 90.92 458.08 C 62.12 443.17 46.41 417.30 44.00 387.00
C 41.64 357.22 44.89 326.88 44.00 297.00 C 43.11 267.12 44.00 236.91 44.00 207.00
C 44.00 180.04 41.58 151.84 44.00 125.00
C 44.19 122.88 44.65 121.13 45.00 119.00
C 49.82 89.94 64.48 66.62 93.08 53.08 C 121.67 39.54 164.15 44.18 198.00 44.00 C 231.85 43.82 278.35 43.54 312.00 44.00 C 345.65 44.46 389.57 39.31 417.69 52.31 C 445.82 65.30 462.63 88.35 467.00 117.00 Z"/>
</g>
<g fill="#15B5EC" fill-opacity="0.99" stroke="None">
<path d="
M 45.00 119.00 
C 48.36 113.83 55.62 120.42 59.92 118.14 C 64.23 115.86 68.62 120.06 74.31 118.72 C 79.99 117.37 80.74 119.26 88.77 118.58 C 96.80 117.89 108.71 117.83 116.92 117.86 C 125.14 117.89 124.09 116.82 131.31 117.28 C 138.52 117.74 137.59 116.84 145.77 117.42 C 153.95 118.01 165.69 118.21 173.92 118.14 C 182.16 118.07 181.98 118.84 188.31 118.72 C 194.63 118.60 197.71 120.46 203.00 113.00
C 206.85 117.43 211.79 111.24 218.10 109.09 C 224.41 106.95 235.17 106.33 242.74 107.60 C 250.31 108.86 254.91 111.88 260.92 109.86 C 266.93 107.84 279.01 107.27 286.22 107.78 C 293.43 108.29 299.58 113.52 304.77 114.58 C 309.96 115.64 313.22 117.23 317.92 118.14 C 322.63 119.05 324.59 116.29 329.77 117.42 C 334.96 118.56 335.00 116.50 341.77 117.42 C 348.54 118.35 358.39 118.19 365.31 117.28 C 372.22 116.38 371.52 117.85 377.31 117.28 C 383.09 116.72 383.46 117.88 389.31 117.28 C 395.15 116.69 393.69 117.82 400.92 117.86 C 408.16 117.90 417.94 118.11 424.92 117.86 C 431.91 117.61 432.40 116.07 436.00 121.00
C 436.75 117.20 440.46 115.89 440.00 121.00
C 440.75 117.20 444.46 115.89 444.00 121.00
C 444.75 117.20 448.46 115.89 448.00 121.00
C 448.76 117.20 452.46 115.89 452.00 121.00
C 452.75 117.20 456.46 115.89 456.00 121.00
C 456.75 117.20 460.46 115.89 460.00 121.00
C 460.76 117.20 464.46 115.89 464.00 121.00
C 465.93 120.30 463.85 116.34 467.00 117.00
C 462.63 88.35 445.82 65.30 417.69 52.31 C 389.57 39.31 345.65 44.46 312.00 44.00 C 278.35 43.54 231.85 43.82 198.00 44.00 C 164.15 44.18 121.67 39.54 93.08 53.08 C 64.48 66.62 49.82 89.94 45.00 119.00 Z"/>
</g>
<g fill="#14A8E9" fill-opacity="1.00" stroke="None">
<path d="
M 45.00 119.00 
C 44.65 121.13 44.19 122.88 44.00 125.00
C 44.07 138.78 45.00 154.47 45.00 169.00
C 46.37 172.94 52.79 168.70 56.92 169.86 C 61.06 171.02 62.00 169.43 68.92 169.86 C 75.85 170.29 86.16 169.83 92.92 169.86 C 99.69 169.89 100.57 167.86 104.00 173.00
C 104.75 169.20 108.46 167.89 108.00 173.00
C 108.75 169.20 112.46 167.89 112.00 173.00
C 112.75 169.20 116.46 167.89 116.00 173.00
C 116.75 169.20 120.46 167.89 120.00 173.00
C 120.75 169.20 124.46 167.89 124.00 173.00
C 124.75 169.20 128.46 167.89 128.00 173.00
C 128.75 169.20 132.46 167.89 132.00 173.00
C 132.75 169.20 136.46 167.89 136.00 173.00
C 136.75 169.20 140.46 167.89 140.00 173.00
C 140.75 169.20 144.46 167.89 144.00 173.00
C 145.43 168.61 147.50 168.62 149.00 173.00
C 149.20 168.95 152.35 168.89 153.00 173.00
C 153.20 168.95 156.35 168.89 157.00 173.00
C 157.20 168.95 160.35 168.89 161.00 173.00
C 161.20 168.95 164.35 168.89 165.00 173.00
C 165.20 168.95 168.35 168.89 169.00 173.00
C 169.20 168.95 172.35 168.89 173.00 173.00
C 173.20 168.95 176.35 168.89 177.00 173.00
C 177.20 168.95 180.35 168.89 181.00 173.00
C 181.20 168.95 184.35 168.89 185.00 173.00
C 184.42 169.70 189.43 167.94 188.00 173.00
C 189.94 170.84 192.82 167.26 192.00 173.00
C 193.94 170.84 196.82 167.26 196.00 173.00
C 198.74 169.96 199.72 168.32 201.00 173.00
C 205.22 164.95 200.94 157.41 204.00 149.00
C 200.82 147.43 200.23 147.25 199.00 144.00
C 202.04 141.71 201.18 136.68 202.00 133.00
C 207.53 130.15 211.73 119.06 220.22 116.22 C 228.72 113.39 237.21 111.13 246.22 115.78 C 255.24 120.43 264.13 115.97 272.70 113.69 C 281.27 111.42 291.16 114.70 298.70 120.30 C 306.24 125.90 308.46 136.53 314.00 143.00
C 310.01 143.97 313.69 155.79 310.00 149.00
C 309.69 155.85 307.78 160.18 308.00 167.00
C 310.17 162.85 312.45 170.56 312.00 173.00
C 313.94 170.84 316.82 167.26 316.00 173.00
C 317.94 170.84 320.82 167.26 320.00 173.00
C 321.94 170.84 324.82 167.26 324.00 173.00
C 325.94 170.84 328.82 167.26 328.00 173.00
C 329.94 170.84 332.82 167.26 332.00 173.00
C 333.94 170.84 336.82 167.26 336.00 173.00
C 337.94 170.84 340.82 167.26 340.00 173.00
C 341.94 170.84 344.82 167.26 344.00 173.00
C 345.94 170.84 348.82 167.26 348.00 173.00
C 349.94 170.84 352.82 167.26 352.00 173.00
C 353.94 170.84 356.82 167.26 356.00 173.00
C 357.94 170.84 360.82 167.26 360.00 173.00
C 361.72 170.10 363.56 174.51 363.00 169.00
C 363.75 172.80 367.46 174.11 367.00 169.00
C 367.75 172.80 371.46 174.11 371.00 169.00
C 371.75 172.80 375.46 174.11 375.00 169.00
C 375.75 172.80 379.46 174.11 379.00 169.00
C 379.75 172.80 383.46 174.11 383.00 169.00
C 383.75 172.80 387.46 174.11 387.00 169.00
C 387.75 172.80 391.46 174.11 391.00 169.00
C 391.75 172.80 395.46 174.11 395.00 169.00
C 395.75 172.80 399.46 174.11 399.00 169.00
C 399.73 172.44 402.84 174.00 403.00 170.00
C 404.06 172.65 407.09 173.63 407.00 170.00
C 408.06 172.65 411.09 173.63 411.00 170.00
C 412.06 172.65 415.09 173.63 415.00 170.00
C 416.06 172.65 419.09 173.63 419.00 170.00
C 420.06 172.65 423.09 173.63 423.00 170.00
C 424.06 172.65 427.09 173.63 427.00 170.00
C 428.06 172.65 431.09 173.63 431.00 170.00
C 432.06 172.65 435.09 173.63 435.00 170.00
C 436.06 172.65 439.09 173.63 439.00 170.00
C 442.99 173.60 448.09 171.70 452.77 172.58 C 457.45 173.45 461.72 169.88 467.00 173.00
C 467.00 157.12 467.74 140.07 468.00 125.00
C 467.79 122.31 467.41 119.71 467.00 117.00
C 463.85 116.34 465.93 120.30 464.00 121.00
C 464.46 115.89 460.76 117.20 460.00 121.00
C 460.46 115.89 456.75 117.20 456.00 121.00
C 456.46 115.89 452.75 117.20 452.00 121.00
C 452.46 115.89 448.76 117.20 448.00 121.00
C 448.46 115.89 444.75 117.20 444.00 121.00
C 444.46 115.89 440.75 117.20 440.00 121.00
C 440.46 115.89 436.75 117.20 436.00 121.00
C 432.40 116.07 431.91 117.61 424.92 117.86 C 417.94 118.11 408.16 117.90 400.92 117.86 C 393.69 117.82 395.15 116.69 389.31 117.28 C 383.46 117.88 383.09 116.72 377.31 117.28 C 371.52 117.85 372.22 116.38 365.31 117.28 C 358.39 118.19 348.54 118.35 341.77 117.42 C 335.00 116.50 334.96 118.56 329.77 117.42 C 324.59 116.29 322.63 119.05 317.92 118.14 C 313.22 117.23 309.96 115.64 304.77 114.58 C 299.58 113.52 293.43 108.29 286.22 107.78 C 279.01 107.27 266.93 107.84 260.92 109.86 C 254.91 111.88 250.31 108.86 242.74 107.60 C 235.17 106.33 224.41 106.95 218.10 109.09 C 211.79 111.24 206.85 117.43 203.00 113.00
C 197.71 120.46 194.63 118.60 188.31 118.72 C 181.98 118.84 182.16 118.07 173.92 118.14 C 165.69 118.21 153.95 118.01 145.77 117.42 C 137.59 116.84 138.52 117.74 131.31 117.28 C 124.09 116.82 125.14 117.89 116.92 117.86 C 108.71 117.83 96.80 117.89 88.77 118.58 C 80.74 119.26 79.99 117.37 74.31 118.72 C 68.62 120.06 64.23 115.86 59.92 118.14 C 55.62 120.42 48.36 113.83 45.00 119.00 Z"/>
</g>
<g fill="#1499E5" fill-opacity="1.00" stroke="None">
<path d="
M 45.00 169.00 
C 45.00 181.67 45.00 194.33 45.00 207.00
C 45.00 223.67 45.00 240.33 45.00 257.00
C 45.93 254.87 49.65 255.43 48.00 259.00
C 49.94 256.84 52.82 253.26 52.00 259.00
C 53.94 256.84 56.82 253.26 56.00 259.00
C 57.94 256.84 60.82 253.26 60.00 259.00
C 61.94 256.84 64.82 253.26 64.00 259.00
C 65.94 256.84 68.82 253.26 68.00 259.00
C 69.94 256.84 72.82 253.26 72.00 259.00
C 73.94 256.84 76.82 253.26 76.00 259.00
C 77.94 256.84 80.82 253.26 80.00 259.00
C 81.94 256.84 84.82 253.26 84.00 259.00
C 86.74 255.96 87.72 254.31 89.00 259.00
C 90.56 256.54 91.69 254.07 93.00 259.00
C 94.56 256.54 95.69 254.07 97.00 259.00
C 98.56 256.54 99.69 254.07 101.00 259.00
C 102.56 256.54 103.69 254.07 105.00 259.00
C 106.56 256.54 107.69 254.07 109.00 259.00
C 110.56 256.54 111.69 254.07 113.00 259.00
C 114.56 256.54 115.69 254.07 117.00 259.00
C 118.56 256.54 119.69 254.07 121.00 259.00
C 122.56 256.54 123.69 254.07 125.00 259.00
C 126.56 256.54 127.69 254.07 129.00 259.00
C 129.45 256.95 131.05 257.48 132.00 255.00
C 130.83 259.45 136.09 259.62 135.00 255.00
C 135.75 258.80 139.46 260.11 139.00 255.00
C 139.75 258.80 143.46 260.11 143.00 255.00
C 143.75 258.80 147.46 260.11 147.00 255.00
C 147.75 258.80 151.46 260.11 151.00 255.00
C 151.75 258.80 155.46 260.11 155.00 255.00
C 155.75 258.80 159.46 260.11 159.00 255.00
C 159.75 258.80 163.46 260.11 163.00 255.00
C 163.75 258.80 167.46 260.11 167.00 255.00
C 168.15 257.24 168.48 257.51 171.00 258.00
C 178.71 248.94 186.00 232.99 194.75 223.75 C 203.51 214.52 207.68 205.10 218.30 193.30 C 228.93 181.50 219.84 162.70 216.00 151.00
C 209.72 138.57 217.25 124.90 230.01 122.01 C 242.76 119.12 251.61 129.86 257.00 140.00
C 259.28 123.74 281.93 114.81 293.00 128.00
C 295.38 130.50 295.81 131.88 297.00 135.00
C 299.59 141.77 298.06 146.03 296.00 153.00
C 292.37 165.29 279.60 181.29 290.30 192.70 C 301.00 204.10 304.44 213.40 313.26 223.74 C 322.07 234.09 327.98 246.81 338.00 253.00
C 334.99 256.65 345.72 259.01 346.00 263.00
C 351.06 260.96 355.47 262.35 360.75 262.60 C 366.04 262.86 370.41 260.10 375.00 264.00
C 377.19 262.27 377.76 260.10 379.00 264.00
C 381.19 262.27 381.76 260.10 383.00 264.00
C 385.19 262.27 385.76 260.10 387.00 264.00
C 389.19 262.27 389.76 260.10 391.00 264.00
C 393.19 262.27 393.76 260.10 395.00 264.00
C 397.19 262.27 397.76 260.10 399.00 264.00
C 401.19 262.27 401.76 260.10 403.00 264.00
C 405.19 262.27 405.76 260.10 407.00 264.00
C 409.19 262.27 409.76 260.10 411.00 264.00
C 413.19 262.27 413.76 260.10 415.00 264.00
C 417.19 262.27 417.76 260.10 419.00 264.00
C 421.19 262.27 421.76 260.10 423.00 264.00
C 425.19 262.27 425.76 260.10 427.00 264.00
C 429.19 262.27 429.76 260.10 431.00 264.00
C 433.19 262.27 433.76 260.10 435.00 264.00
C 437.19 262.27 437.76 260.10 439.00 264.00
C 441.19 262.27 441.76 260.10 443.00 264.00
C 445.19 262.27 445.76 260.10 447.00 264.00
C 449.19 262.27 449.76 260.10 451.00 264.00
C 453.19 262.27 453.76 260.10 455.00 264.00
C 457.19 262.27 457.76 260.10 459.00 264.00
C 461.19 262.27 461.76 260.10 463.00 264.00
C 465.30 262.86 465.03 260.03 467.00 263.00
C 467.00 244.33 467.00 225.67 467.00 207.00
C 467.00 195.67 467.00 184.33 467.00 173.00
C 461.72 169.88 457.45 173.45 452.77 172.58 C 448.09 171.70 442.99 173.60 439.00 170.00
C 439.09 173.63 436.06 172.65 435.00 170.00
C 435.09 173.63 432.06 172.65 431.00 170.00
C 431.09 173.63 428.06 172.65 427.00 170.00
C 427.09 173.63 424.06 172.65 423.00 170.00
C 423.09 173.63 420.06 172.65 419.00 170.00
C 419.09 173.63 416.06 172.65 415.00 170.00
C 415.09 173.63 412.06 172.65 411.00 170.00
C 411.09 173.63 408.06 172.65 407.00 170.00
C 407.09 173.63 404.06 172.65 403.00 170.00
C 402.84 174.00 399.73 172.44 399.00 169.00
C 399.46 174.11 395.75 172.80 395.00 169.00
C 395.46 174.11 391.75 172.80 391.00 169.00
C 391.46 174.11 387.75 172.80 387.00 169.00
C 387.46 174.11 383.75 172.80 383.00 169.00
C 383.46 174.11 379.75 172.80 379.00 169.00
C 379.46 174.11 375.75 172.80 375.00 169.00
C 375.46 174.11 371.75 172.80 371.00 169.00
C 371.46 174.11 367.75 172.80 367.00 169.00
C 367.46 174.11 363.75 172.80 363.00 169.00
C 363.56 174.51 361.72 170.10 360.00 173.00
C 360.82 167.26 357.94 170.84 356.00 173.00
C 356.82 167.26 353.94 170.84 352.00 173.00
C 352.82 167.26 349.94 170.84 348.00 173.00
C 348.82 167.26 345.94 170.84 344.00 173.00
C 344.82 167.26 341.94 170.84 340.00 173.00
C 340.82 167.26 337.94 170.84 336.00 173.00
C 336.82 167.26 333.94 170.84 332.00 173.00
C 332.82 167.26 329.94 170.84 328.00 173.00
C 328.82 167.26 325.94 170.84 324.00 173.00
C 324.82 167.26 321.94 170.84 320.00 173.00
C 320.82 167.26 317.94 170.84 316.00 173.00
C 316.82 167.26 313.94 170.84 312.00 173.00
C 312.45 170.56 310.17 162.85 308.00 167.00
C 307.78 160.18 309.69 155.85 310.00 149.00
C 313.69 155.79 310.01 143.97 314.00 143.00
C 308.46 136.53 306.24 125.90 298.70 120.30 C 291.16 114.70 281.27 111.42 272.70 113.69 C 264.13 115.97 255.24 120.43 246.22 115.78 C 237.21 111.13 228.72 113.39 220.22 116.22 C 211.73 119.06 207.53 130.15 202.00 133.00
C 201.18 136.68 202.04 141.71 199.00 144.00
C 200.23 147.25 200.82 147.43 204.00 149.00
C 200.94 157.41 205.22 164.95 201.00 173.00
C 199.72 168.32 198.74 169.96 196.00 173.00
C 196.82 167.26 193.94 170.84 192.00 173.00
C 192.82 167.26 189.94 170.84 188.00 173.00
C 189.43 167.94 184.42 169.70 185.00 173.00
C 184.35 168.89 181.20 168.95 181.00 173.00
C 180.35 168.89 177.20 168.95 177.00 173.00
C 176.35 168.89 173.20 168.95 173.00 173.00
C 172.35 168.89 169.20 168.95 169.00 173.00
C 168.35 168.89 165.20 168.95 165.00 173.00
C 164.35 168.89 161.20 168.95 161.00 173.00
C 160.35 168.89 157.20 168.95 157.00 173.00
C 156.35 168.89 153.20 168.95 153.00 173.00
C 152.35 168.89 149.20 168.95 149.00 173.00
C 147.50 168.62 145.43 168.61 144.00 173.00
C 144.46 167.89 140.75 169.20 140.00 173.00
C 140.46 167.89 136.75 169.20 136.00 173.00
C 136.46 167.89 132.75 169.20 132.00 173.00
C 132.46 167.89 128.75 169.20 128.00 173.00
C 128.46 167.89 124.75 169.20 124.00 173.00
C 124.46 167.89 120.75 169.20 120.00 173.00
C 120.46 167.89 116.75 169.20 116.00 173.00
C 116.46 167.89 112.75 169.20 112.00 173.00
C 112.46 167.89 108.75 169.20 108.00 173.00
C 108.46 167.89 104.75 169.20 104.00 173.00
C 100.57 167.86 99.69 169.89 92.92 169.86 C 86.16 169.83 75.85 170.29 68.92 169.86 C 62.00 169.43 61.06 171.02 56.92 169.86 C 52.79 168.70 46.37 172.94 45.00 169.00 Z"/>
</g>
<g fill="#FBFDFD" fill-opacity="1.00" stroke="None">
<path d="
M 216.00 151.00 
C 221.20 161.29 228.11 170.54 233.00 181.00
C 224.45 192.89 218.43 207.10 210.00 219.00
C 204.67 227.80 200.98 235.42 195.70 244.70 C 190.42 253.98 185.79 259.51 181.08 270.08 C 176.37 280.65 170.11 287.93 157.00 286.00 C 143.89 284.07 130.12 285.67 117.93 286.93 C 105.74 288.19 103.91 306.53 107.00 315.00
C 111.45 319.54 123.46 314.88 130.00 316.00 C 136.54 317.12 145.77 316.16 153.00 317.00 C 160.23 317.84 169.34 316.62 177.00 317.00 C 184.66 317.38 193.14 316.83 201.00 317.00 C 208.86 317.17 217.04 316.92 225.00 317.00 C 232.96 317.08 240.97 316.96 249.00 317.00 C 257.03 317.04 264.87 316.98 273.00 317.00 C 281.13 317.02 289.82 316.99 298.00 317.00
C 298.00 302.94 290.81 286.03 274.00 286.00 C 257.19 285.98 236.19 286.00 219.00 286.00
C 216.33 286.00 213.67 286.00 211.00 286.00
C 208.00 286.00 205.00 286.00 202.00 286.00
C 232.78 232.87 263.08 181.43 293.00 128.00
C 281.93 114.81 259.28 123.74 257.00 140.00
C 251.61 129.86 242.76 119.12 230.01 122.01 C 217.25 124.90 209.72 138.57 216.00 151.00 Z"/>
</g>
<g fill="#14A2E8" fill-opacity="0.50" stroke="None">
<path d="
M 44.00 207.00 
C 44.00 206.96 45.00 207.00 45.00 207.00
C 45.00 194.33 45.00 181.67 45.00 169.00
C 45.00 154.47 44.07 138.78 44.00 125.00
C 41.58 151.84 44.00 180.04 44.00 207.00 Z"/>
</g>
<g fill="#14A2E7" fill-opacity="0.50" stroke="None">
<path d="
M 467.00 173.00 
C 467.00 184.33 467.00 195.67 467.00 207.00
C 467.00 206.96 468.00 207.00 468.00 207.00
C 468.00 179.96 470.14 151.95 468.00 125.00
C 467.74 140.07 467.00 157.12 467.00 173.00 Z"/>
</g>
<g fill="#D9ECFD" fill-opacity="1.00" stroke="None">
<path d="
M 211.00 286.00 
C 215.52 283.77 216.61 273.36 220.30 269.30 C 224.00 265.24 226.60 257.84 229.92 252.92 C 233.23 248.00 236.57 241.13 239.77 235.77 C 242.97 230.41 246.28 224.75 249.26 219.26 C 252.23 213.76 255.87 208.30 258.77 202.77 C 261.67 197.24 265.89 191.37 268.77 185.77 C 271.65 180.17 275.47 174.88 278.30 169.30 C 281.14 163.73 285.43 158.41 287.77 152.77 C 290.11 147.13 296.94 141.20 297.00 135.00
C 295.81 131.88 295.38 130.50 293.00 128.00
C 263.08 181.43 232.78 232.87 202.00 286.00
C 205.00 286.00 208.00 286.00 211.00 286.00 Z"/>
</g>
<g fill="#BDDFFD" fill-opacity="1.00" stroke="None">
<path d="
M 211.00 286.00 
C 213.67 286.00 216.33 286.00 219.00 286.00
C 237.36 250.16 260.80 216.19 280.00 181.00
C 282.11 170.87 291.58 161.93 296.00 153.00
C 298.06 146.03 299.59 141.77 297.00 135.00
C 296.94 141.20 290.11 147.13 287.77 152.77 C 285.43 158.41 281.14 163.73 278.30 169.30 C 275.47 174.88 271.65 180.17 268.77 185.77 C 265.89 191.37 261.67 197.24 258.77 202.77 C 255.87 208.30 252.23 213.76 249.26 219.26 C 246.28 224.75 242.97 230.41 239.77 235.77 C 236.57 241.13 233.23 248.00 229.92 252.92 C 226.60 257.84 224.00 265.24 220.30 269.30 C 216.61 273.36 215.52 283.77 211.00 286.00 Z"/>
</g>
<g fill="#138ADF" fill-opacity="1.00" stroke="None">
<path d="
M 45.00 257.00 
C 45.00 279.00 45.00 301.00 45.00 323.00
C 45.71 325.04 55.88 323.77 58.77 324.58 C 61.66 325.38 68.54 322.55 72.25 323.81 C 75.97 325.07 82.94 321.80 86.00 325.00
C 88.03 323.23 86.53 319.52 87.00 317.00
C 88.47 321.42 88.42 318.76 91.00 321.00
C 90.30 313.20 93.87 305.38 94.00 297.00
C 100.20 295.81 104.68 285.22 112.75 282.61 C 120.82 279.99 132.80 276.32 143.00 278.00 C 153.20 279.68 165.86 277.14 172.25 270.25 C 178.63 263.36 178.71 252.08 185.30 246.30 C 191.90 240.52 194.63 233.76 201.00 227.00
C 199.83 231.49 195.95 234.80 194.00 239.00
C 201.58 235.12 203.05 224.12 210.00 219.00
C 218.43 207.10 224.45 192.89 233.00 181.00
C 228.11 170.54 221.20 161.29 216.00 151.00
C 219.84 162.70 228.93 181.50 218.30 193.30 C 207.68 205.10 203.51 214.52 194.75 223.75 C 186.00 232.99 178.71 248.94 171.00 258.00
C 168.48 257.51 168.15 257.24 167.00 255.00
C 167.46 260.11 163.75 258.80 163.00 255.00
C 163.46 260.11 159.75 258.80 159.00 255.00
C 159.46 260.11 155.75 258.80 155.00 255.00
C 155.46 260.11 151.75 258.80 151.00 255.00
C 151.46 260.11 147.75 258.80 147.00 255.00
C 147.46 260.11 143.75 258.80 143.00 255.00
C 143.46 260.11 139.75 258.80 139.00 255.00
C 139.46 260.11 135.75 258.80 135.00 255.00
C 136.09 259.62 130.83 259.45 132.00 255.00
C 131.05 257.48 129.45 256.95 129.00 259.00
C 127.69 254.07 126.56 256.54 125.00 259.00
C 123.69 254.07 122.56 256.54 121.00 259.00
C 119.69 254.07 118.56 256.54 117.00 259.00
C 115.69 254.07 114.56 256.54 113.00 259.00
C 111.69 254.07 110.56 256.54 109.00 259.00
C 107.69 254.07 106.56 256.54 105.00 259.00
C 103.69 254.07 102.56 256.54 101.00 259.00
C 99.69 254.07 98.56 256.54 97.00 259.00
C 95.69 254.07 94.56 256.54 93.00 259.00
C 91.69 254.07 90.56 256.54 89.00 259.00
C 87.72 254.31 86.74 255.96 84.00 259.00
C 84.82 253.26 81.94 256.84 80.00 259.00
C 80.82 253.26 77.94 256.84 76.00 259.00
C 76.82 253.26 73.94 256.84 72.00 259.00
C 72.82 253.26 69.94 256.84 68.00 259.00
C 68.82 253.26 65.94 256.84 64.00 259.00
C 64.82 253.26 61.94 256.84 60.00 259.00
C 60.82 253.26 57.94 256.84 56.00 259.00
C 56.82 253.26 53.94 256.84 52.00 259.00
C 52.82 253.26 49.94 256.84 48.00 259.00
C 49.65 255.43 45.93 254.87 45.00 257.00 Z"/>
</g>
<g fill="#1389DF" fill-opacity="1.00" stroke="None">
<path d="
M 280.00 181.00 
C 279.47 183.55 280.61 185.62 280.00 188.00
C 280.88 187.26 282.00 186.51 283.00 186.00
C 292.33 201.99 301.06 218.63 311.00 234.00
C 317.46 241.86 323.87 250.20 329.00 259.00
C 328.28 247.96 334.34 260.54 338.25 264.75 C 342.16 268.96 345.67 275.02 352.22 275.78 C 358.78 276.53 364.76 276.35 371.03 276.02 C 377.30 275.69 386.24 275.69 393.00 278.00
C 391.71 282.34 395.82 277.05 399.77 283.23 C 403.72 289.41 405.78 285.14 410.75 293.25 C 415.73 301.35 415.39 312.17 420.00 321.00
C 422.17 316.85 424.45 324.56 424.00 327.00
C 425.94 324.84 428.82 321.26 428.00 327.00
C 429.94 324.84 432.82 321.26 432.00 327.00
C 433.94 324.84 436.82 321.26 436.00 327.00
C 437.94 324.84 440.82 321.26 440.00 327.00
C 441.94 324.84 444.82 321.26 444.00 327.00
C 446.74 323.96 447.72 322.32 449.00 327.00
C 450.56 324.54 451.69 322.07 453.00 327.00
C 454.56 324.54 455.69 322.07 457.00 327.00
C 458.56 324.54 459.69 322.07 461.00 327.00
C 461.45 324.95 463.05 325.48 464.00 323.00
C 463.66 327.78 464.38 325.18 467.00 326.00
C 467.00 305.00 467.00 284.00 467.00 263.00
C 465.03 260.03 465.30 262.86 463.00 264.00
C 461.76 260.10 461.19 262.27 459.00 264.00
C 457.76 260.10 457.19 262.27 455.00 264.00
C 453.76 260.10 453.19 262.27 451.00 264.00
C 449.76 260.10 449.19 262.27 447.00 264.00
C 445.76 260.10 445.19 262.27 443.00 264.00
C 441.76 260.10 441.19 262.27 439.00 264.00
C 437.76 260.10 437.19 262.27 435.00 264.00
C 433.76 260.10 433.19 262.27 431.00 264.00
C 429.76 260.10 429.19 262.27 427.00 264.00
C 425.76 260.10 425.19 262.27 423.00 264.00
C 421.76 260.10 421.19 262.27 419.00 264.00
C 417.76 260.10 417.19 262.27 415.00 264.00
C 413.76 260.10 413.19 262.27 411.00 264.00
C 409.76 260.10 409.19 262.27 407.00 264.00
C 405.76 260.10 405.19 262.27 403.00 264.00
C 401.76 260.10 401.19 262.27 399.00 264.00
C 397.76 260.10 397.19 262.27 395.00 264.00
C 393.76 260.10 393.19 262.27 391.00 264.00
C 389.76 260.10 389.19 262.27 387.00 264.00
C 385.76 260.10 385.19 262.27 383.00 264.00
C 381.76 260.10 381.19 262.27 379.00 264.00
C 377.76 260.10 377.19 262.27 375.00 264.00
C 370.41 260.10 366.04 262.86 360.75 262.60 C 355.47 262.35 351.06 260.96 346.00 263.00
C 345.72 259.01 334.99 256.65 338.00 253.00
C 327.98 246.81 322.07 234.09 313.26 223.74 C 304.44 213.40 301.00 204.10 290.30 192.70 C 279.60 181.29 292.37 165.29 296.00 153.00
C 291.58 161.93 282.11 170.87 280.00 181.00 Z"/>
</g>
<g fill="#1379D8" fill-opacity="1.00" stroke="None">
<path d="
M 219.00 286.00 
C 236.19 286.00 257.19 285.98 274.00 286.00 C 290.81 286.03 298.00 302.94 298.00 317.00
C 298.00 318.63 298.19 320.39 298.00 322.00
C 297.84 323.31 298.12 324.68 298.00 326.00
C 296.33 326.00 294.67 326.00 293.00 326.00
C 282.09 330.03 269.54 330.43 257.00 330.00 C 244.46 329.57 226.82 330.49 215.00 330.00 C 203.18 329.51 182.02 327.01 184.00 341.00 C 185.98 354.99 181.60 360.24 175.70 369.70 C 169.79 379.16 164.08 387.35 153.78 389.78 C 143.47 392.21 132.09 387.55 127.25 376.75 C 122.40 365.95 127.94 354.31 132.97 342.97 C 138.01 331.63 120.33 329.53 115.00 324.00
C 114.10 323.06 112.88 321.89 112.00 321.00
C 109.96 318.92 108.05 317.89 107.00 315.00
C 103.91 306.53 105.74 288.19 117.93 286.93 C 130.12 285.67 143.89 284.07 157.00 286.00 C 170.11 287.93 176.37 280.65 181.08 270.08 C 185.79 259.51 190.42 253.98 195.70 244.70 C 200.98 235.42 204.67 227.80 210.00 219.00
C 203.05 224.12 201.58 235.12 194.00 239.00
C 195.95 234.80 199.83 231.49 201.00 227.00
C 194.63 233.76 191.90 240.52 185.30 246.30 C 178.71 252.08 178.63 263.36 172.25 270.25 C 165.86 277.14 153.20 279.68 143.00 278.00 C 132.80 276.32 120.82 279.99 112.75 282.61 C 104.68 285.22 100.20 295.81 94.00 297.00
C 93.87 305.38 90.30 313.20 91.00 321.00
C 88.42 318.76 88.47 321.42 87.00 317.00
C 86.53 319.52 88.03 323.23 86.00 325.00
C 82.94 321.80 75.97 325.07 72.25 323.81 C 68.54 322.55 61.66 325.38 58.77 324.58 C 55.88 323.77 45.71 325.04 45.00 323.00
C 45.00 342.31 45.54 361.70 45.00 381.00
C 46.56 385.49 56.14 379.88 59.31 381.28 C 62.47 382.69 69.65 381.59 73.77 381.42 C 77.89 381.26 83.33 382.75 87.92 382.14 C 92.52 381.53 97.66 382.32 102.31 382.72 C 106.95 383.11 111.95 380.09 117.00 383.00
C 118.63 379.95 115.76 377.31 116.00 374.00
C 121.24 369.48 118.03 358.87 124.00 353.00
C 120.88 365.47 122.14 381.39 132.25 389.75 C 142.35 398.12 155.40 398.23 164.77 390.76 C 174.14 383.30 179.58 368.86 185.00 359.00
C 185.44 365.27 183.69 371.97 184.00 379.00
C 181.74 375.16 182.95 380.33 180.00 380.00
C 182.72 386.82 177.11 389.05 174.00 395.00
C 172.41 391.38 170.17 396.78 170.00 399.00
C 181.66 397.34 192.69 397.71 203.92 398.14 C 215.16 398.57 226.49 396.89 237.77 397.42 C 249.05 397.96 259.92 397.52 271.31 397.28 C 282.69 397.05 293.65 398.40 304.92 397.86 C 316.19 397.32 327.39 397.72 339.00 399.00
C 338.84 393.95 336.44 390.73 338.00 384.00
C 329.77 375.67 326.71 364.62 325.00 354.00
C 335.95 369.01 338.82 386.40 358.25 390.20 C 377.68 394.00 397.59 373.05 386.00 353.00
C 389.98 354.61 389.65 361.10 391.00 365.00
C 395.40 361.47 393.60 374.05 393.00 377.00
C 396.36 376.02 396.25 375.52 395.00 381.00
C 407.92 382.90 418.84 381.19 430.92 381.86 C 443.01 382.53 454.91 380.23 467.00 383.00
C 465.90 364.15 467.00 344.89 467.00 326.00
C 464.38 325.18 463.66 327.78 464.00 323.00
C 463.05 325.48 461.45 324.95 461.00 327.00
C 459.69 322.07 458.56 324.54 457.00 327.00
C 455.69 322.07 454.56 324.54 453.00 327.00
C 451.69 322.07 450.56 324.54 449.00 327.00
C 447.72 322.32 446.74 323.96 444.00 327.00
C 444.82 321.26 441.94 324.84 440.00 327.00
C 440.82 321.26 437.94 324.84 436.00 327.00
C 436.82 321.26 433.94 324.84 432.00 327.00
C 432.82 321.26 429.94 324.84 428.00 327.00
C 428.82 321.26 425.94 324.84 424.00 327.00
C 424.45 324.56 422.17 316.85 420.00 321.00
C 415.39 312.17 415.73 301.35 410.75 293.25 C 405.78 285.14 403.72 289.41 399.77 283.23 C 395.82 277.05 391.71 282.34 393.00 278.00
C 386.24 275.69 377.30 275.69 371.03 276.02 C 364.76 276.35 358.78 276.53 352.22 275.78 C 345.67 275.02 342.16 268.96 338.25 264.75 C 334.34 260.54 328.28 247.96 329.00 259.00
C 323.87 250.20 317.46 241.86 311.00 234.00
C 320.73 251.09 330.78 268.62 340.00 286.00
C 354.19 286.37 372.19 285.50 386.00 286.00 C 399.81 286.50 407.98 301.07 404.00 313.00
C 402.74 316.47 399.73 318.76 397.00 321.00
C 393.73 323.68 391.02 324.52 387.00 326.00
C 370.29 332.17 378.48 343.91 381.00 356.00
C 392.08 379.76 361.07 396.27 346.00 376.00
C 343.22 372.27 341.36 367.97 339.00 364.00
C 334.31 356.10 330.11 348.59 325.25 340.75 C 320.39 332.92 316.63 324.20 311.69 316.31 C 306.75 308.42 302.98 301.01 298.08 292.92 C 293.17 284.84 289.30 277.17 284.08 268.92 C 278.86 260.67 276.85 254.13 270.25 245.75 C 263.65 237.38 267.16 223.76 267.78 213.78 C 268.40 203.80 277.76 196.75 280.00 188.00
C 280.61 185.62 279.47 183.55 280.00 181.00
C 260.80 216.19 237.36 250.16 219.00 286.00
M 261.00 233.00 
C 265.45 241.32 268.79 250.73 272.66 258.68 C 276.53 266.63 281.36 279.83 268.32 279.66 C 255.29 279.49 247.58 281.49 236.00 277.00
C 234.83 267.04 239.50 258.30 243.77 250.77 C 248.04 243.24 250.98 231.66 261.00 233.00 Z"/>
</g>
<g fill="#FDFEFD" fill-opacity="1.00" stroke="None">
<path d="
M 280.00 188.00 
C 277.76 196.75 268.40 203.80 267.78 213.78 C 267.16 223.76 263.65 237.38 270.25 245.75 C 276.85 254.13 278.86 260.67 284.08 268.92 C 289.30 277.17 293.17 284.84 298.08 292.92 C 302.98 301.01 306.75 308.42 311.69 316.31 C 316.63 324.20 320.39 332.92 325.25 340.75 C 330.11 348.59 334.31 356.10 339.00 364.00
C 339.85 364.75 341.02 365.49 342.00 366.00
C 350.03 355.26 365.13 350.34 371.00 339.00
C 368.52 334.73 366.65 330.15 364.00 326.00
C 363.44 325.13 362.61 324.02 362.00 323.00
C 360.57 320.62 357.77 318.19 358.00 315.00
C 373.13 313.73 389.97 317.58 404.00 313.00
C 407.98 301.07 399.81 286.50 386.00 286.00 C 372.19 285.50 354.19 286.37 340.00 286.00
C 330.78 268.62 320.73 251.09 311.00 234.00
C 301.06 218.63 292.33 201.99 283.00 186.00
C 282.00 186.51 280.88 187.26 280.00 188.00 Z"/>
</g>
<g fill="#1388E2" fill-opacity="0.50" stroke="None">
<path d="
M 44.00 387.00 
C 44.05 385.77 44.95 382.91 45.00 381.00
C 45.54 361.70 45.00 342.31 45.00 323.00
C 45.00 301.00 45.00 279.00 45.00 257.00
C 45.00 240.33 45.00 223.67 45.00 207.00
C 45.00 207.00 44.00 206.96 44.00 207.00
C 44.00 236.91 43.11 267.12 44.00 297.00 C 44.89 326.88 41.64 357.22 44.00 387.00 Z"/>
</g>
<g fill="#1287E1" fill-opacity="0.50" stroke="None">
<path d="
M 467.00 263.00 
C 467.00 284.00 467.00 305.00 467.00 326.00
C 467.00 344.89 465.90 364.15 467.00 383.00
C 467.08 384.42 467.92 386.23 468.00 387.00
C 470.36 357.22 467.11 326.88 468.00 297.00 C 468.89 267.12 468.00 236.91 468.00 207.00
C 468.00 207.00 467.00 206.96 467.00 207.00
C 467.00 225.67 467.00 244.33 467.00 263.00 Z"/>
</g>
<g fill="#1287D8" fill-opacity="1.00" stroke="None">
<path d="
M 261.00 233.00 
C 250.98 231.66 248.04 243.24 243.77 250.77 C 239.50 258.30 234.83 267.04 236.00 277.00
C 247.58 281.49 255.29 279.49 268.32 279.66 C 281.36 279.83 276.53 266.63 272.66 258.68 C 268.79 250.73 265.45 241.32 261.00 233.00 Z"/>
</g>
<g fill="#D4EAFE" fill-opacity="1.00" stroke="None">
<path d="
M 362.00 323.00 
C 362.44 318.47 373.71 322.13 378.00 321.00 C 382.29 319.87 392.36 322.39 397.00 321.00
C 399.73 318.76 402.74 316.47 404.00 313.00
C 389.97 317.58 373.13 313.73 358.00 315.00
C 357.77 318.19 360.57 320.62 362.00 323.00 Z"/>
</g>
<g fill="#CBE6FE" fill-opacity="1.00" stroke="None">
<path d="
M 112.00 321.00 
C 123.21 324.36 136.35 319.73 148.00 322.00 C 159.65 324.27 172.87 320.99 185.00 322.00 C 197.13 323.01 210.66 321.52 223.00 322.00 C 235.34 322.48 247.56 321.76 260.00 322.00 C 272.44 322.24 285.50 321.82 298.00 322.00
C 298.19 320.39 298.00 318.63 298.00 317.00
C 289.82 316.99 281.13 317.02 273.00 317.00 C 264.87 316.98 257.03 317.04 249.00 317.00 C 240.97 316.96 232.96 317.08 225.00 317.00 C 217.04 316.92 208.86 317.17 201.00 317.00 C 193.14 316.83 184.66 317.38 177.00 317.00 C 169.34 316.62 160.23 317.84 153.00 317.00 C 145.77 316.16 136.54 317.12 130.00 316.00 C 123.46 314.88 111.45 319.54 107.00 315.00
C 108.05 317.89 109.96 318.92 112.00 321.00 Z"/>
</g>
<g fill="#A7D4FE" fill-opacity="1.00" stroke="None">
<path d="
M 115.00 324.00 
C 126.73 330.99 144.23 324.31 158.00 326.00 C 171.77 327.69 188.61 325.55 203.00 326.00 C 217.39 326.45 233.41 326.49 248.00 326.00 C 262.59 325.51 278.47 327.76 293.00 326.00
C 294.67 326.00 296.33 326.00 298.00 326.00
C 298.12 324.68 297.84 323.31 298.00 322.00
C 285.50 321.82 272.44 322.24 260.00 322.00 C 247.56 321.76 235.34 322.48 223.00 322.00 C 210.66 321.52 197.13 323.01 185.00 322.00 C 172.87 320.99 159.65 324.27 148.00 322.00 C 136.35 319.73 123.21 324.36 112.00 321.00
C 112.88 321.89 114.10 323.06 115.00 324.00 Z"/>
</g>
<g fill="#A8D4FD" fill-opacity="1.00" stroke="None">
<path d="
M 362.00 323.00 
C 362.61 324.02 363.44 325.13 364.00 326.00
C 368.41 328.07 382.07 326.66 387.00 326.00
C 391.02 324.52 393.73 323.68 397.00 321.00
C 392.36 322.39 382.29 319.87 378.00 321.00 C 373.71 322.13 362.44 318.47 362.00 323.00 Z"/>
</g>
<g fill="#146BBE" fill-opacity="1.00" stroke="None">
<path d="
M 293.00 326.00 
C 278.47 327.76 262.59 325.51 248.00 326.00 C 233.41 326.49 217.39 326.45 203.00 326.00 C 188.61 325.55 171.77 327.69 158.00 326.00 C 144.23 324.31 126.73 330.99 115.00 324.00
C 120.33 329.53 138.01 331.63 132.97 342.97 C 127.94 354.31 122.40 365.95 127.25 376.75 C 132.09 387.55 143.47 392.21 153.78 389.78 C 164.08 387.35 169.79 379.16 175.70 369.70 C 181.60 360.24 185.98 354.99 184.00 341.00 C 182.02 327.01 203.18 329.51 215.00 330.00 C 226.82 330.49 244.46 329.57 257.00 330.00 C 269.54 330.43 282.09 330.03 293.00 326.00
M 169.00 332.00 
C 171.47 333.09 173.84 334.39 176.00 336.00
C 189.15 345.78 177.27 355.17 172.23 366.23 C 167.19 377.29 158.20 388.27 145.00 385.00
C 143.69 384.68 142.97 384.38 142.00 384.00
C 132.06 380.06 126.61 370.87 129.98 359.98 C 133.35 349.08 139.12 346.48 143.30 335.30 C 147.49 324.13 159.38 327.75 169.00 332.00 Z"/>
</g>
<g fill="#1569B7" fill-opacity="1.00" stroke="None">
<path d="
M 371.00 339.00 
C 373.58 343.43 376.33 348.62 379.00 353.00
C 379.56 353.91 380.47 354.86 381.00 356.00
C 378.48 343.91 370.29 332.17 387.00 326.00
C 382.07 326.66 368.41 328.07 364.00 326.00
C 366.65 330.15 368.52 334.73 371.00 339.00 Z"/>
</g>
<g fill="#FAFCFC" fill-opacity="1.00" stroke="None">
<path d="
M 142.00 384.00 
C 140.73 381.50 148.07 374.30 148.92 370.92 C 149.77 367.55 155.13 362.17 156.30 358.30 C 157.48 354.44 162.68 349.74 163.77 345.77 C 164.86 341.80 172.14 335.99 169.00 332.00
C 159.38 327.75 147.49 324.13 143.30 335.30 C 139.12 346.48 133.35 349.08 129.98 359.98 C 126.61 370.87 132.06 380.06 142.00 384.00 Z"/>
</g>
<g fill="#E4F1FD" fill-opacity="1.00" stroke="None">
<path d="
M 142.00 384.00 
C 142.97 384.38 143.69 384.68 145.00 385.00
C 153.41 385.70 155.67 376.62 158.78 370.78 C 161.88 364.93 167.24 358.88 169.26 353.26 C 171.27 347.64 179.99 340.74 176.00 336.00
C 173.84 334.39 171.47 333.09 169.00 332.00
C 172.14 335.99 164.86 341.80 163.77 345.77 C 162.68 349.74 157.48 354.44 156.30 358.30 C 155.13 362.17 149.77 367.55 148.92 370.92 C 148.07 374.30 140.73 381.50 142.00 384.00 Z"/>
</g>
<g fill="#C2E0FC" fill-opacity="1.00" stroke="None">
<path d="
M 145.00 385.00 
C 158.20 388.27 167.19 377.29 172.23 366.23 C 177.27 355.17 189.15 345.78 176.00 336.00
C 179.99 340.74 171.27 347.64 169.26 353.26 C 167.24 358.88 161.88 364.93 158.78 370.78 C 155.67 376.62 153.41 385.70 145.00 385.00 Z"/>
</g>
<g fill="#DBEDFD" fill-opacity="1.00" stroke="None">
<path d="
M 339.00 364.00 
C 341.36 367.97 343.22 372.27 346.00 376.00
C 347.05 377.11 348.80 378.13 350.00 379.00
C 357.76 369.10 371.12 363.55 379.00 353.00
C 376.33 348.62 373.58 343.43 371.00 339.00
C 365.13 350.34 350.03 355.26 342.00 366.00
C 341.02 365.49 339.85 364.75 339.00 364.00 Z"/>
</g>
<g fill="#146FDA" fill-opacity="0.99" stroke="None">
<path d="
M 45.00 381.00 
C 44.95 382.91 44.05 385.77 44.00 387.00
C 46.41 417.30 62.12 443.17 90.92 458.08 C 119.73 472.98 163.39 467.65 198.00 468.00 C 232.61 468.35 280.44 468.28 315.00 468.00 C 349.56 467.72 393.22 472.93 421.77 457.77 C 450.32 442.61 465.61 417.11 468.00 387.00
C 467.92 386.23 467.08 384.42 467.00 383.00
C 454.91 380.23 443.01 382.53 430.92 381.86 C 418.84 381.19 407.92 382.90 395.00 381.00
C 396.25 375.52 396.36 376.02 393.00 377.00
C 393.60 374.05 395.40 361.47 391.00 365.00
C 389.65 361.10 389.98 354.61 386.00 353.00
C 397.59 373.05 377.68 394.00 358.25 390.20 C 338.82 386.40 335.95 369.01 325.00 354.00
C 326.71 364.62 329.77 375.67 338.00 384.00
C 336.44 390.73 338.84 393.95 339.00 399.00
C 327.39 397.72 316.19 397.32 304.92 397.86 C 293.65 398.40 282.69 397.05 271.31 397.28 C 259.92 397.52 249.05 397.96 237.77 397.42 C 226.49 396.89 215.16 398.57 203.92 398.14 C 192.69 397.71 181.66 397.34 170.00 399.00
C 170.17 396.78 172.41 391.38 174.00 395.00
C 177.11 389.05 182.72 386.82 180.00 380.00
C 182.95 380.33 181.74 375.16 184.00 379.00
C 183.69 371.97 185.44 365.27 185.00 359.00
C 179.58 368.86 174.14 383.30 164.77 390.76 C 155.40 398.23 142.35 398.12 132.25 389.75 C 122.14 381.39 120.88 365.47 124.00 353.00
C 118.03 358.87 121.24 369.48 116.00 374.00
C 115.76 377.31 118.63 379.95 117.00 383.00
C 111.95 380.09 106.95 383.11 102.31 382.72 C 97.66 382.32 92.52 381.53 87.92 382.14 C 83.33 382.75 77.89 381.26 73.77 381.42 C 69.65 381.59 62.47 382.69 59.31 381.28 C 56.14 379.88 46.56 385.49 45.00 381.00 Z"/>
</g>
<g fill="#BADDFD" fill-opacity="1.00" stroke="None">
<path d="
M 346.00 376.00 
C 361.07 396.27 392.08 379.76 381.00 356.00
C 380.47 354.86 379.56 353.91 379.00 353.00
C 371.12 363.55 357.76 369.10 350.00 379.00
C 348.80 378.13 347.05 377.11 346.00 376.00 Z"/>
</g>
</svg>