<svg xmlns="http://www.w3.org/2000/svg" xmlns:v="https://svgstorm.com"
viewBox = "37 37 435 435"
>
<g fill="None" fill-opacity="0.0" stroke="#000000" stroke-opacity="0.00" stroke-width="0.3"><path d="
M 0.00 512.00 
L 512.00 512.00
L 512.00 0.00
L 0.00 0.00
L 0.00 512.00
M 468.00 175.00 
C 468.00 175.50 468.00 176.00 468.00 176.00
C 468.00 211.02 469.05 245.97 468.00 281.00 C 466.95 316.03 470.77 352.05 468.00 387.00
C 465.61 417.11 450.32 442.61 421.77 457.77 C 393.22 472.93 349.56 467.72 315.00 468.00 C 280.44 468.28 232.61 468.35 198.00 468.00 C 163.39 467.65 119.73 472.98 90.92 458.08 C 62.12 443.17 46.41 417.30 44.00 387.00
C 41.23 352.13 45.02 317.04 44.00 282.00 C 42.98 246.96 44.00 211.11 44.00 176.00
C 44.00 175.50 44.00 175.00 44.00 175.00
C 44.00 134.79 39.69 94.67 72.25 66.25 C 104.81 37.83 144.43 43.92 187.00 44.00 C 229.57 44.08 281.39 43.91 324.00 44.00 C 366.61 44.09 406.29 37.55 439.25 65.75 C 472.21 93.96 468.00 134.69 468.00 175.00 Z"/>
</g>
<g fill="None" fill-opacity="0.0" stroke="#F95750" stroke-opacity="1.00" stroke-width="0.3"><path d="
M 44.00 175.00 
C 78.99 171.83 114.84 176.19 150.00 175.00 C 185.16 173.81 220.80 175.00 256.00 175.00 C 291.20 175.00 326.84 173.81 362.00 175.00 C 397.16 176.19 433.00 171.84 468.00 175.00
C 468.00 134.69 472.21 93.96 439.25 65.75 C 406.29 37.55 366.61 44.09 324.00 44.00 C 281.39 43.91 229.57 44.08 187.00 44.00 C 144.43 43.92 104.81 37.83 72.25 66.25 C 39.69 94.67 44.00 134.79 44.00 175.00
M 169.00 130.00 
C 168.93 129.31 167.07 127.37 168.00 126.00
C 172.17 126.64 177.66 124.71 181.00 127.00
C 182.93 128.77 182.99 135.65 188.03 134.97 C 193.06 134.30 196.40 133.88 197.77 128.77 C 199.14 123.66 197.55 119.19 198.00 114.00 C 198.45 108.81 197.77 103.26 198.00 98.00 C 198.23 92.74 197.82 87.28 198.00 82.00
C 202.33 82.00 206.67 82.00 211.00 82.00
C 208.61 99.31 216.00 123.92 206.75 138.75 C 197.49 153.57 169.88 146.28 169.00 130.00
M 274.00 82.00 
C 278.07 84.85 273.78 96.82 275.00 102.00 C 276.22 107.18 274.69 118.19 274.00 123.00
C 273.24 142.83 249.35 153.58 232.25 141.75 C 215.16 129.91 224.12 100.61 222.00 82.00
C 226.33 82.00 230.67 82.00 235.00 82.00
C 234.20 93.40 236.07 106.79 235.00 118.00 C 233.94 129.21 241.71 137.96 253.07 134.07 C 264.43 130.19 260.47 116.21 261.00 106.00 C 261.53 95.79 256.43 76.12 274.00 82.00
M 324.00 122.00 
C 327.03 117.31 323.36 107.08 325.00 102.00 C 326.64 96.92 321.78 84.95 326.00 82.00
C 328.68 80.12 334.99 83.41 338.00 82.00
C 338.00 103.00 338.00 124.00 338.00 145.00
C 325.29 148.94 321.19 135.47 315.08 127.92 C 308.97 120.36 304.56 111.89 298.00 105.00
C 299.47 109.49 298.21 120.53 298.00 125.00 C 297.79 129.47 300.29 142.70 297.00 145.00
C 294.32 146.88 288.01 143.59 285.00 145.00
C 285.00 124.00 285.00 103.00 285.00 82.00
C 297.36 78.25 301.38 91.07 307.30 98.70 C 313.23 106.33 318.36 114.21 324.00 122.00 Z"/>
</g>
<g fill="None" fill-opacity="0.0" stroke="#FFFDFD" stroke-opacity="1.00" stroke-width="0.3"><path d="
M 181.00 127.00 
C 177.00 127.00 173.00 127.00 169.00 127.00
C 169.00 128.00 169.00 129.00 169.00 130.00
C 169.88 146.28 197.49 153.57 206.75 138.75 C 216.00 123.92 208.61 99.31 211.00 82.00
C 206.67 82.00 202.33 82.00 198.00 82.00
C 197.82 87.28 198.23 92.74 198.00 98.00 C 197.77 103.26 198.45 108.81 198.00 114.00 C 197.55 119.19 199.14 123.66 197.77 128.77 C 196.40 133.88 193.06 134.30 188.03 134.97 C 182.99 135.65 182.93 128.77 181.00 127.00 Z"/>
</g>
<g fill="None" fill-opacity="0.0" stroke="#FFFCFC" stroke-opacity="1.00" stroke-width="0.3"><path d="
M 274.00 123.00 
C 274.52 109.35 273.61 95.65 274.00 82.00
C 256.43 76.12 261.53 95.79 261.00 106.00 C 260.47 116.21 264.43 130.19 253.07 134.07 C 241.71 137.96 233.94 129.21 235.00 118.00 C 236.07 106.79 234.20 93.40 235.00 82.00
C 230.67 82.00 226.33 82.00 222.00 82.00
C 224.12 100.61 215.16 129.91 232.25 141.75 C 249.35 153.58 273.24 142.83 274.00 123.00 Z"/>
</g>
<g fill="None" fill-opacity="0.0" stroke="#FDABA8" stroke-opacity="1.00" stroke-width="0.3"><path d="
M 274.00 123.00 
C 274.69 118.19 276.22 107.18 275.00 102.00 C 273.78 96.82 278.07 84.85 274.00 82.00
C 273.61 95.65 274.52 109.35 274.00 123.00 Z"/>
</g>
<g fill="None" fill-opacity="0.0" stroke="#FFFDFD" stroke-opacity="1.00" stroke-width="0.3"><path d="
M 297.00 145.00 
C 297.16 139.81 296.78 128.58 297.00 124.00 C 297.22 119.42 296.15 104.87 298.00 105.00
C 304.56 111.89 308.97 120.36 315.08 127.92 C 321.19 135.47 325.29 148.94 338.00 145.00
C 338.00 124.00 338.00 103.00 338.00 82.00
C 334.99 83.41 328.68 80.12 326.00 82.00
C 325.96 87.61 326.06 98.96 326.00 104.00 C 325.94 109.04 327.00 123.21 324.00 122.00
C 318.36 114.21 313.23 106.33 307.30 98.70 C 301.38 91.07 297.36 78.25 285.00 82.00
C 285.00 103.00 285.00 124.00 285.00 145.00
C 288.01 143.59 294.32 146.88 297.00 145.00 Z"/>
</g>
<g fill="None" fill-opacity="0.0" stroke="#FCABA8" stroke-opacity="1.00" stroke-width="0.3"><path d="
M 324.00 122.00 
C 327.00 123.21 325.94 109.04 326.00 104.00 C 326.06 98.96 325.96 87.61 326.00 82.00
C 321.78 84.95 326.64 96.92 325.00 102.00 C 323.36 107.08 327.03 117.31 324.00 122.00 Z"/>
</g>
<g fill="None" fill-opacity="0.0" stroke="#FCA9A6" stroke-opacity="1.00" stroke-width="0.3"><path d="
M 297.00 145.00 
C 300.29 142.70 297.79 129.47 298.00 125.00 C 298.21 120.53 299.47 109.49 298.00 105.00
C 296.15 104.87 297.22 119.42 297.00 124.00 C 296.78 128.58 297.16 139.81 297.00 145.00 Z"/>
</g>
<g fill="None" fill-opacity="0.0" stroke="#FCA7A3" stroke-opacity="1.00" stroke-width="0.3"><path d="
M 169.00 130.00 
C 169.00 129.00 169.00 128.00 169.00 127.00
C 173.00 127.00 177.00 127.00 181.00 127.00
C 177.66 124.71 172.17 126.64 168.00 126.00
C 167.07 127.37 168.93 129.31 169.00 130.00 Z"/>
</g>
<g fill="None" fill-opacity="0.0" stroke="#F8AEAB" stroke-opacity="1.00" stroke-width="0.3"><path d="
M 44.00 176.00 
C 44.25 176.25 45.00 176.00 45.00 176.00
C 185.67 176.00 326.33 175.96 467.00 176.00
C 467.50 176.00 468.00 176.00 468.00 176.00
C 468.00 176.00 468.00 175.50 468.00 175.00
C 433.00 171.84 397.16 176.19 362.00 175.00 C 326.84 173.81 291.20 175.00 256.00 175.00 C 220.80 175.00 185.16 173.81 150.00 175.00 C 114.84 176.19 78.99 171.83 44.00 175.00
C 44.00 175.00 44.00 175.50 44.00 176.00 Z"/>
</g>
<g fill="None" fill-opacity="0.0" stroke="#F7F7F7" stroke-opacity="0.50" stroke-width="0.3"><path d="
M 44.00 387.00 
C 44.60 352.83 46.50 316.94 45.00 282.00 C 43.50 247.06 48.15 210.85 45.00 176.00
C 45.00 176.00 44.25 176.25 44.00 176.00
C 44.00 211.11 42.98 246.96 44.00 282.00 C 45.02 317.04 41.23 352.13 44.00 387.00 Z"/>
</g>
<g fill="None" fill-opacity="0.0" stroke="#F6F6F6" stroke-opacity="1.00" stroke-width="0.3"><path d="
M 44.00 387.00 
C 46.41 417.30 62.12 443.17 90.92 458.08 C 119.73 472.98 163.39 467.65 198.00 468.00 C 232.61 468.35 280.44 468.28 315.00 468.00 C 349.56 467.72 393.22 472.93 421.77 457.77 C 450.32 442.61 465.61 417.11 468.00 387.00
C 467.40 352.84 465.50 316.94 467.00 282.00 C 468.50 247.06 463.85 210.85 467.00 176.00
C 326.33 175.96 185.67 176.00 45.00 176.00
C 48.15 210.85 43.50 247.06 45.00 282.00 C 46.50 316.94 44.60 352.83 44.00 387.00
M 186.00 215.00 
C 214.65 215.00 240.59 237.07 240.00 266.00 C 239.41 294.93 217.27 311.32 200.23 331.23 C 183.19 351.14 165.74 365.40 149.00 385.00
C 181.00 385.00 213.00 385.00 245.00 385.00
C 245.00 390.00 245.00 395.00 245.00 400.00
C 205.67 400.00 166.33 400.00 127.00 400.00
C 123.62 397.63 126.49 388.26 128.00 386.00
C 140.80 366.75 158.42 355.76 173.75 337.75 C 189.08 319.74 204.74 307.73 217.75 286.75 C 230.76 265.78 221.67 236.37 194.98 230.02 C 168.28 223.68 143.22 238.55 141.00 267.00
C 135.67 267.00 130.33 267.00 125.00 267.00
C 126.73 240.40 148.42 215.72 176.00 215.00
C 179.35 214.46 182.79 214.69 186.00 215.00
M 331.00 215.00 
C 359.65 215.00 385.58 237.07 385.00 266.00 C 384.42 294.93 362.29 311.33 345.23 331.23 C 328.17 351.13 310.93 365.53 294.00 385.00
C 326.00 385.00 358.00 385.00 390.00 385.00
C 390.00 390.00 390.00 395.00 390.00 400.00
C 350.67 400.00 311.33 400.00 272.00 400.00
C 268.62 397.63 271.49 388.26 273.00 386.00
C 285.81 366.75 303.36 355.73 318.75 337.75 C 334.14 319.78 349.76 307.73 362.75 286.75 C 375.75 265.77 366.68 236.37 339.98 230.02 C 313.27 223.68 288.22 238.55 286.00 267.00
C 280.67 267.00 275.33 267.00 270.00 267.00
C 271.73 240.40 293.42 215.72 321.00 215.00
C 324.35 214.46 327.79 214.69 331.00 215.00 Z"/>
</g>
<g fill="None" fill-opacity="0.0" stroke="#F7F7F7" stroke-opacity="0.50" stroke-width="0.3"><path d="
M 468.00 387.00 
C 470.77 352.05 466.95 316.03 468.00 281.00 C 469.05 245.97 468.00 211.02 468.00 176.00
C 468.00 176.00 467.50 176.00 467.00 176.00
C 463.85 210.85 468.50 247.06 467.00 282.00 C 465.50 316.94 467.40 352.84 468.00 387.00 Z"/>
</g>
<g fill="None" fill-opacity="0.0" stroke="#999999" stroke-opacity="1.00" stroke-width="0.3"><path d="
M 176.00 215.00 
C 179.31 214.82 182.68 215.00 186.00 215.00
C 182.79 214.69 179.35 214.46 176.00 215.00 Z"/>
</g>
<g fill="None" fill-opacity="0.0" stroke="#999999" stroke-opacity="1.00" stroke-width="0.3"><path d="
M 321.00 215.00 
C 324.31 214.82 327.68 215.00 331.00 215.00
C 327.79 214.69 324.35 214.46 321.00 215.00 Z"/>
</g>
<g fill="None" fill-opacity="0.0" stroke="#363636" stroke-opacity="1.00" stroke-width="0.3"><path d="
M 128.00 386.00 
C 126.03 390.26 127.41 395.35 127.00 400.00
C 166.33 400.00 205.67 400.00 245.00 400.00
C 245.00 395.00 245.00 390.00 245.00 385.00
C 213.00 385.00 181.00 385.00 149.00 385.00
C 165.74 365.40 183.19 351.14 200.23 331.23 C 217.27 311.32 239.41 294.93 240.00 266.00 C 240.59 237.07 214.65 215.00 186.00 215.00
C 182.68 215.00 179.31 214.82 176.00 215.00
C 148.42 215.72 126.73 240.40 125.00 267.00
C 130.33 267.00 135.67 267.00 141.00 267.00
C 143.22 238.55 168.28 223.68 194.98 230.02 C 221.67 236.37 230.76 265.78 217.75 286.75 C 204.74 307.73 189.08 319.74 173.75 337.75 C 158.42 355.76 140.80 366.75 128.00 386.00 Z"/>
</g>
<g fill="None" fill-opacity="0.0" stroke="#363636" stroke-opacity="1.00" stroke-width="0.3"><path d="
M 273.00 386.00 
C 271.03 390.26 272.41 395.35 272.00 400.00
C 311.33 400.00 350.67 400.00 390.00 400.00
C 390.00 395.00 390.00 390.00 390.00 385.00
C 358.00 385.00 326.00 385.00 294.00 385.00
C 310.93 365.53 328.17 351.13 345.23 331.23 C 362.29 311.33 384.42 294.93 385.00 266.00 C 385.58 237.07 359.65 215.00 331.00 215.00
C 327.68 215.00 324.31 214.82 321.00 215.00
C 293.42 215.72 271.73 240.40 270.00 267.00
C 275.33 267.00 280.67 267.00 286.00 267.00
C 288.22 238.55 313.27 223.68 339.98 230.02 C 366.68 236.37 375.75 265.77 362.75 286.75 C 349.76 307.73 334.14 319.78 318.75 337.75 C 303.36 355.73 285.81 366.75 273.00 386.00 Z"/>
</g>
<g fill="None" fill-opacity="0.0" stroke="#949494" stroke-opacity="1.00" stroke-width="0.3"><path d="
M 127.00 400.00 
C 127.41 395.35 126.03 390.26 128.00 386.00
C 126.49 388.26 123.62 397.63 127.00 400.00 Z"/>
</g>
<g fill="None" fill-opacity="0.0" stroke="#949494" stroke-opacity="1.00" stroke-width="0.3"><path d="
M 272.00 400.00 
C 272.41 395.35 271.03 390.26 273.00 386.00
C 271.49 388.26 268.62 397.63 272.00 400.00 Z"/>
</g>
<g fill="#000000" fill-opacity="0.00" stroke="None">
<path d="
M 0.00 512.00 
L 512.00 512.00
L 512.00 0.00
L 0.00 0.00
L 0.00 512.00
M 468.00 175.00 
C 468.00 175.50 468.00 176.00 468.00 176.00
C 468.00 211.02 469.05 245.97 468.00 281.00 C 466.95 316.03 470.77 352.05 468.00 387.00
C 465.61 417.11 450.32 442.61 421.77 457.77 C 393.22 472.93 349.56 467.72 315.00 468.00 C 280.44 468.28 232.61 468.35 198.00 468.00 C 163.39 467.65 119.73 472.98 90.92 458.08 C 62.12 443.17 46.41 417.30 44.00 387.00
C 41.23 352.13 45.02 317.04 44.00 282.00 C 42.98 246.96 44.00 211.11 44.00 176.00
C 44.00 175.50 44.00 175.00 44.00 175.00
C 44.00 134.79 39.69 94.67 72.25 66.25 C 104.81 37.83 144.43 43.92 187.00 44.00 C 229.57 44.08 281.39 43.91 324.00 44.00 C 366.61 44.09 406.29 37.55 439.25 65.75 C 472.21 93.96 468.00 134.69 468.00 175.00 Z"/>
</g>
<g fill="#F95750" fill-opacity="1.00" stroke="None">
<path d="
M 44.00 175.00 
C 78.99 171.83 114.84 176.19 150.00 175.00 C 185.16 173.81 220.80 175.00 256.00 175.00 C 291.20 175.00 326.84 173.81 362.00 175.00 C 397.16 176.19 433.00 171.84 468.00 175.00
C 468.00 134.69 472.21 93.96 439.25 65.75 C 406.29 37.55 366.61 44.09 324.00 44.00 C 281.39 43.91 229.57 44.08 187.00 44.00 C 144.43 43.92 104.81 37.83 72.25 66.25 C 39.69 94.67 44.00 134.79 44.00 175.00
M 169.00 130.00 
C 168.93 129.31 167.07 127.37 168.00 126.00
C 172.17 126.64 177.66 124.71 181.00 127.00
C 182.93 128.77 182.99 135.65 188.03 134.97 C 193.06 134.30 196.40 133.88 197.77 128.77 C 199.14 123.66 197.55 119.19 198.00 114.00 C 198.45 108.81 197.77 103.26 198.00 98.00 C 198.23 92.74 197.82 87.28 198.00 82.00
C 202.33 82.00 206.67 82.00 211.00 82.00
C 208.61 99.31 216.00 123.92 206.75 138.75 C 197.49 153.57 169.88 146.28 169.00 130.00
M 274.00 82.00 
C 278.07 84.85 273.78 96.82 275.00 102.00 C 276.22 107.18 274.69 118.19 274.00 123.00
C 273.24 142.83 249.35 153.58 232.25 141.75 C 215.16 129.91 224.12 100.61 222.00 82.00
C 226.33 82.00 230.67 82.00 235.00 82.00
C 234.20 93.40 236.07 106.79 235.00 118.00 C 233.94 129.21 241.71 137.96 253.07 134.07 C 264.43 130.19 260.47 116.21 261.00 106.00 C 261.53 95.79 256.43 76.12 274.00 82.00
M 324.00 122.00 
C 327.03 117.31 323.36 107.08 325.00 102.00 C 326.64 96.92 321.78 84.95 326.00 82.00
C 328.68 80.12 334.99 83.41 338.00 82.00
C 338.00 103.00 338.00 124.00 338.00 145.00
C 325.29 148.94 321.19 135.47 315.08 127.92 C 308.97 120.36 304.56 111.89 298.00 105.00
C 299.47 109.49 298.21 120.53 298.00 125.00 C 297.79 129.47 300.29 142.70 297.00 145.00
C 294.32 146.88 288.01 143.59 285.00 145.00
C 285.00 124.00 285.00 103.00 285.00 82.00
C 297.36 78.25 301.38 91.07 307.30 98.70 C 313.23 106.33 318.36 114.21 324.00 122.00 Z"/>
</g>
<g fill="#FFFDFD" fill-opacity="1.00" stroke="None">
<path d="
M 181.00 127.00 
C 177.00 127.00 173.00 127.00 169.00 127.00
C 169.00 128.00 169.00 129.00 169.00 130.00
C 169.88 146.28 197.49 153.57 206.75 138.75 C 216.00 123.92 208.61 99.31 211.00 82.00
C 206.67 82.00 202.33 82.00 198.00 82.00
C 197.82 87.28 198.23 92.74 198.00 98.00 C 197.77 103.26 198.45 108.81 198.00 114.00 C 197.55 119.19 199.14 123.66 197.77 128.77 C 196.40 133.88 193.06 134.30 188.03 134.97 C 182.99 135.65 182.93 128.77 181.00 127.00 Z"/>
</g>
<g fill="#FFFCFC" fill-opacity="1.00" stroke="None">
<path d="
M 274.00 123.00 
C 274.52 109.35 273.61 95.65 274.00 82.00
C 256.43 76.12 261.53 95.79 261.00 106.00 C 260.47 116.21 264.43 130.19 253.07 134.07 C 241.71 137.96 233.94 129.21 235.00 118.00 C 236.07 106.79 234.20 93.40 235.00 82.00
C 230.67 82.00 226.33 82.00 222.00 82.00
C 224.12 100.61 215.16 129.91 232.25 141.75 C 249.35 153.58 273.24 142.83 274.00 123.00 Z"/>
</g>
<g fill="#FDABA8" fill-opacity="1.00" stroke="None">
<path d="
M 274.00 123.00 
C 274.69 118.19 276.22 107.18 275.00 102.00 C 273.78 96.82 278.07 84.85 274.00 82.00
C 273.61 95.65 274.52 109.35 274.00 123.00 Z"/>
</g>
<g fill="#FFFDFD" fill-opacity="1.00" stroke="None">
<path d="
M 297.00 145.00 
C 297.16 139.81 296.78 128.58 297.00 124.00 C 297.22 119.42 296.15 104.87 298.00 105.00
C 304.56 111.89 308.97 120.36 315.08 127.92 C 321.19 135.47 325.29 148.94 338.00 145.00
C 338.00 124.00 338.00 103.00 338.00 82.00
C 334.99 83.41 328.68 80.12 326.00 82.00
C 325.96 87.61 326.06 98.96 326.00 104.00 C 325.94 109.04 327.00 123.21 324.00 122.00
C 318.36 114.21 313.23 106.33 307.30 98.70 C 301.38 91.07 297.36 78.25 285.00 82.00
C 285.00 103.00 285.00 124.00 285.00 145.00
C 288.01 143.59 294.32 146.88 297.00 145.00 Z"/>
</g>
<g fill="#FCABA8" fill-opacity="1.00" stroke="None">
<path d="
M 324.00 122.00 
C 327.00 123.21 325.94 109.04 326.00 104.00 C 326.06 98.96 325.96 87.61 326.00 82.00
C 321.78 84.95 326.64 96.92 325.00 102.00 C 323.36 107.08 327.03 117.31 324.00 122.00 Z"/>
</g>
<g fill="#FCA9A6" fill-opacity="1.00" stroke="None">
<path d="
M 297.00 145.00 
C 300.29 142.70 297.79 129.47 298.00 125.00 C 298.21 120.53 299.47 109.49 298.00 105.00
C 296.15 104.87 297.22 119.42 297.00 124.00 C 296.78 128.58 297.16 139.81 297.00 145.00 Z"/>
</g>
<g fill="#FCA7A3" fill-opacity="1.00" stroke="None">
<path d="
M 169.00 130.00 
C 169.00 129.00 169.00 128.00 169.00 127.00
C 173.00 127.00 177.00 127.00 181.00 127.00
C 177.66 124.71 172.17 126.64 168.00 126.00
C 167.07 127.37 168.93 129.31 169.00 130.00 Z"/>
</g>
<g fill="#F8AEAB" fill-opacity="1.00" stroke="None">
<path d="
M 44.00 176.00 
C 44.25 176.25 45.00 176.00 45.00 176.00
C 185.67 176.00 326.33 175.96 467.00 176.00
C 467.50 176.00 468.00 176.00 468.00 176.00
C 468.00 176.00 468.00 175.50 468.00 175.00
C 433.00 171.84 397.16 176.19 362.00 175.00 C 326.84 173.81 291.20 175.00 256.00 175.00 C 220.80 175.00 185.16 173.81 150.00 175.00 C 114.84 176.19 78.99 171.83 44.00 175.00
C 44.00 175.00 44.00 175.50 44.00 176.00 Z"/>
</g>
<g fill="#F7F7F7" fill-opacity="0.50" stroke="None">
<path d="
M 44.00 387.00 
C 44.60 352.83 46.50 316.94 45.00 282.00 C 43.50 247.06 48.15 210.85 45.00 176.00
C 45.00 176.00 44.25 176.25 44.00 176.00
C 44.00 211.11 42.98 246.96 44.00 282.00 C 45.02 317.04 41.23 352.13 44.00 387.00 Z"/>
</g>
<g fill="#F6F6F6" fill-opacity="1.00" stroke="None">
<path d="
M 44.00 387.00 
C 46.41 417.30 62.12 443.17 90.92 458.08 C 119.73 472.98 163.39 467.65 198.00 468.00 C 232.61 468.35 280.44 468.28 315.00 468.00 C 349.56 467.72 393.22 472.93 421.77 457.77 C 450.32 442.61 465.61 417.11 468.00 387.00
C 467.40 352.84 465.50 316.94 467.00 282.00 C 468.50 247.06 463.85 210.85 467.00 176.00
C 326.33 175.96 185.67 176.00 45.00 176.00
C 48.15 210.85 43.50 247.06 45.00 282.00 C 46.50 316.94 44.60 352.83 44.00 387.00
M 186.00 215.00 
C 214.65 215.00 240.59 237.07 240.00 266.00 C 239.41 294.93 217.27 311.32 200.23 331.23 C 183.19 351.14 165.74 365.40 149.00 385.00
C 181.00 385.00 213.00 385.00 245.00 385.00
C 245.00 390.00 245.00 395.00 245.00 400.00
C 205.67 400.00 166.33 400.00 127.00 400.00
C 123.62 397.63 126.49 388.26 128.00 386.00
C 140.80 366.75 158.42 355.76 173.75 337.75 C 189.08 319.74 204.74 307.73 217.75 286.75 C 230.76 265.78 221.67 236.37 194.98 230.02 C 168.28 223.68 143.22 238.55 141.00 267.00
C 135.67 267.00 130.33 267.00 125.00 267.00
C 126.73 240.40 148.42 215.72 176.00 215.00
C 179.35 214.46 182.79 214.69 186.00 215.00
M 331.00 215.00 
C 359.65 215.00 385.58 237.07 385.00 266.00 C 384.42 294.93 362.29 311.33 345.23 331.23 C 328.17 351.13 310.93 365.53 294.00 385.00
C 326.00 385.00 358.00 385.00 390.00 385.00
C 390.00 390.00 390.00 395.00 390.00 400.00
C 350.67 400.00 311.33 400.00 272.00 400.00
C 268.62 397.63 271.49 388.26 273.00 386.00
C 285.81 366.75 303.36 355.73 318.75 337.75 C 334.14 319.78 349.76 307.73 362.75 286.75 C 375.75 265.77 366.68 236.37 339.98 230.02 C 313.27 223.68 288.22 238.55 286.00 267.00
C 280.67 267.00 275.33 267.00 270.00 267.00
C 271.73 240.40 293.42 215.72 321.00 215.00
C 324.35 214.46 327.79 214.69 331.00 215.00 Z"/>
</g>
<g fill="#F7F7F7" fill-opacity="0.50" stroke="None">
<path d="
M 468.00 387.00 
C 470.77 352.05 466.95 316.03 468.00 281.00 C 469.05 245.97 468.00 211.02 468.00 176.00
C 468.00 176.00 467.50 176.00 467.00 176.00
C 463.85 210.85 468.50 247.06 467.00 282.00 C 465.50 316.94 467.40 352.84 468.00 387.00 Z"/>
</g>
<g fill="#999999" fill-opacity="1.00" stroke="None">
<path d="
M 176.00 215.00 
C 179.31 214.82 182.68 215.00 186.00 215.00
C 182.79 214.69 179.35 214.46 176.00 215.00 Z"/>
</g>
<g fill="#999999" fill-opacity="1.00" stroke="None">
<path d="
M 321.00 215.00 
C 324.31 214.82 327.68 215.00 331.00 215.00
C 327.79 214.69 324.35 214.46 321.00 215.00 Z"/>
</g>
<g fill="#363636" fill-opacity="1.00" stroke="None">
<path d="
M 128.00 386.00 
C 126.03 390.26 127.41 395.35 127.00 400.00
C 166.33 400.00 205.67 400.00 245.00 400.00
C 245.00 395.00 245.00 390.00 245.00 385.00
C 213.00 385.00 181.00 385.00 149.00 385.00
C 165.74 365.40 183.19 351.14 200.23 331.23 C 217.27 311.32 239.41 294.93 240.00 266.00 C 240.59 237.07 214.65 215.00 186.00 215.00
C 182.68 215.00 179.31 214.82 176.00 215.00
C 148.42 215.72 126.73 240.40 125.00 267.00
C 130.33 267.00 135.67 267.00 141.00 267.00
C 143.22 238.55 168.28 223.68 194.98 230.02 C 221.67 236.37 230.76 265.78 217.75 286.75 C 204.74 307.73 189.08 319.74 173.75 337.75 C 158.42 355.76 140.80 366.75 128.00 386.00 Z"/>
</g>
<g fill="#363636" fill-opacity="1.00" stroke="None">
<path d="
M 273.00 386.00 
C 271.03 390.26 272.41 395.35 272.00 400.00
C 311.33 400.00 350.67 400.00 390.00 400.00
C 390.00 395.00 390.00 390.00 390.00 385.00
C 358.00 385.00 326.00 385.00 294.00 385.00
C 310.93 365.53 328.17 351.13 345.23 331.23 C 362.29 311.33 384.42 294.93 385.00 266.00 C 385.58 237.07 359.65 215.00 331.00 215.00
C 327.68 215.00 324.31 214.82 321.00 215.00
C 293.42 215.72 271.73 240.40 270.00 267.00
C 275.33 267.00 280.67 267.00 286.00 267.00
C 288.22 238.55 313.27 223.68 339.98 230.02 C 366.68 236.37 375.75 265.77 362.75 286.75 C 349.76 307.73 334.14 319.78 318.75 337.75 C 303.36 355.73 285.81 366.75 273.00 386.00 Z"/>
</g>
<g fill="#949494" fill-opacity="1.00" stroke="None">
<path d="
M 127.00 400.00 
C 127.41 395.35 126.03 390.26 128.00 386.00
C 126.49 388.26 123.62 397.63 127.00 400.00 Z"/>
</g>
<g fill="#949494" fill-opacity="1.00" stroke="None">
<path d="
M 272.00 400.00 
C 272.41 395.35 271.03 390.26 273.00 386.00
C 271.49 388.26 268.62 397.63 272.00 400.00 Z"/>
</g>
</svg>