<svg xmlns="http://www.w3.org/2000/svg" xmlns:v="https://svgstorm.com"
viewBox = "37 37 460 460">
<g fill="None" fill-opacity="0.0" stroke="#000000" stroke-opacity="0.00" stroke-width="0.3"><path d="
M 0.00 512.00 
L 512.00 512.00
L 512.00 0.00
L 0.00 0.00
L 0.00 512.00
M 464.00 105.00 
C 468.75 109.66 468.14 105.16 474.08 110.92 C 480.03 116.68 485.71 122.21 488.77 130.23 C 491.83 138.25 493.56 149.98 493.00 159.00 C 492.44 168.02 493.23 167.54 493.00 176.00 C 492.77 184.46 493.04 183.23 493.00 193.00 C 492.96 202.77 493.03 216.25 493.00 226.00 C 492.97 235.75 493.04 234.92 493.00 243.00 C 492.96 251.08 493.07 251.99 493.00 260.00 C 492.93 268.01 493.14 267.49 493.00 277.00 C 492.86 286.51 492.85 299.82 494.00 309.00 C 495.15 318.18 493.70 318.37 493.22 325.22 C 492.75 332.07 492.99 335.95 493.00 342.00 C 493.01 348.05 492.83 353.48 493.00 359.00 C 493.17 364.52 492.82 369.40 492.01 374.01 C 491.20 378.62 490.07 383.43 488.08 387.08 C 486.08 390.72 483.79 395.01 481.70 397.70 C 479.60 400.39 475.06 404.80 473.25 406.25 C 471.44 407.69 462.62 412.55 462.00 412.00
C 452.17 435.79 437.91 452.64 411.98 461.98 C 386.04 471.31 348.31 468.02 318.00 468.00 C 287.69 467.98 247.76 468.88 217.00 468.00 C 186.24 467.12 147.08 470.83 118.00 467.00 C 88.92 463.18 73.84 450.13 57.23 426.77 C 40.62 403.42 44.06 370.28 44.00 340.00 C 43.94 309.72 44.20 270.06 44.00 239.00 C 43.80 207.94 44.48 169.20 44.00 139.00 C 43.52 108.80 51.10 86.10 73.00 67.00
C 73.64 66.45 74.36 65.56 75.00 65.00
C 96.21 46.33 118.98 43.28 148.00 44.00 C 177.02 44.72 212.51 43.75 242.00 44.00 C 271.49 44.25 307.28 44.05 336.00 44.00 C 364.72 43.95 396.84 41.26 420.23 53.77 C 443.62 66.28 455.65 81.32 464.00 105.00 Z"/>
</g>
<g fill="None" fill-opacity="0.0" stroke="#B0894B" stroke-opacity="1.00" stroke-width="0.3"><path d="
M 75.00 65.00 
C 77.68 65.48 75.45 76.41 76.00 80.00 C 76.55 83.59 75.75 91.12 76.00 96.00 C 76.25 100.88 75.89 106.13 76.00 112.00 C 76.11 117.87 75.96 120.79 76.00 128.00 C 76.04 135.21 75.99 135.62 76.00 145.00 C 76.01 154.38 75.99 167.51 76.00 177.00 C 76.01 186.49 75.96 184.24 76.00 193.00 C 76.04 201.76 75.90 199.87 76.00 210.00 C 76.10 220.13 75.85 231.60 76.00 242.00 C 76.15 252.40 75.30 263.90 77.00 274.00
C 78.47 268.95 79.00 266.74 79.00 274.00
C 80.72 271.10 82.56 275.51 82.00 270.00
C 84.03 271.77 82.53 275.48 83.00 278.00
C 84.59 278.64 83.70 269.50 84.93 273.14 C 86.15 276.79 84.95 274.40 87.00 272.00
C 86.27 275.57 88.19 280.33 88.00 274.00
C 90.41 280.15 88.97 275.24 91.00 272.00
C 91.56 274.52 89.81 278.30 92.00 280.00
C 90.95 274.07 94.98 279.98 94.00 274.00
C 96.03 275.77 94.53 279.48 95.00 282.00
C 96.59 282.64 95.70 273.50 96.93 277.14 C 98.15 280.79 96.95 278.40 99.00 276.00
C 97.88 282.26 101.67 283.01 103.00 278.00
C 102.27 281.57 104.19 286.33 104.00 280.00
C 106.55 281.66 107.53 280.31 107.00 286.00
C 109.07 283.06 107.74 281.65 108.99 285.02 C 110.24 288.38 109.37 279.13 111.00 280.00
C 111.56 282.52 109.81 286.30 112.00 288.00
C 110.95 282.07 114.98 287.98 114.00 282.00
C 116.03 283.77 114.53 287.48 115.00 290.00
C 116.59 290.64 115.70 281.50 116.93 285.14 C 118.15 288.79 116.95 286.40 119.00 284.00
C 118.27 287.57 120.19 292.33 120.00 286.00
C 122.41 292.15 120.97 287.24 123.00 284.00
C 123.56 286.52 121.81 290.30 124.00 292.00
C 123.30 286.40 128.72 288.27 127.00 294.00
C 128.59 294.64 127.70 285.50 128.93 289.14 C 130.15 292.79 128.95 290.40 131.00 288.00
C 130.56 293.65 131.24 292.30 134.00 294.00
C 134.00 291.67 134.00 289.33 134.00 287.00
C 132.60 263.45 128.65 233.01 138.32 211.32 C 147.99 189.64 155.03 175.40 172.25 159.25 C 189.47 143.10 204.60 134.49 226.68 127.68 C 248.75 120.87 279.91 119.95 302.02 126.98 C 324.14 134.00 339.59 142.22 356.75 158.25 C 373.92 174.27 381.78 188.33 390.93 210.07 C 400.07 231.82 399.41 262.11 396.00 286.00
C 395.14 292.00 394.36 296.46 393.00 302.00
C 395.44 297.93 395.03 303.87 395.00 306.00
C 396.76 298.80 398.30 310.10 398.00 300.00
C 400.18 300.35 397.85 306.92 400.00 305.00
C 401.32 305.07 402.47 305.88 402.00 302.00
C 404.03 303.78 402.53 307.48 403.00 310.00
C 404.59 310.64 403.70 301.50 404.93 305.14 C 406.15 308.79 404.95 306.40 407.00 304.00
C 406.27 307.57 408.19 312.33 408.00 306.00
C 410.41 312.15 408.97 307.24 411.00 304.00
C 411.56 306.52 409.81 310.30 412.00 312.00
C 410.95 306.07 414.98 311.98 414.00 306.00
C 416.03 307.77 414.53 311.48 415.00 314.00
C 416.59 314.64 415.70 305.50 416.93 309.14 C 418.15 312.79 416.95 310.40 419.00 308.00
C 417.88 314.26 421.67 315.01 423.00 310.00
C 422.27 313.57 424.19 318.33 424.00 312.00
C 426.55 313.66 427.53 312.31 427.00 318.00
C 429.07 315.06 427.74 313.65 428.99 317.02 C 430.24 320.38 429.37 311.13 431.00 312.00
C 431.56 314.52 429.81 318.30 432.00 320.00
C 430.95 314.07 434.98 319.98 434.00 314.00
C 436.03 315.77 434.53 319.48 435.00 322.00
C 436.59 322.64 435.70 313.50 436.93 317.14 C 438.15 320.79 436.95 318.40 439.00 316.00
C 438.27 319.57 440.18 324.33 440.00 318.00
C 442.41 324.15 440.97 319.24 443.00 316.00
C 443.56 318.52 441.81 322.30 444.00 324.00
C 443.30 318.40 448.72 320.27 447.00 326.00
C 448.59 326.64 447.70 317.50 448.93 321.14 C 450.15 324.79 448.95 322.40 451.00 320.00
C 449.25 325.60 454.59 327.70 454.00 322.00
C 456.03 323.77 454.53 327.48 455.00 330.00
C 457.29 323.58 455.36 315.18 456.00 308.00
C 457.58 309.23 457.12 317.20 457.99 310.98 C 458.87 304.77 458.35 312.88 460.00 314.00
C 460.00 308.00 460.00 302.00 460.00 296.00
C 464.21 299.06 460.99 284.13 462.00 280.00
C 465.04 291.64 463.26 277.58 464.00 272.00 C 464.74 266.42 464.60 262.14 465.20 256.75 C 465.80 251.36 465.59 241.13 467.00 236.00
C 467.00 225.00 467.00 214.00 467.00 203.00
C 467.00 176.54 468.80 149.39 467.00 123.00
C 466.67 118.21 466.22 112.66 465.00 108.00
C 464.76 107.10 464.31 105.89 464.00 105.00
C 455.65 81.32 443.62 66.28 420.23 53.77 C 396.84 41.26 364.72 43.95 336.00 44.00 C 307.28 44.05 271.49 44.25 242.00 44.00 C 212.51 43.75 177.02 44.72 148.00 44.00 C 118.98 43.28 96.21 46.33 75.00 65.00 Z"/>
</g>
<g fill="None" fill-opacity="0.0" stroke="#A37741" stroke-opacity="1.00" stroke-width="0.3"><path d="
M 73.00 67.00 
C 73.28 64.34 76.97 71.49 75.00 73.00
C 56.17 80.05 56.97 103.06 57.00 124.00 C 57.03 144.94 59.66 170.79 59.00 193.00 C 58.34 215.21 59.87 227.64 59.80 245.25 C 59.73 262.85 61.33 285.72 62.00 306.00 C 62.67 326.28 62.67 352.16 64.00 374.00
C 64.02 362.29 65.43 353.78 64.60 343.25 C 63.78 332.72 66.68 324.36 67.40 313.25 C 68.11 302.14 66.99 293.42 68.00 280.00
C 69.95 319.35 70.09 357.35 70.00 398.00
C 72.65 399.36 75.04 396.15 76.00 397.00
C 76.07 415.29 71.03 438.29 88.70 447.30 C 106.37 456.31 120.15 460.26 140.01 459.99 C 159.87 459.72 184.96 460.48 204.00 460.00 C 223.04 459.52 240.95 460.86 255.25 460.80 C 269.54 460.74 288.99 459.46 302.75 460.40 C 316.51 461.34 328.35 460.76 342.25 461.20 C 356.15 461.63 375.72 462.61 390.22 461.22 C 404.73 459.82 421.54 453.95 433.74 444.74 C 445.95 435.54 454.40 422.12 463.00 410.00
C 463.27 409.36 463.88 407.74 464.00 407.00
C 464.16 406.03 463.85 404.98 464.00 404.00
C 464.80 398.68 466.62 393.54 467.00 388.00
C 468.06 372.44 468.05 355.20 468.00 340.00
C 467.93 317.89 467.00 293.86 467.00 271.00
C 467.00 259.33 467.00 247.67 467.00 236.00
C 465.59 241.13 465.80 251.36 465.20 256.75 C 464.60 262.14 464.74 266.42 464.00 272.00 C 463.26 277.58 465.04 291.64 462.00 280.00
C 460.99 284.13 464.21 299.06 460.00 296.00
C 460.00 302.00 460.00 308.00 460.00 314.00
C 458.35 312.88 458.87 304.77 457.99 310.98 C 457.12 317.20 457.58 309.23 456.00 308.00
C 455.36 315.18 457.29 323.58 455.00 330.00
C 454.53 327.48 456.03 323.77 454.00 322.00
C 454.59 327.70 449.25 325.60 451.00 320.00
C 448.95 322.40 450.15 324.79 448.93 321.14 C 447.70 317.50 448.59 326.64 447.00 326.00
C 448.72 320.27 443.30 318.40 444.00 324.00
C 441.81 322.30 443.56 318.52 443.00 316.00
C 440.97 319.24 442.41 324.15 440.00 318.00
C 440.18 324.33 438.27 319.57 439.00 316.00
C 436.95 318.40 438.15 320.79 436.93 317.14 C 435.70 313.50 436.59 322.64 435.00 322.00
C 434.53 319.48 436.03 315.77 434.00 314.00
C 434.98 319.98 430.95 314.07 432.00 320.00
C 429.81 318.30 431.56 314.52 431.00 312.00
C 429.37 311.13 430.24 320.38 428.99 317.02 C 427.74 313.65 429.07 315.06 427.00 318.00
C 427.53 312.31 426.55 313.66 424.00 312.00
C 424.19 318.33 422.27 313.57 423.00 310.00
C 421.67 315.01 417.88 314.26 419.00 308.00
C 416.95 310.40 418.15 312.79 416.93 309.14 C 415.70 305.50 416.59 314.64 415.00 314.00
C 414.53 311.48 416.03 307.77 414.00 306.00
C 414.98 311.98 410.95 306.07 412.00 312.00
C 409.81 310.30 411.56 306.52 411.00 304.00
C 408.97 307.24 410.41 312.15 408.00 306.00
C 408.19 312.33 406.27 307.57 407.00 304.00
C 404.95 306.40 406.15 308.79 404.93 305.14 C 403.70 301.50 404.59 310.64 403.00 310.00
C 402.53 307.48 404.03 303.78 402.00 302.00
C 402.47 305.88 401.32 305.07 400.00 305.00
C 397.85 306.92 400.18 300.35 398.00 300.00
C 398.30 310.10 396.76 298.80 395.00 306.00
C 395.03 303.87 395.44 297.93 393.00 302.00
C 394.36 296.46 395.14 292.00 396.00 286.00
C 379.85 345.59 329.77 389.29 266.00 390.00 C 202.23 390.71 151.25 346.24 134.00 287.00
C 134.00 289.33 134.00 291.67 134.00 294.00
C 131.24 292.30 130.56 293.65 131.00 288.00
C 128.95 290.40 130.15 292.79 128.93 289.14 C 127.70 285.50 128.59 294.64 127.00 294.00
C 128.72 288.27 123.30 286.40 124.00 292.00
C 121.81 290.30 123.56 286.52 123.00 284.00
C 120.97 287.24 122.41 292.15 120.00 286.00
C 120.19 292.33 118.27 287.57 119.00 284.00
C 116.95 286.40 118.15 288.79 116.93 285.14 C 115.70 281.50 116.59 290.64 115.00 290.00
C 114.53 287.48 116.03 283.77 114.00 282.00
C 114.98 287.98 110.95 282.07 112.00 288.00
C 109.81 286.30 111.56 282.52 111.00 280.00
C 109.37 279.13 110.24 288.38 108.99 285.02 C 107.74 281.65 109.07 283.06 107.00 286.00
C 107.53 280.31 106.55 281.66 104.00 280.00
C 104.19 286.33 102.27 281.57 103.00 278.00
C 101.67 283.01 97.88 282.26 99.00 276.00
C 96.95 278.40 98.15 280.79 96.93 277.14 C 95.70 273.50 96.59 282.64 95.00 282.00
C 94.53 279.48 96.03 275.77 94.00 274.00
C 94.98 279.98 90.95 274.07 92.00 280.00
C 89.81 278.30 91.56 274.52 91.00 272.00
C 88.97 275.24 90.41 280.15 88.00 274.00
C 88.19 280.33 86.27 275.57 87.00 272.00
C 84.95 274.40 86.15 276.79 84.93 273.14 C 83.70 269.50 84.59 278.64 83.00 278.00
C 82.53 275.48 84.03 271.77 82.00 270.00
C 82.56 275.51 80.72 271.10 79.00 274.00
C 79.00 266.74 78.47 268.95 77.00 274.00
C 75.30 263.90 76.15 252.40 76.00 242.00 C 75.85 231.60 76.10 220.13 76.00 210.00 C 75.90 199.87 76.04 201.76 76.00 193.00 C 75.96 184.24 76.01 186.49 76.00 177.00 C 75.99 167.51 76.01 154.38 76.00 145.00 C 75.99 135.62 76.04 135.21 76.00 128.00 C 75.96 120.79 76.11 117.87 76.00 112.00 C 75.89 106.13 76.25 100.88 76.00 96.00 C 75.75 91.12 76.55 83.59 76.00 80.00 C 75.45 76.41 77.68 65.48 75.00 65.00
C 74.36 65.56 73.64 66.45 73.00 67.00 Z"/>
</g>
<g fill="None" fill-opacity="0.0" stroke="#916A37" stroke-opacity="0.96" stroke-width="0.3"><path d="
M 73.00 67.00 
C 51.10 86.10 43.52 108.80 44.00 139.00 C 44.48 169.20 43.80 207.94 44.00 239.00 C 44.20 270.06 43.94 309.72 44.00 340.00 C 44.06 370.28 40.62 403.42 57.23 426.77 C 73.84 450.13 88.92 463.18 118.00 467.00 C 147.08 470.83 186.24 467.12 217.00 468.00 C 247.76 468.88 287.69 467.98 318.00 468.00 C 348.31 468.02 386.04 471.31 411.98 461.98 C 437.91 452.64 452.17 435.79 462.00 412.00
C 462.30 411.27 462.70 410.72 463.00 410.00
C 454.40 422.12 445.95 435.54 433.74 444.74 C 421.54 453.95 404.73 459.82 390.22 461.22 C 375.72 462.61 356.15 461.63 342.25 461.20 C 328.35 460.76 316.51 461.34 302.75 460.40 C 288.99 459.46 269.54 460.74 255.25 460.80 C 240.95 460.86 223.04 459.52 204.00 460.00 C 184.96 460.48 159.87 459.72 140.01 459.99 C 120.15 460.26 106.37 456.31 88.70 447.30 C 71.03 438.29 76.07 415.29 76.00 397.00
C 75.04 396.15 72.65 399.36 70.00 398.00
C 70.09 357.35 69.95 319.35 68.00 280.00
C 66.99 293.42 68.11 302.14 67.40 313.25 C 66.68 324.36 63.78 332.72 64.60 343.25 C 65.43 353.78 64.02 362.29 64.00 374.00
C 62.67 352.16 62.67 326.28 62.00 306.00 C 61.33 285.72 59.73 262.85 59.80 245.25 C 59.87 227.64 58.34 215.21 59.00 193.00 C 59.66 170.79 57.03 144.94 57.00 124.00 C 56.97 103.06 56.17 80.05 75.00 73.00
C 76.97 71.49 73.28 64.34 73.00 67.00 Z"/>
</g>
<g fill="None" fill-opacity="0.0" stroke="#000000" stroke-opacity="0.09" stroke-width="0.3"><path d="
M 465.00 108.00 
C 470.09 113.92 478.00 114.87 481.92 123.08 C 485.84 131.29 489.35 138.45 490.00 148.00
C 490.76 159.21 490.00 170.76 490.00 182.00
C 490.00 205.33 490.00 228.67 490.00 252.00
C 490.00 268.08 488.45 285.01 490.00 301.00
C 490.67 307.92 490.66 316.15 490.00 323.00
C 490.01 343.87 493.98 369.26 483.00 387.00
C 481.56 390.50 479.53 394.28 476.25 398.25 C 472.97 402.22 467.15 403.90 464.00 407.00
C 463.88 407.74 463.27 409.36 463.00 410.00
C 462.70 410.72 462.30 411.27 462.00 412.00
C 462.62 412.55 471.44 407.69 473.25 406.25 C 475.06 404.80 479.60 400.39 481.70 397.70 C 483.79 395.01 486.08 390.72 488.08 387.08 C 490.07 383.43 491.20 378.62 492.01 374.01 C 492.82 369.40 493.17 364.52 493.00 359.00 C 492.83 353.48 493.01 348.05 493.00 342.00 C 492.99 335.95 492.75 332.07 493.22 325.22 C 493.70 318.37 495.15 318.18 494.00 309.00 C 492.85 299.82 492.86 286.51 493.00 277.00 C 493.14 267.49 492.93 268.01 493.00 260.00 C 493.07 251.99 492.96 251.08 493.00 243.00 C 493.04 234.92 492.97 235.75 493.00 226.00 C 493.03 216.25 492.96 202.77 493.00 193.00 C 493.04 183.23 492.77 184.46 493.00 176.00 C 493.23 167.54 492.44 168.02 493.00 159.00 C 493.56 149.98 491.83 138.25 488.77 130.23 C 485.71 122.21 480.03 116.68 474.08 110.92 C 468.14 105.16 468.75 109.66 464.00 105.00
C 464.31 105.89 464.76 107.10 465.00 108.00 Z"/>
</g>
<g fill="None" fill-opacity="0.0" stroke="#C3C1B9" stroke-opacity="0.99" stroke-width="0.3"><path d="
M 467.00 123.00 
C 469.19 135.20 468.20 148.88 468.00 162.00 C 467.80 175.12 469.19 189.84 468.00 203.00
C 469.17 199.55 475.85 196.57 478.25 193.25 C 480.64 189.93 485.65 185.33 489.00 183.00
C 489.00 182.50 489.00 182.00 489.00 182.00
C 489.00 170.76 489.70 158.44 490.00 148.00
C 489.35 138.45 485.84 131.29 481.92 123.08 C 478.00 114.87 470.09 113.92 465.00 108.00
C 466.22 112.66 466.67 118.21 467.00 123.00 Z"/>
</g>
<g fill="None" fill-opacity="0.0" stroke="#926A3A" stroke-opacity="1.00" stroke-width="0.3"><path d="
M 134.00 287.00 
C 151.25 346.24 202.23 390.71 266.00 390.00 C 329.77 389.29 379.85 345.59 396.00 286.00
C 399.41 262.11 400.07 231.82 390.93 210.07 C 381.78 188.33 373.92 174.27 356.75 158.25 C 339.59 142.22 324.14 134.00 302.02 126.98 C 279.91 119.95 248.75 120.87 226.68 127.68 C 204.60 134.49 189.47 143.10 172.25 159.25 C 155.03 175.40 147.99 189.64 138.32 211.32 C 128.65 233.01 132.60 263.45 134.00 287.00
M 359.00 337.00 
C 308.76 293.57 224.50 291.64 176.00 339.00
C 127.99 294.24 132.02 214.19 178.25 168.25 C 224.47 122.31 301.53 120.51 349.25 165.75 C 396.96 211.00 401.81 287.05 359.00 337.00 Z"/>
</g>
<g fill="None" fill-opacity="0.0" stroke="#B6A381" stroke-opacity="1.00" stroke-width="0.3"><path d="
M 467.00 203.00 
C 467.00 202.96 468.00 203.00 468.00 203.00
C 469.19 189.84 467.80 175.12 468.00 162.00 C 468.20 148.88 469.19 135.20 467.00 123.00
C 468.80 149.39 467.00 176.54 467.00 203.00 Z"/>
</g>
<g fill="None" fill-opacity="0.0" stroke="#AB8247" stroke-opacity="1.00" stroke-width="0.3"><path d="
M 359.00 337.00 
C 401.81 287.05 396.96 211.00 349.25 165.75 C 301.53 120.51 224.47 122.31 178.25 168.25 C 132.02 214.19 127.99 294.24 176.00 339.00
C 224.50 291.64 308.76 293.57 359.00 337.00
M 273.00 164.00 
C 309.46 170.53 323.16 219.13 302.70 249.70 C 282.23 280.27 234.82 273.76 222.03 238.98 C 209.23 204.19 231.51 156.57 273.00 164.00 Z"/>
</g>
<g fill="None" fill-opacity="0.0" stroke="#A5A59D" stroke-opacity="0.58" stroke-width="0.3"><path d="
M 489.00 182.00 
C 489.25 181.75 490.00 182.00 490.00 182.00
C 490.00 170.76 490.76 159.21 490.00 148.00
C 489.70 158.44 489.00 170.76 489.00 182.00 Z"/>
</g>
<g fill="None" fill-opacity="0.0" stroke="#946B3B" stroke-opacity="1.00" stroke-width="0.3"><path d="
M 273.00 164.00 
C 231.51 156.57 209.23 204.19 222.03 238.98 C 234.82 273.76 282.23 280.27 302.70 249.70 C 323.16 219.13 309.46 170.53 273.00 164.00 Z"/>
</g>
<g fill="None" fill-opacity="0.0" stroke="#4AA8D3" stroke-opacity="0.58" stroke-width="0.3"><path d="
M 489.00 183.00 
C 489.00 184.33 489.00 185.67 489.00 187.00
C 489.00 208.37 487.09 230.73 489.00 252.00
C 489.40 251.80 490.00 252.00 490.00 252.00
C 490.00 228.67 490.00 205.33 490.00 182.00
C 490.00 182.00 489.25 181.75 489.00 182.00
C 489.00 182.00 489.00 182.50 489.00 183.00 Z"/>
</g>
<g fill="None" fill-opacity="0.0" stroke="#49A4CD" stroke-opacity="1.00" stroke-width="0.3"><path d="
M 468.00 203.00 
C 468.43 203.71 468.00 206.15 468.00 207.00
C 469.46 203.81 477.01 201.79 478.75 197.75 C 480.49 193.71 487.96 191.17 489.00 187.00
C 489.00 185.67 489.00 184.33 489.00 183.00
C 485.65 185.33 480.64 189.93 478.25 193.25 C 475.85 196.57 469.17 199.55 468.00 203.00 Z"/>
</g>
<g fill="None" fill-opacity="0.0" stroke="#58C9FB" stroke-opacity="1.00" stroke-width="0.3"><path d="
M 468.00 207.00 
C 468.00 228.04 469.89 250.06 468.00 271.00
C 476.25 266.97 480.84 255.99 489.00 252.00
C 487.09 230.73 489.00 208.37 489.00 187.00
C 487.96 191.17 480.49 193.71 478.75 197.75 C 477.01 201.79 469.46 203.81 468.00 207.00 Z"/>
</g>
<g fill="None" fill-opacity="0.0" stroke="#7FA29D" stroke-opacity="1.00" stroke-width="0.3"><path d="
M 467.00 236.00 
C 467.00 247.67 467.00 259.33 467.00 271.00
C 467.00 270.96 468.00 271.00 468.00 271.00
C 469.89 250.06 468.00 228.04 468.00 207.00
C 468.00 206.15 468.43 203.71 468.00 203.00
C 468.00 203.00 467.00 202.96 467.00 203.00
C 467.00 214.00 467.00 225.00 467.00 236.00 Z"/>
</g>
<g fill="None" fill-opacity="0.0" stroke="#F69105" stroke-opacity="0.99" stroke-width="0.3"><path d="
M 468.00 271.00 
C 468.00 271.00 467.00 270.96 467.00 271.00
C 467.00 293.86 467.93 317.89 468.00 340.00
C 472.19 333.70 482.86 328.63 488.00 323.00
C 488.07 322.83 488.97 321.02 489.00 321.00
C 490.26 315.08 489.47 306.46 490.00 301.00
C 488.45 285.01 490.00 268.08 490.00 252.00
C 490.00 252.00 489.40 251.80 489.00 252.00
C 480.84 255.99 476.25 266.97 468.00 271.00 Z"/>
</g>
<g fill="None" fill-opacity="0.0" stroke="#AA9019" stroke-opacity="0.83" stroke-width="0.3"><path d="
M 489.00 321.00 
C 489.40 320.80 490.00 321.00 490.00 321.00
C 490.00 314.33 490.00 307.67 490.00 301.00
C 489.47 306.46 490.26 315.08 489.00 321.00 Z"/>
</g>
<g fill="None" fill-opacity="0.0" stroke="#000000" stroke-opacity="0.22" stroke-width="0.3"><path d="
M 490.00 321.00 
C 490.00 321.50 490.00 322.50 490.00 323.00
C 490.66 316.15 490.67 307.92 490.00 301.00
C 490.00 307.67 490.00 314.33 490.00 321.00 Z"/>
</g>
<g fill="None" fill-opacity="0.0" stroke="#4AD361" stroke-opacity="0.98" stroke-width="0.3"><path d="
M 488.00 323.00 
C 484.54 330.96 474.62 337.33 468.00 342.00
C 467.33 357.17 469.33 373.66 467.00 388.00
C 466.62 393.54 464.80 398.68 464.00 404.00
C 465.59 401.55 472.80 400.37 475.08 397.08 C 477.37 393.80 480.82 390.52 483.00 387.00
C 493.98 369.26 490.01 343.87 490.00 323.00
C 490.00 322.50 490.00 321.50 490.00 321.00
C 490.00 321.00 489.40 320.80 489.00 321.00
C 488.97 321.02 488.07 322.83 488.00 323.00 Z"/>
</g>
<g fill="None" fill-opacity="0.0" stroke="#62A34C" stroke-opacity="1.00" stroke-width="0.3"><path d="
M 468.00 340.00 
C 468.05 355.20 468.06 372.44 467.00 388.00
C 469.33 373.66 467.33 357.17 468.00 342.00
C 474.62 337.33 484.54 330.96 488.00 323.00
C 482.86 328.63 472.19 333.70 468.00 340.00 Z"/>
</g>
<g fill="None" fill-opacity="0.0" stroke="#000000" stroke-opacity="0.25" stroke-width="0.3"><path d="
M 464.00 404.00 
C 463.85 404.98 464.16 406.03 464.00 407.00
C 467.15 403.90 472.97 402.22 476.25 398.25 C 479.53 394.28 481.56 390.50 483.00 387.00
C 480.82 390.52 477.37 393.80 475.08 397.08 C 472.80 400.37 465.59 401.55 464.00 404.00 Z"/>
</g>
<g fill="#000000" fill-opacity="0.00" stroke="None">
<path d="
M 0.00 512.00 
L 512.00 512.00
L 512.00 0.00
L 0.00 0.00
L 0.00 512.00
M 464.00 105.00 
C 468.75 109.66 468.14 105.16 474.08 110.92 C 480.03 116.68 485.71 122.21 488.77 130.23 C 491.83 138.25 493.56 149.98 493.00 159.00 C 492.44 168.02 493.23 167.54 493.00 176.00 C 492.77 184.46 493.04 183.23 493.00 193.00 C 492.96 202.77 493.03 216.25 493.00 226.00 C 492.97 235.75 493.04 234.92 493.00 243.00 C 492.96 251.08 493.07 251.99 493.00 260.00 C 492.93 268.01 493.14 267.49 493.00 277.00 C 492.86 286.51 492.85 299.82 494.00 309.00 C 495.15 318.18 493.70 318.37 493.22 325.22 C 492.75 332.07 492.99 335.95 493.00 342.00 C 493.01 348.05 492.83 353.48 493.00 359.00 C 493.17 364.52 492.82 369.40 492.01 374.01 C 491.20 378.62 490.07 383.43 488.08 387.08 C 486.08 390.72 483.79 395.01 481.70 397.70 C 479.60 400.39 475.06 404.80 473.25 406.25 C 471.44 407.69 462.62 412.55 462.00 412.00
C 452.17 435.79 437.91 452.64 411.98 461.98 C 386.04 471.31 348.31 468.02 318.00 468.00 C 287.69 467.98 247.76 468.88 217.00 468.00 C 186.24 467.12 147.08 470.83 118.00 467.00 C 88.92 463.18 73.84 450.13 57.23 426.77 C 40.62 403.42 44.06 370.28 44.00 340.00 C 43.94 309.72 44.20 270.06 44.00 239.00 C 43.80 207.94 44.48 169.20 44.00 139.00 C 43.52 108.80 51.10 86.10 73.00 67.00
C 73.64 66.45 74.36 65.56 75.00 65.00
C 96.21 46.33 118.98 43.28 148.00 44.00 C 177.02 44.72 212.51 43.75 242.00 44.00 C 271.49 44.25 307.28 44.05 336.00 44.00 C 364.72 43.95 396.84 41.26 420.23 53.77 C 443.62 66.28 455.65 81.32 464.00 105.00 Z"/>
</g>
<g fill="#B0894B" fill-opacity="1.00" stroke="None">
<path d="
M 75.00 65.00 
C 77.68 65.48 75.45 76.41 76.00 80.00 C 76.55 83.59 75.75 91.12 76.00 96.00 C 76.25 100.88 75.89 106.13 76.00 112.00 C 76.11 117.87 75.96 120.79 76.00 128.00 C 76.04 135.21 75.99 135.62 76.00 145.00 C 76.01 154.38 75.99 167.51 76.00 177.00 C 76.01 186.49 75.96 184.24 76.00 193.00 C 76.04 201.76 75.90 199.87 76.00 210.00 C 76.10 220.13 75.85 231.60 76.00 242.00 C 76.15 252.40 75.30 263.90 77.00 274.00
C 78.47 268.95 79.00 266.74 79.00 274.00
C 80.72 271.10 82.56 275.51 82.00 270.00
C 84.03 271.77 82.53 275.48 83.00 278.00
C 84.59 278.64 83.70 269.50 84.93 273.14 C 86.15 276.79 84.95 274.40 87.00 272.00
C 86.27 275.57 88.19 280.33 88.00 274.00
C 90.41 280.15 88.97 275.24 91.00 272.00
C 91.56 274.52 89.81 278.30 92.00 280.00
C 90.95 274.07 94.98 279.98 94.00 274.00
C 96.03 275.77 94.53 279.48 95.00 282.00
C 96.59 282.64 95.70 273.50 96.93 277.14 C 98.15 280.79 96.95 278.40 99.00 276.00
C 97.88 282.26 101.67 283.01 103.00 278.00
C 102.27 281.57 104.19 286.33 104.00 280.00
C 106.55 281.66 107.53 280.31 107.00 286.00
C 109.07 283.06 107.74 281.65 108.99 285.02 C 110.24 288.38 109.37 279.13 111.00 280.00
C 111.56 282.52 109.81 286.30 112.00 288.00
C 110.95 282.07 114.98 287.98 114.00 282.00
C 116.03 283.77 114.53 287.48 115.00 290.00
C 116.59 290.64 115.70 281.50 116.93 285.14 C 118.15 288.79 116.95 286.40 119.00 284.00
C 118.27 287.57 120.19 292.33 120.00 286.00
C 122.41 292.15 120.97 287.24 123.00 284.00
C 123.56 286.52 121.81 290.30 124.00 292.00
C 123.30 286.40 128.72 288.27 127.00 294.00
C 128.59 294.64 127.70 285.50 128.93 289.14 C 130.15 292.79 128.95 290.40 131.00 288.00
C 130.56 293.65 131.24 292.30 134.00 294.00
C 134.00 291.67 134.00 289.33 134.00 287.00
C 132.60 263.45 128.65 233.01 138.32 211.32 C 147.99 189.64 155.03 175.40 172.25 159.25 C 189.47 143.10 204.60 134.49 226.68 127.68 C 248.75 120.87 279.91 119.95 302.02 126.98 C 324.14 134.00 339.59 142.22 356.75 158.25 C 373.92 174.27 381.78 188.33 390.93 210.07 C 400.07 231.82 399.41 262.11 396.00 286.00
C 395.14 292.00 394.36 296.46 393.00 302.00
C 395.44 297.93 395.03 303.87 395.00 306.00
C 396.76 298.80 398.30 310.10 398.00 300.00
C 400.18 300.35 397.85 306.92 400.00 305.00
C 401.32 305.07 402.47 305.88 402.00 302.00
C 404.03 303.78 402.53 307.48 403.00 310.00
C 404.59 310.64 403.70 301.50 404.93 305.14 C 406.15 308.79 404.95 306.40 407.00 304.00
C 406.27 307.57 408.19 312.33 408.00 306.00
C 410.41 312.15 408.97 307.24 411.00 304.00
C 411.56 306.52 409.81 310.30 412.00 312.00
C 410.95 306.07 414.98 311.98 414.00 306.00
C 416.03 307.77 414.53 311.48 415.00 314.00
C 416.59 314.64 415.70 305.50 416.93 309.14 C 418.15 312.79 416.95 310.40 419.00 308.00
C 417.88 314.26 421.67 315.01 423.00 310.00
C 422.27 313.57 424.19 318.33 424.00 312.00
C 426.55 313.66 427.53 312.31 427.00 318.00
C 429.07 315.06 427.74 313.65 428.99 317.02 C 430.24 320.38 429.37 311.13 431.00 312.00
C 431.56 314.52 429.81 318.30 432.00 320.00
C 430.95 314.07 434.98 319.98 434.00 314.00
C 436.03 315.77 434.53 319.48 435.00 322.00
C 436.59 322.64 435.70 313.50 436.93 317.14 C 438.15 320.79 436.95 318.40 439.00 316.00
C 438.27 319.57 440.18 324.33 440.00 318.00
C 442.41 324.15 440.97 319.24 443.00 316.00
C 443.56 318.52 441.81 322.30 444.00 324.00
C 443.30 318.40 448.72 320.27 447.00 326.00
C 448.59 326.64 447.70 317.50 448.93 321.14 C 450.15 324.79 448.95 322.40 451.00 320.00
C 449.25 325.60 454.59 327.70 454.00 322.00
C 456.03 323.77 454.53 327.48 455.00 330.00
C 457.29 323.58 455.36 315.18 456.00 308.00
C 457.58 309.23 457.12 317.20 457.99 310.98 C 458.87 304.77 458.35 312.88 460.00 314.00
C 460.00 308.00 460.00 302.00 460.00 296.00
C 464.21 299.06 460.99 284.13 462.00 280.00
C 465.04 291.64 463.26 277.58 464.00 272.00 C 464.74 266.42 464.60 262.14 465.20 256.75 C 465.80 251.36 465.59 241.13 467.00 236.00
C 467.00 225.00 467.00 214.00 467.00 203.00
C 467.00 176.54 468.80 149.39 467.00 123.00
C 466.67 118.21 466.22 112.66 465.00 108.00
C 464.76 107.10 464.31 105.89 464.00 105.00
C 455.65 81.32 443.62 66.28 420.23 53.77 C 396.84 41.26 364.72 43.95 336.00 44.00 C 307.28 44.05 271.49 44.25 242.00 44.00 C 212.51 43.75 177.02 44.72 148.00 44.00 C 118.98 43.28 96.21 46.33 75.00 65.00 Z"/>
</g>
<g fill="#A37741" fill-opacity="1.00" stroke="None">
<path d="
M 73.00 67.00 
C 73.28 64.34 76.97 71.49 75.00 73.00
C 56.17 80.05 56.97 103.06 57.00 124.00 C 57.03 144.94 59.66 170.79 59.00 193.00 C 58.34 215.21 59.87 227.64 59.80 245.25 C 59.73 262.85 61.33 285.72 62.00 306.00 C 62.67 326.28 62.67 352.16 64.00 374.00
C 64.02 362.29 65.43 353.78 64.60 343.25 C 63.78 332.72 66.68 324.36 67.40 313.25 C 68.11 302.14 66.99 293.42 68.00 280.00
C 69.95 319.35 70.09 357.35 70.00 398.00
C 72.65 399.36 75.04 396.15 76.00 397.00
C 76.07 415.29 71.03 438.29 88.70 447.30 C 106.37 456.31 120.15 460.26 140.01 459.99 C 159.87 459.72 184.96 460.48 204.00 460.00 C 223.04 459.52 240.95 460.86 255.25 460.80 C 269.54 460.74 288.99 459.46 302.75 460.40 C 316.51 461.34 328.35 460.76 342.25 461.20 C 356.15 461.63 375.72 462.61 390.22 461.22 C 404.73 459.82 421.54 453.95 433.74 444.74 C 445.95 435.54 454.40 422.12 463.00 410.00
C 463.27 409.36 463.88 407.74 464.00 407.00
C 464.16 406.03 463.85 404.98 464.00 404.00
C 464.80 398.68 466.62 393.54 467.00 388.00
C 468.06 372.44 468.05 355.20 468.00 340.00
C 467.93 317.89 467.00 293.86 467.00 271.00
C 467.00 259.33 467.00 247.67 467.00 236.00
C 465.59 241.13 465.80 251.36 465.20 256.75 C 464.60 262.14 464.74 266.42 464.00 272.00 C 463.26 277.58 465.04 291.64 462.00 280.00
C 460.99 284.13 464.21 299.06 460.00 296.00
C 460.00 302.00 460.00 308.00 460.00 314.00
C 458.35 312.88 458.87 304.77 457.99 310.98 C 457.12 317.20 457.58 309.23 456.00 308.00
C 455.36 315.18 457.29 323.58 455.00 330.00
C 454.53 327.48 456.03 323.77 454.00 322.00
C 454.59 327.70 449.25 325.60 451.00 320.00
C 448.95 322.40 450.15 324.79 448.93 321.14 C 447.70 317.50 448.59 326.64 447.00 326.00
C 448.72 320.27 443.30 318.40 444.00 324.00
C 441.81 322.30 443.56 318.52 443.00 316.00
C 440.97 319.24 442.41 324.15 440.00 318.00
C 440.18 324.33 438.27 319.57 439.00 316.00
C 436.95 318.40 438.15 320.79 436.93 317.14 C 435.70 313.50 436.59 322.64 435.00 322.00
C 434.53 319.48 436.03 315.77 434.00 314.00
C 434.98 319.98 430.95 314.07 432.00 320.00
C 429.81 318.30 431.56 314.52 431.00 312.00
C 429.37 311.13 430.24 320.38 428.99 317.02 C 427.74 313.65 429.07 315.06 427.00 318.00
C 427.53 312.31 426.55 313.66 424.00 312.00
C 424.19 318.33 422.27 313.57 423.00 310.00
C 421.67 315.01 417.88 314.26 419.00 308.00
C 416.95 310.40 418.15 312.79 416.93 309.14 C 415.70 305.50 416.59 314.64 415.00 314.00
C 414.53 311.48 416.03 307.77 414.00 306.00
C 414.98 311.98 410.95 306.07 412.00 312.00
C 409.81 310.30 411.56 306.52 411.00 304.00
C 408.97 307.24 410.41 312.15 408.00 306.00
C 408.19 312.33 406.27 307.57 407.00 304.00
C 404.95 306.40 406.15 308.79 404.93 305.14 C 403.70 301.50 404.59 310.64 403.00 310.00
C 402.53 307.48 404.03 303.78 402.00 302.00
C 402.47 305.88 401.32 305.07 400.00 305.00
C 397.85 306.92 400.18 300.35 398.00 300.00
C 398.30 310.10 396.76 298.80 395.00 306.00
C 395.03 303.87 395.44 297.93 393.00 302.00
C 394.36 296.46 395.14 292.00 396.00 286.00
C 379.85 345.59 329.77 389.29 266.00 390.00 C 202.23 390.71 151.25 346.24 134.00 287.00
C 134.00 289.33 134.00 291.67 134.00 294.00
C 131.24 292.30 130.56 293.65 131.00 288.00
C 128.95 290.40 130.15 292.79 128.93 289.14 C 127.70 285.50 128.59 294.64 127.00 294.00
C 128.72 288.27 123.30 286.40 124.00 292.00
C 121.81 290.30 123.56 286.52 123.00 284.00
C 120.97 287.24 122.41 292.15 120.00 286.00
C 120.19 292.33 118.27 287.57 119.00 284.00
C 116.95 286.40 118.15 288.79 116.93 285.14 C 115.70 281.50 116.59 290.64 115.00 290.00
C 114.53 287.48 116.03 283.77 114.00 282.00
C 114.98 287.98 110.95 282.07 112.00 288.00
C 109.81 286.30 111.56 282.52 111.00 280.00
C 109.37 279.13 110.24 288.38 108.99 285.02 C 107.74 281.65 109.07 283.06 107.00 286.00
C 107.53 280.31 106.55 281.66 104.00 280.00
C 104.19 286.33 102.27 281.57 103.00 278.00
C 101.67 283.01 97.88 282.26 99.00 276.00
C 96.95 278.40 98.15 280.79 96.93 277.14 C 95.70 273.50 96.59 282.64 95.00 282.00
C 94.53 279.48 96.03 275.77 94.00 274.00
C 94.98 279.98 90.95 274.07 92.00 280.00
C 89.81 278.30 91.56 274.52 91.00 272.00
C 88.97 275.24 90.41 280.15 88.00 274.00
C 88.19 280.33 86.27 275.57 87.00 272.00
C 84.95 274.40 86.15 276.79 84.93 273.14 C 83.70 269.50 84.59 278.64 83.00 278.00
C 82.53 275.48 84.03 271.77 82.00 270.00
C 82.56 275.51 80.72 271.10 79.00 274.00
C 79.00 266.74 78.47 268.95 77.00 274.00
C 75.30 263.90 76.15 252.40 76.00 242.00 C 75.85 231.60 76.10 220.13 76.00 210.00 C 75.90 199.87 76.04 201.76 76.00 193.00 C 75.96 184.24 76.01 186.49 76.00 177.00 C 75.99 167.51 76.01 154.38 76.00 145.00 C 75.99 135.62 76.04 135.21 76.00 128.00 C 75.96 120.79 76.11 117.87 76.00 112.00 C 75.89 106.13 76.25 100.88 76.00 96.00 C 75.75 91.12 76.55 83.59 76.00 80.00 C 75.45 76.41 77.68 65.48 75.00 65.00
C 74.36 65.56 73.64 66.45 73.00 67.00 Z"/>
</g>
<g fill="#916A37" fill-opacity="0.96" stroke="None">
<path d="
M 73.00 67.00 
C 51.10 86.10 43.52 108.80 44.00 139.00 C 44.48 169.20 43.80 207.94 44.00 239.00 C 44.20 270.06 43.94 309.72 44.00 340.00 C 44.06 370.28 40.62 403.42 57.23 426.77 C 73.84 450.13 88.92 463.18 118.00 467.00 C 147.08 470.83 186.24 467.12 217.00 468.00 C 247.76 468.88 287.69 467.98 318.00 468.00 C 348.31 468.02 386.04 471.31 411.98 461.98 C 437.91 452.64 452.17 435.79 462.00 412.00
C 462.30 411.27 462.70 410.72 463.00 410.00
C 454.40 422.12 445.95 435.54 433.74 444.74 C 421.54 453.95 404.73 459.82 390.22 461.22 C 375.72 462.61 356.15 461.63 342.25 461.20 C 328.35 460.76 316.51 461.34 302.75 460.40 C 288.99 459.46 269.54 460.74 255.25 460.80 C 240.95 460.86 223.04 459.52 204.00 460.00 C 184.96 460.48 159.87 459.72 140.01 459.99 C 120.15 460.26 106.37 456.31 88.70 447.30 C 71.03 438.29 76.07 415.29 76.00 397.00
C 75.04 396.15 72.65 399.36 70.00 398.00
C 70.09 357.35 69.95 319.35 68.00 280.00
C 66.99 293.42 68.11 302.14 67.40 313.25 C 66.68 324.36 63.78 332.72 64.60 343.25 C 65.43 353.78 64.02 362.29 64.00 374.00
C 62.67 352.16 62.67 326.28 62.00 306.00 C 61.33 285.72 59.73 262.85 59.80 245.25 C 59.87 227.64 58.34 215.21 59.00 193.00 C 59.66 170.79 57.03 144.94 57.00 124.00 C 56.97 103.06 56.17 80.05 75.00 73.00
C 76.97 71.49 73.28 64.34 73.00 67.00 Z"/>
</g>
<g fill="#000000" fill-opacity="0.09" stroke="None">
<path d="
M 465.00 108.00 
C 470.09 113.92 478.00 114.87 481.92 123.08 C 485.84 131.29 489.35 138.45 490.00 148.00
C 490.76 159.21 490.00 170.76 490.00 182.00
C 490.00 205.33 490.00 228.67 490.00 252.00
C 490.00 268.08 488.45 285.01 490.00 301.00
C 490.67 307.92 490.66 316.15 490.00 323.00
C 490.01 343.87 493.98 369.26 483.00 387.00
C 481.56 390.50 479.53 394.28 476.25 398.25 C 472.97 402.22 467.15 403.90 464.00 407.00
C 463.88 407.74 463.27 409.36 463.00 410.00
C 462.70 410.72 462.30 411.27 462.00 412.00
C 462.62 412.55 471.44 407.69 473.25 406.25 C 475.06 404.80 479.60 400.39 481.70 397.70 C 483.79 395.01 486.08 390.72 488.08 387.08 C 490.07 383.43 491.20 378.62 492.01 374.01 C 492.82 369.40 493.17 364.52 493.00 359.00 C 492.83 353.48 493.01 348.05 493.00 342.00 C 492.99 335.95 492.75 332.07 493.22 325.22 C 493.70 318.37 495.15 318.18 494.00 309.00 C 492.85 299.82 492.86 286.51 493.00 277.00 C 493.14 267.49 492.93 268.01 493.00 260.00 C 493.07 251.99 492.96 251.08 493.00 243.00 C 493.04 234.92 492.97 235.75 493.00 226.00 C 493.03 216.25 492.96 202.77 493.00 193.00 C 493.04 183.23 492.77 184.46 493.00 176.00 C 493.23 167.54 492.44 168.02 493.00 159.00 C 493.56 149.98 491.83 138.25 488.77 130.23 C 485.71 122.21 480.03 116.68 474.08 110.92 C 468.14 105.16 468.75 109.66 464.00 105.00
C 464.31 105.89 464.76 107.10 465.00 108.00 Z"/>
</g>
<g fill="#C3C1B9" fill-opacity="0.99" stroke="None">
<path d="
M 467.00 123.00 
C 469.19 135.20 468.20 148.88 468.00 162.00 C 467.80 175.12 469.19 189.84 468.00 203.00
C 469.17 199.55 475.85 196.57 478.25 193.25 C 480.64 189.93 485.65 185.33 489.00 183.00
C 489.00 182.50 489.00 182.00 489.00 182.00
C 489.00 170.76 489.70 158.44 490.00 148.00
C 489.35 138.45 485.84 131.29 481.92 123.08 C 478.00 114.87 470.09 113.92 465.00 108.00
C 466.22 112.66 466.67 118.21 467.00 123.00 Z"/>
</g>
<g fill="#926A3A" fill-opacity="1.00" stroke="None">
<path d="
M 134.00 287.00 
C 151.25 346.24 202.23 390.71 266.00 390.00 C 329.77 389.29 379.85 345.59 396.00 286.00
C 399.41 262.11 400.07 231.82 390.93 210.07 C 381.78 188.33 373.92 174.27 356.75 158.25 C 339.59 142.22 324.14 134.00 302.02 126.98 C 279.91 119.95 248.75 120.87 226.68 127.68 C 204.60 134.49 189.47 143.10 172.25 159.25 C 155.03 175.40 147.99 189.64 138.32 211.32 C 128.65 233.01 132.60 263.45 134.00 287.00
M 359.00 337.00 
C 308.76 293.57 224.50 291.64 176.00 339.00
C 127.99 294.24 132.02 214.19 178.25 168.25 C 224.47 122.31 301.53 120.51 349.25 165.75 C 396.96 211.00 401.81 287.05 359.00 337.00 Z"/>
</g>
<g fill="#B6A381" fill-opacity="1.00" stroke="None">
<path d="
M 467.00 203.00 
C 467.00 202.96 468.00 203.00 468.00 203.00
C 469.19 189.84 467.80 175.12 468.00 162.00 C 468.20 148.88 469.19 135.20 467.00 123.00
C 468.80 149.39 467.00 176.54 467.00 203.00 Z"/>
</g>
<g fill="#AB8247" fill-opacity="1.00" stroke="None">
<path d="
M 359.00 337.00 
C 401.81 287.05 396.96 211.00 349.25 165.75 C 301.53 120.51 224.47 122.31 178.25 168.25 C 132.02 214.19 127.99 294.24 176.00 339.00
C 224.50 291.64 308.76 293.57 359.00 337.00
M 273.00 164.00 
C 309.46 170.53 323.16 219.13 302.70 249.70 C 282.23 280.27 234.82 273.76 222.03 238.98 C 209.23 204.19 231.51 156.57 273.00 164.00 Z"/>
</g>
<g fill="#A5A59D" fill-opacity="0.58" stroke="None">
<path d="
M 489.00 182.00 
C 489.25 181.75 490.00 182.00 490.00 182.00
C 490.00 170.76 490.76 159.21 490.00 148.00
C 489.70 158.44 489.00 170.76 489.00 182.00 Z"/>
</g>
<g fill="#946B3B" fill-opacity="1.00" stroke="None">
<path d="
M 273.00 164.00 
C 231.51 156.57 209.23 204.19 222.03 238.98 C 234.82 273.76 282.23 280.27 302.70 249.70 C 323.16 219.13 309.46 170.53 273.00 164.00 Z"/>
</g>
<g fill="#4AA8D3" fill-opacity="0.58" stroke="None">
<path d="
M 489.00 183.00 
C 489.00 184.33 489.00 185.67 489.00 187.00
C 489.00 208.37 487.09 230.73 489.00 252.00
C 489.40 251.80 490.00 252.00 490.00 252.00
C 490.00 228.67 490.00 205.33 490.00 182.00
C 490.00 182.00 489.25 181.75 489.00 182.00
C 489.00 182.00 489.00 182.50 489.00 183.00 Z"/>
</g>
<g fill="#49A4CD" fill-opacity="1.00" stroke="None">
<path d="
M 468.00 203.00 
C 468.43 203.71 468.00 206.15 468.00 207.00
C 469.46 203.81 477.01 201.79 478.75 197.75 C 480.49 193.71 487.96 191.17 489.00 187.00
C 489.00 185.67 489.00 184.33 489.00 183.00
C 485.65 185.33 480.64 189.93 478.25 193.25 C 475.85 196.57 469.17 199.55 468.00 203.00 Z"/>
</g>
<g fill="#58C9FB" fill-opacity="1.00" stroke="None">
<path d="
M 468.00 207.00 
C 468.00 228.04 469.89 250.06 468.00 271.00
C 476.25 266.97 480.84 255.99 489.00 252.00
C 487.09 230.73 489.00 208.37 489.00 187.00
C 487.96 191.17 480.49 193.71 478.75 197.75 C 477.01 201.79 469.46 203.81 468.00 207.00 Z"/>
</g>
<g fill="#7FA29D" fill-opacity="1.00" stroke="None">
<path d="
M 467.00 236.00 
C 467.00 247.67 467.00 259.33 467.00 271.00
C 467.00 270.96 468.00 271.00 468.00 271.00
C 469.89 250.06 468.00 228.04 468.00 207.00
C 468.00 206.15 468.43 203.71 468.00 203.00
C 468.00 203.00 467.00 202.96 467.00 203.00
C 467.00 214.00 467.00 225.00 467.00 236.00 Z"/>
</g>
<g fill="#F69105" fill-opacity="0.99" stroke="None">
<path d="
M 468.00 271.00 
C 468.00 271.00 467.00 270.96 467.00 271.00
C 467.00 293.86 467.93 317.89 468.00 340.00
C 472.19 333.70 482.86 328.63 488.00 323.00
C 488.07 322.83 488.97 321.02 489.00 321.00
C 490.26 315.08 489.47 306.46 490.00 301.00
C 488.45 285.01 490.00 268.08 490.00 252.00
C 490.00 252.00 489.40 251.80 489.00 252.00
C 480.84 255.99 476.25 266.97 468.00 271.00 Z"/>
</g>
<g fill="#AA9019" fill-opacity="0.83" stroke="None">
<path d="
M 489.00 321.00 
C 489.40 320.80 490.00 321.00 490.00 321.00
C 490.00 314.33 490.00 307.67 490.00 301.00
C 489.47 306.46 490.26 315.08 489.00 321.00 Z"/>
</g>
<g fill="#000000" fill-opacity="0.22" stroke="None">
<path d="
M 490.00 321.00 
C 490.00 321.50 490.00 322.50 490.00 323.00
C 490.66 316.15 490.67 307.92 490.00 301.00
C 490.00 307.67 490.00 314.33 490.00 321.00 Z"/>
</g>
<g fill="#4AD361" fill-opacity="0.98" stroke="None">
<path d="
M 488.00 323.00 
C 484.54 330.96 474.62 337.33 468.00 342.00
C 467.33 357.17 469.33 373.66 467.00 388.00
C 466.62 393.54 464.80 398.68 464.00 404.00
C 465.59 401.55 472.80 400.37 475.08 397.08 C 477.37 393.80 480.82 390.52 483.00 387.00
C 493.98 369.26 490.01 343.87 490.00 323.00
C 490.00 322.50 490.00 321.50 490.00 321.00
C 490.00 321.00 489.40 320.80 489.00 321.00
C 488.97 321.02 488.07 322.83 488.00 323.00 Z"/>
</g>
<g fill="#62A34C" fill-opacity="1.00" stroke="None">
<path d="
M 468.00 340.00 
C 468.05 355.20 468.06 372.44 467.00 388.00
C 469.33 373.66 467.33 357.17 468.00 342.00
C 474.62 337.33 484.54 330.96 488.00 323.00
C 482.86 328.63 472.19 333.70 468.00 340.00 Z"/>
</g>
<g fill="#000000" fill-opacity="0.25" stroke="None">
<path d="
M 464.00 404.00 
C 463.85 404.98 464.16 406.03 464.00 407.00
C 467.15 403.90 472.97 402.22 476.25 398.25 C 479.53 394.28 481.56 390.50 483.00 387.00
C 480.82 390.52 477.37 393.80 475.08 397.08 C 472.80 400.37 465.59 401.55 464.00 404.00 Z"/>
</g>
</svg>