<svg xmlns="http://www.w3.org/2000/svg" xmlns:v="https://svgstorm.com"
viewBox = "37 37 435 435">
<g fill="None" fill-opacity="0.0" stroke="#000000" stroke-opacity="0.00" stroke-width="0.3"><path d="
M 0.00 512.00 
L 512.00 512.00
L 512.00 0.00
L 0.00 0.00
L 0.00 512.00
M 473.00 163.00 
C 479.05 190.32 477.91 221.53 477.00 251.00 C 476.09 280.47 479.63 314.84 477.00 344.00 C 474.37 373.16 485.69 405.33 471.08 431.08 C 456.46 456.83 422.94 448.05 396.00 449.00 C 369.06 449.95 331.56 448.77 303.00 449.00 C 274.44 449.23 238.57 449.34 210.00 449.00 C 181.43 448.66 143.95 450.13 117.00 449.00 C 90.05 447.87 56.41 457.15 41.25 431.75 C 26.09 406.35 37.66 374.08 35.00 345.00 C 32.34 315.92 35.90 281.53 35.00 252.00 C 34.10 222.47 32.93 190.38 39.00 163.00
C 39.00 148.02 39.58 130.75 39.00 116.00 C 38.42 101.25 40.09 89.89 50.75 79.75 C 61.41 69.62 74.46 69.09 89.00 70.00 C 103.54 70.91 121.76 68.71 136.00 70.00 C 150.24 71.29 169.01 65.82 180.25 73.75 C 191.49 81.69 197.52 84.86 208.08 93.92 C 218.64 102.97 228.73 106.60 244.00 105.00 C 259.27 103.40 276.47 105.69 292.00 105.00 C 307.53 104.31 324.53 105.23 340.00 105.00 C 355.47 104.77 371.84 104.90 387.00 105.00 C 402.16 105.10 420.56 104.53 435.00 105.00 C 449.44 105.47 458.02 110.54 466.75 121.25 C 475.49 131.96 473.00 149.50 473.00 163.00 Z"/>
</g>
<g fill="None" fill-opacity="0.0" stroke="#3295CF" stroke-opacity="0.99" stroke-width="0.3"><path d="
M 39.00 163.00 
C 39.00 165.33 39.00 167.67 39.00 170.00
C 44.33 137.19 78.34 139.42 107.00 140.00 C 135.66 140.58 175.59 139.84 206.00 140.00 C 236.41 140.16 274.57 140.15 305.00 140.00 C 335.43 139.85 375.26 140.55 404.00 140.00 C 432.74 139.45 467.62 136.86 473.00 170.00
C 473.00 167.67 473.00 165.33 473.00 163.00
C 473.00 149.50 475.49 131.96 466.75 121.25 C 458.02 110.54 449.44 105.47 435.00 105.00 C 420.56 104.53 402.16 105.10 387.00 105.00 C 371.84 104.90 355.47 104.77 340.00 105.00 C 324.53 105.23 307.53 104.31 292.00 105.00 C 276.47 105.69 259.27 103.40 244.00 105.00 C 228.73 106.60 218.64 102.97 208.08 93.92 C 197.52 84.86 191.49 81.69 180.25 73.75 C 169.01 65.82 150.24 71.29 136.00 70.00 C 121.76 68.71 103.54 70.91 89.00 70.00 C 74.46 69.09 61.41 69.62 50.75 79.75 C 40.09 89.89 38.42 101.25 39.00 116.00 C 39.58 130.75 39.00 148.02 39.00 163.00 Z"/>
</g>
<g fill="None" fill-opacity="0.0" stroke="#54C2F8" stroke-opacity="1.00" stroke-width="0.3"><path d="
M 39.00 170.00 
C 39.00 197.46 38.33 225.61 39.00 253.00 C 39.67 280.39 37.22 308.86 39.00 336.00 C 40.78 363.14 34.47 391.75 40.00 418.00
C 49.51 448.89 84.21 441.60 112.00 442.00 C 139.79 442.40 178.53 441.89 208.00 442.00 C 237.47 442.11 274.52 442.10 304.00 442.00 C 333.48 441.90 372.20 442.38 400.00 442.00 C 427.80 441.62 462.51 448.84 472.00 418.00
C 477.53 391.75 471.22 363.14 473.00 336.00 C 474.78 308.86 472.33 280.39 473.00 253.00 C 473.67 225.61 473.00 197.46 473.00 170.00
C 467.62 136.86 432.74 139.45 404.00 140.00 C 375.26 140.55 335.43 139.85 305.00 140.00 C 274.57 140.15 236.41 140.16 206.00 140.00 C 175.59 139.84 135.66 140.58 107.00 140.00 C 78.34 139.42 44.33 137.19 39.00 170.00
M 288.00 199.00 
C 288.00 231.33 288.00 263.67 288.00 296.00
C 302.67 296.00 317.33 296.00 332.00 296.00
C 306.43 324.93 281.31 353.97 256.00 383.00
C 229.36 355.95 204.12 325.12 179.00 296.00
C 193.33 296.00 207.67 296.00 222.00 296.00
C 222.00 263.67 222.00 231.33 222.00 199.00
C 244.00 199.00 266.00 199.00 288.00 199.00 Z"/>
</g>
<g fill="None" fill-opacity="0.0" stroke="#000000" stroke-opacity="0.09" stroke-width="0.3"><path d="
M 473.00 163.00 
C 473.00 165.33 473.00 167.67 473.00 170.00
C 473.00 197.46 473.67 225.61 473.00 253.00 C 472.33 280.39 474.78 308.86 473.00 336.00 C 471.22 363.14 477.53 391.75 472.00 418.00
C 465.14 450.55 430.20 444.98 402.00 445.00 C 373.80 445.02 334.87 445.00 305.00 445.00 C 275.13 445.00 237.90 445.01 208.00 445.00 C 178.10 444.99 139.31 445.04 111.00 445.00 C 82.69 444.96 46.96 451.05 40.00 418.00
C 34.47 391.75 40.78 363.14 39.00 336.00 C 37.22 308.86 39.67 280.39 39.00 253.00 C 38.33 225.61 39.00 197.46 39.00 170.00
C 39.00 167.67 39.00 165.33 39.00 163.00
C 32.93 190.38 34.10 222.47 35.00 252.00 C 35.90 281.53 32.34 315.92 35.00 345.00 C 37.66 374.08 26.09 406.35 41.25 431.75 C 56.41 457.15 90.05 447.87 117.00 449.00 C 143.95 450.13 181.43 448.66 210.00 449.00 C 238.57 449.34 274.44 449.23 303.00 449.00 C 331.56 448.77 369.06 449.95 396.00 449.00 C 422.94 448.05 456.46 456.83 471.08 431.08 C 485.69 405.33 474.37 373.16 477.00 344.00 C 479.63 314.84 476.09 280.47 477.00 251.00 C 477.91 221.53 479.05 190.32 473.00 163.00 Z"/>
</g>
<g fill="None" fill-opacity="0.0" stroke="#0F68A4" stroke-opacity="1.00" stroke-width="0.3"><path d="
M 288.00 199.00 
C 266.00 199.00 244.00 199.00 222.00 199.00
C 222.00 231.33 222.00 263.67 222.00 296.00
C 207.67 296.00 193.33 296.00 179.00 296.00
C 204.12 325.12 229.36 355.95 256.00 383.00
C 281.31 353.97 306.43 324.93 332.00 296.00
C 317.33 296.00 302.67 296.00 288.00 296.00
C 288.00 263.67 288.00 231.33 288.00 199.00 Z"/>
</g>
<g fill="None" fill-opacity="0.0" stroke="#000000" stroke-opacity="0.19" stroke-width="0.3"><path d="
M 472.00 418.00 
C 462.51 448.84 427.80 441.62 400.00 442.00 C 372.20 442.38 333.48 441.90 304.00 442.00 C 274.52 442.10 237.47 442.11 208.00 442.00 C 178.53 441.89 139.79 442.40 112.00 442.00 C 84.21 441.60 49.51 448.89 40.00 418.00
C 46.96 451.05 82.69 444.96 111.00 445.00 C 139.31 445.04 178.10 444.99 208.00 445.00 C 237.90 445.01 275.13 445.00 305.00 445.00 C 334.87 445.00 373.80 445.02 402.00 445.00 C 430.20 444.98 465.14 450.55 472.00 418.00 Z"/>
</g>
<g fill="#000000" fill-opacity="0.00" stroke="None">
<path d="
M 0.00 512.00 
L 512.00 512.00
L 512.00 0.00
L 0.00 0.00
L 0.00 512.00
M 473.00 163.00 
C 479.05 190.32 477.91 221.53 477.00 251.00 C 476.09 280.47 479.63 314.84 477.00 344.00 C 474.37 373.16 485.69 405.33 471.08 431.08 C 456.46 456.83 422.94 448.05 396.00 449.00 C 369.06 449.95 331.56 448.77 303.00 449.00 C 274.44 449.23 238.57 449.34 210.00 449.00 C 181.43 448.66 143.95 450.13 117.00 449.00 C 90.05 447.87 56.41 457.15 41.25 431.75 C 26.09 406.35 37.66 374.08 35.00 345.00 C 32.34 315.92 35.90 281.53 35.00 252.00 C 34.10 222.47 32.93 190.38 39.00 163.00
C 39.00 148.02 39.58 130.75 39.00 116.00 C 38.42 101.25 40.09 89.89 50.75 79.75 C 61.41 69.62 74.46 69.09 89.00 70.00 C 103.54 70.91 121.76 68.71 136.00 70.00 C 150.24 71.29 169.01 65.82 180.25 73.75 C 191.49 81.69 197.52 84.86 208.08 93.92 C 218.64 102.97 228.73 106.60 244.00 105.00 C 259.27 103.40 276.47 105.69 292.00 105.00 C 307.53 104.31 324.53 105.23 340.00 105.00 C 355.47 104.77 371.84 104.90 387.00 105.00 C 402.16 105.10 420.56 104.53 435.00 105.00 C 449.44 105.47 458.02 110.54 466.75 121.25 C 475.49 131.96 473.00 149.50 473.00 163.00 Z"/>
</g>
<g fill="#3295CF" fill-opacity="0.99" stroke="None">
<path d="
M 39.00 163.00 
C 39.00 165.33 39.00 167.67 39.00 170.00
C 44.33 137.19 78.34 139.42 107.00 140.00 C 135.66 140.58 175.59 139.84 206.00 140.00 C 236.41 140.16 274.57 140.15 305.00 140.00 C 335.43 139.85 375.26 140.55 404.00 140.00 C 432.74 139.45 467.62 136.86 473.00 170.00
C 473.00 167.67 473.00 165.33 473.00 163.00
C 473.00 149.50 475.49 131.96 466.75 121.25 C 458.02 110.54 449.44 105.47 435.00 105.00 C 420.56 104.53 402.16 105.10 387.00 105.00 C 371.84 104.90 355.47 104.77 340.00 105.00 C 324.53 105.23 307.53 104.31 292.00 105.00 C 276.47 105.69 259.27 103.40 244.00 105.00 C 228.73 106.60 218.64 102.97 208.08 93.92 C 197.52 84.86 191.49 81.69 180.25 73.75 C 169.01 65.82 150.24 71.29 136.00 70.00 C 121.76 68.71 103.54 70.91 89.00 70.00 C 74.46 69.09 61.41 69.62 50.75 79.75 C 40.09 89.89 38.42 101.25 39.00 116.00 C 39.58 130.75 39.00 148.02 39.00 163.00 Z"/>
</g>
<g fill="#54C2F8" fill-opacity="1.00" stroke="None">
<path d="
M 39.00 170.00 
C 39.00 197.46 38.33 225.61 39.00 253.00 C 39.67 280.39 37.22 308.86 39.00 336.00 C 40.78 363.14 34.47 391.75 40.00 418.00
C 49.51 448.89 84.21 441.60 112.00 442.00 C 139.79 442.40 178.53 441.89 208.00 442.00 C 237.47 442.11 274.52 442.10 304.00 442.00 C 333.48 441.90 372.20 442.38 400.00 442.00 C 427.80 441.62 462.51 448.84 472.00 418.00
C 477.53 391.75 471.22 363.14 473.00 336.00 C 474.78 308.86 472.33 280.39 473.00 253.00 C 473.67 225.61 473.00 197.46 473.00 170.00
C 467.62 136.86 432.74 139.45 404.00 140.00 C 375.26 140.55 335.43 139.85 305.00 140.00 C 274.57 140.15 236.41 140.16 206.00 140.00 C 175.59 139.84 135.66 140.58 107.00 140.00 C 78.34 139.42 44.33 137.19 39.00 170.00
M 288.00 199.00 
C 288.00 231.33 288.00 263.67 288.00 296.00
C 302.67 296.00 317.33 296.00 332.00 296.00
C 306.43 324.93 281.31 353.97 256.00 383.00
C 229.36 355.95 204.12 325.12 179.00 296.00
C 193.33 296.00 207.67 296.00 222.00 296.00
C 222.00 263.67 222.00 231.33 222.00 199.00
C 244.00 199.00 266.00 199.00 288.00 199.00 Z"/>
</g>
<g fill="#000000" fill-opacity="0.09" stroke="None">
<path d="
M 473.00 163.00 
C 473.00 165.33 473.00 167.67 473.00 170.00
C 473.00 197.46 473.67 225.61 473.00 253.00 C 472.33 280.39 474.78 308.86 473.00 336.00 C 471.22 363.14 477.53 391.75 472.00 418.00
C 465.14 450.55 430.20 444.98 402.00 445.00 C 373.80 445.02 334.87 445.00 305.00 445.00 C 275.13 445.00 237.90 445.01 208.00 445.00 C 178.10 444.99 139.31 445.04 111.00 445.00 C 82.69 444.96 46.96 451.05 40.00 418.00
C 34.47 391.75 40.78 363.14 39.00 336.00 C 37.22 308.86 39.67 280.39 39.00 253.00 C 38.33 225.61 39.00 197.46 39.00 170.00
C 39.00 167.67 39.00 165.33 39.00 163.00
C 32.93 190.38 34.10 222.47 35.00 252.00 C 35.90 281.53 32.34 315.92 35.00 345.00 C 37.66 374.08 26.09 406.35 41.25 431.75 C 56.41 457.15 90.05 447.87 117.00 449.00 C 143.95 450.13 181.43 448.66 210.00 449.00 C 238.57 449.34 274.44 449.23 303.00 449.00 C 331.56 448.77 369.06 449.95 396.00 449.00 C 422.94 448.05 456.46 456.83 471.08 431.08 C 485.69 405.33 474.37 373.16 477.00 344.00 C 479.63 314.84 476.09 280.47 477.00 251.00 C 477.91 221.53 479.05 190.32 473.00 163.00 Z"/>
</g>
<g fill="#0F68A4" fill-opacity="1.00" stroke="None">
<path d="
M 288.00 199.00 
C 266.00 199.00 244.00 199.00 222.00 199.00
C 222.00 231.33 222.00 263.67 222.00 296.00
C 207.67 296.00 193.33 296.00 179.00 296.00
C 204.12 325.12 229.36 355.95 256.00 383.00
C 281.31 353.97 306.43 324.93 332.00 296.00
C 317.33 296.00 302.67 296.00 288.00 296.00
C 288.00 263.67 288.00 231.33 288.00 199.00 Z"/>
</g>
<g fill="#000000" fill-opacity="0.19" stroke="None">
<path d="
M 472.00 418.00 
C 462.51 448.84 427.80 441.62 400.00 442.00 C 372.20 442.38 333.48 441.90 304.00 442.00 C 274.52 442.10 237.47 442.11 208.00 442.00 C 178.53 441.89 139.79 442.40 112.00 442.00 C 84.21 441.60 49.51 448.89 40.00 418.00
C 46.96 451.05 82.69 444.96 111.00 445.00 C 139.31 445.04 178.10 444.99 208.00 445.00 C 237.90 445.01 275.13 445.00 305.00 445.00 C 334.87 445.00 373.80 445.02 402.00 445.00 C 430.20 444.98 465.14 450.55 472.00 418.00 Z"/>
</g>
</svg>