<?xml version="1.0" encoding="utf-8"?>
<!-- Generator: Adobe Illustrator 25.0.1, SVG Export Plug-In . SVG Version: 6.00 Build 0)  -->
<svg version="1.0" id="Layer_1" xmlns="http://www.w3.org/2000/svg" xmlns:xlink="http://www.w3.org/1999/xlink" x="0px" y="0px"
	 viewBox="120 63 170 170" xml:space="preserve">
<style type="text/css">
	.st0{fill:url(#rect2996_1_);}
	.st1{fill:#FFFFFF;}
	.st2{fill:none;}
</style>
<linearGradient id="rect2996_1_" gradientUnits="userSpaceOnUse" x1="-229.3179" y1="834.61" x2="-228.2379" y2="656.2" gradientTransform="matrix(1 0 0 -1 435.79 894.41)">
	<stop  offset="0" style="stop-color:#5DF777"/>
	<stop  offset="1" style="stop-color:#0ABC28"/>
</linearGradient>
<path id="rect2996" class="st0" d="M157.8,56h98.5c23-0.1,41.7,18.6,41.8,41.6c0,0.1,0,0.1,0,0.2v98.5c0.1,23-18.6,41.7-41.6,41.8
	c-0.1,0-0.1,0-0.2,0h-98.5c-23,0.1-41.7-18.6-41.8-41.6c0-0.1,0-0.1,0-0.2V97.8c-0.1-23,18.6-41.7,41.6-41.8
	C157.6,56,157.7,56,157.8,56z"/>
<path class="st1" d="M143.8,125v44.3c0,9.7,7.8,17.5,17.5,17.5h53.3c9.7,0,17.5-7.8,17.5-17.5V125c0-9.7-7.8-17.5-17.5-17.5h-53.3
	C151.6,107.5,143.8,115.3,143.8,125C143.8,125,143.8,125,143.8,125z"/>
<path class="st1" d="M258.8,113.1l-20.1,16.6c-1.8,1.5-2.8,3.7-2.8,6v22.9c0,2.3,1,4.5,2.8,5.9l20.1,16.9c2.9,2.5,7.4,2.1,9.9-0.8
	c1.1-1.3,1.7-2.9,1.7-4.6v-57.5c0-3.9-3.1-7-7-7C261.7,111.5,260.1,112,258.8,113.1z"/>
<rect x="107" y="47" class="st2" width="200" height="200"/>
</svg>
