<svg xmlns="http://www.w3.org/2000/svg" xmlns:v="https://svgstorm.com"
viewBox = "160 100 735 735">
<g fill="None" fill-opacity="0.0" stroke="#000000" stroke-opacity="0.00" stroke-width="0.3"><path d="
M 0.00 1024.00 
L 1024.00 1024.00
L 1024.00 0.00
L 0.00 0.00
L 0.00 1024.00
M 751.00 65.00 
C 785.24 65.68 825.44 71.12 854.70 87.31 C 883.95 103.49 901.85 118.42 921.92 146.08 C 941.99 173.75 952.34 200.90 956.78 237.22 C 961.22 273.54 959.93 320.22 960.00 360.00 C 960.07 399.78 959.97 444.98 960.00 486.00 C 960.03 527.02 959.99 570.41 960.00 612.00 C 960.01 653.59 960.00 697.22 960.00 739.00
C 960.00 741.32 960.12 743.68 960.00 746.00
C 958.29 780.51 953.93 821.26 938.23 851.23 C 922.53 881.20 907.89 899.33 880.25 920.25 C 852.62 941.18 825.54 951.19 789.00 956.00 C 752.46 960.81 706.18 960.23 666.00 960.00 C 625.82 959.77 580.38 960.10 539.00 960.00 C 497.62 959.90 453.94 960.04 412.00 960.00 C 370.06 959.96 326.12 960.00 284.00 960.00
C 281.68 960.00 279.31 960.15 277.00 960.00
C 218.24 956.27 164.41 944.85 121.75 901.25 C 79.09 857.65 66.03 804.60 64.00 745.00
C 63.92 742.67 64.00 740.33 64.00 738.00
C 64.00 587.33 64.00 436.67 64.00 286.00
C 64.00 283.35 63.86 280.65 64.00 278.00
C 65.87 243.51 69.92 202.72 85.77 172.77 C 101.62 142.82 116.35 124.08 144.25 103.25 C 172.14 82.41 199.93 72.26 236.67 67.67 C 273.41 63.08 319.62 63.79 360.00 64.00 C 400.38 64.21 446.40 63.77 488.00 64.00 C 529.60 64.23 573.90 63.60 616.00 64.00 C 658.10 64.40 701.77 63.16 744.00 64.00
C 746.41 64.05 749.30 64.84 751.00 65.00 Z"/>
</g>
<g fill="None" fill-opacity="0.0" stroke="#A9A9A9" stroke-opacity="0.92" stroke-width="0.3"><path d="
M 64.00 278.00 
C 64.10 280.27 64.22 283.72 64.00 286.00
C 64.00 436.67 64.00 587.33 64.00 738.00
C 64.20 740.07 64.12 743.04 64.00 745.00
C 66.03 804.60 79.09 857.65 121.75 901.25 C 164.41 944.85 218.24 956.27 277.00 960.00
C 278.88 959.95 282.08 959.81 284.00 960.00
C 326.12 960.00 370.06 959.96 412.00 960.00 C 453.94 960.04 497.62 959.90 539.00 960.00 C 580.38 960.10 625.82 959.77 666.00 960.00 C 706.18 960.23 752.46 960.81 789.00 956.00 C 825.54 951.19 852.62 941.18 880.25 920.25 C 907.89 899.33 922.53 881.20 938.23 851.23 C 953.93 821.26 958.29 780.51 960.00 746.00
C 959.92 744.05 959.81 740.96 960.00 739.00
C 960.00 697.22 960.01 653.59 960.00 612.00 C 959.99 570.41 960.03 527.02 960.00 486.00 C 959.97 444.98 960.07 399.78 960.00 360.00 C 959.93 320.22 961.22 273.54 956.78 237.22 C 952.34 200.90 941.99 173.75 921.92 146.08 C 901.85 118.42 883.95 103.49 854.70 87.31 C 825.44 71.12 785.24 65.68 751.00 65.00
C 748.59 64.95 745.70 64.16 744.00 64.00
C 701.77 63.16 658.10 64.40 616.00 64.00 C 573.90 63.60 529.60 64.23 488.00 64.00 C 446.40 63.77 400.38 64.21 360.00 64.00 C 319.62 63.79 273.41 63.08 236.67 67.67 C 199.93 72.26 172.14 82.41 144.25 103.25 C 116.35 124.08 101.62 142.82 85.77 172.77 C 69.92 202.72 65.87 243.51 64.00 278.00
M 739.00 67.00 
C 769.78 69.98 808.88 70.80 836.69 83.31 C 864.51 95.81 884.01 106.97 904.75 130.25 C 925.50 153.52 937.52 172.56 946.32 203.68 C 955.13 234.80 956.81 272.48 957.00 308.00 C 957.19 343.52 956.90 386.26 957.00 423.00 C 957.10 459.74 956.93 501.10 957.00 538.00 C 957.07 574.90 956.92 615.79 957.00 652.00 C 957.08 688.21 957.64 731.32 955.02 765.02 C 952.41 798.72 947.24 829.31 931.70 856.70 C 916.15 884.08 902.72 898.88 877.77 917.77 C 852.82 936.66 829.40 946.31 796.93 951.93 C 764.45 957.55 722.90 957.08 687.00 957.00 C 651.10 956.92 609.86 957.02 573.00 957.00 C 536.14 956.98 494.93 956.97 458.00 957.00 C 421.07 957.03 379.06 956.91 343.00 957.00 C 306.94 957.09 265.12 957.56 232.33 952.67 C 199.54 947.78 175.19 938.51 149.75 920.25 C 124.32 901.99 110.60 887.29 94.70 860.31 C 78.79 833.32 72.05 805.53 69.07 771.93 C 66.10 738.32 67.05 695.25 67.00 659.00 C 66.95 622.75 67.02 580.99 67.00 544.00 C 66.98 507.01 66.99 465.83 67.00 429.00 C 67.01 392.17 66.95 349.66 67.00 314.00 C 67.05 278.34 68.10 239.78 76.33 208.33 C 84.56 176.88 95.43 157.77 116.25 134.25 C 137.07 110.73 153.01 97.96 182.22 85.22 C 211.44 72.49 245.17 68.85 280.00 68.00 C 314.83 67.15 357.15 66.47 394.00 67.00 C 430.85 67.53 471.42 66.17 509.00 67.00 C 546.58 67.83 586.18 65.32 624.00 67.00 C 661.82 68.68 701.28 63.35 739.00 67.00 Z"/>
</g>
<g fill="None" fill-opacity="0.0" stroke="#BFBFBF" stroke-opacity="0.19" stroke-width="0.3"><path d="
M 751.00 65.00 
C 749.30 64.84 746.41 64.05 744.00 64.00
C 745.70 64.16 748.59 64.95 751.00 65.00 Z"/>
</g>
<g fill="None" fill-opacity="0.0" stroke="#FEFEFE" stroke-opacity="1.00" stroke-width="0.3"><path d="
M 739.00 67.00 
C 701.28 63.35 661.82 68.68 624.00 67.00 C 586.18 65.32 546.58 67.83 509.00 67.00 C 471.42 66.17 430.85 67.53 394.00 67.00 C 357.15 66.47 314.83 67.15 280.00 68.00 C 245.17 68.85 211.44 72.49 182.22 85.22 C 153.01 97.96 137.07 110.73 116.25 134.25 C 95.43 157.77 84.56 176.88 76.33 208.33 C 68.10 239.78 67.05 278.34 67.00 314.00 C 66.95 349.66 67.01 392.17 67.00 429.00 C 66.99 465.83 66.98 507.01 67.00 544.00 C 67.02 580.99 66.95 622.75 67.00 659.00 C 67.05 695.25 66.10 738.32 69.07 771.93 C 72.05 805.53 78.79 833.32 94.70 860.31 C 110.60 887.29 124.32 901.99 149.75 920.25 C 175.19 938.51 199.54 947.78 232.33 952.67 C 265.12 957.56 306.94 957.09 343.00 957.00 C 379.06 956.91 421.07 957.03 458.00 957.00 C 494.93 956.97 536.14 956.98 573.00 957.00 C 609.86 957.02 651.10 956.92 687.00 957.00 C 722.90 957.08 764.45 957.55 796.93 951.93 C 829.40 946.31 852.82 936.66 877.77 917.77 C 902.72 898.88 916.15 884.08 931.70 856.70 C 947.24 829.31 952.41 798.72 955.02 765.02 C 957.64 731.32 957.08 688.21 957.00 652.00 C 956.92 615.79 957.07 574.90 957.00 538.00 C 956.93 501.10 957.10 459.74 957.00 423.00 C 956.90 386.26 957.19 343.52 957.00 308.00 C 956.81 272.48 955.13 234.80 946.32 203.68 C 937.52 172.56 925.50 153.52 904.75 130.25 C 884.01 106.97 864.51 95.81 836.69 83.31 C 808.88 70.80 769.78 69.98 739.00 67.00
M 815.00 298.00 
C 818.05 308.04 820.00 317.70 820.00 329.00
C 820.00 347.50 816.81 365.02 811.00 382.00
C 806.13 396.23 798.95 410.16 791.00 423.00
C 749.13 490.64 679.25 538.57 614.00 578.00
C 545.95 540.93 478.77 489.76 435.00 423.00
C 427.04 410.15 419.87 396.24 415.00 382.00
C 409.18 365.00 406.00 347.60 406.00 329.00
C 406.00 317.74 407.97 307.99 411.00 298.00
C 422.94 258.67 453.48 229.53 494.22 219.22 C 534.96 208.91 586.24 223.48 614.00 256.00
C 667.85 186.84 793.91 212.53 815.00 298.00 Z"/>
</g>
<g fill="None" fill-opacity="0.0" stroke="#FF4B92" stroke-opacity="1.00" stroke-width="0.3"><path d="
M 411.00 298.00 
C 416.93 294.66 426.94 299.43 434.00 298.00 C 441.06 296.57 450.44 298.65 458.00 298.00 C 465.56 297.35 474.23 298.29 482.00 298.00 C 489.77 297.71 498.18 298.14 506.00 298.00 C 513.82 297.86 521.13 298.06 529.00 298.00 C 536.87 297.94 545.07 298.03 553.00 298.00 C 560.93 297.97 569.07 298.01 577.00 298.00 C 584.94 297.99 593.10 298.00 601.00 298.00 C 608.90 298.00 616.10 298.00 624.00 298.00 C 631.90 298.00 640.06 297.99 648.00 298.00 C 655.94 298.01 664.07 297.97 672.00 298.00 C 679.93 298.03 688.13 297.94 696.00 298.00 C 703.87 298.06 711.17 297.85 719.00 298.00 C 726.83 298.15 735.22 297.68 743.00 298.00 C 750.78 298.32 759.41 297.30 767.00 298.00 C 774.59 298.70 783.88 296.46 791.00 298.00 C 798.12 299.54 808.93 294.58 815.00 298.00
C 793.91 212.53 667.85 186.84 614.00 256.00
C 586.24 223.48 534.96 208.91 494.22 219.22 C 453.48 229.53 422.94 258.67 411.00 298.00 Z"/>
</g>
<g fill="None" fill-opacity="0.0" stroke="#B6B6B6" stroke-opacity="0.44" stroke-width="0.3"><path d="
M 64.00 286.00 
C 64.22 283.72 64.10 280.27 64.00 278.00
C 63.86 280.65 64.00 283.35 64.00 286.00 Z"/>
</g>
<g fill="None" fill-opacity="0.0" stroke="#FF427A" stroke-opacity="1.00" stroke-width="0.3"><path d="
M 406.00 329.00 
C 544.00 329.00 682.00 329.00 820.00 329.00
C 820.00 317.70 818.05 308.04 815.00 298.00
C 808.93 294.58 798.12 299.54 791.00 298.00 C 783.88 296.46 774.59 298.70 767.00 298.00 C 759.41 297.30 750.78 298.32 743.00 298.00 C 735.22 297.68 726.83 298.15 719.00 298.00 C 711.17 297.85 703.87 298.06 696.00 298.00 C 688.13 297.94 679.93 298.03 672.00 298.00 C 664.07 297.97 655.94 298.01 648.00 298.00 C 640.06 297.99 631.90 298.00 624.00 298.00 C 616.10 298.00 608.90 298.00 601.00 298.00 C 593.10 298.00 584.94 297.99 577.00 298.00 C 569.07 298.01 560.93 297.97 553.00 298.00 C 545.07 298.03 536.87 297.94 529.00 298.00 C 521.13 298.06 513.82 297.86 506.00 298.00 C 498.18 298.14 489.77 297.71 482.00 298.00 C 474.23 298.29 465.56 297.35 458.00 298.00 C 450.44 298.65 441.06 296.57 434.00 298.00 C 426.94 299.43 416.93 294.66 411.00 298.00
C 407.97 307.99 406.00 317.74 406.00 329.00 Z"/>
</g>
<g fill="None" fill-opacity="0.0" stroke="#FF3A65" stroke-opacity="1.00" stroke-width="0.3"><path d="
M 415.00 382.00 
C 546.41 380.33 679.62 380.33 811.00 382.00
C 816.81 365.02 820.00 347.50 820.00 329.00
C 682.00 329.00 544.00 329.00 406.00 329.00
C 406.00 347.60 409.18 365.00 415.00 382.00 Z"/>
</g>
<g fill="None" fill-opacity="0.0" stroke="#FF314F" stroke-opacity="1.00" stroke-width="0.3"><path d="
M 415.00 382.00 
C 419.87 396.24 427.04 410.15 435.00 423.00
C 443.11 426.71 454.88 421.39 464.00 423.00 C 473.12 424.61 484.44 422.27 494.00 423.00 C 503.56 423.73 514.28 422.66 524.00 423.00 C 533.72 423.34 543.19 422.86 553.00 423.00 C 562.81 423.14 573.12 422.95 583.00 423.00 C 592.88 423.05 603.14 423.00 613.00 423.00 C 622.86 423.00 632.15 423.06 642.00 423.00 C 651.85 422.94 662.16 423.15 672.00 423.00 C 681.84 422.85 692.27 423.34 702.00 423.00 C 711.73 422.66 721.46 423.80 731.00 423.00 C 740.54 422.20 751.83 424.71 761.00 423.00 C 770.17 421.29 782.76 426.77 791.00 423.00
C 798.95 410.16 806.13 396.23 811.00 382.00
C 679.62 380.33 546.41 380.33 415.00 382.00 Z"/>
</g>
<g fill="None" fill-opacity="0.0" stroke="#FF262F" stroke-opacity="1.00" stroke-width="0.3"><path d="
M 791.00 423.00 
C 782.76 426.77 770.17 421.29 761.00 423.00 C 751.83 424.71 740.54 422.20 731.00 423.00 C 721.46 423.80 711.73 422.66 702.00 423.00 C 692.27 423.34 681.84 422.85 672.00 423.00 C 662.16 423.15 651.85 422.94 642.00 423.00 C 632.15 423.06 622.86 423.00 613.00 423.00 C 603.14 423.00 592.88 423.05 583.00 423.00 C 573.12 422.95 562.81 423.14 553.00 423.00 C 543.19 422.86 533.72 423.34 524.00 423.00 C 514.28 422.66 503.56 423.73 494.00 423.00 C 484.44 422.27 473.12 424.61 464.00 423.00 C 454.88 421.39 443.11 426.71 435.00 423.00
C 478.77 489.76 545.95 540.93 614.00 578.00
C 679.25 538.57 749.13 490.64 791.00 423.00 Z"/>
</g>
<g fill="None" fill-opacity="0.0" stroke="#B6B6B6" stroke-opacity="0.46" stroke-width="0.3"><path d="
M 64.00 745.00 
C 64.12 743.04 64.20 740.07 64.00 738.00
C 64.00 740.33 63.92 742.67 64.00 745.00 Z"/>
</g>
<g fill="None" fill-opacity="0.0" stroke="#B6B6B6" stroke-opacity="0.42" stroke-width="0.3"><path d="
M 960.00 746.00 
C 960.12 743.68 960.00 741.32 960.00 739.00
C 959.81 740.96 959.92 744.05 960.00 746.00 Z"/>
</g>
<g fill="None" fill-opacity="0.0" stroke="#B7B7B7" stroke-opacity="0.38" stroke-width="0.3"><path d="
M 277.00 960.00 
C 279.31 960.15 281.68 960.00 284.00 960.00
C 282.08 959.81 278.88 959.95 277.00 960.00 Z"/>
</g>
<g fill="#000000" fill-opacity="0.00" stroke="None">
<path d="
M 0.00 1024.00 
L 1024.00 1024.00
L 1024.00 0.00
L 0.00 0.00
L 0.00 1024.00
M 751.00 65.00 
C 785.24 65.68 825.44 71.12 854.70 87.31 C 883.95 103.49 901.85 118.42 921.92 146.08 C 941.99 173.75 952.34 200.90 956.78 237.22 C 961.22 273.54 959.93 320.22 960.00 360.00 C 960.07 399.78 959.97 444.98 960.00 486.00 C 960.03 527.02 959.99 570.41 960.00 612.00 C 960.01 653.59 960.00 697.22 960.00 739.00
C 960.00 741.32 960.12 743.68 960.00 746.00
C 958.29 780.51 953.93 821.26 938.23 851.23 C 922.53 881.20 907.89 899.33 880.25 920.25 C 852.62 941.18 825.54 951.19 789.00 956.00 C 752.46 960.81 706.18 960.23 666.00 960.00 C 625.82 959.77 580.38 960.10 539.00 960.00 C 497.62 959.90 453.94 960.04 412.00 960.00 C 370.06 959.96 326.12 960.00 284.00 960.00
C 281.68 960.00 279.31 960.15 277.00 960.00
C 218.24 956.27 164.41 944.85 121.75 901.25 C 79.09 857.65 66.03 804.60 64.00 745.00
C 63.92 742.67 64.00 740.33 64.00 738.00
C 64.00 587.33 64.00 436.67 64.00 286.00
C 64.00 283.35 63.86 280.65 64.00 278.00
C 65.87 243.51 69.92 202.72 85.77 172.77 C 101.62 142.82 116.35 124.08 144.25 103.25 C 172.14 82.41 199.93 72.26 236.67 67.67 C 273.41 63.08 319.62 63.79 360.00 64.00 C 400.38 64.21 446.40 63.77 488.00 64.00 C 529.60 64.23 573.90 63.60 616.00 64.00 C 658.10 64.40 701.77 63.16 744.00 64.00
C 746.41 64.05 749.30 64.84 751.00 65.00 Z"/>
</g>
<g fill="#A9A9A9" fill-opacity="0.92" stroke="None">
<path d="
M 64.00 278.00 
C 64.10 280.27 64.22 283.72 64.00 286.00
C 64.00 436.67 64.00 587.33 64.00 738.00
C 64.20 740.07 64.12 743.04 64.00 745.00
C 66.03 804.60 79.09 857.65 121.75 901.25 C 164.41 944.85 218.24 956.27 277.00 960.00
C 278.88 959.95 282.08 959.81 284.00 960.00
C 326.12 960.00 370.06 959.96 412.00 960.00 C 453.94 960.04 497.62 959.90 539.00 960.00 C 580.38 960.10 625.82 959.77 666.00 960.00 C 706.18 960.23 752.46 960.81 789.00 956.00 C 825.54 951.19 852.62 941.18 880.25 920.25 C 907.89 899.33 922.53 881.20 938.23 851.23 C 953.93 821.26 958.29 780.51 960.00 746.00
C 959.92 744.05 959.81 740.96 960.00 739.00
C 960.00 697.22 960.01 653.59 960.00 612.00 C 959.99 570.41 960.03 527.02 960.00 486.00 C 959.97 444.98 960.07 399.78 960.00 360.00 C 959.93 320.22 961.22 273.54 956.78 237.22 C 952.34 200.90 941.99 173.75 921.92 146.08 C 901.85 118.42 883.95 103.49 854.70 87.31 C 825.44 71.12 785.24 65.68 751.00 65.00
C 748.59 64.95 745.70 64.16 744.00 64.00
C 701.77 63.16 658.10 64.40 616.00 64.00 C 573.90 63.60 529.60 64.23 488.00 64.00 C 446.40 63.77 400.38 64.21 360.00 64.00 C 319.62 63.79 273.41 63.08 236.67 67.67 C 199.93 72.26 172.14 82.41 144.25 103.25 C 116.35 124.08 101.62 142.82 85.77 172.77 C 69.92 202.72 65.87 243.51 64.00 278.00
M 739.00 67.00 
C 769.78 69.98 808.88 70.80 836.69 83.31 C 864.51 95.81 884.01 106.97 904.75 130.25 C 925.50 153.52 937.52 172.56 946.32 203.68 C 955.13 234.80 956.81 272.48 957.00 308.00 C 957.19 343.52 956.90 386.26 957.00 423.00 C 957.10 459.74 956.93 501.10 957.00 538.00 C 957.07 574.90 956.92 615.79 957.00 652.00 C 957.08 688.21 957.64 731.32 955.02 765.02 C 952.41 798.72 947.24 829.31 931.70 856.70 C 916.15 884.08 902.72 898.88 877.77 917.77 C 852.82 936.66 829.40 946.31 796.93 951.93 C 764.45 957.55 722.90 957.08 687.00 957.00 C 651.10 956.92 609.86 957.02 573.00 957.00 C 536.14 956.98 494.93 956.97 458.00 957.00 C 421.07 957.03 379.06 956.91 343.00 957.00 C 306.94 957.09 265.12 957.56 232.33 952.67 C 199.54 947.78 175.19 938.51 149.75 920.25 C 124.32 901.99 110.60 887.29 94.70 860.31 C 78.79 833.32 72.05 805.53 69.07 771.93 C 66.10 738.32 67.05 695.25 67.00 659.00 C 66.95 622.75 67.02 580.99 67.00 544.00 C 66.98 507.01 66.99 465.83 67.00 429.00 C 67.01 392.17 66.95 349.66 67.00 314.00 C 67.05 278.34 68.10 239.78 76.33 208.33 C 84.56 176.88 95.43 157.77 116.25 134.25 C 137.07 110.73 153.01 97.96 182.22 85.22 C 211.44 72.49 245.17 68.85 280.00 68.00 C 314.83 67.15 357.15 66.47 394.00 67.00 C 430.85 67.53 471.42 66.17 509.00 67.00 C 546.58 67.83 586.18 65.32 624.00 67.00 C 661.82 68.68 701.28 63.35 739.00 67.00 Z"/>
</g>
<g fill="#BFBFBF" fill-opacity="0.19" stroke="None">
<path d="
M 751.00 65.00 
C 749.30 64.84 746.41 64.05 744.00 64.00
C 745.70 64.16 748.59 64.95 751.00 65.00 Z"/>
</g>
<g fill="#FEFEFE" fill-opacity="1.00" stroke="None">
<path d="
M 739.00 67.00 
C 701.28 63.35 661.82 68.68 624.00 67.00 C 586.18 65.32 546.58 67.83 509.00 67.00 C 471.42 66.17 430.85 67.53 394.00 67.00 C 357.15 66.47 314.83 67.15 280.00 68.00 C 245.17 68.85 211.44 72.49 182.22 85.22 C 153.01 97.96 137.07 110.73 116.25 134.25 C 95.43 157.77 84.56 176.88 76.33 208.33 C 68.10 239.78 67.05 278.34 67.00 314.00 C 66.95 349.66 67.01 392.17 67.00 429.00 C 66.99 465.83 66.98 507.01 67.00 544.00 C 67.02 580.99 66.95 622.75 67.00 659.00 C 67.05 695.25 66.10 738.32 69.07 771.93 C 72.05 805.53 78.79 833.32 94.70 860.31 C 110.60 887.29 124.32 901.99 149.75 920.25 C 175.19 938.51 199.54 947.78 232.33 952.67 C 265.12 957.56 306.94 957.09 343.00 957.00 C 379.06 956.91 421.07 957.03 458.00 957.00 C 494.93 956.97 536.14 956.98 573.00 957.00 C 609.86 957.02 651.10 956.92 687.00 957.00 C 722.90 957.08 764.45 957.55 796.93 951.93 C 829.40 946.31 852.82 936.66 877.77 917.77 C 902.72 898.88 916.15 884.08 931.70 856.70 C 947.24 829.31 952.41 798.72 955.02 765.02 C 957.64 731.32 957.08 688.21 957.00 652.00 C 956.92 615.79 957.07 574.90 957.00 538.00 C 956.93 501.10 957.10 459.74 957.00 423.00 C 956.90 386.26 957.19 343.52 957.00 308.00 C 956.81 272.48 955.13 234.80 946.32 203.68 C 937.52 172.56 925.50 153.52 904.75 130.25 C 884.01 106.97 864.51 95.81 836.69 83.31 C 808.88 70.80 769.78 69.98 739.00 67.00
M 815.00 298.00 
C 818.05 308.04 820.00 317.70 820.00 329.00
C 820.00 347.50 816.81 365.02 811.00 382.00
C 806.13 396.23 798.95 410.16 791.00 423.00
C 749.13 490.64 679.25 538.57 614.00 578.00
C 545.95 540.93 478.77 489.76 435.00 423.00
C 427.04 410.15 419.87 396.24 415.00 382.00
C 409.18 365.00 406.00 347.60 406.00 329.00
C 406.00 317.74 407.97 307.99 411.00 298.00
C 422.94 258.67 453.48 229.53 494.22 219.22 C 534.96 208.91 586.24 223.48 614.00 256.00
C 667.85 186.84 793.91 212.53 815.00 298.00 Z"/>
</g>
<g fill="#FF4B92" fill-opacity="1.00" stroke="None">
<path d="
M 411.00 298.00 
C 416.93 294.66 426.94 299.43 434.00 298.00 C 441.06 296.57 450.44 298.65 458.00 298.00 C 465.56 297.35 474.23 298.29 482.00 298.00 C 489.77 297.71 498.18 298.14 506.00 298.00 C 513.82 297.86 521.13 298.06 529.00 298.00 C 536.87 297.94 545.07 298.03 553.00 298.00 C 560.93 297.97 569.07 298.01 577.00 298.00 C 584.94 297.99 593.10 298.00 601.00 298.00 C 608.90 298.00 616.10 298.00 624.00 298.00 C 631.90 298.00 640.06 297.99 648.00 298.00 C 655.94 298.01 664.07 297.97 672.00 298.00 C 679.93 298.03 688.13 297.94 696.00 298.00 C 703.87 298.06 711.17 297.85 719.00 298.00 C 726.83 298.15 735.22 297.68 743.00 298.00 C 750.78 298.32 759.41 297.30 767.00 298.00 C 774.59 298.70 783.88 296.46 791.00 298.00 C 798.12 299.54 808.93 294.58 815.00 298.00
C 793.91 212.53 667.85 186.84 614.00 256.00
C 586.24 223.48 534.96 208.91 494.22 219.22 C 453.48 229.53 422.94 258.67 411.00 298.00 Z"/>
</g>
<g fill="#B6B6B6" fill-opacity="0.44" stroke="None">
<path d="
M 64.00 286.00 
C 64.22 283.72 64.10 280.27 64.00 278.00
C 63.86 280.65 64.00 283.35 64.00 286.00 Z"/>
</g>
<g fill="#FF427A" fill-opacity="1.00" stroke="None">
<path d="
M 406.00 329.00 
C 544.00 329.00 682.00 329.00 820.00 329.00
C 820.00 317.70 818.05 308.04 815.00 298.00
C 808.93 294.58 798.12 299.54 791.00 298.00 C 783.88 296.46 774.59 298.70 767.00 298.00 C 759.41 297.30 750.78 298.32 743.00 298.00 C 735.22 297.68 726.83 298.15 719.00 298.00 C 711.17 297.85 703.87 298.06 696.00 298.00 C 688.13 297.94 679.93 298.03 672.00 298.00 C 664.07 297.97 655.94 298.01 648.00 298.00 C 640.06 297.99 631.90 298.00 624.00 298.00 C 616.10 298.00 608.90 298.00 601.00 298.00 C 593.10 298.00 584.94 297.99 577.00 298.00 C 569.07 298.01 560.93 297.97 553.00 298.00 C 545.07 298.03 536.87 297.94 529.00 298.00 C 521.13 298.06 513.82 297.86 506.00 298.00 C 498.18 298.14 489.77 297.71 482.00 298.00 C 474.23 298.29 465.56 297.35 458.00 298.00 C 450.44 298.65 441.06 296.57 434.00 298.00 C 426.94 299.43 416.93 294.66 411.00 298.00
C 407.97 307.99 406.00 317.74 406.00 329.00 Z"/>
</g>
<g fill="#FF3A65" fill-opacity="1.00" stroke="None">
<path d="
M 415.00 382.00 
C 546.41 380.33 679.62 380.33 811.00 382.00
C 816.81 365.02 820.00 347.50 820.00 329.00
C 682.00 329.00 544.00 329.00 406.00 329.00
C 406.00 347.60 409.18 365.00 415.00 382.00 Z"/>
</g>
<g fill="#FF314F" fill-opacity="1.00" stroke="None">
<path d="
M 415.00 382.00 
C 419.87 396.24 427.04 410.15 435.00 423.00
C 443.11 426.71 454.88 421.39 464.00 423.00 C 473.12 424.61 484.44 422.27 494.00 423.00 C 503.56 423.73 514.28 422.66 524.00 423.00 C 533.72 423.34 543.19 422.86 553.00 423.00 C 562.81 423.14 573.12 422.95 583.00 423.00 C 592.88 423.05 603.14 423.00 613.00 423.00 C 622.86 423.00 632.15 423.06 642.00 423.00 C 651.85 422.94 662.16 423.15 672.00 423.00 C 681.84 422.85 692.27 423.34 702.00 423.00 C 711.73 422.66 721.46 423.80 731.00 423.00 C 740.54 422.20 751.83 424.71 761.00 423.00 C 770.17 421.29 782.76 426.77 791.00 423.00
C 798.95 410.16 806.13 396.23 811.00 382.00
C 679.62 380.33 546.41 380.33 415.00 382.00 Z"/>
</g>
<g fill="#FF262F" fill-opacity="1.00" stroke="None">
<path d="
M 791.00 423.00 
C 782.76 426.77 770.17 421.29 761.00 423.00 C 751.83 424.71 740.54 422.20 731.00 423.00 C 721.46 423.80 711.73 422.66 702.00 423.00 C 692.27 423.34 681.84 422.85 672.00 423.00 C 662.16 423.15 651.85 422.94 642.00 423.00 C 632.15 423.06 622.86 423.00 613.00 423.00 C 603.14 423.00 592.88 423.05 583.00 423.00 C 573.12 422.95 562.81 423.14 553.00 423.00 C 543.19 422.86 533.72 423.34 524.00 423.00 C 514.28 422.66 503.56 423.73 494.00 423.00 C 484.44 422.27 473.12 424.61 464.00 423.00 C 454.88 421.39 443.11 426.71 435.00 423.00
C 478.77 489.76 545.95 540.93 614.00 578.00
C 679.25 538.57 749.13 490.64 791.00 423.00 Z"/>
</g>
<g fill="#B6B6B6" fill-opacity="0.46" stroke="None">
<path d="
M 64.00 745.00 
C 64.12 743.04 64.20 740.07 64.00 738.00
C 64.00 740.33 63.92 742.67 64.00 745.00 Z"/>
</g>
<g fill="#B6B6B6" fill-opacity="0.42" stroke="None">
<path d="
M 960.00 746.00 
C 960.12 743.68 960.00 741.32 960.00 739.00
C 959.81 740.96 959.92 744.05 960.00 746.00 Z"/>
</g>
<g fill="#B7B7B7" fill-opacity="0.38" stroke="None">
<path d="
M 277.00 960.00 
C 279.31 960.15 281.68 960.00 284.00 960.00
C 282.08 959.81 278.88 959.95 277.00 960.00 Z"/>
</g>
</svg>