<svg xmlns="http://www.w3.org/2000/svg" xmlns:v="https://svgstorm.com"
viewBox = "100 100 830 830">
<g fill="None" fill-opacity="0.0" stroke="#000000" stroke-opacity="0.00" stroke-width="0.3"><path d="
M 0.00 1024.00 
L 1024.00 1024.00
L 1024.00 0.00
L 0.00 0.00
L 0.00 1024.00
M 889.00 176.00 
C 908.60 198.49 916.51 217.88 923.33 247.67 C 930.14 277.46 931.21 313.52 931.00 347.00 C 930.79 380.48 931.09 419.65 931.00 454.00 C 930.91 488.35 931.03 526.65 931.00 561.00 C 930.97 595.35 930.99 633.42 931.00 667.00 C 931.01 700.58 932.02 740.31 928.07 771.07 C 924.13 801.84 916.09 826.10 901.08 851.08 C 886.08 876.07 872.61 889.15 848.92 905.92 C 825.23 922.69 801.76 930.40 772.00 936.00 C 742.24 941.60 704.47 941.38 671.00 941.00 C 637.53 940.62 598.32 941.16 564.00 941.00 C 529.68 940.84 491.28 941.05 457.00 941.00 C 422.72 940.95 383.32 940.98 350.00 941.00 C 316.68 941.02 279.00 941.01 249.00 936.00 C 219.00 930.99 196.21 922.10 172.77 905.23 C 149.33 888.36 136.31 874.55 121.25 849.75 C 106.18 824.96 99.71 798.71 96.00 768.00 C 92.29 737.29 92.89 697.49 93.00 664.00 C 93.11 630.51 92.82 592.26 93.00 558.00 C 93.18 523.74 92.62 485.20 93.00 451.00 C 93.38 416.80 92.18 377.15 93.00 344.00 C 93.82 310.85 93.74 275.21 101.78 245.78 C 109.82 216.35 116.59 196.08 137.00 174.00
C 153.66 149.72 170.76 136.49 197.23 122.23 C 223.70 107.97 255.90 102.55 289.00 101.00 C 322.10 99.45 365.61 100.07 401.00 100.00 C 436.39 99.93 478.10 100.02 514.00 100.00 C 549.90 99.98 590.66 99.98 626.00 100.00 C 661.34 100.02 704.87 99.58 738.00 101.00 C 771.13 102.42 802.24 108.85 828.70 123.31 C 855.15 137.76 872.98 151.17 889.00 176.00 Z"/>
</g>
<g fill="None" fill-opacity="0.0" stroke="#CEE3EA" stroke-opacity="0.98" stroke-width="0.3"><path d="
M 137.00 174.00 
C 122.84 194.64 112.15 216.54 107.00 241.00
C 113.53 238.42 124.96 244.44 131.00 241.00
C 140.64 202.67 161.55 175.86 194.75 151.75 C 227.95 127.63 279.21 125.00 321.00 125.00
C 336.17 123.53 353.09 124.00 369.00 124.00
C 465.00 124.00 561.00 124.00 657.00 124.00
C 672.57 124.00 689.23 123.57 704.00 125.00
C 745.89 125.00 795.96 127.60 829.25 151.75 C 862.53 175.91 883.38 201.17 893.00 240.00
C 898.59 244.92 913.02 236.56 918.00 242.00
C 912.48 217.90 902.41 196.79 889.00 176.00
C 872.98 151.17 855.15 137.76 828.70 123.31 C 802.24 108.85 771.13 102.42 738.00 101.00 C 704.87 99.58 661.34 100.02 626.00 100.00 C 590.66 99.98 549.90 99.98 514.00 100.00 C 478.10 100.02 436.39 99.93 401.00 100.00 C 365.61 100.07 322.10 99.45 289.00 101.00 C 255.90 102.55 223.70 107.97 197.23 122.23 C 170.76 136.49 153.66 149.72 137.00 174.00 Z"/>
</g>
<g fill="None" fill-opacity="0.0" stroke="#5D6568" stroke-opacity="1.00" stroke-width="0.3"><path d="
M 321.00 125.00 
C 336.90 125.00 353.91 125.46 369.00 124.00
C 353.09 124.00 336.17 123.53 321.00 125.00 Z"/>
</g>
<g fill="None" fill-opacity="0.0" stroke="#030000" stroke-opacity="1.00" stroke-width="0.3"><path d="
M 321.00 125.00 
C 279.21 125.00 227.95 127.63 194.75 151.75 C 161.55 175.86 140.64 202.67 131.00 241.00
C 124.38 267.30 125.00 296.09 125.00 324.00
C 125.00 328.74 124.39 334.01 124.00 338.00
C 124.00 379.33 124.00 420.67 124.00 462.00
C 124.00 521.00 124.00 580.00 124.00 639.00
C 125.91 658.75 125.00 680.50 125.00 701.00
C 125.00 737.21 124.85 773.58 139.00 806.00
C 150.70 832.81 165.94 852.54 191.70 870.30 C 217.45 888.07 245.85 897.32 280.07 898.93 C 314.30 900.54 359.34 899.86 396.00 900.00 C 432.66 900.14 475.71 899.76 513.00 900.00 C 550.29 900.24 593.22 899.51 630.00 900.00 C 666.78 900.49 710.85 899.73 745.07 898.07 C 779.30 896.41 807.98 888.30 833.75 869.75 C 859.52 851.20 874.09 832.29 886.00 805.00
C 906.81 757.32 900.00 695.95 900.00 643.00
C 900.00 582.66 900.00 522.34 900.00 462.00
C 900.00 410.33 900.00 358.67 900.00 307.00
C 899.70 303.92 899.00 299.75 899.00 296.00
C 899.00 276.92 897.46 258.00 893.00 240.00
C 883.38 201.17 862.53 175.91 829.25 151.75 C 795.96 127.60 745.89 125.00 704.00 125.00
C 688.43 125.00 671.77 125.43 657.00 124.00
C 561.00 124.00 465.00 124.00 369.00 124.00
C 353.91 125.46 336.90 125.00 321.00 125.00
M 710.00 182.00 
C 739.94 184.90 774.95 182.65 799.75 202.25 C 824.54 221.85 835.22 240.91 839.00 273.00 C 842.78 305.10 842.18 345.28 842.00 380.00 C 841.82 414.72 842.25 454.72 842.00 490.00 C 841.75 525.28 842.48 565.08 842.00 600.00 C 841.52 634.92 843.02 676.60 842.00 710.00 C 840.98 743.40 840.52 773.70 821.75 799.75 C 802.98 825.80 782.77 834.86 751.00 839.00 C 719.23 843.13 678.54 841.83 644.00 842.00 C 609.46 842.17 569.22 842.02 534.00 842.00 C 498.78 841.98 458.94 842.23 424.00 842.00 C 389.06 841.77 347.75 842.74 314.33 841.67 C 280.91 840.60 250.36 840.78 224.25 821.75 C 198.15 802.72 189.36 782.82 185.00 751.00 C 180.64 719.17 182.08 678.60 182.00 644.00 C 181.92 609.40 181.87 569.22 182.00 534.00 C 182.13 498.78 181.57 458.89 182.00 424.00 C 182.43 389.11 180.99 347.37 182.00 314.00 C 183.01 280.63 183.43 250.24 202.25 224.25 C 221.08 198.27 241.12 189.01 273.00 185.00 C 304.88 181.00 345.23 181.90 380.00 182.00 C 414.77 182.10 454.27 181.39 490.00 182.00 C 525.73 182.61 563.94 180.46 600.00 182.00 C 636.06 183.54 674.01 178.52 710.00 182.00 Z"/>
</g>
<g fill="None" fill-opacity="0.0" stroke="#5D6568" stroke-opacity="1.00" stroke-width="0.3"><path d="
M 704.00 125.00 
C 689.23 123.57 672.57 124.00 657.00 124.00
C 671.77 125.43 688.43 125.00 704.00 125.00 Z"/>
</g>
<g fill="None" fill-opacity="0.0" stroke="#000000" stroke-opacity="0.11" stroke-width="0.3"><path d="
M 889.00 176.00 
C 902.41 196.79 912.48 217.90 918.00 242.00
C 925.94 276.70 923.56 312.24 924.00 349.00 C 924.44 385.76 924.00 425.01 924.00 462.00
C 924.00 522.33 924.00 582.67 924.00 643.00
C 924.00 684.49 925.73 726.88 920.00 767.00
C 920.51 796.22 909.18 828.68 892.23 853.23 C 875.28 877.77 859.22 894.80 831.75 909.75 C 804.29 924.71 772.37 931.32 738.00 933.00 C 703.63 934.68 658.70 933.87 622.00 934.00 C 585.30 934.13 542.22 933.91 505.00 934.00 C 467.78 934.09 425.67 933.90 389.00 934.00 C 352.33 934.10 308.19 934.55 274.00 932.00 C 239.81 929.45 211.63 920.82 184.77 904.23 C 157.91 887.64 143.19 870.64 127.22 844.78 C 111.25 818.91 102.73 784.08 103.00 754.00
C 101.46 740.20 101.00 726.30 101.00 712.00
C 99.15 692.91 100.00 671.84 100.00 652.00
C 100.00 588.67 100.00 525.33 100.00 462.00
C 100.00 424.79 99.52 384.95 100.00 348.00 C 100.48 311.05 99.62 276.03 107.00 241.00
C 112.15 216.54 122.84 194.64 137.00 174.00
C 116.59 196.08 109.82 216.35 101.78 245.78 C 93.74 275.21 93.82 310.85 93.00 344.00 C 92.18 377.15 93.38 416.80 93.00 451.00 C 92.62 485.20 93.18 523.74 93.00 558.00 C 92.82 592.26 93.11 630.51 93.00 664.00 C 92.89 697.49 92.29 737.29 96.00 768.00 C 99.71 798.71 106.18 824.96 121.25 849.75 C 136.31 874.55 149.33 888.36 172.77 905.23 C 196.21 922.10 219.00 930.99 249.00 936.00 C 279.00 941.01 316.68 941.02 350.00 941.00 C 383.32 940.98 422.72 940.95 457.00 941.00 C 491.28 941.05 529.68 940.84 564.00 941.00 C 598.32 941.16 637.53 940.62 671.00 941.00 C 704.47 941.38 742.24 941.60 772.00 936.00 C 801.76 930.40 825.23 922.69 848.92 905.92 C 872.61 889.15 886.08 876.07 901.08 851.08 C 916.09 826.10 924.13 801.84 928.07 771.07 C 932.02 740.31 931.01 700.58 931.00 667.00 C 930.99 633.42 930.97 595.35 931.00 561.00 C 931.03 526.65 930.91 488.35 931.00 454.00 C 931.09 419.65 930.79 380.48 931.00 347.00 C 931.21 313.52 930.14 277.46 923.33 247.67 C 916.51 217.88 908.60 198.49 889.00 176.00 Z"/>
</g>
<g fill="None" fill-opacity="0.0" stroke="#252525" stroke-opacity="1.00" stroke-width="0.3"><path d="
M 710.00 182.00 
C 674.01 178.52 636.06 183.54 600.00 182.00 C 563.94 180.46 525.73 182.61 490.00 182.00 C 454.27 181.39 414.77 182.10 380.00 182.00 C 345.23 181.90 304.88 181.00 273.00 185.00 C 241.12 189.01 221.08 198.27 202.25 224.25 C 183.43 250.24 183.01 280.63 182.00 314.00 C 180.99 347.37 182.43 389.11 182.00 424.00 C 181.57 458.89 182.13 498.78 182.00 534.00 C 181.87 569.22 181.92 609.40 182.00 644.00 C 182.08 678.60 180.64 719.17 185.00 751.00 C 189.36 782.82 198.15 802.72 224.25 821.75 C 250.36 840.78 280.91 840.60 314.33 841.67 C 347.75 842.74 389.06 841.77 424.00 842.00 C 458.94 842.23 498.78 841.98 534.00 842.00 C 569.22 842.02 609.46 842.17 644.00 842.00 C 678.54 841.83 719.23 843.13 751.00 839.00 C 782.77 834.86 802.98 825.80 821.75 799.75 C 840.52 773.70 840.98 743.40 842.00 710.00 C 843.02 676.60 841.52 634.92 842.00 600.00 C 842.48 565.08 841.75 525.28 842.00 490.00 C 842.25 454.72 841.82 414.72 842.00 380.00 C 842.18 345.28 842.78 305.10 839.00 273.00 C 835.22 240.91 824.54 221.85 799.75 202.25 C 774.95 182.65 739.94 184.90 710.00 182.00
M 252.00 378.00 
C 250.43 364.30 250.01 347.48 263.23 343.23 C 276.45 338.98 282.32 332.89 294.08 328.08 C 305.83 323.26 313.93 317.51 325.00 312.00
C 315.13 305.03 307.07 300.64 295.31 295.69 C 283.54 290.75 277.36 284.31 263.92 280.08 C 250.49 275.84 249.96 259.17 252.00 245.00
C 264.30 251.63 275.12 257.55 287.25 264.75 C 299.37 271.96 311.31 276.62 323.70 284.31 C 336.08 291.99 351.53 294.55 352.00 311.00 C 352.47 327.45 336.25 331.30 323.75 338.75 C 311.26 346.20 300.07 350.75 287.92 357.92 C 275.77 365.10 264.33 371.34 252.00 378.00
M 501.00 396.00 
C 501.00 403.67 501.00 411.33 501.00 419.00
C 462.67 419.00 424.33 419.00 386.00 419.00
C 386.00 411.33 386.00 403.67 386.00 396.00
C 424.33 396.00 462.67 396.00 501.00 396.00 Z"/>
</g>
<g fill="None" fill-opacity="0.0" stroke="#B8C8CD" stroke-opacity="1.00" stroke-width="0.3"><path d="
M 899.00 296.00 
C 899.30 299.08 900.00 303.25 900.00 307.00
C 900.00 358.67 900.00 410.33 900.00 462.00
C 908.00 462.00 916.00 462.00 924.00 462.00
C 924.00 425.01 924.44 385.76 924.00 349.00 C 923.56 312.24 925.94 276.70 918.00 242.00
C 913.02 236.56 898.59 244.92 893.00 240.00
C 897.46 258.00 899.00 276.92 899.00 296.00 Z"/>
</g>
<g fill="None" fill-opacity="0.0" stroke="#B8C8CC" stroke-opacity="0.99" stroke-width="0.3"><path d="
M 100.00 462.00 
C 108.00 462.00 116.00 462.00 124.00 462.00
C 124.00 420.67 124.00 379.33 124.00 338.00
C 124.00 333.26 124.61 327.99 125.00 324.00
C 125.00 296.09 124.38 267.30 131.00 241.00
C 124.96 244.44 113.53 238.42 107.00 241.00
C 99.62 276.03 100.48 311.05 100.00 348.00 C 99.52 384.95 100.00 424.79 100.00 462.00 Z"/>
</g>
<g fill="None" fill-opacity="0.0" stroke="#FCFCFC" stroke-opacity="1.00" stroke-width="0.3"><path d="
M 252.00 378.00 
C 264.33 371.34 275.77 365.10 287.92 357.92 C 300.07 350.75 311.26 346.20 323.75 338.75 C 336.25 331.30 352.47 327.45 352.00 311.00 C 351.53 294.55 336.08 291.99 323.70 284.31 C 311.31 276.62 299.37 271.96 287.25 264.75 C 275.12 257.55 264.30 251.63 252.00 245.00
C 249.96 259.17 250.49 275.84 263.92 280.08 C 277.36 284.31 283.54 290.75 295.31 295.69 C 307.07 300.64 315.13 305.03 325.00 312.00
C 313.93 317.51 305.83 323.26 294.08 328.08 C 282.32 332.89 276.45 338.98 263.23 343.23 C 250.01 347.48 250.43 364.30 252.00 378.00 Z"/>
</g>
<g fill="None" fill-opacity="0.0" stroke="#5C6163" stroke-opacity="1.00" stroke-width="0.3"><path d="
M 900.00 307.00 
C 900.00 303.25 899.30 299.08 899.00 296.00
C 899.00 299.75 899.70 303.92 900.00 307.00 Z"/>
</g>
<g fill="None" fill-opacity="0.0" stroke="#606769" stroke-opacity="1.00" stroke-width="0.3"><path d="
M 124.00 338.00 
C 124.39 334.01 125.00 328.74 125.00 324.00
C 124.61 327.99 124.00 333.26 124.00 338.00 Z"/>
</g>
<g fill="None" fill-opacity="0.0" stroke="#FFFFFF" stroke-opacity="1.00" stroke-width="0.3"><path d="
M 501.00 396.00 
C 462.67 396.00 424.33 396.00 386.00 396.00
C 386.00 403.67 386.00 411.33 386.00 419.00
C 424.33 419.00 462.67 419.00 501.00 419.00
C 501.00 411.33 501.00 403.67 501.00 396.00 Z"/>
</g>
<g fill="None" fill-opacity="0.0" stroke="#9DA6A9" stroke-opacity="0.99" stroke-width="0.3"><path d="
M 100.00 652.00 
C 100.00 651.96 101.00 652.00 101.00 652.00
C 101.00 649.00 101.00 646.00 101.00 643.00
C 108.67 643.00 116.33 643.00 124.00 643.00
C 124.00 641.67 124.00 640.33 124.00 639.00
C 124.00 580.00 124.00 521.00 124.00 462.00
C 116.00 462.00 108.00 462.00 100.00 462.00
C 100.00 525.33 100.00 588.67 100.00 652.00 Z"/>
</g>
<g fill="None" fill-opacity="0.0" stroke="#9DA6A9" stroke-opacity="1.00" stroke-width="0.3"><path d="
M 900.00 643.00 
C 908.00 643.00 916.00 643.00 924.00 643.00
C 924.00 582.67 924.00 522.33 924.00 462.00
C 916.00 462.00 908.00 462.00 900.00 462.00
C 900.00 522.34 900.00 582.66 900.00 643.00 Z"/>
</g>
<g fill="None" fill-opacity="0.0" stroke="#47494A" stroke-opacity="1.00" stroke-width="0.3"><path d="
M 124.00 643.00 
C 124.00 662.18 123.22 682.64 125.00 701.00
C 125.00 680.50 125.91 658.75 124.00 639.00
C 124.00 640.33 124.00 641.67 124.00 643.00 Z"/>
</g>
<g fill="None" fill-opacity="0.0" stroke="#868A8A" stroke-opacity="1.00" stroke-width="0.3"><path d="
M 101.00 652.00 
C 101.00 672.00 101.00 692.00 101.00 712.00
C 101.00 726.30 101.46 740.20 103.00 754.00
C 105.04 772.23 108.19 789.24 114.00 806.00
C 120.38 809.59 132.40 802.77 139.00 806.00
C 124.85 773.58 125.00 737.21 125.00 701.00
C 123.22 682.64 124.00 662.18 124.00 643.00
C 116.33 643.00 108.67 643.00 101.00 643.00
C 101.00 646.00 101.00 649.00 101.00 652.00 Z"/>
</g>
<g fill="None" fill-opacity="0.0" stroke="#868A8A" stroke-opacity="0.99" stroke-width="0.3"><path d="
M 886.00 805.00 
C 887.48 807.42 894.99 805.94 898.00 806.00 C 901.01 806.06 908.42 807.10 911.00 805.00
C 915.29 792.47 918.11 780.24 920.00 767.00
C 925.73 726.88 924.00 684.49 924.00 643.00
C 916.00 643.00 908.00 643.00 900.00 643.00
C 900.00 695.95 906.81 757.32 886.00 805.00 Z"/>
</g>
<g fill="None" fill-opacity="0.0" stroke="#535555" stroke-opacity="0.32" stroke-width="0.3"><path d="
M 101.00 712.00 
C 101.00 692.00 101.00 672.00 101.00 652.00
C 101.00 652.00 100.00 651.96 100.00 652.00
C 100.00 671.84 99.15 692.91 101.00 712.00 Z"/>
</g>
<g fill="None" fill-opacity="0.0" stroke="#000000" stroke-opacity="0.20" stroke-width="0.3"><path d="
M 920.00 767.00 
C 918.11 780.24 915.29 792.47 911.00 805.00
C 900.53 835.59 885.06 859.67 858.25 881.25 C 831.44 902.83 804.59 915.11 768.00 920.00 C 731.40 924.88 683.26 924.10 643.00 924.00 C 602.74 923.90 553.98 923.95 513.00 924.00 C 472.02 924.05 424.23 923.76 384.00 924.00 C 343.77 924.24 295.58 924.66 258.93 920.07 C 222.27 915.49 194.72 903.88 167.75 882.25 C 140.78 860.62 124.76 837.05 114.00 806.00
C 108.19 789.24 105.04 772.23 103.00 754.00
C 102.73 784.08 111.25 818.91 127.22 844.78 C 143.19 870.64 157.91 887.64 184.77 904.23 C 211.63 920.82 239.81 929.45 274.00 932.00 C 308.19 934.55 352.33 934.10 389.00 934.00 C 425.67 933.90 467.78 934.09 505.00 934.00 C 542.22 933.91 585.30 934.13 622.00 934.00 C 658.70 933.87 703.63 934.68 738.00 933.00 C 772.37 931.32 804.29 924.71 831.75 909.75 C 859.22 894.80 875.28 877.77 892.23 853.23 C 909.18 828.68 920.51 796.22 920.00 767.00 Z"/>
</g>
<g fill="None" fill-opacity="0.0" stroke="#767675" stroke-opacity="1.00" stroke-width="0.3"><path d="
M 139.00 806.00 
C 132.40 802.77 120.38 809.59 114.00 806.00
C 124.76 837.05 140.78 860.62 167.75 882.25 C 194.72 903.88 222.27 915.49 258.93 920.07 C 295.58 924.66 343.77 924.24 384.00 924.00 C 424.23 923.76 472.02 924.05 513.00 924.00 C 553.98 923.95 602.74 923.90 643.00 924.00 C 683.26 924.10 731.40 924.88 768.00 920.00 C 804.59 915.11 831.44 902.83 858.25 881.25 C 885.06 859.67 900.53 835.59 911.00 805.00
C 908.42 807.10 901.01 806.06 898.00 806.00 C 894.99 805.94 887.48 807.42 886.00 805.00
C 874.09 832.29 859.52 851.20 833.75 869.75 C 807.98 888.30 779.30 896.41 745.07 898.07 C 710.85 899.73 666.78 900.49 630.00 900.00 C 593.22 899.51 550.29 900.24 513.00 900.00 C 475.71 899.76 432.66 900.14 396.00 900.00 C 359.34 899.86 314.30 900.54 280.07 898.93 C 245.85 897.32 217.45 888.07 191.70 870.30 C 165.94 852.54 150.70 832.81 139.00 806.00 Z"/>
</g>
<g fill="#000000" fill-opacity="0.00" stroke="None">
<path d="
M 0.00 1024.00 
L 1024.00 1024.00
L 1024.00 0.00
L 0.00 0.00
L 0.00 1024.00
M 889.00 176.00 
C 908.60 198.49 916.51 217.88 923.33 247.67 C 930.14 277.46 931.21 313.52 931.00 347.00 C 930.79 380.48 931.09 419.65 931.00 454.00 C 930.91 488.35 931.03 526.65 931.00 561.00 C 930.97 595.35 930.99 633.42 931.00 667.00 C 931.01 700.58 932.02 740.31 928.07 771.07 C 924.13 801.84 916.09 826.10 901.08 851.08 C 886.08 876.07 872.61 889.15 848.92 905.92 C 825.23 922.69 801.76 930.40 772.00 936.00 C 742.24 941.60 704.47 941.38 671.00 941.00 C 637.53 940.62 598.32 941.16 564.00 941.00 C 529.68 940.84 491.28 941.05 457.00 941.00 C 422.72 940.95 383.32 940.98 350.00 941.00 C 316.68 941.02 279.00 941.01 249.00 936.00 C 219.00 930.99 196.21 922.10 172.77 905.23 C 149.33 888.36 136.31 874.55 121.25 849.75 C 106.18 824.96 99.71 798.71 96.00 768.00 C 92.29 737.29 92.89 697.49 93.00 664.00 C 93.11 630.51 92.82 592.26 93.00 558.00 C 93.18 523.74 92.62 485.20 93.00 451.00 C 93.38 416.80 92.18 377.15 93.00 344.00 C 93.82 310.85 93.74 275.21 101.78 245.78 C 109.82 216.35 116.59 196.08 137.00 174.00
C 153.66 149.72 170.76 136.49 197.23 122.23 C 223.70 107.97 255.90 102.55 289.00 101.00 C 322.10 99.45 365.61 100.07 401.00 100.00 C 436.39 99.93 478.10 100.02 514.00 100.00 C 549.90 99.98 590.66 99.98 626.00 100.00 C 661.34 100.02 704.87 99.58 738.00 101.00 C 771.13 102.42 802.24 108.85 828.70 123.31 C 855.15 137.76 872.98 151.17 889.00 176.00 Z"/>
</g>
<g fill="#CEE3EA" fill-opacity="0.98" stroke="None">
<path d="
M 137.00 174.00 
C 122.84 194.64 112.15 216.54 107.00 241.00
C 113.53 238.42 124.96 244.44 131.00 241.00
C 140.64 202.67 161.55 175.86 194.75 151.75 C 227.95 127.63 279.21 125.00 321.00 125.00
C 336.17 123.53 353.09 124.00 369.00 124.00
C 465.00 124.00 561.00 124.00 657.00 124.00
C 672.57 124.00 689.23 123.57 704.00 125.00
C 745.89 125.00 795.96 127.60 829.25 151.75 C 862.53 175.91 883.38 201.17 893.00 240.00
C 898.59 244.92 913.02 236.56 918.00 242.00
C 912.48 217.90 902.41 196.79 889.00 176.00
C 872.98 151.17 855.15 137.76 828.70 123.31 C 802.24 108.85 771.13 102.42 738.00 101.00 C 704.87 99.58 661.34 100.02 626.00 100.00 C 590.66 99.98 549.90 99.98 514.00 100.00 C 478.10 100.02 436.39 99.93 401.00 100.00 C 365.61 100.07 322.10 99.45 289.00 101.00 C 255.90 102.55 223.70 107.97 197.23 122.23 C 170.76 136.49 153.66 149.72 137.00 174.00 Z"/>
</g>
<g fill="#5D6568" fill-opacity="1.00" stroke="None">
<path d="
M 321.00 125.00 
C 336.90 125.00 353.91 125.46 369.00 124.00
C 353.09 124.00 336.17 123.53 321.00 125.00 Z"/>
</g>
<g fill="#030000" fill-opacity="1.00" stroke="None">
<path d="
M 321.00 125.00 
C 279.21 125.00 227.95 127.63 194.75 151.75 C 161.55 175.86 140.64 202.67 131.00 241.00
C 124.38 267.30 125.00 296.09 125.00 324.00
C 125.00 328.74 124.39 334.01 124.00 338.00
C 124.00 379.33 124.00 420.67 124.00 462.00
C 124.00 521.00 124.00 580.00 124.00 639.00
C 125.91 658.75 125.00 680.50 125.00 701.00
C 125.00 737.21 124.85 773.58 139.00 806.00
C 150.70 832.81 165.94 852.54 191.70 870.30 C 217.45 888.07 245.85 897.32 280.07 898.93 C 314.30 900.54 359.34 899.86 396.00 900.00 C 432.66 900.14 475.71 899.76 513.00 900.00 C 550.29 900.24 593.22 899.51 630.00 900.00 C 666.78 900.49 710.85 899.73 745.07 898.07 C 779.30 896.41 807.98 888.30 833.75 869.75 C 859.52 851.20 874.09 832.29 886.00 805.00
C 906.81 757.32 900.00 695.95 900.00 643.00
C 900.00 582.66 900.00 522.34 900.00 462.00
C 900.00 410.33 900.00 358.67 900.00 307.00
C 899.70 303.92 899.00 299.75 899.00 296.00
C 899.00 276.92 897.46 258.00 893.00 240.00
C 883.38 201.17 862.53 175.91 829.25 151.75 C 795.96 127.60 745.89 125.00 704.00 125.00
C 688.43 125.00 671.77 125.43 657.00 124.00
C 561.00 124.00 465.00 124.00 369.00 124.00
C 353.91 125.46 336.90 125.00 321.00 125.00
M 710.00 182.00 
C 739.94 184.90 774.95 182.65 799.75 202.25 C 824.54 221.85 835.22 240.91 839.00 273.00 C 842.78 305.10 842.18 345.28 842.00 380.00 C 841.82 414.72 842.25 454.72 842.00 490.00 C 841.75 525.28 842.48 565.08 842.00 600.00 C 841.52 634.92 843.02 676.60 842.00 710.00 C 840.98 743.40 840.52 773.70 821.75 799.75 C 802.98 825.80 782.77 834.86 751.00 839.00 C 719.23 843.13 678.54 841.83 644.00 842.00 C 609.46 842.17 569.22 842.02 534.00 842.00 C 498.78 841.98 458.94 842.23 424.00 842.00 C 389.06 841.77 347.75 842.74 314.33 841.67 C 280.91 840.60 250.36 840.78 224.25 821.75 C 198.15 802.72 189.36 782.82 185.00 751.00 C 180.64 719.17 182.08 678.60 182.00 644.00 C 181.92 609.40 181.87 569.22 182.00 534.00 C 182.13 498.78 181.57 458.89 182.00 424.00 C 182.43 389.11 180.99 347.37 182.00 314.00 C 183.01 280.63 183.43 250.24 202.25 224.25 C 221.08 198.27 241.12 189.01 273.00 185.00 C 304.88 181.00 345.23 181.90 380.00 182.00 C 414.77 182.10 454.27 181.39 490.00 182.00 C 525.73 182.61 563.94 180.46 600.00 182.00 C 636.06 183.54 674.01 178.52 710.00 182.00 Z"/>
</g>
<g fill="#5D6568" fill-opacity="1.00" stroke="None">
<path d="
M 704.00 125.00 
C 689.23 123.57 672.57 124.00 657.00 124.00
C 671.77 125.43 688.43 125.00 704.00 125.00 Z"/>
</g>
<g fill="#000000" fill-opacity="0.11" stroke="None">
<path d="
M 889.00 176.00 
C 902.41 196.79 912.48 217.90 918.00 242.00
C 925.94 276.70 923.56 312.24 924.00 349.00 C 924.44 385.76 924.00 425.01 924.00 462.00
C 924.00 522.33 924.00 582.67 924.00 643.00
C 924.00 684.49 925.73 726.88 920.00 767.00
C 920.51 796.22 909.18 828.68 892.23 853.23 C 875.28 877.77 859.22 894.80 831.75 909.75 C 804.29 924.71 772.37 931.32 738.00 933.00 C 703.63 934.68 658.70 933.87 622.00 934.00 C 585.30 934.13 542.22 933.91 505.00 934.00 C 467.78 934.09 425.67 933.90 389.00 934.00 C 352.33 934.10 308.19 934.55 274.00 932.00 C 239.81 929.45 211.63 920.82 184.77 904.23 C 157.91 887.64 143.19 870.64 127.22 844.78 C 111.25 818.91 102.73 784.08 103.00 754.00
C 101.46 740.20 101.00 726.30 101.00 712.00
C 99.15 692.91 100.00 671.84 100.00 652.00
C 100.00 588.67 100.00 525.33 100.00 462.00
C 100.00 424.79 99.52 384.95 100.00 348.00 C 100.48 311.05 99.62 276.03 107.00 241.00
C 112.15 216.54 122.84 194.64 137.00 174.00
C 116.59 196.08 109.82 216.35 101.78 245.78 C 93.74 275.21 93.82 310.85 93.00 344.00 C 92.18 377.15 93.38 416.80 93.00 451.00 C 92.62 485.20 93.18 523.74 93.00 558.00 C 92.82 592.26 93.11 630.51 93.00 664.00 C 92.89 697.49 92.29 737.29 96.00 768.00 C 99.71 798.71 106.18 824.96 121.25 849.75 C 136.31 874.55 149.33 888.36 172.77 905.23 C 196.21 922.10 219.00 930.99 249.00 936.00 C 279.00 941.01 316.68 941.02 350.00 941.00 C 383.32 940.98 422.72 940.95 457.00 941.00 C 491.28 941.05 529.68 940.84 564.00 941.00 C 598.32 941.16 637.53 940.62 671.00 941.00 C 704.47 941.38 742.24 941.60 772.00 936.00 C 801.76 930.40 825.23 922.69 848.92 905.92 C 872.61 889.15 886.08 876.07 901.08 851.08 C 916.09 826.10 924.13 801.84 928.07 771.07 C 932.02 740.31 931.01 700.58 931.00 667.00 C 930.99 633.42 930.97 595.35 931.00 561.00 C 931.03 526.65 930.91 488.35 931.00 454.00 C 931.09 419.65 930.79 380.48 931.00 347.00 C 931.21 313.52 930.14 277.46 923.33 247.67 C 916.51 217.88 908.60 198.49 889.00 176.00 Z"/>
</g>
<g fill="#252525" fill-opacity="1.00" stroke="None">
<path d="
M 710.00 182.00 
C 674.01 178.52 636.06 183.54 600.00 182.00 C 563.94 180.46 525.73 182.61 490.00 182.00 C 454.27 181.39 414.77 182.10 380.00 182.00 C 345.23 181.90 304.88 181.00 273.00 185.00 C 241.12 189.01 221.08 198.27 202.25 224.25 C 183.43 250.24 183.01 280.63 182.00 314.00 C 180.99 347.37 182.43 389.11 182.00 424.00 C 181.57 458.89 182.13 498.78 182.00 534.00 C 181.87 569.22 181.92 609.40 182.00 644.00 C 182.08 678.60 180.64 719.17 185.00 751.00 C 189.36 782.82 198.15 802.72 224.25 821.75 C 250.36 840.78 280.91 840.60 314.33 841.67 C 347.75 842.74 389.06 841.77 424.00 842.00 C 458.94 842.23 498.78 841.98 534.00 842.00 C 569.22 842.02 609.46 842.17 644.00 842.00 C 678.54 841.83 719.23 843.13 751.00 839.00 C 782.77 834.86 802.98 825.80 821.75 799.75 C 840.52 773.70 840.98 743.40 842.00 710.00 C 843.02 676.60 841.52 634.92 842.00 600.00 C 842.48 565.08 841.75 525.28 842.00 490.00 C 842.25 454.72 841.82 414.72 842.00 380.00 C 842.18 345.28 842.78 305.10 839.00 273.00 C 835.22 240.91 824.54 221.85 799.75 202.25 C 774.95 182.65 739.94 184.90 710.00 182.00
M 252.00 378.00 
C 250.43 364.30 250.01 347.48 263.23 343.23 C 276.45 338.98 282.32 332.89 294.08 328.08 C 305.83 323.26 313.93 317.51 325.00 312.00
C 315.13 305.03 307.07 300.64 295.31 295.69 C 283.54 290.75 277.36 284.31 263.92 280.08 C 250.49 275.84 249.96 259.17 252.00 245.00
C 264.30 251.63 275.12 257.55 287.25 264.75 C 299.37 271.96 311.31 276.62 323.70 284.31 C 336.08 291.99 351.53 294.55 352.00 311.00 C 352.47 327.45 336.25 331.30 323.75 338.75 C 311.26 346.20 300.07 350.75 287.92 357.92 C 275.77 365.10 264.33 371.34 252.00 378.00
M 501.00 396.00 
C 501.00 403.67 501.00 411.33 501.00 419.00
C 462.67 419.00 424.33 419.00 386.00 419.00
C 386.00 411.33 386.00 403.67 386.00 396.00
C 424.33 396.00 462.67 396.00 501.00 396.00 Z"/>
</g>
<g fill="#B8C8CD" fill-opacity="1.00" stroke="None">
<path d="
M 899.00 296.00 
C 899.30 299.08 900.00 303.25 900.00 307.00
C 900.00 358.67 900.00 410.33 900.00 462.00
C 908.00 462.00 916.00 462.00 924.00 462.00
C 924.00 425.01 924.44 385.76 924.00 349.00 C 923.56 312.24 925.94 276.70 918.00 242.00
C 913.02 236.56 898.59 244.92 893.00 240.00
C 897.46 258.00 899.00 276.92 899.00 296.00 Z"/>
</g>
<g fill="#B8C8CC" fill-opacity="0.99" stroke="None">
<path d="
M 100.00 462.00 
C 108.00 462.00 116.00 462.00 124.00 462.00
C 124.00 420.67 124.00 379.33 124.00 338.00
C 124.00 333.26 124.61 327.99 125.00 324.00
C 125.00 296.09 124.38 267.30 131.00 241.00
C 124.96 244.44 113.53 238.42 107.00 241.00
C 99.62 276.03 100.48 311.05 100.00 348.00 C 99.52 384.95 100.00 424.79 100.00 462.00 Z"/>
</g>
<g fill="#FCFCFC" fill-opacity="1.00" stroke="None">
<path d="
M 252.00 378.00 
C 264.33 371.34 275.77 365.10 287.92 357.92 C 300.07 350.75 311.26 346.20 323.75 338.75 C 336.25 331.30 352.47 327.45 352.00 311.00 C 351.53 294.55 336.08 291.99 323.70 284.31 C 311.31 276.62 299.37 271.96 287.25 264.75 C 275.12 257.55 264.30 251.63 252.00 245.00
C 249.96 259.17 250.49 275.84 263.92 280.08 C 277.36 284.31 283.54 290.75 295.31 295.69 C 307.07 300.64 315.13 305.03 325.00 312.00
C 313.93 317.51 305.83 323.26 294.08 328.08 C 282.32 332.89 276.45 338.98 263.23 343.23 C 250.01 347.48 250.43 364.30 252.00 378.00 Z"/>
</g>
<g fill="#5C6163" fill-opacity="1.00" stroke="None">
<path d="
M 900.00 307.00 
C 900.00 303.25 899.30 299.08 899.00 296.00
C 899.00 299.75 899.70 303.92 900.00 307.00 Z"/>
</g>
<g fill="#606769" fill-opacity="1.00" stroke="None">
<path d="
M 124.00 338.00 
C 124.39 334.01 125.00 328.74 125.00 324.00
C 124.61 327.99 124.00 333.26 124.00 338.00 Z"/>
</g>
<g fill="#FFFFFF" fill-opacity="1.00" stroke="None">
<path d="
M 501.00 396.00 
C 462.67 396.00 424.33 396.00 386.00 396.00
C 386.00 403.67 386.00 411.33 386.00 419.00
C 424.33 419.00 462.67 419.00 501.00 419.00
C 501.00 411.33 501.00 403.67 501.00 396.00 Z"/>
</g>
<g fill="#9DA6A9" fill-opacity="0.99" stroke="None">
<path d="
M 100.00 652.00 
C 100.00 651.96 101.00 652.00 101.00 652.00
C 101.00 649.00 101.00 646.00 101.00 643.00
C 108.67 643.00 116.33 643.00 124.00 643.00
C 124.00 641.67 124.00 640.33 124.00 639.00
C 124.00 580.00 124.00 521.00 124.00 462.00
C 116.00 462.00 108.00 462.00 100.00 462.00
C 100.00 525.33 100.00 588.67 100.00 652.00 Z"/>
</g>
<g fill="#9DA6A9" fill-opacity="1.00" stroke="None">
<path d="
M 900.00 643.00 
C 908.00 643.00 916.00 643.00 924.00 643.00
C 924.00 582.67 924.00 522.33 924.00 462.00
C 916.00 462.00 908.00 462.00 900.00 462.00
C 900.00 522.34 900.00 582.66 900.00 643.00 Z"/>
</g>
<g fill="#47494A" fill-opacity="1.00" stroke="None">
<path d="
M 124.00 643.00 
C 124.00 662.18 123.22 682.64 125.00 701.00
C 125.00 680.50 125.91 658.75 124.00 639.00
C 124.00 640.33 124.00 641.67 124.00 643.00 Z"/>
</g>
<g fill="#868A8A" fill-opacity="1.00" stroke="None">
<path d="
M 101.00 652.00 
C 101.00 672.00 101.00 692.00 101.00 712.00
C 101.00 726.30 101.46 740.20 103.00 754.00
C 105.04 772.23 108.19 789.24 114.00 806.00
C 120.38 809.59 132.40 802.77 139.00 806.00
C 124.85 773.58 125.00 737.21 125.00 701.00
C 123.22 682.64 124.00 662.18 124.00 643.00
C 116.33 643.00 108.67 643.00 101.00 643.00
C 101.00 646.00 101.00 649.00 101.00 652.00 Z"/>
</g>
<g fill="#868A8A" fill-opacity="0.99" stroke="None">
<path d="
M 886.00 805.00 
C 887.48 807.42 894.99 805.94 898.00 806.00 C 901.01 806.06 908.42 807.10 911.00 805.00
C 915.29 792.47 918.11 780.24 920.00 767.00
C 925.73 726.88 924.00 684.49 924.00 643.00
C 916.00 643.00 908.00 643.00 900.00 643.00
C 900.00 695.95 906.81 757.32 886.00 805.00 Z"/>
</g>
<g fill="#535555" fill-opacity="0.32" stroke="None">
<path d="
M 101.00 712.00 
C 101.00 692.00 101.00 672.00 101.00 652.00
C 101.00 652.00 100.00 651.96 100.00 652.00
C 100.00 671.84 99.15 692.91 101.00 712.00 Z"/>
</g>
<g fill="#000000" fill-opacity="0.20" stroke="None">
<path d="
M 920.00 767.00 
C 918.11 780.24 915.29 792.47 911.00 805.00
C 900.53 835.59 885.06 859.67 858.25 881.25 C 831.44 902.83 804.59 915.11 768.00 920.00 C 731.40 924.88 683.26 924.10 643.00 924.00 C 602.74 923.90 553.98 923.95 513.00 924.00 C 472.02 924.05 424.23 923.76 384.00 924.00 C 343.77 924.24 295.58 924.66 258.93 920.07 C 222.27 915.49 194.72 903.88 167.75 882.25 C 140.78 860.62 124.76 837.05 114.00 806.00
C 108.19 789.24 105.04 772.23 103.00 754.00
C 102.73 784.08 111.25 818.91 127.22 844.78 C 143.19 870.64 157.91 887.64 184.77 904.23 C 211.63 920.82 239.81 929.45 274.00 932.00 C 308.19 934.55 352.33 934.10 389.00 934.00 C 425.67 933.90 467.78 934.09 505.00 934.00 C 542.22 933.91 585.30 934.13 622.00 934.00 C 658.70 933.87 703.63 934.68 738.00 933.00 C 772.37 931.32 804.29 924.71 831.75 909.75 C 859.22 894.80 875.28 877.77 892.23 853.23 C 909.18 828.68 920.51 796.22 920.00 767.00 Z"/>
</g>
<g fill="#767675" fill-opacity="1.00" stroke="None">
<path d="
M 139.00 806.00 
C 132.40 802.77 120.38 809.59 114.00 806.00
C 124.76 837.05 140.78 860.62 167.75 882.25 C 194.72 903.88 222.27 915.49 258.93 920.07 C 295.58 924.66 343.77 924.24 384.00 924.00 C 424.23 923.76 472.02 924.05 513.00 924.00 C 553.98 923.95 602.74 923.90 643.00 924.00 C 683.26 924.10 731.40 924.88 768.00 920.00 C 804.59 915.11 831.44 902.83 858.25 881.25 C 885.06 859.67 900.53 835.59 911.00 805.00
C 908.42 807.10 901.01 806.06 898.00 806.00 C 894.99 805.94 887.48 807.42 886.00 805.00
C 874.09 832.29 859.52 851.20 833.75 869.75 C 807.98 888.30 779.30 896.41 745.07 898.07 C 710.85 899.73 666.78 900.49 630.00 900.00 C 593.22 899.51 550.29 900.24 513.00 900.00 C 475.71 899.76 432.66 900.14 396.00 900.00 C 359.34 899.86 314.30 900.54 280.07 898.93 C 245.85 897.32 217.45 888.07 191.70 870.30 C 165.94 852.54 150.70 832.81 139.00 806.00 Z"/>
</g>
</svg>