<svg xmlns="http://www.w3.org/2000/svg" xmlns:v="https://svgstorm.com"
viewBox = "37 37 435 435">
<g fill="None" fill-opacity="0.0" stroke="#000000" stroke-opacity="0.00" stroke-width="0.3"><path d="
M 0.00 512.00 
L 512.00 512.00
L 512.00 0.00
L 0.00 0.00
L 0.00 512.00
M 463.00 102.00 
C 475.59 128.93 470.51 160.17 471.00 191.00 C 471.49 221.83 471.08 258.26 471.00 289.00 C 470.92 319.74 471.71 357.65 471.00 387.00 C 470.29 416.35 460.92 434.52 440.25 454.25 C 419.58 473.98 394.35 477.49 365.00 477.00 C 335.65 476.51 297.16 477.20 267.00 477.00 C 236.84 476.80 199.41 477.05 170.00 477.00 C 140.59 476.95 107.84 480.40 84.92 464.08 C 62.00 447.75 49.00 434.92 44.22 406.78 C 39.44 378.64 42.04 341.50 42.00 311.00 C 41.96 280.50 40.51 243.86 42.00 213.00 C 43.49 182.14 36.63 146.77 45.00 118.00
C 48.81 94.04 59.05 77.28 79.25 61.25 C 99.45 45.21 126.45 42.91 154.00 44.00 C 181.55 45.09 217.72 43.52 246.00 44.00 C 274.28 44.48 309.48 43.83 337.00 44.00 C 364.52 44.17 397.49 41.06 419.70 53.31 C 441.90 65.55 455.15 79.05 463.00 102.00 Z"/>
</g>
<g fill="None" fill-opacity="0.0" stroke="#F4F4F4" stroke-opacity="0.71" stroke-width="0.3"><path d="
M 45.00 118.00 
C 44.51 121.07 44.17 123.82 44.00 127.00
C 45.64 165.45 45.00 205.80 45.00 245.00
C 45.15 245.80 46.87 247.54 46.00 249.00
C 47.33 246.06 48.02 243.89 48.00 249.00
C 49.72 246.10 51.56 250.51 51.00 245.00
C 51.75 248.80 55.46 250.11 55.00 245.00
C 55.75 248.80 59.46 250.11 59.00 245.00
C 59.75 248.80 63.46 250.11 63.00 245.00
C 63.75 248.80 67.46 250.11 67.00 245.00
C 67.75 248.80 71.46 250.11 71.00 245.00
C 71.75 248.80 75.46 250.11 75.00 245.00
C 76.43 249.39 78.50 249.38 80.00 245.00
C 79.27 248.57 81.19 253.33 81.00 247.00
C 83.39 250.69 82.16 246.22 84.00 245.00
C 83.27 248.57 85.19 253.33 85.00 247.00
C 87.39 250.69 86.16 246.22 88.00 245.00
C 87.27 248.57 89.19 253.33 89.00 247.00
C 90.72 249.90 92.56 245.49 92.00 251.00
C 92.75 247.20 96.46 245.89 96.00 251.00
C 96.75 247.20 100.46 245.89 100.00 251.00
C 100.75 247.20 104.46 245.89 104.00 251.00
C 105.43 246.61 107.50 246.62 109.00 251.00
C 109.68 240.53 106.42 227.38 115.00 220.00
C 127.20 208.50 143.71 214.50 160.00 213.00 C 176.29 211.50 190.39 211.97 197.00 228.00
C 200.82 228.82 198.66 236.73 199.00 240.00 C 199.34 243.27 199.01 249.58 200.00 253.00
C 202.47 250.80 202.45 253.40 204.00 249.00
C 203.27 252.57 205.19 257.33 205.00 251.00
C 207.39 254.69 206.16 250.22 208.00 249.00
C 207.27 252.57 209.19 257.33 209.00 251.00
C 212.52 254.13 210.76 243.32 211.00 239.00 C 211.24 234.68 210.29 226.63 215.00 224.00
C 221.57 207.86 242.20 213.82 257.00 213.00 C 271.80 212.18 290.38 210.09 298.00 225.00
C 302.87 234.53 299.85 247.00 302.00 257.00
C 303.33 254.06 304.02 251.89 304.00 257.00
C 305.72 254.10 307.56 258.51 307.00 253.00
C 308.47 257.42 308.42 254.76 311.00 257.00
C 311.04 251.78 311.50 254.19 313.00 257.00
C 313.66 248.17 311.67 238.01 314.00 230.00
C 314.22 229.70 314.94 229.24 315.00 229.00
C 320.38 209.06 339.27 213.01 357.00 213.00 C 374.73 212.99 394.63 208.73 400.00 229.00
C 400.14 229.52 400.88 230.02 401.00 231.00
C 401.38 231.81 401.85 231.75 402.00 233.00
C 405.38 241.29 401.63 252.42 404.00 261.00
C 405.60 256.21 406.33 259.81 408.00 255.00
C 407.27 258.57 409.19 263.33 409.00 257.00
C 410.69 262.33 411.21 259.57 411.00 255.00
C 412.44 257.37 412.55 264.00 413.00 257.00
C 414.69 262.33 415.21 259.57 415.00 255.00
C 416.44 257.37 416.55 264.00 417.00 257.00
C 418.33 259.94 419.02 262.11 419.00 257.00
C 419.75 260.80 423.46 262.11 423.00 257.00
C 423.75 260.80 427.46 262.11 427.00 257.00
C 427.75 260.80 431.46 262.11 431.00 257.00
C 431.76 260.80 435.46 262.11 435.00 257.00
C 435.75 260.80 439.46 262.11 439.00 257.00
C 439.75 260.80 443.46 262.11 443.00 257.00
C 443.75 260.80 447.46 262.11 447.00 257.00
C 448.43 261.39 450.50 261.38 452.00 257.00
C 451.27 260.57 453.19 265.33 453.00 259.00
C 455.39 262.69 454.16 258.22 456.00 257.00
C 455.27 260.57 457.19 265.33 457.00 259.00
C 458.72 261.90 460.56 257.49 460.00 263.00
C 461.47 258.58 461.42 261.25 464.00 259.00
C 464.04 264.22 464.50 261.81 466.00 259.00
C 468.99 300.34 465.01 344.07 468.00 385.00
C 470.14 353.56 467.51 320.41 468.00 289.00 C 468.49 257.59 468.82 223.99 468.00 193.00 C 467.18 162.01 472.75 130.50 463.00 102.00
C 455.15 79.05 441.90 65.55 419.70 53.31 C 397.49 41.06 364.52 44.17 337.00 44.00 C 309.48 43.83 274.28 44.48 246.00 44.00 C 217.72 43.52 181.55 45.09 154.00 44.00 C 126.45 42.91 99.45 45.21 79.25 61.25 C 59.05 77.28 48.81 94.04 45.00 118.00
M 197.00 128.00 
C 200.55 141.70 195.88 158.63 198.00 173.00 C 200.12 187.37 194.47 201.04 179.00 201.00 C 163.53 200.96 147.01 200.16 132.00 201.00 C 116.99 201.84 107.33 190.63 110.00 176.00 C 112.67 161.37 105.58 143.30 111.00 130.00
C 111.14 128.85 111.82 128.67 112.00 128.00
C 117.26 108.16 136.38 111.77 154.00 112.00 C 171.62 112.23 191.71 107.58 197.00 128.00
M 299.00 130.00 
C 302.24 148.08 300.56 167.30 299.22 186.22 C 297.88 205.15 269.00 201.02 256.00 201.00 C 243.00 200.98 214.05 205.26 212.67 186.33 C 211.30 167.39 209.79 147.93 213.00 130.00
C 214.51 107.83 239.51 111.95 256.00 112.00 C 272.49 112.05 297.48 107.62 299.00 130.00
M 387.00 113.00 
C 394.82 115.12 399.55 120.63 400.00 129.00
C 400.04 129.21 400.78 129.70 401.00 130.00
C 405.26 135.78 401.28 150.49 402.00 158.00 C 402.72 165.51 403.02 179.55 401.67 186.67 C 400.32 193.79 393.53 200.41 385.99 200.99 C 378.45 201.57 365.22 201.04 357.00 201.00 C 348.78 200.96 336.17 201.84 328.33 200.67 C 320.49 199.50 314.26 193.29 314.01 184.99 C 313.76 176.70 313.73 164.86 314.00 156.00 C 314.27 147.14 312.64 135.10 315.00 127.00
C 317.22 119.36 321.36 114.89 329.00 113.00
C 337.54 110.88 348.66 111.94 358.00 112.00 C 367.34 112.06 378.56 110.71 387.00 113.00 Z"/>
</g>
<g fill="None" fill-opacity="0.0" stroke="#000000" stroke-opacity="0.09" stroke-width="0.3"><path d="
M 468.00 385.00 
C 467.61 390.79 466.37 396.46 465.00 402.00
C 463.92 413.89 459.03 424.82 453.00 436.00
C 442.49 455.48 427.17 463.88 405.93 470.93 C 384.68 477.97 353.09 474.32 328.00 475.00 C 302.91 475.68 271.09 474.47 245.00 475.00 C 218.91 475.53 189.17 474.28 163.00 475.00 C 136.83 475.72 112.92 475.95 91.00 464.00
C 67.09 454.61 49.10 425.10 47.00 402.00
C 45.54 396.11 44.34 390.22 44.00 384.00
C 41.69 341.49 43.98 298.62 44.00 256.00 C 44.02 213.38 41.69 169.59 44.00 127.00
C 44.17 123.82 44.51 121.07 45.00 118.00
C 36.63 146.77 43.49 182.14 42.00 213.00 C 40.51 243.86 41.96 280.50 42.00 311.00 C 42.04 341.50 39.44 378.64 44.22 406.78 C 49.00 434.92 62.00 447.75 84.92 464.08 C 107.84 480.40 140.59 476.95 170.00 477.00 C 199.41 477.05 236.84 476.80 267.00 477.00 C 297.16 477.20 335.65 476.51 365.00 477.00 C 394.35 477.49 419.58 473.98 440.25 454.25 C 460.92 434.52 470.29 416.35 471.00 387.00 C 471.71 357.65 470.92 319.74 471.00 289.00 C 471.08 258.26 471.49 221.83 471.00 191.00 C 470.51 160.17 475.59 128.93 463.00 102.00
C 472.75 130.50 467.18 162.01 468.00 193.00 C 468.82 223.99 468.49 257.59 468.00 289.00 C 467.51 320.41 470.14 353.56 468.00 385.00 Z"/>
</g>
<g fill="None" fill-opacity="0.0" stroke="#6DF25D" stroke-opacity="1.00" stroke-width="0.3"><path d="
M 112.00 128.00 
C 111.52 133.23 112.00 138.74 112.00 144.00
C 118.79 143.75 126.28 144.34 133.00 144.00 C 139.72 143.66 148.62 144.62 155.00 144.00 C 161.38 143.38 170.59 145.39 176.00 144.00 C 181.41 142.61 193.88 147.41 197.00 143.00
C 197.00 138.15 197.64 132.80 197.00 128.00
C 191.71 107.58 171.62 112.23 154.00 112.00 C 136.38 111.77 117.26 108.16 112.00 128.00 Z"/>
</g>
<g fill="None" fill-opacity="0.0" stroke="#FED33F" stroke-opacity="1.00" stroke-width="0.3"><path d="
M 213.00 130.00 
C 212.39 138.91 213.00 148.07 213.00 157.00
C 213.48 152.07 214.72 145.64 214.00 140.00
C 242.00 140.00 270.00 140.00 298.00 140.00
C 298.65 145.16 296.69 151.66 299.00 156.00
C 299.00 147.40 299.58 138.58 299.00 130.00
C 297.48 107.62 272.49 112.05 256.00 112.00 C 239.51 111.95 214.51 107.83 213.00 130.00 Z"/>
</g>
<g fill="None" fill-opacity="0.0" stroke="#F6B334" stroke-opacity="0.93" stroke-width="0.3"><path d="
M 329.00 113.00 
C 338.30 111.85 348.62 112.94 358.00 113.00 C 367.38 113.06 377.73 111.68 387.00 113.00
C 378.56 110.71 367.34 112.06 358.00 112.00 C 348.66 111.94 337.54 110.88 329.00 113.00 Z"/>
</g>
<g fill="None" fill-opacity="0.0" stroke="#F69708" stroke-opacity="1.00" stroke-width="0.3"><path d="
M 315.00 127.00 
C 313.90 133.93 315.00 141.97 315.00 149.00
C 343.33 149.00 371.67 149.00 400.00 149.00
C 400.00 142.37 400.36 135.62 400.00 129.00
C 399.55 120.63 394.82 115.12 387.00 113.00
C 377.73 111.68 367.38 113.06 358.00 113.00 C 348.62 112.94 338.30 111.85 329.00 113.00
C 321.36 114.89 317.22 119.36 315.00 127.00 Z"/>
</g>
<g fill="None" fill-opacity="0.0" stroke="#D2D2D2" stroke-opacity="0.59" stroke-width="0.3"><path d="
M 44.00 384.00 
C 45.94 338.58 45.00 291.17 45.00 245.00
C 45.00 205.80 45.64 165.45 44.00 127.00
C 41.69 169.59 44.02 213.38 44.00 256.00 C 43.98 298.62 41.69 341.49 44.00 384.00 Z"/>
</g>
<g fill="None" fill-opacity="0.0" stroke="#E4D5BA" stroke-opacity="0.76" stroke-width="0.3"><path d="
M 401.00 130.00 
C 403.25 145.60 402.35 167.18 400.00 182.00
C 399.87 184.40 399.60 185.82 399.00 188.00
C 398.67 189.20 398.53 190.86 398.00 192.00
C 392.74 203.30 377.71 200.14 367.00 200.00 C 356.29 199.86 339.19 201.52 329.00 199.00
C 322.29 197.34 317.88 193.94 316.00 187.00
C 314.31 180.78 315.00 173.62 315.00 167.00
C 315.00 161.00 315.00 155.00 315.00 149.00
C 315.00 141.97 313.90 133.93 315.00 127.00
C 312.64 135.10 314.27 147.14 314.00 156.00 C 313.73 164.86 313.76 176.70 314.01 184.99 C 314.26 193.29 320.49 199.50 328.33 200.67 C 336.17 201.84 348.78 200.96 357.00 201.00 C 365.22 201.04 378.45 201.57 385.99 200.99 C 393.53 200.41 400.32 193.79 401.67 186.67 C 403.02 179.55 402.72 165.51 402.00 158.00 C 401.28 150.49 405.26 135.78 401.00 130.00 Z"/>
</g>
<g fill="None" fill-opacity="0.0" stroke="#8BD481" stroke-opacity="0.89" stroke-width="0.3"><path d="
M 111.00 130.00 
C 108.77 148.11 109.49 168.41 111.33 186.67 C 113.17 204.93 141.51 199.61 155.00 200.00 C 168.49 200.39 195.17 204.13 197.00 184.00
C 193.79 199.52 172.70 199.71 160.00 198.00 C 147.30 196.29 123.83 203.65 115.75 191.25 C 107.68 178.84 112.00 158.68 112.00 144.00
C 112.00 138.74 111.52 133.23 112.00 128.00
C 111.82 128.67 111.14 128.85 111.00 130.00 Z"/>
</g>
<g fill="None" fill-opacity="0.0" stroke="#CEE6CA" stroke-opacity="0.76" stroke-width="0.3"><path d="
M 197.00 143.00 
C 197.00 156.48 198.22 170.59 197.00 184.00
C 195.17 204.13 168.49 200.39 155.00 200.00 C 141.51 199.61 113.17 204.93 111.33 186.67 C 109.49 168.41 108.77 148.11 111.00 130.00
C 105.58 143.30 112.67 161.37 110.00 176.00 C 107.33 190.63 116.99 201.84 132.00 201.00 C 147.01 200.16 163.53 200.96 179.00 201.00 C 194.47 201.04 200.12 187.37 198.00 173.00 C 195.88 158.63 200.55 141.70 197.00 128.00
C 197.64 132.80 197.00 138.15 197.00 143.00 Z"/>
</g>
<g fill="None" fill-opacity="0.0" stroke="#E4A754" stroke-opacity="0.89" stroke-width="0.3"><path d="
M 400.00 149.00 
C 400.00 154.33 400.00 159.67 400.00 165.00
C 400.00 170.64 400.30 176.37 400.00 182.00
C 402.35 167.18 403.25 145.60 401.00 130.00
C 400.78 129.70 400.04 129.21 400.00 129.00
C 400.36 135.62 400.00 142.37 400.00 149.00 Z"/>
</g>
<g fill="None" fill-opacity="0.0" stroke="#E9E4BD" stroke-opacity="0.77" stroke-width="0.3"><path d="
M 299.00 130.00 
C 299.58 138.58 299.00 147.40 299.00 156.00
C 299.00 165.17 299.83 175.66 298.00 184.00
C 298.00 184.96 298.13 186.05 298.00 187.00
C 295.65 204.72 268.44 200.00 256.00 200.00 C 243.56 200.00 216.35 204.73 214.00 187.00
C 213.87 186.05 214.00 184.96 214.00 184.00
C 212.22 175.89 213.00 165.86 213.00 157.00
C 213.00 148.07 212.39 138.91 213.00 130.00
C 209.79 147.93 211.30 167.39 212.67 186.33 C 214.05 205.26 243.00 200.98 256.00 201.00 C 269.00 201.02 297.88 205.15 299.22 186.22 C 300.56 167.30 302.24 148.08 299.00 130.00 Z"/>
</g>
<g fill="None" fill-opacity="0.0" stroke="#FEC124" stroke-opacity="1.00" stroke-width="0.3"><path d="
M 213.00 157.00 
C 213.00 165.86 212.22 175.89 214.00 184.00
C 214.00 181.00 214.00 178.00 214.00 175.00
C 242.00 175.00 270.00 175.00 298.00 175.00
C 298.00 178.00 298.00 181.00 298.00 184.00
C 299.83 175.66 299.00 165.17 299.00 156.00
C 296.69 151.66 298.65 145.16 298.00 140.00
C 270.00 140.00 242.00 140.00 214.00 140.00
C 214.72 145.64 213.48 152.07 213.00 157.00 Z"/>
</g>
<g fill="None" fill-opacity="0.0" stroke="#37DF36" stroke-opacity="1.00" stroke-width="0.3"><path d="
M 112.00 144.00 
C 112.00 158.68 107.68 178.84 115.75 191.25 C 123.83 203.65 147.30 196.29 160.00 198.00 C 172.70 199.71 193.79 199.52 197.00 184.00
C 198.22 170.59 197.00 156.48 197.00 143.00
C 193.88 147.41 181.41 142.61 176.00 144.00 C 170.59 145.39 161.38 143.38 155.00 144.00 C 148.62 144.62 139.72 143.66 133.00 144.00 C 126.28 144.34 118.79 143.75 112.00 144.00 Z"/>
</g>
<g fill="None" fill-opacity="0.0" stroke="#F38810" stroke-opacity="1.00" stroke-width="0.3"><path d="
M 315.00 167.00 
C 317.51 161.97 328.18 165.91 334.00 165.00 C 339.82 164.09 349.37 165.42 356.00 165.00 C 362.63 164.58 371.04 165.22 378.00 165.00 C 384.96 164.78 392.94 165.17 400.00 165.00
C 400.00 159.67 400.00 154.33 400.00 149.00
C 371.67 149.00 343.33 149.00 315.00 149.00
C 315.00 155.00 315.00 161.00 315.00 167.00 Z"/>
</g>
<g fill="None" fill-opacity="0.0" stroke="#F07A18" stroke-opacity="1.00" stroke-width="0.3"><path d="
M 315.00 167.00 
C 315.00 173.62 314.31 180.78 316.00 187.00
C 321.83 202.04 343.87 198.21 357.00 198.00 C 370.13 197.79 392.10 202.59 399.00 188.00
C 399.60 185.82 399.87 184.40 400.00 182.00
C 400.30 176.37 400.00 170.64 400.00 165.00
C 392.94 165.17 384.96 164.78 378.00 165.00 C 371.04 165.22 362.63 164.58 356.00 165.00 C 349.37 165.42 339.82 164.09 334.00 165.00 C 328.18 165.91 317.51 161.97 315.00 167.00 Z"/>
</g>
<g fill="None" fill-opacity="0.0" stroke="#FEB10D" stroke-opacity="1.00" stroke-width="0.3"><path d="
M 214.00 184.00 
C 214.00 184.96 213.87 186.05 214.00 187.00
C 218.64 202.51 243.78 197.98 256.00 198.00 C 268.22 198.02 293.38 202.45 298.00 187.00
C 298.13 186.05 298.00 184.96 298.00 184.00
C 298.00 181.00 298.00 178.00 298.00 175.00
C 270.00 175.00 242.00 175.00 214.00 175.00
C 214.00 178.00 214.00 181.00 214.00 184.00 Z"/>
</g>
<g fill="None" fill-opacity="0.0" stroke="#DACD6A" stroke-opacity="0.89" stroke-width="0.3"><path d="
M 298.00 187.00 
C 293.38 202.45 268.22 198.02 256.00 198.00 C 243.78 197.98 218.64 202.51 214.00 187.00
C 216.35 204.73 243.56 200.00 256.00 200.00 C 268.44 200.00 295.65 204.72 298.00 187.00 Z"/>
</g>
<g fill="None" fill-opacity="0.0" stroke="#C69944" stroke-opacity="0.92" stroke-width="0.3"><path d="
M 329.00 199.00 
C 339.86 200.35 356.54 198.81 367.00 199.00 C 377.46 199.19 392.22 202.03 398.00 192.00
C 398.53 190.86 398.67 189.20 399.00 188.00
C 392.10 202.59 370.13 197.79 357.00 198.00 C 343.87 198.21 321.83 202.04 316.00 187.00
C 317.88 193.94 322.29 197.34 329.00 199.00 Z"/>
</g>
<g fill="None" fill-opacity="0.0" stroke="#D2B477" stroke-opacity="0.85" stroke-width="0.3"><path d="
M 329.00 199.00 
C 339.19 201.52 356.29 199.86 367.00 200.00 C 377.71 200.14 392.74 203.30 398.00 192.00
C 392.22 202.03 377.46 199.19 367.00 199.00 C 356.54 198.81 339.86 200.35 329.00 199.00 Z"/>
</g>
<g fill="None" fill-opacity="0.0" stroke="#EE2F26" stroke-opacity="1.00" stroke-width="0.3"><path d="
M 115.00 220.00 
C 112.71 223.02 112.20 226.29 112.00 230.00
C 111.71 235.30 112.00 240.69 112.00 246.00
C 118.87 245.81 126.18 246.26 133.00 246.00 C 139.82 245.74 148.43 246.47 155.00 246.00 C 161.57 245.53 171.20 247.00 177.00 246.00 C 182.80 245.00 194.44 249.11 197.00 244.00
C 197.00 239.00 197.00 234.00 197.00 229.00
C 197.00 228.50 197.00 228.00 197.00 228.00
C 190.39 211.97 176.29 211.50 160.00 213.00 C 143.71 214.50 127.20 208.50 115.00 220.00 Z"/>
</g>
<g fill="None" fill-opacity="0.0" stroke="#BBCCD1" stroke-opacity="1.00" stroke-width="0.3"><path d="
M 215.00 224.00 
C 214.20 225.98 213.29 227.85 213.00 230.00
C 212.84 234.33 215.20 240.89 214.00 246.00
C 242.00 246.00 270.00 246.00 298.00 246.00
C 298.65 240.84 296.69 234.34 299.00 230.00
C 298.83 228.60 298.47 226.35 298.00 225.00
C 290.38 210.09 271.80 212.18 257.00 213.00 C 242.20 213.82 221.57 207.86 215.00 224.00 Z"/>
</g>
<g fill="None" fill-opacity="0.0" stroke="#FC425D" stroke-opacity="1.00" stroke-width="0.3"><path d="
M 315.00 229.00 
C 312.76 247.03 315.00 266.81 315.00 285.00
C 318.57 302.24 343.98 299.36 357.00 299.00 C 370.02 298.64 396.39 303.44 400.00 286.00
C 400.00 267.26 401.70 247.65 400.00 229.00
C 394.63 208.73 374.73 212.99 357.00 213.00 C 339.27 213.01 320.38 209.06 315.00 229.00 Z"/>
</g>
<g fill="None" fill-opacity="0.0" stroke="#DDDDDD" stroke-opacity="0.71" stroke-width="0.3"><path d="
M 45.00 245.00 
C 45.00 291.17 45.94 338.58 44.00 384.00
C 44.34 390.22 45.54 396.11 47.00 402.00
C 49.37 411.56 53.54 420.28 58.00 429.00
C 69.86 446.46 82.72 455.44 103.02 462.98 C 123.33 470.51 153.09 467.78 177.00 468.00 C 200.91 468.22 231.50 468.03 256.00 468.00 C 280.50 467.97 311.12 468.30 335.00 468.00 C 358.88 467.70 388.81 470.62 409.07 463.07 C 429.34 455.53 442.24 446.31 454.00 429.00
C 458.46 420.28 462.62 411.60 465.00 402.00
C 466.37 396.46 467.61 390.79 468.00 385.00
C 465.01 344.07 468.99 300.34 466.00 259.00
C 464.50 261.81 464.04 264.22 464.00 259.00
C 461.42 261.25 461.47 258.58 460.00 263.00
C 460.56 257.49 458.72 261.90 457.00 259.00
C 457.19 265.33 455.27 260.57 456.00 257.00
C 454.16 258.22 455.39 262.69 453.00 259.00
C 453.19 265.33 451.27 260.57 452.00 257.00
C 450.50 261.38 448.43 261.39 447.00 257.00
C 447.46 262.11 443.75 260.80 443.00 257.00
C 443.46 262.11 439.75 260.80 439.00 257.00
C 439.46 262.11 435.75 260.80 435.00 257.00
C 435.46 262.11 431.76 260.80 431.00 257.00
C 431.46 262.11 427.75 260.80 427.00 257.00
C 427.46 262.11 423.75 260.80 423.00 257.00
C 423.46 262.11 419.75 260.80 419.00 257.00
C 419.02 262.11 418.33 259.94 417.00 257.00
C 416.55 264.00 416.44 257.37 415.00 255.00
C 415.21 259.57 414.69 262.33 413.00 257.00
C 412.55 264.00 412.44 257.37 411.00 255.00
C 411.21 259.57 410.69 262.33 409.00 257.00
C 409.19 263.33 407.27 258.57 408.00 255.00
C 406.33 259.81 405.60 256.21 404.00 261.00
C 401.63 252.42 405.38 241.29 402.00 233.00
C 403.41 244.42 401.01 259.89 402.00 271.00 C 402.99 282.11 402.50 294.14 393.00 298.00
C 380.23 303.18 362.84 300.23 349.00 301.00 C 335.16 301.77 319.27 302.42 315.00 287.00
C 312.62 278.82 313.85 268.11 314.00 259.00 C 314.15 249.89 312.69 239.08 314.00 230.00
C 311.67 238.01 313.66 248.17 313.00 257.00
C 311.50 254.19 311.04 251.78 311.00 257.00
C 308.42 254.76 308.47 257.42 307.00 253.00
C 307.56 258.51 305.72 254.10 304.00 257.00
C 304.02 251.89 303.33 254.06 302.00 257.00
C 299.85 247.00 302.87 234.53 298.00 225.00
C 298.47 226.35 298.83 228.60 299.00 230.00
C 301.01 246.66 300.51 267.28 299.00 284.00
C 301.03 296.31 285.84 301.38 276.00 301.00 C 266.16 300.62 245.64 300.37 236.00 301.00 C 226.36 301.63 210.19 295.86 213.00 284.00
C 211.49 267.42 210.80 246.49 213.00 230.00
C 213.29 227.85 214.20 225.98 215.00 224.00
C 210.29 226.63 211.24 234.68 211.00 239.00 C 210.76 243.32 212.52 254.13 209.00 251.00
C 209.19 257.33 207.27 252.57 208.00 249.00
C 206.16 250.22 207.39 254.69 205.00 251.00
C 205.19 257.33 203.27 252.57 204.00 249.00
C 202.45 253.40 202.47 250.80 200.00 253.00
C 199.01 249.58 199.34 243.27 199.00 240.00 C 198.66 236.73 200.82 228.82 197.00 228.00
C 197.00 228.00 197.00 228.50 197.00 229.00
C 201.44 235.00 197.01 249.21 198.00 257.00 C 198.99 264.79 198.33 278.26 198.00 286.00 C 197.67 293.74 191.10 299.02 183.93 300.93 C 176.75 302.83 163.04 302.24 155.00 302.00 C 146.96 301.76 133.40 303.05 126.00 302.00 C 118.60 300.95 112.20 295.35 110.68 288.32 C 109.16 281.29 109.04 267.63 110.00 260.00 C 110.96 252.37 106.63 236.94 111.00 231.00
C 111.22 230.70 111.96 230.21 112.00 230.00
C 112.20 226.29 112.71 223.02 115.00 220.00
C 106.42 227.38 109.68 240.53 109.00 251.00
C 107.50 246.62 105.43 246.61 104.00 251.00
C 104.46 245.89 100.75 247.20 100.00 251.00
C 100.46 245.89 96.75 247.20 96.00 251.00
C 96.46 245.89 92.75 247.20 92.00 251.00
C 92.56 245.49 90.72 249.90 89.00 247.00
C 89.19 253.33 87.27 248.57 88.00 245.00
C 86.16 246.22 87.39 250.69 85.00 247.00
C 85.19 253.33 83.27 248.57 84.00 245.00
C 82.16 246.22 83.39 250.69 81.00 247.00
C 81.19 253.33 79.27 248.57 80.00 245.00
C 78.50 249.38 76.43 249.39 75.00 245.00
C 75.46 250.11 71.75 248.80 71.00 245.00
C 71.46 250.11 67.75 248.80 67.00 245.00
C 67.46 250.11 63.75 248.80 63.00 245.00
C 63.46 250.11 59.75 248.80 59.00 245.00
C 59.46 250.11 55.75 248.80 55.00 245.00
C 55.46 250.11 51.75 248.80 51.00 245.00
C 51.56 250.51 49.72 246.10 48.00 249.00
C 48.02 243.89 47.33 246.06 46.00 249.00
C 46.87 247.54 45.15 245.80 45.00 245.00
M 197.00 331.00 
C 200.34 346.09 195.82 363.19 198.00 379.00 C 200.18 394.81 188.68 405.45 173.00 403.00 C 157.32 400.55 139.60 405.92 124.33 402.67 C 109.06 399.42 108.53 381.05 110.00 368.00 C 111.47 354.95 105.67 333.76 114.00 323.00
C 124.88 308.94 142.39 315.35 159.00 314.00 C 175.61 312.65 192.88 312.40 197.00 331.00
M 299.00 330.00 
C 301.23 338.60 299.88 349.59 300.00 359.00 C 300.12 368.41 300.90 379.43 299.00 388.00
C 298.76 393.82 294.75 397.52 290.00 400.00
C 275.72 407.46 256.93 400.02 241.00 403.00 C 225.07 405.98 209.46 396.13 212.00 379.00 C 214.54 361.87 208.07 343.28 214.00 328.00
C 218.62 309.05 241.75 314.30 257.00 314.00 C 272.25 313.70 296.46 309.97 299.00 330.00
M 400.00 327.00 
C 403.83 335.09 401.61 346.76 402.00 356.00 C 402.39 365.24 402.29 378.69 401.07 387.07 C 399.86 395.45 393.69 402.80 384.99 402.99 C 376.29 403.18 361.37 403.91 353.00 403.00 C 344.63 402.09 328.95 406.90 324.00 400.00
C 323.55 399.85 323.00 400.00 323.00 400.00
C 311.50 394.38 313.73 381.29 314.00 370.00 C 314.27 358.71 312.76 341.81 315.00 331.00
C 319.11 311.15 337.61 313.30 355.00 314.00 C 372.39 314.70 391.49 309.01 400.00 327.00 Z"/>
</g>
<g fill="None" fill-opacity="0.0" stroke="#CEABAC" stroke-opacity="0.77" stroke-width="0.3"><path d="
M 197.00 244.00 
C 197.00 257.34 200.06 275.49 196.00 288.00
C 193.86 294.58 188.34 298.21 182.00 300.00
C 173.39 302.44 161.42 300.94 152.00 301.00 C 142.58 301.06 130.99 302.74 123.00 299.00
C 121.91 298.69 121.05 298.57 120.00 298.00
C 116.21 295.92 112.51 291.16 112.00 287.00
C 111.84 285.71 112.00 284.30 112.00 283.00
C 109.94 267.85 108.72 246.82 111.00 231.00
C 106.63 236.94 110.96 252.37 110.00 260.00 C 109.04 267.63 109.16 281.29 110.68 288.32 C 112.20 295.35 118.60 300.95 126.00 302.00 C 133.40 303.05 146.96 301.76 155.00 302.00 C 163.04 302.24 176.75 302.83 183.93 300.93 C 191.10 299.02 197.67 293.74 198.00 286.00 C 198.33 278.26 198.99 264.79 198.00 257.00 C 197.01 249.21 201.44 235.00 197.00 229.00
C 197.00 234.00 197.00 239.00 197.00 244.00 Z"/>
</g>
<g fill="None" fill-opacity="0.0" stroke="#D9A5B5" stroke-opacity="0.78" stroke-width="0.3"><path d="
M 314.00 230.00 
C 312.69 239.08 314.15 249.89 314.00 259.00 C 313.85 268.11 312.62 278.82 315.00 287.00
C 314.87 286.54 315.00 285.50 315.00 285.00
C 315.00 266.81 312.76 247.03 315.00 229.00
C 314.94 229.24 314.22 229.70 314.00 230.00 Z"/>
</g>
<g fill="None" fill-opacity="0.0" stroke="#E26C86" stroke-opacity="0.88" stroke-width="0.3"><path d="
M 400.00 286.00 
C 400.00 286.50 400.13 287.54 400.00 288.00
C 402.77 279.99 400.93 269.04 401.00 260.00 C 401.07 250.96 402.11 240.05 401.00 231.00
C 400.88 230.02 400.14 229.52 400.00 229.00
C 401.70 247.65 400.00 267.26 400.00 286.00 Z"/>
</g>
<g fill="None" fill-opacity="0.0" stroke="#C85251" stroke-opacity="0.89" stroke-width="0.3"><path d="
M 111.00 231.00 
C 108.72 246.82 109.94 267.85 112.00 283.00
C 112.00 270.67 112.00 258.33 112.00 246.00
C 112.00 240.69 111.71 235.30 112.00 230.00
C 111.96 230.21 111.22 230.70 111.00 231.00 Z"/>
</g>
<g fill="None" fill-opacity="0.0" stroke="#9FA9AB" stroke-opacity="1.00" stroke-width="0.3"><path d="
M 213.00 284.00 
C 213.00 284.05 214.00 284.00 214.00 284.00
C 214.36 280.03 213.73 275.98 214.00 272.00
C 242.00 272.00 270.00 272.00 298.00 272.00
C 298.00 276.00 298.00 280.00 298.00 284.00
C 298.01 283.94 299.00 284.00 299.00 284.00
C 300.51 267.28 301.01 246.66 299.00 230.00
C 296.69 234.34 298.65 240.84 298.00 246.00
C 270.00 246.00 242.00 246.00 214.00 246.00
C 215.20 240.89 212.84 234.33 213.00 230.00
C 210.80 246.49 211.49 267.42 213.00 284.00 Z"/>
</g>
<g fill="None" fill-opacity="0.0" stroke="#DEBFC9" stroke-opacity="0.75" stroke-width="0.3"><path d="
M 400.00 288.00 
C 399.14 291.12 395.67 296.11 393.00 298.00
C 402.50 294.14 402.99 282.11 402.00 271.00 C 401.01 259.89 403.41 244.42 402.00 233.00
C 401.85 231.75 401.38 231.81 401.00 231.00
C 402.11 240.05 401.07 250.96 401.00 260.00 C 400.93 269.04 402.77 279.99 400.00 288.00 Z"/>
</g>
<g fill="None" fill-opacity="0.0" stroke="#CE150F" stroke-opacity="1.00" stroke-width="0.3"><path d="
M 112.00 246.00 
C 112.00 258.33 112.00 270.67 112.00 283.00
C 112.00 284.30 111.84 285.71 112.00 287.00
C 112.22 287.96 114.30 290.94 115.00 292.00
C 124.05 303.57 144.21 298.19 157.00 299.00 C 169.79 299.81 189.69 301.80 196.00 288.00
C 200.06 275.49 197.00 257.34 197.00 244.00
C 194.44 249.11 182.80 245.00 177.00 246.00 C 171.20 247.00 161.57 245.53 155.00 246.00 C 148.43 246.47 139.82 245.74 133.00 246.00 C 126.18 246.26 118.87 245.81 112.00 246.00 Z"/>
</g>
<g fill="None" fill-opacity="0.0" stroke="#86898A" stroke-opacity="1.00" stroke-width="0.3"><path d="
M 214.00 284.00 
C 213.71 302.95 243.25 298.04 256.00 298.00 C 268.75 297.96 295.82 303.09 298.00 284.00
C 298.00 280.00 298.00 276.00 298.00 272.00
C 270.00 272.00 242.00 272.00 214.00 272.00
C 213.73 275.98 214.36 280.03 214.00 284.00 Z"/>
</g>
<g fill="None" fill-opacity="0.0" stroke="#898989" stroke-opacity="0.89" stroke-width="0.3"><path d="
M 299.00 284.00 
C 299.00 284.00 298.01 283.94 298.00 284.00
C 295.82 303.09 268.75 297.96 256.00 298.00 C 243.25 298.04 213.71 302.95 214.00 284.00
C 214.00 284.00 213.00 284.05 213.00 284.00
C 210.19 295.86 226.36 301.63 236.00 301.00 C 245.64 300.37 266.16 300.62 276.00 301.00 C 285.84 301.38 301.03 296.31 299.00 284.00 Z"/>
</g>
<g fill="None" fill-opacity="0.0" stroke="#C65777" stroke-opacity="0.89" stroke-width="0.3"><path d="
M 315.00 287.00 
C 319.27 302.42 335.16 301.77 349.00 301.00 C 362.84 300.23 380.23 303.18 393.00 298.00
C 395.67 296.11 399.14 291.12 400.00 288.00
C 400.13 287.54 400.00 286.50 400.00 286.00
C 396.39 303.44 370.02 298.64 357.00 299.00 C 343.98 299.36 318.57 302.24 315.00 285.00
C 315.00 285.50 314.87 286.54 315.00 287.00 Z"/>
</g>
<g fill="None" fill-opacity="0.0" stroke="#B06266" stroke-opacity="0.86" stroke-width="0.3"><path d="
M 120.00 298.00 
C 118.32 296.79 116.13 293.70 115.00 292.00
C 114.30 290.94 112.22 287.96 112.00 287.00
C 112.51 291.16 116.21 295.92 120.00 298.00 Z"/>
</g>
<g fill="None" fill-opacity="0.0" stroke="#9D3337" stroke-opacity="0.93" stroke-width="0.3"><path d="
M 115.00 292.00 
C 116.13 293.70 118.32 296.79 120.00 298.00
C 121.05 298.57 121.91 298.69 123.00 299.00
C 131.81 301.52 142.58 300.14 152.00 300.00 C 161.42 299.86 172.64 301.43 182.00 300.00
C 188.34 298.21 193.86 294.58 196.00 288.00
C 189.69 301.80 169.79 299.81 157.00 299.00 C 144.21 298.19 124.05 303.57 115.00 292.00 Z"/>
</g>
<g fill="None" fill-opacity="0.0" stroke="#B2686B" stroke-opacity="0.85" stroke-width="0.3"><path d="
M 182.00 300.00 
C 172.64 301.43 161.42 299.86 152.00 300.00 C 142.58 300.14 131.81 301.52 123.00 299.00
C 130.99 302.74 142.58 301.06 152.00 301.00 C 161.42 300.94 173.39 302.44 182.00 300.00 Z"/>
</g>
<g fill="None" fill-opacity="0.0" stroke="#B252E0" stroke-opacity="1.00" stroke-width="0.3"><path d="
M 114.00 323.00 
C 112.38 325.81 112.18 327.73 112.00 331.00
C 111.73 335.97 112.00 341.03 112.00 346.00
C 118.79 346.25 126.28 345.66 133.00 346.00 C 139.72 346.34 148.62 345.38 155.00 346.00 C 161.38 346.62 170.59 344.61 176.00 346.00 C 181.41 347.39 193.88 342.59 197.00 347.00
C 197.00 341.76 197.53 336.21 197.00 331.00
C 192.88 312.40 175.61 312.65 159.00 314.00 C 142.39 315.35 124.88 308.94 114.00 323.00 Z"/>
</g>
<g fill="None" fill-opacity="0.0" stroke="#20D1FB" stroke-opacity="0.99" stroke-width="0.3"><path d="
M 214.00 328.00 
C 212.97 332.24 213.00 336.45 213.00 341.00
C 213.19 339.05 214.93 335.66 214.00 333.00
C 243.27 333.54 268.81 329.29 299.00 332.00
C 299.00 331.50 299.06 330.49 299.00 330.00
C 296.46 309.97 272.25 313.70 257.00 314.00 C 241.75 314.30 218.62 309.05 214.00 328.00 Z"/>
</g>
<g fill="None" fill-opacity="0.0" stroke="#51DED0" stroke-opacity="1.00" stroke-width="0.3"><path d="
M 315.00 331.00 
C 314.81 333.30 315.00 335.69 315.00 338.00
C 343.33 338.00 371.67 338.00 400.00 338.00
C 400.00 335.67 400.00 333.33 400.00 331.00
C 400.00 329.73 400.21 328.25 400.00 327.00
C 391.49 309.01 372.39 314.70 355.00 314.00 C 337.61 313.30 319.11 311.15 315.00 331.00 Z"/>
</g>
<g fill="None" fill-opacity="0.0" stroke="#C5B5CE" stroke-opacity="0.76" stroke-width="0.3"><path d="
M 197.00 331.00 
C 197.53 336.21 197.00 341.76 197.00 347.00
C 197.00 353.33 197.00 359.67 197.00 366.00
C 197.00 373.54 197.93 381.89 196.00 389.00
C 191.31 406.31 167.47 402.05 154.00 402.00 C 140.53 401.95 114.24 406.40 112.00 388.00
C 111.84 386.71 112.00 385.30 112.00 384.00
C 109.84 368.12 109.44 346.78 112.00 331.00
C 112.18 327.73 112.38 325.81 114.00 323.00
C 105.67 333.76 111.47 354.95 110.00 368.00 C 108.53 381.05 109.06 399.42 124.33 402.67 C 139.60 405.92 157.32 400.55 173.00 403.00 C 188.68 405.45 200.18 394.81 198.00 379.00 C 195.82 363.19 200.34 346.09 197.00 331.00 Z"/>
</g>
<g fill="None" fill-opacity="0.0" stroke="#BBD1CD" stroke-opacity="0.76" stroke-width="0.3"><path d="
M 400.00 331.00 
C 402.20 347.18 403.98 371.68 400.00 388.00
C 396.45 402.55 381.19 402.94 368.00 402.00 C 354.81 401.06 336.74 404.08 324.00 400.00
C 328.95 406.90 344.63 402.09 353.00 403.00 C 361.37 403.91 376.29 403.18 384.99 402.99 C 393.69 402.80 399.86 395.45 401.07 387.07 C 402.29 378.69 402.39 365.24 402.00 356.00 C 401.61 346.76 403.83 335.09 400.00 327.00
C 400.21 328.25 400.00 329.73 400.00 331.00 Z"/>
</g>
<g fill="None" fill-opacity="0.0" stroke="#ABD3D5" stroke-opacity="0.77" stroke-width="0.3"><path d="
M 290.00 400.00 
C 278.95 404.34 259.37 401.38 248.00 402.00 C 236.63 402.62 218.66 404.08 215.00 391.00
C 214.23 389.70 214.16 387.55 214.00 386.00
C 212.68 380.00 213.00 372.69 213.00 366.00
C 213.00 361.00 213.00 356.00 213.00 351.00
C 213.00 347.67 213.00 344.33 213.00 341.00
C 213.00 336.45 212.97 332.24 214.00 328.00
C 208.07 343.28 214.54 361.87 212.00 379.00 C 209.46 396.13 225.07 405.98 241.00 403.00 C 256.93 400.02 275.72 407.46 290.00 400.00 Z"/>
</g>
<g fill="None" fill-opacity="0.0" stroke="#B0D5D7" stroke-opacity="0.76" stroke-width="0.3"><path d="
M 299.00 332.00 
C 299.00 337.33 299.00 342.67 299.00 348.00
C 299.00 351.33 299.00 354.67 299.00 358.00
C 299.00 361.67 299.00 365.33 299.00 369.00
C 299.00 374.67 299.00 380.33 299.00 386.00
C 299.00 386.50 299.02 387.50 299.00 388.00
C 300.90 379.43 300.12 368.41 300.00 359.00 C 299.88 349.59 301.23 338.60 299.00 330.00
C 299.06 330.49 299.00 331.50 299.00 332.00 Z"/>
</g>
<g fill="None" fill-opacity="0.0" stroke="#A56DC6" stroke-opacity="0.89" stroke-width="0.3"><path d="
M 112.00 384.00 
C 112.00 377.33 112.00 370.67 112.00 364.00
C 112.00 358.00 112.00 352.00 112.00 346.00
C 112.00 341.03 111.73 335.97 112.00 331.00
C 109.44 346.78 109.84 368.12 112.00 384.00 Z"/>
</g>
<g fill="None" fill-opacity="0.0" stroke="#1BBBF9" stroke-opacity="1.00" stroke-width="0.3"><path d="
M 213.00 341.00 
C 213.00 344.33 213.00 347.67 213.00 351.00
C 213.19 349.05 214.93 345.66 214.00 343.00
C 242.30 341.95 268.11 341.72 297.00 340.00
C 299.29 342.13 296.54 346.30 299.00 348.00
C 299.00 342.67 299.00 337.33 299.00 332.00
C 268.81 329.29 243.27 333.54 214.00 333.00
C 214.93 335.66 213.19 339.05 213.00 341.00 Z"/>
</g>
<g fill="None" fill-opacity="0.0" stroke="#B0CFC9" stroke-opacity="0.78" stroke-width="0.3"><path d="
M 323.00 400.00 
C 319.43 394.88 315.67 392.56 315.00 386.00
C 314.16 377.86 315.00 369.19 315.00 361.00
C 315.00 353.33 315.00 345.67 315.00 338.00
C 315.00 335.69 314.81 333.30 315.00 331.00
C 312.76 341.81 314.27 358.71 314.00 370.00 C 313.73 381.29 311.50 394.38 323.00 400.00 Z"/>
</g>
<g fill="None" fill-opacity="0.0" stroke="#1DC590" stroke-opacity="1.00" stroke-width="0.3"><path d="
M 400.00 338.00 
C 400.00 345.33 400.00 352.67 400.00 360.00
C 371.75 360.66 342.80 358.67 315.00 361.00
C 315.00 369.19 314.16 377.86 315.00 386.00
C 318.60 403.37 342.23 400.48 356.00 400.00 C 369.77 399.52 394.04 404.78 400.00 388.00
C 403.98 371.68 402.20 347.18 400.00 331.00
C 400.00 333.33 400.00 335.67 400.00 338.00 Z"/>
</g>
<g fill="None" fill-opacity="0.0" stroke="#38D4B5" stroke-opacity="1.00" stroke-width="0.3"><path d="
M 315.00 361.00 
C 342.80 358.67 371.75 360.66 400.00 360.00
C 400.00 352.67 400.00 345.33 400.00 338.00
C 371.67 338.00 343.33 338.00 315.00 338.00
C 315.00 345.67 315.00 353.33 315.00 361.00 Z"/>
</g>
<g fill="None" fill-opacity="0.0" stroke="#1BABF7" stroke-opacity="1.00" stroke-width="0.3"><path d="
M 213.00 351.00 
C 213.00 356.00 213.00 361.00 213.00 366.00
C 213.16 365.27 213.89 364.26 214.00 363.00
C 214.28 359.69 213.79 356.32 214.00 353.00
C 240.82 351.54 269.49 351.73 297.00 350.00
C 299.29 352.13 296.54 356.30 299.00 358.00
C 299.00 354.67 299.00 351.33 299.00 348.00
C 296.54 346.30 299.29 342.13 297.00 340.00
C 268.11 341.72 242.30 341.95 214.00 343.00
C 214.93 345.66 213.19 349.05 213.00 351.00 Z"/>
</g>
<g fill="None" fill-opacity="0.0" stroke="#9C41CF" stroke-opacity="1.00" stroke-width="0.3"><path d="
M 112.00 364.00 
C 118.87 364.19 126.18 363.74 133.00 364.00 C 139.82 364.26 148.43 363.53 155.00 364.00 C 161.57 364.47 171.20 363.00 177.00 364.00 C 182.80 365.00 194.44 360.89 197.00 366.00
C 197.00 359.67 197.00 353.33 197.00 347.00
C 193.88 342.59 181.41 347.39 176.00 346.00 C 170.59 344.61 161.38 346.62 155.00 346.00 C 148.62 345.38 139.72 346.34 133.00 346.00 C 126.28 345.66 118.79 346.25 112.00 346.00
C 112.00 352.00 112.00 358.00 112.00 364.00 Z"/>
</g>
<g fill="None" fill-opacity="0.0" stroke="#1B9BF5" stroke-opacity="1.00" stroke-width="0.3"><path d="
M 214.00 363.00 
C 240.31 361.23 270.71 361.61 298.00 360.00
C 298.59 362.84 296.78 366.98 299.00 369.00
C 299.00 365.33 299.00 361.67 299.00 358.00
C 296.54 356.30 299.29 352.13 297.00 350.00
C 269.49 351.73 240.82 351.54 214.00 353.00
C 213.79 356.32 214.28 359.69 214.00 363.00 Z"/>
</g>
<g fill="None" fill-opacity="0.0" stroke="#1C8BF3" stroke-opacity="1.00" stroke-width="0.3"><path d="
M 214.00 363.00 
C 213.89 364.26 213.16 365.27 213.00 366.00
C 213.00 372.69 212.68 380.00 214.00 386.00
C 213.53 381.38 214.35 376.63 214.00 372.00
C 239.80 372.36 270.81 370.72 298.00 370.00
C 298.00 375.33 298.00 380.67 298.00 386.00
C 298.20 385.76 299.00 386.00 299.00 386.00
C 299.00 380.33 299.00 374.67 299.00 369.00
C 296.78 366.98 298.59 362.84 298.00 360.00
C 270.71 361.61 240.31 361.23 214.00 363.00 Z"/>
</g>
<g fill="None" fill-opacity="0.0" stroke="#8530BD" stroke-opacity="1.00" stroke-width="0.3"><path d="
M 112.00 384.00 
C 112.00 385.30 111.84 386.71 112.00 388.00
C 112.22 388.96 114.30 391.94 115.00 393.00
C 122.66 402.80 138.55 400.52 150.00 400.00 C 161.45 399.48 178.94 403.17 189.00 397.00
C 191.66 394.81 194.82 392.03 196.00 389.00
C 197.93 381.89 197.00 373.54 197.00 366.00
C 194.44 360.89 182.80 365.00 177.00 364.00 C 171.20 363.00 161.57 364.47 155.00 364.00 C 148.43 363.53 139.82 364.26 133.00 364.00 C 126.18 363.74 118.87 364.19 112.00 364.00
C 112.00 370.67 112.00 377.33 112.00 384.00 Z"/>
</g>
<g fill="None" fill-opacity="0.0" stroke="#1B76F1" stroke-opacity="1.00" stroke-width="0.3"><path d="
M 214.00 386.00 
C 214.16 387.55 214.23 389.70 215.00 391.00
C 215.13 391.22 216.00 391.00 216.00 391.00
C 216.05 390.00 215.96 389.00 216.00 388.00
C 222.96 389.47 235.57 387.19 243.74 387.40 C 251.92 387.62 261.87 386.44 272.00 387.00 C 282.13 387.56 289.85 384.38 297.00 388.00
C 297.31 387.24 297.85 387.20 298.00 386.00
C 298.00 380.67 298.00 375.33 298.00 370.00
C 270.81 370.72 239.80 372.36 214.00 372.00
C 214.35 376.63 213.53 381.38 214.00 386.00 Z"/>
</g>
<g fill="None" fill-opacity="0.0" stroke="#1C61EE" stroke-opacity="1.00" stroke-width="0.3"><path d="
M 216.00 391.00 
C 225.27 404.27 243.72 399.45 258.00 400.00 C 272.28 400.55 290.68 403.20 297.00 388.00
C 289.85 384.38 282.13 387.56 272.00 387.00 C 261.87 386.44 251.92 387.62 243.74 387.40 C 235.57 387.19 222.96 389.47 216.00 388.00
C 215.96 389.00 216.05 390.00 216.00 391.00 Z"/>
</g>
<g fill="None" fill-opacity="0.0" stroke="#63C2CA" stroke-opacity="0.89" stroke-width="0.3"><path d="
M 297.00 388.00 
C 290.68 403.20 272.28 400.55 258.00 400.00 C 243.72 399.45 225.27 404.27 216.00 391.00
C 216.00 391.00 215.13 391.22 215.00 391.00
C 218.66 404.08 236.63 402.62 248.00 402.00 C 259.37 401.38 278.95 404.34 290.00 400.00
C 294.75 397.52 298.76 393.82 299.00 388.00
C 299.02 387.50 299.00 386.50 299.00 386.00
C 299.00 386.00 298.20 385.76 298.00 386.00
C 297.85 387.20 297.31 387.24 297.00 388.00 Z"/>
</g>
<g fill="None" fill-opacity="0.0" stroke="#75B9AA" stroke-opacity="0.89" stroke-width="0.3"><path d="
M 323.00 400.00 
C 323.00 400.00 323.55 399.85 324.00 400.00
C 336.74 404.08 354.81 401.06 368.00 402.00 C 381.19 402.94 396.45 402.55 400.00 388.00
C 394.04 404.78 369.77 399.52 356.00 400.00 C 342.23 400.48 318.60 403.37 315.00 386.00
C 315.67 392.56 319.43 394.88 323.00 400.00 Z"/>
</g>
<g fill="None" fill-opacity="0.0" stroke="#A37DB9" stroke-opacity="0.86" stroke-width="0.3"><path d="
M 196.00 389.00 
C 194.82 392.03 191.66 394.81 189.00 397.00
C 179.73 404.62 161.77 400.34 150.00 401.00 C 138.23 401.66 122.18 403.80 115.00 393.00
C 114.30 391.94 112.22 388.96 112.00 388.00
C 114.24 406.40 140.53 401.95 154.00 402.00 C 167.47 402.05 191.31 406.31 196.00 389.00 Z"/>
</g>
<g fill="None" fill-opacity="0.0" stroke="#8B55AA" stroke-opacity="0.94" stroke-width="0.3"><path d="
M 189.00 397.00 
C 178.94 403.17 161.45 399.48 150.00 400.00 C 138.55 400.52 122.66 402.80 115.00 393.00
C 122.18 403.80 138.23 401.66 150.00 401.00 C 161.77 400.34 179.73 404.62 189.00 397.00 Z"/>
</g>
<g fill="None" fill-opacity="0.0" stroke="#000000" stroke-opacity="0.33" stroke-width="0.3"><path d="
M 91.00 464.00 
C 129.87 479.26 175.60 471.36 218.00 473.00 C 260.40 474.64 312.71 471.16 354.00 473.00 C 395.29 474.84 429.39 470.76 453.00 436.00
C 459.03 424.82 463.92 413.89 465.00 402.00
C 462.62 411.60 458.46 420.28 454.00 429.00
C 444.42 447.75 430.71 457.52 410.78 465.78 C 390.84 474.03 359.96 470.61 336.00 471.00 C 312.04 471.39 280.70 470.95 256.00 471.00 C 231.30 471.05 200.13 471.25 176.00 471.00 C 151.87 470.75 121.70 473.70 101.31 465.69 C 80.92 457.69 67.68 447.94 58.00 429.00
C 53.54 420.28 49.37 411.56 47.00 402.00
C 49.10 425.10 67.09 454.61 91.00 464.00 Z"/>
</g>
<g fill="None" fill-opacity="0.0" stroke="#000000" stroke-opacity="0.44" stroke-width="0.3"><path d="
M 454.00 429.00 
C 442.24 446.31 429.34 455.53 409.07 463.07 C 388.81 470.62 358.88 467.70 335.00 468.00 C 311.12 468.30 280.50 467.97 256.00 468.00 C 231.50 468.03 200.91 468.22 177.00 468.00 C 153.09 467.78 123.33 470.51 103.02 462.98 C 82.72 455.44 69.86 446.46 58.00 429.00
C 67.68 447.94 80.92 457.69 101.31 465.69 C 121.70 473.70 151.87 470.75 176.00 471.00 C 200.13 471.25 231.30 471.05 256.00 471.00 C 280.70 470.95 312.04 471.39 336.00 471.00 C 359.96 470.61 390.84 474.03 410.78 465.78 C 430.71 457.52 444.42 447.75 454.00 429.00 Z"/>
</g>
<g fill="None" fill-opacity="0.0" stroke="#000000" stroke-opacity="0.19" stroke-width="0.3"><path d="
M 91.00 464.00 
C 112.92 475.95 136.83 475.72 163.00 475.00 C 189.17 474.28 218.91 475.53 245.00 475.00 C 271.09 474.47 302.91 475.68 328.00 475.00 C 353.09 474.32 384.68 477.97 405.93 470.93 C 427.17 463.88 442.49 455.48 453.00 436.00
C 429.39 470.76 395.29 474.84 354.00 473.00 C 312.71 471.16 260.40 474.64 218.00 473.00 C 175.60 471.36 129.87 479.26 91.00 464.00 Z"/>
</g>
<g fill="#000000" fill-opacity="0.00" stroke="None">
<path d="
M 0.00 512.00 
L 512.00 512.00
L 512.00 0.00
L 0.00 0.00
L 0.00 512.00
M 463.00 102.00 
C 475.59 128.93 470.51 160.17 471.00 191.00 C 471.49 221.83 471.08 258.26 471.00 289.00 C 470.92 319.74 471.71 357.65 471.00 387.00 C 470.29 416.35 460.92 434.52 440.25 454.25 C 419.58 473.98 394.35 477.49 365.00 477.00 C 335.65 476.51 297.16 477.20 267.00 477.00 C 236.84 476.80 199.41 477.05 170.00 477.00 C 140.59 476.95 107.84 480.40 84.92 464.08 C 62.00 447.75 49.00 434.92 44.22 406.78 C 39.44 378.64 42.04 341.50 42.00 311.00 C 41.96 280.50 40.51 243.86 42.00 213.00 C 43.49 182.14 36.63 146.77 45.00 118.00
C 48.81 94.04 59.05 77.28 79.25 61.25 C 99.45 45.21 126.45 42.91 154.00 44.00 C 181.55 45.09 217.72 43.52 246.00 44.00 C 274.28 44.48 309.48 43.83 337.00 44.00 C 364.52 44.17 397.49 41.06 419.70 53.31 C 441.90 65.55 455.15 79.05 463.00 102.00 Z"/>
</g>
<g fill="#F4F4F4" fill-opacity="0.71" stroke="None">
<path d="
M 45.00 118.00 
C 44.51 121.07 44.17 123.82 44.00 127.00
C 45.64 165.45 45.00 205.80 45.00 245.00
C 45.15 245.80 46.87 247.54 46.00 249.00
C 47.33 246.06 48.02 243.89 48.00 249.00
C 49.72 246.10 51.56 250.51 51.00 245.00
C 51.75 248.80 55.46 250.11 55.00 245.00
C 55.75 248.80 59.46 250.11 59.00 245.00
C 59.75 248.80 63.46 250.11 63.00 245.00
C 63.75 248.80 67.46 250.11 67.00 245.00
C 67.75 248.80 71.46 250.11 71.00 245.00
C 71.75 248.80 75.46 250.11 75.00 245.00
C 76.43 249.39 78.50 249.38 80.00 245.00
C 79.27 248.57 81.19 253.33 81.00 247.00
C 83.39 250.69 82.16 246.22 84.00 245.00
C 83.27 248.57 85.19 253.33 85.00 247.00
C 87.39 250.69 86.16 246.22 88.00 245.00
C 87.27 248.57 89.19 253.33 89.00 247.00
C 90.72 249.90 92.56 245.49 92.00 251.00
C 92.75 247.20 96.46 245.89 96.00 251.00
C 96.75 247.20 100.46 245.89 100.00 251.00
C 100.75 247.20 104.46 245.89 104.00 251.00
C 105.43 246.61 107.50 246.62 109.00 251.00
C 109.68 240.53 106.42 227.38 115.00 220.00
C 127.20 208.50 143.71 214.50 160.00 213.00 C 176.29 211.50 190.39 211.97 197.00 228.00
C 200.82 228.82 198.66 236.73 199.00 240.00 C 199.34 243.27 199.01 249.58 200.00 253.00
C 202.47 250.80 202.45 253.40 204.00 249.00
C 203.27 252.57 205.19 257.33 205.00 251.00
C 207.39 254.69 206.16 250.22 208.00 249.00
C 207.27 252.57 209.19 257.33 209.00 251.00
C 212.52 254.13 210.76 243.32 211.00 239.00 C 211.24 234.68 210.29 226.63 215.00 224.00
C 221.57 207.86 242.20 213.82 257.00 213.00 C 271.80 212.18 290.38 210.09 298.00 225.00
C 302.87 234.53 299.85 247.00 302.00 257.00
C 303.33 254.06 304.02 251.89 304.00 257.00
C 305.72 254.10 307.56 258.51 307.00 253.00
C 308.47 257.42 308.42 254.76 311.00 257.00
C 311.04 251.78 311.50 254.19 313.00 257.00
C 313.66 248.17 311.67 238.01 314.00 230.00
C 314.22 229.70 314.94 229.24 315.00 229.00
C 320.38 209.06 339.27 213.01 357.00 213.00 C 374.73 212.99 394.63 208.73 400.00 229.00
C 400.14 229.52 400.88 230.02 401.00 231.00
C 401.38 231.81 401.85 231.75 402.00 233.00
C 405.38 241.29 401.63 252.42 404.00 261.00
C 405.60 256.21 406.33 259.81 408.00 255.00
C 407.27 258.57 409.19 263.33 409.00 257.00
C 410.69 262.33 411.21 259.57 411.00 255.00
C 412.44 257.37 412.55 264.00 413.00 257.00
C 414.69 262.33 415.21 259.57 415.00 255.00
C 416.44 257.37 416.55 264.00 417.00 257.00
C 418.33 259.94 419.02 262.11 419.00 257.00
C 419.75 260.80 423.46 262.11 423.00 257.00
C 423.75 260.80 427.46 262.11 427.00 257.00
C 427.75 260.80 431.46 262.11 431.00 257.00
C 431.76 260.80 435.46 262.11 435.00 257.00
C 435.75 260.80 439.46 262.11 439.00 257.00
C 439.75 260.80 443.46 262.11 443.00 257.00
C 443.75 260.80 447.46 262.11 447.00 257.00
C 448.43 261.39 450.50 261.38 452.00 257.00
C 451.27 260.57 453.19 265.33 453.00 259.00
C 455.39 262.69 454.16 258.22 456.00 257.00
C 455.27 260.57 457.19 265.33 457.00 259.00
C 458.72 261.90 460.56 257.49 460.00 263.00
C 461.47 258.58 461.42 261.25 464.00 259.00
C 464.04 264.22 464.50 261.81 466.00 259.00
C 468.99 300.34 465.01 344.07 468.00 385.00
C 470.14 353.56 467.51 320.41 468.00 289.00 C 468.49 257.59 468.82 223.99 468.00 193.00 C 467.18 162.01 472.75 130.50 463.00 102.00
C 455.15 79.05 441.90 65.55 419.70 53.31 C 397.49 41.06 364.52 44.17 337.00 44.00 C 309.48 43.83 274.28 44.48 246.00 44.00 C 217.72 43.52 181.55 45.09 154.00 44.00 C 126.45 42.91 99.45 45.21 79.25 61.25 C 59.05 77.28 48.81 94.04 45.00 118.00
M 197.00 128.00 
C 200.55 141.70 195.88 158.63 198.00 173.00 C 200.12 187.37 194.47 201.04 179.00 201.00 C 163.53 200.96 147.01 200.16 132.00 201.00 C 116.99 201.84 107.33 190.63 110.00 176.00 C 112.67 161.37 105.58 143.30 111.00 130.00
C 111.14 128.85 111.82 128.67 112.00 128.00
C 117.26 108.16 136.38 111.77 154.00 112.00 C 171.62 112.23 191.71 107.58 197.00 128.00
M 299.00 130.00 
C 302.24 148.08 300.56 167.30 299.22 186.22 C 297.88 205.15 269.00 201.02 256.00 201.00 C 243.00 200.98 214.05 205.26 212.67 186.33 C 211.30 167.39 209.79 147.93 213.00 130.00
C 214.51 107.83 239.51 111.95 256.00 112.00 C 272.49 112.05 297.48 107.62 299.00 130.00
M 387.00 113.00 
C 394.82 115.12 399.55 120.63 400.00 129.00
C 400.04 129.21 400.78 129.70 401.00 130.00
C 405.26 135.78 401.28 150.49 402.00 158.00 C 402.72 165.51 403.02 179.55 401.67 186.67 C 400.32 193.79 393.53 200.41 385.99 200.99 C 378.45 201.57 365.22 201.04 357.00 201.00 C 348.78 200.96 336.17 201.84 328.33 200.67 C 320.49 199.50 314.26 193.29 314.01 184.99 C 313.76 176.70 313.73 164.86 314.00 156.00 C 314.27 147.14 312.64 135.10 315.00 127.00
C 317.22 119.36 321.36 114.89 329.00 113.00
C 337.54 110.88 348.66 111.94 358.00 112.00 C 367.34 112.06 378.56 110.71 387.00 113.00 Z"/>
</g>
<g fill="#000000" fill-opacity="0.09" stroke="None">
<path d="
M 468.00 385.00 
C 467.61 390.79 466.37 396.46 465.00 402.00
C 463.92 413.89 459.03 424.82 453.00 436.00
C 442.49 455.48 427.17 463.88 405.93 470.93 C 384.68 477.97 353.09 474.32 328.00 475.00 C 302.91 475.68 271.09 474.47 245.00 475.00 C 218.91 475.53 189.17 474.28 163.00 475.00 C 136.83 475.72 112.92 475.95 91.00 464.00
C 67.09 454.61 49.10 425.10 47.00 402.00
C 45.54 396.11 44.34 390.22 44.00 384.00
C 41.69 341.49 43.98 298.62 44.00 256.00 C 44.02 213.38 41.69 169.59 44.00 127.00
C 44.17 123.82 44.51 121.07 45.00 118.00
C 36.63 146.77 43.49 182.14 42.00 213.00 C 40.51 243.86 41.96 280.50 42.00 311.00 C 42.04 341.50 39.44 378.64 44.22 406.78 C 49.00 434.92 62.00 447.75 84.92 464.08 C 107.84 480.40 140.59 476.95 170.00 477.00 C 199.41 477.05 236.84 476.80 267.00 477.00 C 297.16 477.20 335.65 476.51 365.00 477.00 C 394.35 477.49 419.58 473.98 440.25 454.25 C 460.92 434.52 470.29 416.35 471.00 387.00 C 471.71 357.65 470.92 319.74 471.00 289.00 C 471.08 258.26 471.49 221.83 471.00 191.00 C 470.51 160.17 475.59 128.93 463.00 102.00
C 472.75 130.50 467.18 162.01 468.00 193.00 C 468.82 223.99 468.49 257.59 468.00 289.00 C 467.51 320.41 470.14 353.56 468.00 385.00 Z"/>
</g>
<g fill="#6DF25D" fill-opacity="1.00" stroke="None">
<path d="
M 112.00 128.00 
C 111.52 133.23 112.00 138.74 112.00 144.00
C 118.79 143.75 126.28 144.34 133.00 144.00 C 139.72 143.66 148.62 144.62 155.00 144.00 C 161.38 143.38 170.59 145.39 176.00 144.00 C 181.41 142.61 193.88 147.41 197.00 143.00
C 197.00 138.15 197.64 132.80 197.00 128.00
C 191.71 107.58 171.62 112.23 154.00 112.00 C 136.38 111.77 117.26 108.16 112.00 128.00 Z"/>
</g>
<g fill="#FED33F" fill-opacity="1.00" stroke="None">
<path d="
M 213.00 130.00 
C 212.39 138.91 213.00 148.07 213.00 157.00
C 213.48 152.07 214.72 145.64 214.00 140.00
C 242.00 140.00 270.00 140.00 298.00 140.00
C 298.65 145.16 296.69 151.66 299.00 156.00
C 299.00 147.40 299.58 138.58 299.00 130.00
C 297.48 107.62 272.49 112.05 256.00 112.00 C 239.51 111.95 214.51 107.83 213.00 130.00 Z"/>
</g>
<g fill="#F6B334" fill-opacity="0.93" stroke="None">
<path d="
M 329.00 113.00 
C 338.30 111.85 348.62 112.94 358.00 113.00 C 367.38 113.06 377.73 111.68 387.00 113.00
C 378.56 110.71 367.34 112.06 358.00 112.00 C 348.66 111.94 337.54 110.88 329.00 113.00 Z"/>
</g>
<g fill="#F69708" fill-opacity="1.00" stroke="None">
<path d="
M 315.00 127.00 
C 313.90 133.93 315.00 141.97 315.00 149.00
C 343.33 149.00 371.67 149.00 400.00 149.00
C 400.00 142.37 400.36 135.62 400.00 129.00
C 399.55 120.63 394.82 115.12 387.00 113.00
C 377.73 111.68 367.38 113.06 358.00 113.00 C 348.62 112.94 338.30 111.85 329.00 113.00
C 321.36 114.89 317.22 119.36 315.00 127.00 Z"/>
</g>
<g fill="#D2D2D2" fill-opacity="0.59" stroke="None">
<path d="
M 44.00 384.00 
C 45.94 338.58 45.00 291.17 45.00 245.00
C 45.00 205.80 45.64 165.45 44.00 127.00
C 41.69 169.59 44.02 213.38 44.00 256.00 C 43.98 298.62 41.69 341.49 44.00 384.00 Z"/>
</g>
<g fill="#E4D5BA" fill-opacity="0.76" stroke="None">
<path d="
M 401.00 130.00 
C 403.25 145.60 402.35 167.18 400.00 182.00
C 399.87 184.40 399.60 185.82 399.00 188.00
C 398.67 189.20 398.53 190.86 398.00 192.00
C 392.74 203.30 377.71 200.14 367.00 200.00 C 356.29 199.86 339.19 201.52 329.00 199.00
C 322.29 197.34 317.88 193.94 316.00 187.00
C 314.31 180.78 315.00 173.62 315.00 167.00
C 315.00 161.00 315.00 155.00 315.00 149.00
C 315.00 141.97 313.90 133.93 315.00 127.00
C 312.64 135.10 314.27 147.14 314.00 156.00 C 313.73 164.86 313.76 176.70 314.01 184.99 C 314.26 193.29 320.49 199.50 328.33 200.67 C 336.17 201.84 348.78 200.96 357.00 201.00 C 365.22 201.04 378.45 201.57 385.99 200.99 C 393.53 200.41 400.32 193.79 401.67 186.67 C 403.02 179.55 402.72 165.51 402.00 158.00 C 401.28 150.49 405.26 135.78 401.00 130.00 Z"/>
</g>
<g fill="#8BD481" fill-opacity="0.89" stroke="None">
<path d="
M 111.00 130.00 
C 108.77 148.11 109.49 168.41 111.33 186.67 C 113.17 204.93 141.51 199.61 155.00 200.00 C 168.49 200.39 195.17 204.13 197.00 184.00
C 193.79 199.52 172.70 199.71 160.00 198.00 C 147.30 196.29 123.83 203.65 115.75 191.25 C 107.68 178.84 112.00 158.68 112.00 144.00
C 112.00 138.74 111.52 133.23 112.00 128.00
C 111.82 128.67 111.14 128.85 111.00 130.00 Z"/>
</g>
<g fill="#CEE6CA" fill-opacity="0.76" stroke="None">
<path d="
M 197.00 143.00 
C 197.00 156.48 198.22 170.59 197.00 184.00
C 195.17 204.13 168.49 200.39 155.00 200.00 C 141.51 199.61 113.17 204.93 111.33 186.67 C 109.49 168.41 108.77 148.11 111.00 130.00
C 105.58 143.30 112.67 161.37 110.00 176.00 C 107.33 190.63 116.99 201.84 132.00 201.00 C 147.01 200.16 163.53 200.96 179.00 201.00 C 194.47 201.04 200.12 187.37 198.00 173.00 C 195.88 158.63 200.55 141.70 197.00 128.00
C 197.64 132.80 197.00 138.15 197.00 143.00 Z"/>
</g>
<g fill="#E4A754" fill-opacity="0.89" stroke="None">
<path d="
M 400.00 149.00 
C 400.00 154.33 400.00 159.67 400.00 165.00
C 400.00 170.64 400.30 176.37 400.00 182.00
C 402.35 167.18 403.25 145.60 401.00 130.00
C 400.78 129.70 400.04 129.21 400.00 129.00
C 400.36 135.62 400.00 142.37 400.00 149.00 Z"/>
</g>
<g fill="#E9E4BD" fill-opacity="0.77" stroke="None">
<path d="
M 299.00 130.00 
C 299.58 138.58 299.00 147.40 299.00 156.00
C 299.00 165.17 299.83 175.66 298.00 184.00
C 298.00 184.96 298.13 186.05 298.00 187.00
C 295.65 204.72 268.44 200.00 256.00 200.00 C 243.56 200.00 216.35 204.73 214.00 187.00
C 213.87 186.05 214.00 184.96 214.00 184.00
C 212.22 175.89 213.00 165.86 213.00 157.00
C 213.00 148.07 212.39 138.91 213.00 130.00
C 209.79 147.93 211.30 167.39 212.67 186.33 C 214.05 205.26 243.00 200.98 256.00 201.00 C 269.00 201.02 297.88 205.15 299.22 186.22 C 300.56 167.30 302.24 148.08 299.00 130.00 Z"/>
</g>
<g fill="#FEC124" fill-opacity="1.00" stroke="None">
<path d="
M 213.00 157.00 
C 213.00 165.86 212.22 175.89 214.00 184.00
C 214.00 181.00 214.00 178.00 214.00 175.00
C 242.00 175.00 270.00 175.00 298.00 175.00
C 298.00 178.00 298.00 181.00 298.00 184.00
C 299.83 175.66 299.00 165.17 299.00 156.00
C 296.69 151.66 298.65 145.16 298.00 140.00
C 270.00 140.00 242.00 140.00 214.00 140.00
C 214.72 145.64 213.48 152.07 213.00 157.00 Z"/>
</g>
<g fill="#37DF36" fill-opacity="1.00" stroke="None">
<path d="
M 112.00 144.00 
C 112.00 158.68 107.68 178.84 115.75 191.25 C 123.83 203.65 147.30 196.29 160.00 198.00 C 172.70 199.71 193.79 199.52 197.00 184.00
C 198.22 170.59 197.00 156.48 197.00 143.00
C 193.88 147.41 181.41 142.61 176.00 144.00 C 170.59 145.39 161.38 143.38 155.00 144.00 C 148.62 144.62 139.72 143.66 133.00 144.00 C 126.28 144.34 118.79 143.75 112.00 144.00 Z"/>
</g>
<g fill="#F38810" fill-opacity="1.00" stroke="None">
<path d="
M 315.00 167.00 
C 317.51 161.97 328.18 165.91 334.00 165.00 C 339.82 164.09 349.37 165.42 356.00 165.00 C 362.63 164.58 371.04 165.22 378.00 165.00 C 384.96 164.78 392.94 165.17 400.00 165.00
C 400.00 159.67 400.00 154.33 400.00 149.00
C 371.67 149.00 343.33 149.00 315.00 149.00
C 315.00 155.00 315.00 161.00 315.00 167.00 Z"/>
</g>
<g fill="#F07A18" fill-opacity="1.00" stroke="None">
<path d="
M 315.00 167.00 
C 315.00 173.62 314.31 180.78 316.00 187.00
C 321.83 202.04 343.87 198.21 357.00 198.00 C 370.13 197.79 392.10 202.59 399.00 188.00
C 399.60 185.82 399.87 184.40 400.00 182.00
C 400.30 176.37 400.00 170.64 400.00 165.00
C 392.94 165.17 384.96 164.78 378.00 165.00 C 371.04 165.22 362.63 164.58 356.00 165.00 C 349.37 165.42 339.82 164.09 334.00 165.00 C 328.18 165.91 317.51 161.97 315.00 167.00 Z"/>
</g>
<g fill="#FEB10D" fill-opacity="1.00" stroke="None">
<path d="
M 214.00 184.00 
C 214.00 184.96 213.87 186.05 214.00 187.00
C 218.64 202.51 243.78 197.98 256.00 198.00 C 268.22 198.02 293.38 202.45 298.00 187.00
C 298.13 186.05 298.00 184.96 298.00 184.00
C 298.00 181.00 298.00 178.00 298.00 175.00
C 270.00 175.00 242.00 175.00 214.00 175.00
C 214.00 178.00 214.00 181.00 214.00 184.00 Z"/>
</g>
<g fill="#DACD6A" fill-opacity="0.89" stroke="None">
<path d="
M 298.00 187.00 
C 293.38 202.45 268.22 198.02 256.00 198.00 C 243.78 197.98 218.64 202.51 214.00 187.00
C 216.35 204.73 243.56 200.00 256.00 200.00 C 268.44 200.00 295.65 204.72 298.00 187.00 Z"/>
</g>
<g fill="#C69944" fill-opacity="0.92" stroke="None">
<path d="
M 329.00 199.00 
C 339.86 200.35 356.54 198.81 367.00 199.00 C 377.46 199.19 392.22 202.03 398.00 192.00
C 398.53 190.86 398.67 189.20 399.00 188.00
C 392.10 202.59 370.13 197.79 357.00 198.00 C 343.87 198.21 321.83 202.04 316.00 187.00
C 317.88 193.94 322.29 197.34 329.00 199.00 Z"/>
</g>
<g fill="#D2B477" fill-opacity="0.85" stroke="None">
<path d="
M 329.00 199.00 
C 339.19 201.52 356.29 199.86 367.00 200.00 C 377.71 200.14 392.74 203.30 398.00 192.00
C 392.22 202.03 377.46 199.19 367.00 199.00 C 356.54 198.81 339.86 200.35 329.00 199.00 Z"/>
</g>
<g fill="#EE2F26" fill-opacity="1.00" stroke="None">
<path d="
M 115.00 220.00 
C 112.71 223.02 112.20 226.29 112.00 230.00
C 111.71 235.30 112.00 240.69 112.00 246.00
C 118.87 245.81 126.18 246.26 133.00 246.00 C 139.82 245.74 148.43 246.47 155.00 246.00 C 161.57 245.53 171.20 247.00 177.00 246.00 C 182.80 245.00 194.44 249.11 197.00 244.00
C 197.00 239.00 197.00 234.00 197.00 229.00
C 197.00 228.50 197.00 228.00 197.00 228.00
C 190.39 211.97 176.29 211.50 160.00 213.00 C 143.71 214.50 127.20 208.50 115.00 220.00 Z"/>
</g>
<g fill="#BBCCD1" fill-opacity="1.00" stroke="None">
<path d="
M 215.00 224.00 
C 214.20 225.98 213.29 227.85 213.00 230.00
C 212.84 234.33 215.20 240.89 214.00 246.00
C 242.00 246.00 270.00 246.00 298.00 246.00
C 298.65 240.84 296.69 234.34 299.00 230.00
C 298.83 228.60 298.47 226.35 298.00 225.00
C 290.38 210.09 271.80 212.18 257.00 213.00 C 242.20 213.82 221.57 207.86 215.00 224.00 Z"/>
</g>
<g fill="#FC425D" fill-opacity="1.00" stroke="None">
<path d="
M 315.00 229.00 
C 312.76 247.03 315.00 266.81 315.00 285.00
C 318.57 302.24 343.98 299.36 357.00 299.00 C 370.02 298.64 396.39 303.44 400.00 286.00
C 400.00 267.26 401.70 247.65 400.00 229.00
C 394.63 208.73 374.73 212.99 357.00 213.00 C 339.27 213.01 320.38 209.06 315.00 229.00 Z"/>
</g>
<g fill="#DDDDDD" fill-opacity="0.71" stroke="None">
<path d="
M 45.00 245.00 
C 45.00 291.17 45.94 338.58 44.00 384.00
C 44.34 390.22 45.54 396.11 47.00 402.00
C 49.37 411.56 53.54 420.28 58.00 429.00
C 69.86 446.46 82.72 455.44 103.02 462.98 C 123.33 470.51 153.09 467.78 177.00 468.00 C 200.91 468.22 231.50 468.03 256.00 468.00 C 280.50 467.97 311.12 468.30 335.00 468.00 C 358.88 467.70 388.81 470.62 409.07 463.07 C 429.34 455.53 442.24 446.31 454.00 429.00
C 458.46 420.28 462.62 411.60 465.00 402.00
C 466.37 396.46 467.61 390.79 468.00 385.00
C 465.01 344.07 468.99 300.34 466.00 259.00
C 464.50 261.81 464.04 264.22 464.00 259.00
C 461.42 261.25 461.47 258.58 460.00 263.00
C 460.56 257.49 458.72 261.90 457.00 259.00
C 457.19 265.33 455.27 260.57 456.00 257.00
C 454.16 258.22 455.39 262.69 453.00 259.00
C 453.19 265.33 451.27 260.57 452.00 257.00
C 450.50 261.38 448.43 261.39 447.00 257.00
C 447.46 262.11 443.75 260.80 443.00 257.00
C 443.46 262.11 439.75 260.80 439.00 257.00
C 439.46 262.11 435.75 260.80 435.00 257.00
C 435.46 262.11 431.76 260.80 431.00 257.00
C 431.46 262.11 427.75 260.80 427.00 257.00
C 427.46 262.11 423.75 260.80 423.00 257.00
C 423.46 262.11 419.75 260.80 419.00 257.00
C 419.02 262.11 418.33 259.94 417.00 257.00
C 416.55 264.00 416.44 257.37 415.00 255.00
C 415.21 259.57 414.69 262.33 413.00 257.00
C 412.55 264.00 412.44 257.37 411.00 255.00
C 411.21 259.57 410.69 262.33 409.00 257.00
C 409.19 263.33 407.27 258.57 408.00 255.00
C 406.33 259.81 405.60 256.21 404.00 261.00
C 401.63 252.42 405.38 241.29 402.00 233.00
C 403.41 244.42 401.01 259.89 402.00 271.00 C 402.99 282.11 402.50 294.14 393.00 298.00
C 380.23 303.18 362.84 300.23 349.00 301.00 C 335.16 301.77 319.27 302.42 315.00 287.00
C 312.62 278.82 313.85 268.11 314.00 259.00 C 314.15 249.89 312.69 239.08 314.00 230.00
C 311.67 238.01 313.66 248.17 313.00 257.00
C 311.50 254.19 311.04 251.78 311.00 257.00
C 308.42 254.76 308.47 257.42 307.00 253.00
C 307.56 258.51 305.72 254.10 304.00 257.00
C 304.02 251.89 303.33 254.06 302.00 257.00
C 299.85 247.00 302.87 234.53 298.00 225.00
C 298.47 226.35 298.83 228.60 299.00 230.00
C 301.01 246.66 300.51 267.28 299.00 284.00
C 301.03 296.31 285.84 301.38 276.00 301.00 C 266.16 300.62 245.64 300.37 236.00 301.00 C 226.36 301.63 210.19 295.86 213.00 284.00
C 211.49 267.42 210.80 246.49 213.00 230.00
C 213.29 227.85 214.20 225.98 215.00 224.00
C 210.29 226.63 211.24 234.68 211.00 239.00 C 210.76 243.32 212.52 254.13 209.00 251.00
C 209.19 257.33 207.27 252.57 208.00 249.00
C 206.16 250.22 207.39 254.69 205.00 251.00
C 205.19 257.33 203.27 252.57 204.00 249.00
C 202.45 253.40 202.47 250.80 200.00 253.00
C 199.01 249.58 199.34 243.27 199.00 240.00 C 198.66 236.73 200.82 228.82 197.00 228.00
C 197.00 228.00 197.00 228.50 197.00 229.00
C 201.44 235.00 197.01 249.21 198.00 257.00 C 198.99 264.79 198.33 278.26 198.00 286.00 C 197.67 293.74 191.10 299.02 183.93 300.93 C 176.75 302.83 163.04 302.24 155.00 302.00 C 146.96 301.76 133.40 303.05 126.00 302.00 C 118.60 300.95 112.20 295.35 110.68 288.32 C 109.16 281.29 109.04 267.63 110.00 260.00 C 110.96 252.37 106.63 236.94 111.00 231.00
C 111.22 230.70 111.96 230.21 112.00 230.00
C 112.20 226.29 112.71 223.02 115.00 220.00
C 106.42 227.38 109.68 240.53 109.00 251.00
C 107.50 246.62 105.43 246.61 104.00 251.00
C 104.46 245.89 100.75 247.20 100.00 251.00
C 100.46 245.89 96.75 247.20 96.00 251.00
C 96.46 245.89 92.75 247.20 92.00 251.00
C 92.56 245.49 90.72 249.90 89.00 247.00
C 89.19 253.33 87.27 248.57 88.00 245.00
C 86.16 246.22 87.39 250.69 85.00 247.00
C 85.19 253.33 83.27 248.57 84.00 245.00
C 82.16 246.22 83.39 250.69 81.00 247.00
C 81.19 253.33 79.27 248.57 80.00 245.00
C 78.50 249.38 76.43 249.39 75.00 245.00
C 75.46 250.11 71.75 248.80 71.00 245.00
C 71.46 250.11 67.75 248.80 67.00 245.00
C 67.46 250.11 63.75 248.80 63.00 245.00
C 63.46 250.11 59.75 248.80 59.00 245.00
C 59.46 250.11 55.75 248.80 55.00 245.00
C 55.46 250.11 51.75 248.80 51.00 245.00
C 51.56 250.51 49.72 246.10 48.00 249.00
C 48.02 243.89 47.33 246.06 46.00 249.00
C 46.87 247.54 45.15 245.80 45.00 245.00
M 197.00 331.00 
C 200.34 346.09 195.82 363.19 198.00 379.00 C 200.18 394.81 188.68 405.45 173.00 403.00 C 157.32 400.55 139.60 405.92 124.33 402.67 C 109.06 399.42 108.53 381.05 110.00 368.00 C 111.47 354.95 105.67 333.76 114.00 323.00
C 124.88 308.94 142.39 315.35 159.00 314.00 C 175.61 312.65 192.88 312.40 197.00 331.00
M 299.00 330.00 
C 301.23 338.60 299.88 349.59 300.00 359.00 C 300.12 368.41 300.90 379.43 299.00 388.00
C 298.76 393.82 294.75 397.52 290.00 400.00
C 275.72 407.46 256.93 400.02 241.00 403.00 C 225.07 405.98 209.46 396.13 212.00 379.00 C 214.54 361.87 208.07 343.28 214.00 328.00
C 218.62 309.05 241.75 314.30 257.00 314.00 C 272.25 313.70 296.46 309.97 299.00 330.00
M 400.00 327.00 
C 403.83 335.09 401.61 346.76 402.00 356.00 C 402.39 365.24 402.29 378.69 401.07 387.07 C 399.86 395.45 393.69 402.80 384.99 402.99 C 376.29 403.18 361.37 403.91 353.00 403.00 C 344.63 402.09 328.95 406.90 324.00 400.00
C 323.55 399.85 323.00 400.00 323.00 400.00
C 311.50 394.38 313.73 381.29 314.00 370.00 C 314.27 358.71 312.76 341.81 315.00 331.00
C 319.11 311.15 337.61 313.30 355.00 314.00 C 372.39 314.70 391.49 309.01 400.00 327.00 Z"/>
</g>
<g fill="#CEABAC" fill-opacity="0.77" stroke="None">
<path d="
M 197.00 244.00 
C 197.00 257.34 200.06 275.49 196.00 288.00
C 193.86 294.58 188.34 298.21 182.00 300.00
C 173.39 302.44 161.42 300.94 152.00 301.00 C 142.58 301.06 130.99 302.74 123.00 299.00
C 121.91 298.69 121.05 298.57 120.00 298.00
C 116.21 295.92 112.51 291.16 112.00 287.00
C 111.84 285.71 112.00 284.30 112.00 283.00
C 109.94 267.85 108.72 246.82 111.00 231.00
C 106.63 236.94 110.96 252.37 110.00 260.00 C 109.04 267.63 109.16 281.29 110.68 288.32 C 112.20 295.35 118.60 300.95 126.00 302.00 C 133.40 303.05 146.96 301.76 155.00 302.00 C 163.04 302.24 176.75 302.83 183.93 300.93 C 191.10 299.02 197.67 293.74 198.00 286.00 C 198.33 278.26 198.99 264.79 198.00 257.00 C 197.01 249.21 201.44 235.00 197.00 229.00
C 197.00 234.00 197.00 239.00 197.00 244.00 Z"/>
</g>
<g fill="#D9A5B5" fill-opacity="0.78" stroke="None">
<path d="
M 314.00 230.00 
C 312.69 239.08 314.15 249.89 314.00 259.00 C 313.85 268.11 312.62 278.82 315.00 287.00
C 314.87 286.54 315.00 285.50 315.00 285.00
C 315.00 266.81 312.76 247.03 315.00 229.00
C 314.94 229.24 314.22 229.70 314.00 230.00 Z"/>
</g>
<g fill="#E26C86" fill-opacity="0.88" stroke="None">
<path d="
M 400.00 286.00 
C 400.00 286.50 400.13 287.54 400.00 288.00
C 402.77 279.99 400.93 269.04 401.00 260.00 C 401.07 250.96 402.11 240.05 401.00 231.00
C 400.88 230.02 400.14 229.52 400.00 229.00
C 401.70 247.65 400.00 267.26 400.00 286.00 Z"/>
</g>
<g fill="#C85251" fill-opacity="0.89" stroke="None">
<path d="
M 111.00 231.00 
C 108.72 246.82 109.94 267.85 112.00 283.00
C 112.00 270.67 112.00 258.33 112.00 246.00
C 112.00 240.69 111.71 235.30 112.00 230.00
C 111.96 230.21 111.22 230.70 111.00 231.00 Z"/>
</g>
<g fill="#9FA9AB" fill-opacity="1.00" stroke="None">
<path d="
M 213.00 284.00 
C 213.00 284.05 214.00 284.00 214.00 284.00
C 214.36 280.03 213.73 275.98 214.00 272.00
C 242.00 272.00 270.00 272.00 298.00 272.00
C 298.00 276.00 298.00 280.00 298.00 284.00
C 298.01 283.94 299.00 284.00 299.00 284.00
C 300.51 267.28 301.01 246.66 299.00 230.00
C 296.69 234.34 298.65 240.84 298.00 246.00
C 270.00 246.00 242.00 246.00 214.00 246.00
C 215.20 240.89 212.84 234.33 213.00 230.00
C 210.80 246.49 211.49 267.42 213.00 284.00 Z"/>
</g>
<g fill="#DEBFC9" fill-opacity="0.75" stroke="None">
<path d="
M 400.00 288.00 
C 399.14 291.12 395.67 296.11 393.00 298.00
C 402.50 294.14 402.99 282.11 402.00 271.00 C 401.01 259.89 403.41 244.42 402.00 233.00
C 401.85 231.75 401.38 231.81 401.00 231.00
C 402.11 240.05 401.07 250.96 401.00 260.00 C 400.93 269.04 402.77 279.99 400.00 288.00 Z"/>
</g>
<g fill="#CE150F" fill-opacity="1.00" stroke="None">
<path d="
M 112.00 246.00 
C 112.00 258.33 112.00 270.67 112.00 283.00
C 112.00 284.30 111.84 285.71 112.00 287.00
C 112.22 287.96 114.30 290.94 115.00 292.00
C 124.05 303.57 144.21 298.19 157.00 299.00 C 169.79 299.81 189.69 301.80 196.00 288.00
C 200.06 275.49 197.00 257.34 197.00 244.00
C 194.44 249.11 182.80 245.00 177.00 246.00 C 171.20 247.00 161.57 245.53 155.00 246.00 C 148.43 246.47 139.82 245.74 133.00 246.00 C 126.18 246.26 118.87 245.81 112.00 246.00 Z"/>
</g>
<g fill="#86898A" fill-opacity="1.00" stroke="None">
<path d="
M 214.00 284.00 
C 213.71 302.95 243.25 298.04 256.00 298.00 C 268.75 297.96 295.82 303.09 298.00 284.00
C 298.00 280.00 298.00 276.00 298.00 272.00
C 270.00 272.00 242.00 272.00 214.00 272.00
C 213.73 275.98 214.36 280.03 214.00 284.00 Z"/>
</g>
<g fill="#898989" fill-opacity="0.89" stroke="None">
<path d="
M 299.00 284.00 
C 299.00 284.00 298.01 283.94 298.00 284.00
C 295.82 303.09 268.75 297.96 256.00 298.00 C 243.25 298.04 213.71 302.95 214.00 284.00
C 214.00 284.00 213.00 284.05 213.00 284.00
C 210.19 295.86 226.36 301.63 236.00 301.00 C 245.64 300.37 266.16 300.62 276.00 301.00 C 285.84 301.38 301.03 296.31 299.00 284.00 Z"/>
</g>
<g fill="#C65777" fill-opacity="0.89" stroke="None">
<path d="
M 315.00 287.00 
C 319.27 302.42 335.16 301.77 349.00 301.00 C 362.84 300.23 380.23 303.18 393.00 298.00
C 395.67 296.11 399.14 291.12 400.00 288.00
C 400.13 287.54 400.00 286.50 400.00 286.00
C 396.39 303.44 370.02 298.64 357.00 299.00 C 343.98 299.36 318.57 302.24 315.00 285.00
C 315.00 285.50 314.87 286.54 315.00 287.00 Z"/>
</g>
<g fill="#B06266" fill-opacity="0.86" stroke="None">
<path d="
M 120.00 298.00 
C 118.32 296.79 116.13 293.70 115.00 292.00
C 114.30 290.94 112.22 287.96 112.00 287.00
C 112.51 291.16 116.21 295.92 120.00 298.00 Z"/>
</g>
<g fill="#9D3337" fill-opacity="0.93" stroke="None">
<path d="
M 115.00 292.00 
C 116.13 293.70 118.32 296.79 120.00 298.00
C 121.05 298.57 121.91 298.69 123.00 299.00
C 131.81 301.52 142.58 300.14 152.00 300.00 C 161.42 299.86 172.64 301.43 182.00 300.00
C 188.34 298.21 193.86 294.58 196.00 288.00
C 189.69 301.80 169.79 299.81 157.00 299.00 C 144.21 298.19 124.05 303.57 115.00 292.00 Z"/>
</g>
<g fill="#B2686B" fill-opacity="0.85" stroke="None">
<path d="
M 182.00 300.00 
C 172.64 301.43 161.42 299.86 152.00 300.00 C 142.58 300.14 131.81 301.52 123.00 299.00
C 130.99 302.74 142.58 301.06 152.00 301.00 C 161.42 300.94 173.39 302.44 182.00 300.00 Z"/>
</g>
<g fill="#B252E0" fill-opacity="1.00" stroke="None">
<path d="
M 114.00 323.00 
C 112.38 325.81 112.18 327.73 112.00 331.00
C 111.73 335.97 112.00 341.03 112.00 346.00
C 118.79 346.25 126.28 345.66 133.00 346.00 C 139.72 346.34 148.62 345.38 155.00 346.00 C 161.38 346.62 170.59 344.61 176.00 346.00 C 181.41 347.39 193.88 342.59 197.00 347.00
C 197.00 341.76 197.53 336.21 197.00 331.00
C 192.88 312.40 175.61 312.65 159.00 314.00 C 142.39 315.35 124.88 308.94 114.00 323.00 Z"/>
</g>
<g fill="#20D1FB" fill-opacity="0.99" stroke="None">
<path d="
M 214.00 328.00 
C 212.97 332.24 213.00 336.45 213.00 341.00
C 213.19 339.05 214.93 335.66 214.00 333.00
C 243.27 333.54 268.81 329.29 299.00 332.00
C 299.00 331.50 299.06 330.49 299.00 330.00
C 296.46 309.97 272.25 313.70 257.00 314.00 C 241.75 314.30 218.62 309.05 214.00 328.00 Z"/>
</g>
<g fill="#51DED0" fill-opacity="1.00" stroke="None">
<path d="
M 315.00 331.00 
C 314.81 333.30 315.00 335.69 315.00 338.00
C 343.33 338.00 371.67 338.00 400.00 338.00
C 400.00 335.67 400.00 333.33 400.00 331.00
C 400.00 329.73 400.21 328.25 400.00 327.00
C 391.49 309.01 372.39 314.70 355.00 314.00 C 337.61 313.30 319.11 311.15 315.00 331.00 Z"/>
</g>
<g fill="#C5B5CE" fill-opacity="0.76" stroke="None">
<path d="
M 197.00 331.00 
C 197.53 336.21 197.00 341.76 197.00 347.00
C 197.00 353.33 197.00 359.67 197.00 366.00
C 197.00 373.54 197.93 381.89 196.00 389.00
C 191.31 406.31 167.47 402.05 154.00 402.00 C 140.53 401.95 114.24 406.40 112.00 388.00
C 111.84 386.71 112.00 385.30 112.00 384.00
C 109.84 368.12 109.44 346.78 112.00 331.00
C 112.18 327.73 112.38 325.81 114.00 323.00
C 105.67 333.76 111.47 354.95 110.00 368.00 C 108.53 381.05 109.06 399.42 124.33 402.67 C 139.60 405.92 157.32 400.55 173.00 403.00 C 188.68 405.45 200.18 394.81 198.00 379.00 C 195.82 363.19 200.34 346.09 197.00 331.00 Z"/>
</g>
<g fill="#BBD1CD" fill-opacity="0.76" stroke="None">
<path d="
M 400.00 331.00 
C 402.20 347.18 403.98 371.68 400.00 388.00
C 396.45 402.55 381.19 402.94 368.00 402.00 C 354.81 401.06 336.74 404.08 324.00 400.00
C 328.95 406.90 344.63 402.09 353.00 403.00 C 361.37 403.91 376.29 403.18 384.99 402.99 C 393.69 402.80 399.86 395.45 401.07 387.07 C 402.29 378.69 402.39 365.24 402.00 356.00 C 401.61 346.76 403.83 335.09 400.00 327.00
C 400.21 328.25 400.00 329.73 400.00 331.00 Z"/>
</g>
<g fill="#ABD3D5" fill-opacity="0.77" stroke="None">
<path d="
M 290.00 400.00 
C 278.95 404.34 259.37 401.38 248.00 402.00 C 236.63 402.62 218.66 404.08 215.00 391.00
C 214.23 389.70 214.16 387.55 214.00 386.00
C 212.68 380.00 213.00 372.69 213.00 366.00
C 213.00 361.00 213.00 356.00 213.00 351.00
C 213.00 347.67 213.00 344.33 213.00 341.00
C 213.00 336.45 212.97 332.24 214.00 328.00
C 208.07 343.28 214.54 361.87 212.00 379.00 C 209.46 396.13 225.07 405.98 241.00 403.00 C 256.93 400.02 275.72 407.46 290.00 400.00 Z"/>
</g>
<g fill="#B0D5D7" fill-opacity="0.76" stroke="None">
<path d="
M 299.00 332.00 
C 299.00 337.33 299.00 342.67 299.00 348.00
C 299.00 351.33 299.00 354.67 299.00 358.00
C 299.00 361.67 299.00 365.33 299.00 369.00
C 299.00 374.67 299.00 380.33 299.00 386.00
C 299.00 386.50 299.02 387.50 299.00 388.00
C 300.90 379.43 300.12 368.41 300.00 359.00 C 299.88 349.59 301.23 338.60 299.00 330.00
C 299.06 330.49 299.00 331.50 299.00 332.00 Z"/>
</g>
<g fill="#A56DC6" fill-opacity="0.89" stroke="None">
<path d="
M 112.00 384.00 
C 112.00 377.33 112.00 370.67 112.00 364.00
C 112.00 358.00 112.00 352.00 112.00 346.00
C 112.00 341.03 111.73 335.97 112.00 331.00
C 109.44 346.78 109.84 368.12 112.00 384.00 Z"/>
</g>
<g fill="#1BBBF9" fill-opacity="1.00" stroke="None">
<path d="
M 213.00 341.00 
C 213.00 344.33 213.00 347.67 213.00 351.00
C 213.19 349.05 214.93 345.66 214.00 343.00
C 242.30 341.95 268.11 341.72 297.00 340.00
C 299.29 342.13 296.54 346.30 299.00 348.00
C 299.00 342.67 299.00 337.33 299.00 332.00
C 268.81 329.29 243.27 333.54 214.00 333.00
C 214.93 335.66 213.19 339.05 213.00 341.00 Z"/>
</g>
<g fill="#B0CFC9" fill-opacity="0.78" stroke="None">
<path d="
M 323.00 400.00 
C 319.43 394.88 315.67 392.56 315.00 386.00
C 314.16 377.86 315.00 369.19 315.00 361.00
C 315.00 353.33 315.00 345.67 315.00 338.00
C 315.00 335.69 314.81 333.30 315.00 331.00
C 312.76 341.81 314.27 358.71 314.00 370.00 C 313.73 381.29 311.50 394.38 323.00 400.00 Z"/>
</g>
<g fill="#1DC590" fill-opacity="1.00" stroke="None">
<path d="
M 400.00 338.00 
C 400.00 345.33 400.00 352.67 400.00 360.00
C 371.75 360.66 342.80 358.67 315.00 361.00
C 315.00 369.19 314.16 377.86 315.00 386.00
C 318.60 403.37 342.23 400.48 356.00 400.00 C 369.77 399.52 394.04 404.78 400.00 388.00
C 403.98 371.68 402.20 347.18 400.00 331.00
C 400.00 333.33 400.00 335.67 400.00 338.00 Z"/>
</g>
<g fill="#38D4B5" fill-opacity="1.00" stroke="None">
<path d="
M 315.00 361.00 
C 342.80 358.67 371.75 360.66 400.00 360.00
C 400.00 352.67 400.00 345.33 400.00 338.00
C 371.67 338.00 343.33 338.00 315.00 338.00
C 315.00 345.67 315.00 353.33 315.00 361.00 Z"/>
</g>
<g fill="#1BABF7" fill-opacity="1.00" stroke="None">
<path d="
M 213.00 351.00 
C 213.00 356.00 213.00 361.00 213.00 366.00
C 213.16 365.27 213.89 364.26 214.00 363.00
C 214.28 359.69 213.79 356.32 214.00 353.00
C 240.82 351.54 269.49 351.73 297.00 350.00
C 299.29 352.13 296.54 356.30 299.00 358.00
C 299.00 354.67 299.00 351.33 299.00 348.00
C 296.54 346.30 299.29 342.13 297.00 340.00
C 268.11 341.72 242.30 341.95 214.00 343.00
C 214.93 345.66 213.19 349.05 213.00 351.00 Z"/>
</g>
<g fill="#9C41CF" fill-opacity="1.00" stroke="None">
<path d="
M 112.00 364.00 
C 118.87 364.19 126.18 363.74 133.00 364.00 C 139.82 364.26 148.43 363.53 155.00 364.00 C 161.57 364.47 171.20 363.00 177.00 364.00 C 182.80 365.00 194.44 360.89 197.00 366.00
C 197.00 359.67 197.00 353.33 197.00 347.00
C 193.88 342.59 181.41 347.39 176.00 346.00 C 170.59 344.61 161.38 346.62 155.00 346.00 C 148.62 345.38 139.72 346.34 133.00 346.00 C 126.28 345.66 118.79 346.25 112.00 346.00
C 112.00 352.00 112.00 358.00 112.00 364.00 Z"/>
</g>
<g fill="#1B9BF5" fill-opacity="1.00" stroke="None">
<path d="
M 214.00 363.00 
C 240.31 361.23 270.71 361.61 298.00 360.00
C 298.59 362.84 296.78 366.98 299.00 369.00
C 299.00 365.33 299.00 361.67 299.00 358.00
C 296.54 356.30 299.29 352.13 297.00 350.00
C 269.49 351.73 240.82 351.54 214.00 353.00
C 213.79 356.32 214.28 359.69 214.00 363.00 Z"/>
</g>
<g fill="#1C8BF3" fill-opacity="1.00" stroke="None">
<path d="
M 214.00 363.00 
C 213.89 364.26 213.16 365.27 213.00 366.00
C 213.00 372.69 212.68 380.00 214.00 386.00
C 213.53 381.38 214.35 376.63 214.00 372.00
C 239.80 372.36 270.81 370.72 298.00 370.00
C 298.00 375.33 298.00 380.67 298.00 386.00
C 298.20 385.76 299.00 386.00 299.00 386.00
C 299.00 380.33 299.00 374.67 299.00 369.00
C 296.78 366.98 298.59 362.84 298.00 360.00
C 270.71 361.61 240.31 361.23 214.00 363.00 Z"/>
</g>
<g fill="#8530BD" fill-opacity="1.00" stroke="None">
<path d="
M 112.00 384.00 
C 112.00 385.30 111.84 386.71 112.00 388.00
C 112.22 388.96 114.30 391.94 115.00 393.00
C 122.66 402.80 138.55 400.52 150.00 400.00 C 161.45 399.48 178.94 403.17 189.00 397.00
C 191.66 394.81 194.82 392.03 196.00 389.00
C 197.93 381.89 197.00 373.54 197.00 366.00
C 194.44 360.89 182.80 365.00 177.00 364.00 C 171.20 363.00 161.57 364.47 155.00 364.00 C 148.43 363.53 139.82 364.26 133.00 364.00 C 126.18 363.74 118.87 364.19 112.00 364.00
C 112.00 370.67 112.00 377.33 112.00 384.00 Z"/>
</g>
<g fill="#1B76F1" fill-opacity="1.00" stroke="None">
<path d="
M 214.00 386.00 
C 214.16 387.55 214.23 389.70 215.00 391.00
C 215.13 391.22 216.00 391.00 216.00 391.00
C 216.05 390.00 215.96 389.00 216.00 388.00
C 222.96 389.47 235.57 387.19 243.74 387.40 C 251.92 387.62 261.87 386.44 272.00 387.00 C 282.13 387.56 289.85 384.38 297.00 388.00
C 297.31 387.24 297.85 387.20 298.00 386.00
C 298.00 380.67 298.00 375.33 298.00 370.00
C 270.81 370.72 239.80 372.36 214.00 372.00
C 214.35 376.63 213.53 381.38 214.00 386.00 Z"/>
</g>
<g fill="#1C61EE" fill-opacity="1.00" stroke="None">
<path d="
M 216.00 391.00 
C 225.27 404.27 243.72 399.45 258.00 400.00 C 272.28 400.55 290.68 403.20 297.00 388.00
C 289.85 384.38 282.13 387.56 272.00 387.00 C 261.87 386.44 251.92 387.62 243.74 387.40 C 235.57 387.19 222.96 389.47 216.00 388.00
C 215.96 389.00 216.05 390.00 216.00 391.00 Z"/>
</g>
<g fill="#63C2CA" fill-opacity="0.89" stroke="None">
<path d="
M 297.00 388.00 
C 290.68 403.20 272.28 400.55 258.00 400.00 C 243.72 399.45 225.27 404.27 216.00 391.00
C 216.00 391.00 215.13 391.22 215.00 391.00
C 218.66 404.08 236.63 402.62 248.00 402.00 C 259.37 401.38 278.95 404.34 290.00 400.00
C 294.75 397.52 298.76 393.82 299.00 388.00
C 299.02 387.50 299.00 386.50 299.00 386.00
C 299.00 386.00 298.20 385.76 298.00 386.00
C 297.85 387.20 297.31 387.24 297.00 388.00 Z"/>
</g>
<g fill="#75B9AA" fill-opacity="0.89" stroke="None">
<path d="
M 323.00 400.00 
C 323.00 400.00 323.55 399.85 324.00 400.00
C 336.74 404.08 354.81 401.06 368.00 402.00 C 381.19 402.94 396.45 402.55 400.00 388.00
C 394.04 404.78 369.77 399.52 356.00 400.00 C 342.23 400.48 318.60 403.37 315.00 386.00
C 315.67 392.56 319.43 394.88 323.00 400.00 Z"/>
</g>
<g fill="#A37DB9" fill-opacity="0.86" stroke="None">
<path d="
M 196.00 389.00 
C 194.82 392.03 191.66 394.81 189.00 397.00
C 179.73 404.62 161.77 400.34 150.00 401.00 C 138.23 401.66 122.18 403.80 115.00 393.00
C 114.30 391.94 112.22 388.96 112.00 388.00
C 114.24 406.40 140.53 401.95 154.00 402.00 C 167.47 402.05 191.31 406.31 196.00 389.00 Z"/>
</g>
<g fill="#8B55AA" fill-opacity="0.94" stroke="None">
<path d="
M 189.00 397.00 
C 178.94 403.17 161.45 399.48 150.00 400.00 C 138.55 400.52 122.66 402.80 115.00 393.00
C 122.18 403.80 138.23 401.66 150.00 401.00 C 161.77 400.34 179.73 404.62 189.00 397.00 Z"/>
</g>
<g fill="#000000" fill-opacity="0.33" stroke="None">
<path d="
M 91.00 464.00 
C 129.87 479.26 175.60 471.36 218.00 473.00 C 260.40 474.64 312.71 471.16 354.00 473.00 C 395.29 474.84 429.39 470.76 453.00 436.00
C 459.03 424.82 463.92 413.89 465.00 402.00
C 462.62 411.60 458.46 420.28 454.00 429.00
C 444.42 447.75 430.71 457.52 410.78 465.78 C 390.84 474.03 359.96 470.61 336.00 471.00 C 312.04 471.39 280.70 470.95 256.00 471.00 C 231.30 471.05 200.13 471.25 176.00 471.00 C 151.87 470.75 121.70 473.70 101.31 465.69 C 80.92 457.69 67.68 447.94 58.00 429.00
C 53.54 420.28 49.37 411.56 47.00 402.00
C 49.10 425.10 67.09 454.61 91.00 464.00 Z"/>
</g>
<g fill="#000000" fill-opacity="0.44" stroke="None">
<path d="
M 454.00 429.00 
C 442.24 446.31 429.34 455.53 409.07 463.07 C 388.81 470.62 358.88 467.70 335.00 468.00 C 311.12 468.30 280.50 467.97 256.00 468.00 C 231.50 468.03 200.91 468.22 177.00 468.00 C 153.09 467.78 123.33 470.51 103.02 462.98 C 82.72 455.44 69.86 446.46 58.00 429.00
C 67.68 447.94 80.92 457.69 101.31 465.69 C 121.70 473.70 151.87 470.75 176.00 471.00 C 200.13 471.25 231.30 471.05 256.00 471.00 C 280.70 470.95 312.04 471.39 336.00 471.00 C 359.96 470.61 390.84 474.03 410.78 465.78 C 430.71 457.52 444.42 447.75 454.00 429.00 Z"/>
</g>
<g fill="#000000" fill-opacity="0.19" stroke="None">
<path d="
M 91.00 464.00 
C 112.92 475.95 136.83 475.72 163.00 475.00 C 189.17 474.28 218.91 475.53 245.00 475.00 C 271.09 474.47 302.91 475.68 328.00 475.00 C 353.09 474.32 384.68 477.97 405.93 470.93 C 427.17 463.88 442.49 455.48 453.00 436.00
C 429.39 470.76 395.29 474.84 354.00 473.00 C 312.71 471.16 260.40 474.64 218.00 473.00 C 175.60 471.36 129.87 479.26 91.00 464.00 Z"/>
</g>
</svg>