<svg xmlns="http://www.w3.org/2000/svg" xmlns:v="https://svgstorm.com"
viewBox = "37 37 435 435">
<g fill="None" fill-opacity="0.0" stroke="#000000" stroke-opacity="0.00" stroke-width="0.3"><path d="
M 0.00 512.00 
L 512.00 512.00
L 512.00 0.00
L 0.00 0.00
L 0.00 512.00
M 468.00 127.00 
C 468.95 144.55 468.00 162.42 468.00 180.00
C 468.00 212.33 468.00 244.67 468.00 277.00
C 468.00 312.58 469.36 348.45 468.00 384.00
C 467.85 387.82 467.57 391.25 467.00 395.00
C 466.65 397.31 465.44 400.12 465.00 402.00
C 463.49 413.57 456.53 426.27 449.00 435.00
C 444.76 439.92 440.04 444.98 435.00 449.00
C 427.67 454.84 420.11 459.57 411.00 462.00
C 406.06 463.84 400.71 466.51 395.00 467.00
C 393.36 467.14 391.65 467.00 390.00 467.00
C 358.23 470.38 324.67 467.28 292.00 468.00 C 259.33 468.72 225.75 468.00 193.00 468.00
C 186.00 468.00 179.00 468.00 172.00 468.00
C 155.51 468.00 137.66 468.89 122.00 467.00
C 115.08 466.86 109.95 464.93 104.00 463.00
C 101.97 462.34 99.77 461.70 98.00 461.00
C 90.39 457.98 83.26 454.40 77.00 449.00
C 71.72 444.44 67.47 440.23 63.00 435.00
C 52.52 422.73 45.32 406.23 45.00 390.00
C 41.72 362.91 44.68 334.00 44.00 306.00 C 43.32 278.00 44.00 249.08 44.00 221.00
C 44.00 220.50 44.00 219.50 44.00 219.00
C 44.00 187.22 41.27 152.82 45.00 122.00
C 45.07 118.67 45.41 116.10 46.00 113.00
C 46.38 111.02 46.43 108.95 47.00 107.00
C 47.69 104.65 49.26 101.99 50.00 100.00
C 58.91 76.15 77.92 59.22 101.00 50.00
C 102.10 49.56 103.62 48.52 105.00 48.00
C 108.53 46.66 112.29 45.78 116.00 45.00
C 118.34 44.51 121.05 44.00 124.00 44.00
C 143.33 44.00 162.67 44.00 182.00 44.00
C 185.67 44.00 189.33 44.00 193.00 44.00
C 206.67 44.00 220.33 44.00 234.00 44.00
C 266.67 44.00 299.33 44.00 332.00 44.00
C 349.86 44.00 368.19 42.79 386.00 44.00
C 429.90 46.99 465.61 82.99 468.00 127.00 Z"/>
</g>
<g fill="None" fill-opacity="0.0" stroke="#2485F7" stroke-opacity="1.00" stroke-width="0.3"><path d="
M 116.00 45.00 
C 112.66 49.78 117.44 59.85 116.00 66.00 C 114.56 72.15 116.67 81.29 116.00 88.00 C 115.33 94.71 116.28 101.99 116.00 109.00 C 115.72 116.01 116.10 123.84 116.00 131.00 C 115.90 138.16 116.00 145.79 116.00 153.00
C 117.21 150.33 123.35 151.20 124.00 153.00
C 124.69 150.28 126.65 151.37 127.00 149.00
C 128.33 151.94 129.02 154.11 129.00 149.00
C 130.72 151.90 132.56 147.49 132.00 153.00
C 132.75 149.20 136.46 147.89 136.00 153.00
C 136.75 149.20 140.46 147.89 140.00 153.00
C 140.75 149.20 144.46 147.89 144.00 153.00
C 144.75 149.20 148.46 147.89 148.00 153.00
C 148.75 149.20 152.46 147.89 152.00 153.00
C 152.75 149.20 156.46 147.89 156.00 153.00
C 156.75 149.20 160.46 147.89 160.00 153.00
C 160.75 149.20 164.46 147.89 164.00 153.00
C 164.75 149.20 168.46 147.89 168.00 153.00
C 168.75 149.20 172.46 147.89 172.00 153.00
C 172.75 149.20 176.46 147.89 176.00 153.00
C 177.26 147.19 180.15 154.80 182.00 151.00
C 182.00 115.67 182.00 80.33 182.00 45.00
C 163.41 46.68 141.80 45.72 124.00 44.00
C 121.05 44.00 118.34 44.51 116.00 45.00 Z"/>
</g>
<g fill="None" fill-opacity="0.0" stroke="#6BB3E1" stroke-opacity="0.87" stroke-width="0.3"><path d="
M 182.00 45.00 
C 181.96 45.00 182.00 44.00 182.00 44.00
C 162.67 44.00 143.33 44.00 124.00 44.00
C 141.80 45.72 163.41 46.68 182.00 45.00 Z"/>
</g>
<g fill="None" fill-opacity="0.0" stroke="#BBEBBB" stroke-opacity="0.87" stroke-width="0.3"><path d="
M 182.00 45.00 
C 185.47 45.31 189.53 45.31 193.00 45.00
C 192.96 45.00 193.00 44.00 193.00 44.00
C 189.33 44.00 185.67 44.00 182.00 44.00
C 182.00 44.00 181.96 45.00 182.00 45.00 Z"/>
</g>
<g fill="None" fill-opacity="0.0" stroke="#7BE17A" stroke-opacity="0.76" stroke-width="0.3"><path d="
M 193.00 45.00 
C 205.93 46.17 221.07 46.17 234.00 45.00
C 233.96 45.00 234.00 44.00 234.00 44.00
C 220.33 44.00 206.67 44.00 193.00 44.00
C 193.00 44.00 192.96 45.00 193.00 45.00 Z"/>
</g>
<g fill="None" fill-opacity="0.0" stroke="#B8E3BA" stroke-opacity="0.89" stroke-width="0.3"><path d="
M 234.00 45.00 
C 236.62 45.24 239.37 45.00 242.00 45.00
C 269.33 45.00 296.67 45.00 324.00 45.00
C 326.63 45.00 329.38 45.24 332.00 45.00
C 331.96 45.00 332.00 44.00 332.00 44.00
C 299.33 44.00 266.67 44.00 234.00 44.00
C 234.00 44.00 233.96 45.00 234.00 45.00 Z"/>
</g>
<g fill="None" fill-opacity="0.0" stroke="#67DF71" stroke-opacity="0.75" stroke-width="0.3"><path d="
M 332.00 45.00 
C 349.66 46.60 369.11 44.49 386.00 44.00
C 368.19 42.79 349.86 44.00 332.00 44.00
C 332.00 44.00 331.96 45.00 332.00 45.00 Z"/>
</g>
<g fill="None" fill-opacity="0.0" stroke="#50D866" stroke-opacity="1.00" stroke-width="0.3"><path d="
M 332.00 45.00 
C 328.54 117.37 394.91 182.90 467.00 180.00
C 465.44 162.71 467.29 143.52 468.00 127.00
C 465.61 82.99 429.90 46.99 386.00 44.00
C 369.11 44.49 349.66 46.60 332.00 45.00 Z"/>
</g>
<g fill="None" fill-opacity="0.0" stroke="#FDFDFD" stroke-opacity="1.00" stroke-width="0.3"><path d="
M 105.00 48.00 
C 105.00 77.67 105.00 107.33 105.00 137.00
C 105.00 150.33 105.00 163.67 105.00 177.00
C 108.74 174.66 112.01 174.33 116.00 173.00
C 116.00 166.33 116.00 159.67 116.00 153.00
C 116.00 145.79 115.90 138.16 116.00 131.00 C 116.10 123.84 115.72 116.01 116.00 109.00 C 116.28 101.99 115.33 94.71 116.00 88.00 C 116.67 81.29 114.56 72.15 116.00 66.00 C 117.44 59.85 112.66 49.78 116.00 45.00
C 112.29 45.78 108.53 46.66 105.00 48.00 Z"/>
</g>
<g fill="None" fill-opacity="0.0" stroke="#F7F8F7" stroke-opacity="1.00" stroke-width="0.3"><path d="
M 182.00 151.00 
C 182.00 164.00 182.00 177.00 182.00 190.00
C 161.51 182.60 137.43 181.64 117.00 190.00
C 95.48 198.97 75.66 217.60 68.00 240.00
C 54.47 279.54 67.04 325.16 105.00 347.00
C 131.80 362.42 166.23 362.40 193.00 347.00
C 197.36 344.49 202.20 341.18 206.00 338.00
C 241.86 307.95 245.04 252.51 217.00 217.00
C 211.68 210.26 204.62 203.78 198.00 199.00
C 191.44 194.26 193.00 189.13 193.00 181.00
C 193.00 135.67 193.00 90.33 193.00 45.00
C 189.53 45.31 185.47 45.31 182.00 45.00
C 182.00 80.33 182.00 115.67 182.00 151.00
M 157.00 199.00 
C 210.64 204.19 239.41 271.06 207.75 313.75 C 176.09 356.44 109.41 354.08 84.23 304.77 C 59.05 255.46 100.21 193.50 157.00 199.00 Z"/>
</g>
<g fill="None" fill-opacity="0.0" stroke="#58D668" stroke-opacity="1.00" stroke-width="0.3"><path d="
M 193.00 181.00 
C 193.79 185.43 196.31 195.88 198.00 199.00
C 204.62 203.78 211.68 210.26 217.00 217.00
C 226.90 225.63 239.35 232.24 250.00 240.00
C 258.02 245.85 266.10 251.15 274.08 256.92 C 282.07 262.68 290.15 268.16 298.08 273.92 C 306.02 279.68 314.28 285.06 322.23 290.77 C 330.18 296.48 338.19 302.20 346.23 307.77 C 354.27 313.34 362.78 319.70 370.75 325.25 C 378.71 330.81 387.08 336.63 394.75 342.25 C 402.41 347.87 411.69 353.46 418.75 359.25 C 425.80 365.04 436.99 370.09 442.75 376.25 C 448.50 382.42 465.73 386.67 466.00 395.00
C 466.00 395.02 467.00 395.00 467.00 395.00
C 467.57 391.25 467.85 387.82 468.00 384.00
C 466.13 352.24 467.00 318.51 467.00 286.00
C 463.62 281.22 451.21 287.27 446.00 285.00 C 440.79 282.73 434.11 284.23 428.33 282.67 C 422.55 281.12 415.31 280.74 409.32 278.68 C 403.34 276.62 398.48 275.81 391.98 274.02 C 385.47 272.24 382.79 269.98 375.92 267.08 C 369.05 264.18 369.44 264.38 360.78 260.22 C 352.11 256.07 341.06 248.11 332.78 243.22 C 324.49 238.33 325.90 239.11 319.25 233.75 C 312.61 228.38 314.64 229.97 307.75 223.25 C 300.86 216.53 291.55 207.39 286.08 199.92 C 280.61 192.45 280.00 193.03 276.23 186.77 C 272.46 180.51 271.55 178.63 267.70 173.30 C 263.84 167.98 263.11 163.47 262.00 158.00
C 244.65 122.92 232.72 85.58 234.00 45.00
C 221.07 46.17 205.93 46.17 193.00 45.00
C 193.00 90.33 193.00 135.67 193.00 181.00 Z"/>
</g>
<g fill="None" fill-opacity="0.0" stroke="#CCCDCC" stroke-opacity="1.00" stroke-width="0.3"><path d="
M 262.00 158.00 
C 274.36 182.99 295.89 200.81 314.00 222.00
C 356.96 257.28 410.17 278.41 467.00 277.00
C 466.76 274.38 467.00 271.63 467.00 269.00
C 346.49 273.88 237.64 165.50 242.00 45.00
C 239.37 45.00 236.62 45.24 234.00 45.00
C 232.72 85.58 244.65 122.92 262.00 158.00 Z"/>
</g>
<g fill="None" fill-opacity="0.0" stroke="#E5E5E5" stroke-opacity="1.00" stroke-width="0.3"><path d="
M 467.00 269.00 
C 467.00 241.67 467.00 214.33 467.00 187.00
C 390.40 190.57 321.14 121.44 324.00 45.00
C 296.67 45.00 269.33 45.00 242.00 45.00
C 237.64 165.50 346.49 273.88 467.00 269.00 Z"/>
</g>
<g fill="None" fill-opacity="0.0" stroke="#C2CEC0" stroke-opacity="1.00" stroke-width="0.3"><path d="
M 467.00 187.00 
C 467.00 184.74 466.70 182.24 467.00 180.00
C 394.91 182.90 328.54 117.37 332.00 45.00
C 329.38 45.24 326.63 45.00 324.00 45.00
C 321.14 121.44 390.40 190.57 467.00 187.00 Z"/>
</g>
<g fill="None" fill-opacity="0.0" stroke="#69CE6A" stroke-opacity="1.00" stroke-width="0.3"><path d="
M 101.00 50.00 
C 104.54 52.23 100.00 60.67 101.00 65.00 C 102.00 69.33 100.80 77.02 101.00 82.00 C 101.20 86.98 101.36 95.00 101.00 100.00 C 100.64 105.00 102.28 112.58 101.00 117.00 C 99.72 121.42 103.85 131.97 101.00 135.00
C 102.30 135.81 103.30 137.20 105.00 137.00
C 105.00 107.33 105.00 77.67 105.00 48.00
C 103.62 48.52 102.10 49.56 101.00 50.00 Z"/>
</g>
<g fill="None" fill-opacity="0.0" stroke="#77E878" stroke-opacity="0.99" stroke-width="0.3"><path d="
M 50.00 100.00 
C 53.93 98.32 58.53 106.22 62.25 107.75 C 65.97 109.29 70.82 113.95 74.75 116.25 C 78.67 118.56 82.99 122.47 87.08 124.92 C 91.17 127.36 95.40 131.12 99.00 134.00
C 99.60 134.48 100.39 134.62 101.00 135.00
C 103.85 131.97 99.72 121.42 101.00 117.00 C 102.28 112.58 100.64 105.00 101.00 100.00 C 101.36 95.00 101.20 86.98 101.00 82.00 C 100.80 77.02 102.00 69.33 101.00 65.00 C 100.00 60.67 104.54 52.23 101.00 50.00
C 77.92 59.22 58.91 76.15 50.00 100.00 Z"/>
</g>
<g fill="None" fill-opacity="0.0" stroke="#F9F9F9" stroke-opacity="1.00" stroke-width="0.3"><path d="
M 47.00 107.00 
C 46.76 108.34 46.58 111.08 46.00 113.00
C 45.41 116.10 45.07 118.67 45.00 122.00
C 44.69 137.48 46.70 155.84 45.00 171.00 C 43.30 186.16 49.70 205.59 44.00 219.00
C 44.00 219.50 44.00 220.50 44.00 221.00
C 44.22 221.83 44.89 222.67 45.00 224.00
C 46.24 226.36 51.09 227.34 53.00 229.00
C 53.94 229.09 56.62 225.67 58.25 228.76 C 59.87 231.84 62.76 230.43 65.00 232.00
C 70.02 214.19 85.92 207.91 94.77 192.77 C 103.62 177.63 103.97 150.52 99.00 134.00
C 95.40 131.12 91.17 127.36 87.08 124.92 C 82.99 122.47 78.67 118.56 74.75 116.25 C 70.82 113.95 65.97 109.29 62.25 107.75 C 58.53 106.22 53.93 98.32 50.00 100.00
C 49.26 101.99 47.69 104.65 47.00 107.00 Z"/>
</g>
<g fill="None" fill-opacity="0.0" stroke="#B9F7B9" stroke-opacity="0.51" stroke-width="0.3"><path d="
M 46.00 113.00 
C 46.58 111.08 46.76 108.34 47.00 107.00
C 46.43 108.95 46.38 111.02 46.00 113.00 Z"/>
</g>
<g fill="None" fill-opacity="0.0" stroke="#CFF6CF" stroke-opacity="0.73" stroke-width="0.3"><path d="
M 44.00 219.00 
C 49.70 205.59 43.30 186.16 45.00 171.00 C 46.70 155.84 44.69 137.48 45.00 122.00
C 41.27 152.82 44.00 187.22 44.00 219.00 Z"/>
</g>
<g fill="None" fill-opacity="0.0" stroke="#51DB66" stroke-opacity="0.75" stroke-width="0.3"><path d="
M 467.00 180.00 
C 467.01 179.93 468.00 180.00 468.00 180.00
C 468.00 162.42 468.95 144.55 468.00 127.00
C 467.29 143.52 465.44 162.71 467.00 180.00 Z"/>
</g>
<g fill="None" fill-opacity="0.0" stroke="#DCDCDD" stroke-opacity="1.00" stroke-width="0.3"><path d="
M 53.00 229.00 
C 53.74 229.65 54.17 230.39 55.00 231.00
C 59.28 234.12 63.76 236.86 68.00 240.00
C 75.66 217.60 95.48 198.97 117.00 190.00
C 114.35 188.35 116.00 176.18 116.00 173.00
C 112.01 174.33 108.74 174.66 105.00 177.00
C 105.00 163.67 105.00 150.33 105.00 137.00
C 103.30 137.20 102.30 135.81 101.00 135.00
C 100.39 134.62 99.60 134.48 99.00 134.00
C 103.97 150.52 103.62 177.63 94.77 192.77 C 85.92 207.91 70.02 214.19 65.00 232.00
C 62.76 230.43 59.87 231.84 58.25 228.76 C 56.62 225.67 53.94 229.09 53.00 229.00 Z"/>
</g>
<g fill="None" fill-opacity="0.0" stroke="#1272E4" stroke-opacity="1.00" stroke-width="0.3"><path d="
M 116.00 153.00 
C 116.00 159.67 116.00 166.33 116.00 173.00
C 116.00 176.18 114.35 188.35 117.00 190.00
C 137.43 181.64 161.51 182.60 182.00 190.00
C 182.00 177.00 182.00 164.00 182.00 151.00
C 180.15 154.80 177.26 147.19 176.00 153.00
C 176.46 147.89 172.75 149.20 172.00 153.00
C 172.46 147.89 168.75 149.20 168.00 153.00
C 168.46 147.89 164.75 149.20 164.00 153.00
C 164.46 147.89 160.75 149.20 160.00 153.00
C 160.46 147.89 156.75 149.20 156.00 153.00
C 156.46 147.89 152.75 149.20 152.00 153.00
C 152.46 147.89 148.75 149.20 148.00 153.00
C 148.46 147.89 144.75 149.20 144.00 153.00
C 144.46 147.89 140.75 149.20 140.00 153.00
C 140.46 147.89 136.75 149.20 136.00 153.00
C 136.46 147.89 132.75 149.20 132.00 153.00
C 132.56 147.49 130.72 151.90 129.00 149.00
C 129.02 154.11 128.33 151.94 127.00 149.00
C 126.65 151.37 124.69 150.28 124.00 153.00
C 123.35 151.20 117.21 150.33 116.00 153.00 Z"/>
</g>
<g fill="None" fill-opacity="0.0" stroke="#50BA61" stroke-opacity="1.00" stroke-width="0.3"><path d="
M 467.00 286.00 
C 467.00 284.67 467.00 283.33 467.00 282.00
C 438.51 282.52 402.54 276.99 378.33 264.67 C 354.11 252.35 331.77 242.79 314.00 222.00
C 295.89 200.81 274.36 182.99 262.00 158.00
C 263.11 163.47 263.84 167.98 267.70 173.30 C 271.55 178.63 272.46 180.51 276.23 186.77 C 280.00 193.03 280.61 192.45 286.08 199.92 C 291.55 207.39 300.86 216.53 307.75 223.25 C 314.64 229.97 312.61 228.38 319.25 233.75 C 325.90 239.11 324.49 238.33 332.78 243.22 C 341.06 248.11 352.11 256.07 360.78 260.22 C 369.44 264.38 369.05 264.18 375.92 267.08 C 382.79 269.98 385.47 272.24 391.98 274.02 C 398.48 275.81 403.34 276.62 409.32 278.68 C 415.31 280.74 422.55 281.12 428.33 282.67 C 434.11 284.23 440.79 282.73 446.00 285.00 C 451.21 287.27 463.62 281.22 467.00 286.00 Z"/>
</g>
<g fill="None" fill-opacity="0.0" stroke="#AAE0B2" stroke-opacity="0.89" stroke-width="0.3"><path d="
M 467.00 187.00 
C 467.00 214.33 467.00 241.67 467.00 269.00
C 467.00 271.63 466.76 274.38 467.00 277.00
C 467.05 276.85 468.00 277.00 468.00 277.00
C 468.00 244.67 468.00 212.33 468.00 180.00
C 468.00 180.00 467.01 179.93 467.00 180.00
C 466.70 182.24 467.00 184.74 467.00 187.00 Z"/>
</g>
<g fill="None" fill-opacity="0.0" stroke="#58AB5C" stroke-opacity="1.00" stroke-width="0.3"><path d="
M 198.00 199.00 
C 196.31 195.88 193.79 185.43 193.00 181.00
C 193.00 189.13 191.44 194.26 198.00 199.00 Z"/>
</g>
<g fill="None" fill-opacity="0.0" stroke="#0577FD" stroke-opacity="1.00" stroke-width="0.3"><path d="
M 157.00 199.00 
C 100.21 193.50 59.05 255.46 84.23 304.77 C 109.41 354.08 176.09 356.44 207.75 313.75 C 239.41 271.06 210.64 204.19 157.00 199.00
M 150.00 210.00 
C 162.03 246.77 176.61 282.80 187.00 320.00
C 173.42 309.56 161.21 295.40 149.00 283.00
C 135.06 294.03 125.23 310.06 111.00 320.00
C 113.29 307.26 118.77 295.16 122.93 282.93 C 127.08 270.69 131.07 257.72 135.78 245.78 C 140.49 233.84 142.52 219.22 150.00 210.00 Z"/>
</g>
<g fill="None" fill-opacity="0.0" stroke="#FBFCFD" stroke-opacity="1.00" stroke-width="0.3"><path d="
M 150.00 210.00 
C 142.52 219.22 140.49 233.84 135.78 245.78 C 131.07 257.72 127.08 270.69 122.93 282.93 C 118.77 295.16 113.29 307.26 111.00 320.00
C 125.23 310.06 135.06 294.03 149.00 283.00
C 161.21 295.40 173.42 309.56 187.00 320.00
C 176.61 282.80 162.03 246.77 150.00 210.00 Z"/>
</g>
<g fill="None" fill-opacity="0.0" stroke="#DCDDDD" stroke-opacity="1.00" stroke-width="0.3"><path d="
M 206.00 338.00 
C 208.82 337.98 211.08 341.60 213.00 343.00
C 217.82 346.52 224.18 349.48 229.00 353.00
C 227.04 349.05 224.17 343.49 218.00 341.00
C 243.37 314.20 254.60 274.18 241.00 239.00
C 244.26 240.28 246.86 242.53 250.00 244.00
C 250.00 242.67 250.00 241.33 250.00 240.00
C 239.35 232.24 226.90 225.63 217.00 217.00
C 245.04 252.51 241.86 307.95 206.00 338.00 Z"/>
</g>
<g fill="None" fill-opacity="0.0" stroke="#CB9EAF" stroke-opacity="0.75" stroke-width="0.3"><path d="
M 45.00 390.00 
C 44.45 362.41 46.09 334.56 45.00 307.00 C 43.91 279.44 47.35 251.45 45.00 224.00
C 44.89 222.67 44.22 221.83 44.00 221.00
C 44.00 249.08 43.32 278.00 44.00 306.00 C 44.68 334.00 41.72 362.91 45.00 390.00 Z"/>
</g>
<g fill="None" fill-opacity="0.0" stroke="#409E53" stroke-opacity="1.00" stroke-width="0.3"><path d="
M 467.00 282.00 
C 467.00 280.61 466.55 278.31 467.00 277.00
C 410.17 278.41 356.96 257.28 314.00 222.00
C 331.77 242.79 354.11 252.35 378.33 264.67 C 402.54 276.99 438.51 282.52 467.00 282.00 Z"/>
</g>
<g fill="None" fill-opacity="0.0" stroke="#FB7DD1" stroke-opacity="1.00" stroke-width="0.3"><path d="
M 45.00 390.00 
C 45.32 406.23 52.52 422.73 63.00 435.00
C 67.59 439.59 72.48 444.43 77.00 449.00
C 83.26 454.40 90.39 457.98 98.00 461.00
C 101.32 460.10 98.40 445.89 99.00 440.00 C 99.60 434.11 99.15 423.13 99.00 416.00 C 98.85 408.87 99.90 398.58 99.00 391.00 C 98.10 383.42 99.50 376.84 97.00 369.00 C 94.51 361.16 95.57 359.60 87.77 353.23 C 79.97 346.86 70.42 336.43 64.75 328.25 C 59.08 320.06 59.81 319.33 55.70 312.31 C 51.58 305.28 52.57 300.91 50.02 293.98 C 47.48 287.04 48.42 279.03 47.00 272.00 C 45.58 264.97 50.63 257.18 49.98 250.98 C 49.32 244.77 57.08 236.26 55.00 231.00
C 54.17 230.39 53.74 229.65 53.00 229.00
C 51.09 227.34 46.24 226.36 45.00 224.00
C 47.35 251.45 43.91 279.44 45.00 307.00 C 46.09 334.56 44.45 362.41 45.00 390.00 Z"/>
</g>
<g fill="None" fill-opacity="0.0" stroke="#E472BE" stroke-opacity="1.00" stroke-width="0.3"><path d="
M 98.00 461.00 
C 99.77 461.70 101.97 462.34 104.00 463.00
C 108.20 460.30 103.84 448.58 105.00 443.00 C 106.16 437.42 104.48 427.54 105.00 421.00 C 105.52 414.46 104.77 405.96 105.00 399.00 C 105.23 392.04 104.91 384.14 105.00 377.00 C 105.09 369.86 105.00 362.19 105.00 355.00
C 105.00 352.94 105.81 348.86 105.00 347.00
C 67.04 325.16 54.47 279.54 68.00 240.00
C 63.76 236.86 59.28 234.12 55.00 231.00
C 57.08 236.26 49.32 244.77 49.98 250.98 C 50.63 257.18 45.58 264.97 47.00 272.00 C 48.42 279.03 47.48 287.04 50.02 293.98 C 52.57 300.91 51.58 305.28 55.70 312.31 C 59.81 319.33 59.08 320.06 64.75 328.25 C 70.42 336.43 79.97 346.86 87.77 353.23 C 95.57 359.60 94.51 361.16 97.00 369.00 C 99.50 376.84 98.10 383.42 99.00 391.00 C 99.90 398.58 98.85 408.87 99.00 416.00 C 99.15 423.13 99.60 434.11 99.00 440.00 C 98.40 445.89 101.32 460.10 98.00 461.00 Z"/>
</g>
<g fill="None" fill-opacity="0.0" stroke="#FCFCFC" stroke-opacity="1.00" stroke-width="0.3"><path d="
M 229.00 353.00 
C 255.32 372.18 281.94 391.73 309.08 409.92 C 336.23 428.11 361.67 449.52 389.00 467.00
C 389.50 467.00 390.00 467.00 390.00 467.00
C 391.65 467.00 393.36 467.14 395.00 467.00
C 399.73 466.09 405.87 463.37 411.00 462.00
C 420.11 459.57 427.67 454.84 435.00 449.00
C 439.68 444.63 444.48 439.47 449.00 435.00
C 456.53 426.27 463.49 413.57 465.00 402.00
C 465.31 399.62 464.87 397.15 466.00 395.00
C 465.73 386.67 448.50 382.42 442.75 376.25 C 436.99 370.09 425.80 365.04 418.75 359.25 C 411.69 353.46 402.41 347.87 394.75 342.25 C 387.08 336.63 378.71 330.81 370.75 325.25 C 362.78 319.70 354.27 313.34 346.23 307.77 C 338.19 302.20 330.18 296.48 322.23 290.77 C 314.28 285.06 306.02 279.68 298.08 273.92 C 290.15 268.16 282.07 262.68 274.08 256.92 C 266.10 251.15 258.02 245.85 250.00 240.00
C 250.00 241.33 250.00 242.67 250.00 244.00
C 246.86 242.53 244.26 240.28 241.00 239.00
C 254.60 274.18 243.37 314.20 218.00 341.00
C 224.17 343.49 227.04 349.05 229.00 353.00 Z"/>
</g>
<g fill="None" fill-opacity="0.0" stroke="#47D860" stroke-opacity="0.76" stroke-width="0.3"><path d="
M 467.00 282.00 
C 467.00 283.33 467.00 284.67 467.00 286.00
C 467.00 318.51 466.13 352.24 468.00 384.00
C 469.36 348.45 468.00 312.58 468.00 277.00
C 468.00 277.00 467.05 276.85 467.00 277.00
C 466.55 278.31 467.00 280.61 467.00 282.00 Z"/>
</g>
<g fill="None" fill-opacity="0.0" stroke="#DCC306" stroke-opacity="1.00" stroke-width="0.3"><path d="
M 193.00 347.00 
C 191.99 349.32 193.00 354.43 193.00 357.00
C 193.00 365.98 192.74 375.02 193.00 384.00 C 193.26 392.98 192.33 403.15 193.00 412.00 C 193.67 420.85 191.41 430.52 193.00 439.00 C 194.59 447.48 189.58 459.30 193.00 467.00
C 193.16 466.77 194.50 467.00 195.00 467.00
C 201.68 462.35 196.52 449.56 198.00 442.00 C 199.48 434.44 196.64 422.08 197.00 414.00 C 197.36 405.92 196.83 392.76 197.00 385.00 C 197.17 377.24 198.19 365.56 200.78 359.78 C 203.36 353.99 206.17 343.57 213.00 343.00
C 211.08 341.60 208.82 337.98 206.00 338.00
C 202.20 341.18 197.36 344.49 193.00 347.00 Z"/>
</g>
<g fill="None" fill-opacity="0.0" stroke="#FDDA05" stroke-opacity="1.00" stroke-width="0.3"><path d="
M 195.00 467.00 
C 259.67 467.00 324.33 467.00 389.00 467.00
C 361.67 449.52 336.23 428.11 309.08 409.92 C 281.94 391.73 255.32 372.18 229.00 353.00
C 224.18 349.48 217.82 346.52 213.00 343.00
C 206.17 343.57 203.36 353.99 200.78 359.78 C 198.19 365.56 197.17 377.24 197.00 385.00 C 196.83 392.76 197.36 405.92 197.00 414.00 C 196.64 422.08 199.48 434.44 198.00 442.00 C 196.52 449.56 201.68 462.35 195.00 467.00 Z"/>
</g>
<g fill="None" fill-opacity="0.0" stroke="#DCDCDC" stroke-opacity="1.00" stroke-width="0.3"><path d="
M 105.00 355.00 
C 106.91 358.46 115.50 359.71 119.25 361.76 C 122.99 363.81 129.23 363.88 135.01 364.99 C 140.79 366.10 141.77 365.83 149.75 366.40 C 157.74 366.96 170.73 363.89 178.75 362.61 C 186.77 361.33 185.21 357.47 193.00 357.00
C 193.00 354.43 191.99 349.32 193.00 347.00
C 166.23 362.40 131.80 362.42 105.00 347.00
C 105.81 348.86 105.00 352.94 105.00 355.00 Z"/>
</g>
<g fill="None" fill-opacity="0.0" stroke="#FAFAFA" stroke-opacity="1.00" stroke-width="0.3"><path d="
M 104.00 463.00 
C 109.95 464.93 115.08 466.86 122.00 467.00
C 138.65 467.33 155.34 467.00 172.00 467.00
C 178.90 467.00 186.13 466.38 193.00 467.00
C 189.58 459.30 194.59 447.48 193.00 439.00 C 191.41 430.52 193.67 420.85 193.00 412.00 C 192.33 403.15 193.26 392.98 193.00 384.00 C 192.74 375.02 193.00 365.98 193.00 357.00
C 185.21 357.47 186.77 361.33 178.75 362.61 C 170.73 363.89 157.74 366.96 149.75 366.40 C 141.77 365.83 140.79 366.10 135.01 364.99 C 129.23 363.88 122.99 363.81 119.25 361.76 C 115.50 359.71 106.91 358.46 105.00 355.00
C 105.00 362.19 105.09 369.86 105.00 377.00 C 104.91 384.14 105.23 392.04 105.00 399.00 C 104.77 405.96 105.52 414.46 105.00 421.00 C 104.48 427.54 106.16 437.42 105.00 443.00 C 103.84 448.58 108.20 460.30 104.00 463.00 Z"/>
</g>
<g fill="None" fill-opacity="0.0" stroke="#B1EFB9" stroke-opacity="0.61" stroke-width="0.3"><path d="
M 465.00 402.00 
C 465.44 400.12 466.65 397.31 467.00 395.00
C 467.00 395.00 466.00 395.02 466.00 395.00
C 464.87 397.15 465.31 399.62 465.00 402.00 Z"/>
</g>
<g fill="None" fill-opacity="0.0" stroke="#D2A5B2" stroke-opacity="0.57" stroke-width="0.3"><path d="
M 77.00 449.00 
C 72.48 444.43 67.59 439.59 63.00 435.00
C 67.47 440.23 71.72 444.44 77.00 449.00 Z"/>
</g>
<g fill="None" fill-opacity="0.0" stroke="#CCF7CE" stroke-opacity="0.66" stroke-width="0.3"><path d="
M 435.00 449.00 
C 440.04 444.98 444.76 439.92 449.00 435.00
C 444.48 439.47 439.68 444.63 435.00 449.00 Z"/>
</g>
<g fill="None" fill-opacity="0.0" stroke="#DEF2A1" stroke-opacity="0.65" stroke-width="0.3"><path d="
M 395.00 467.00 
C 400.71 466.51 406.06 463.84 411.00 462.00
C 405.87 463.37 399.73 466.09 395.00 467.00 Z"/>
</g>
<g fill="None" fill-opacity="0.0" stroke="#BFEABF" stroke-opacity="0.70" stroke-width="0.3"><path d="
M 172.00 468.00 
C 171.96 468.00 172.00 467.00 172.00 467.00
C 155.34 467.00 138.65 467.33 122.00 467.00
C 137.66 468.89 155.51 468.00 172.00 468.00 Z"/>
</g>
<g fill="None" fill-opacity="0.0" stroke="#E0E693" stroke-opacity="0.87" stroke-width="0.3"><path d="
M 172.00 468.00 
C 179.00 468.00 186.00 468.00 193.00 468.00
C 192.96 468.00 193.00 467.00 193.00 467.00
C 186.13 466.38 178.90 467.00 172.00 467.00
C 172.00 467.00 171.96 468.00 172.00 468.00 Z"/>
</g>
<g fill="None" fill-opacity="0.0" stroke="#D0DA29" stroke-opacity="0.74" stroke-width="0.3"><path d="
M 193.00 468.00 
C 225.75 468.00 259.33 468.72 292.00 468.00 C 324.67 467.28 358.23 470.38 390.00 467.00
C 390.00 467.00 389.50 467.00 389.00 467.00
C 324.33 467.00 259.67 467.00 195.00 467.00
C 194.50 467.00 193.16 466.77 193.00 467.00
C 193.00 467.00 192.96 468.00 193.00 468.00 Z"/>
</g>
<g fill="#000000" fill-opacity="0.00" stroke="None">
<path d="
M 0.00 512.00 
L 512.00 512.00
L 512.00 0.00
L 0.00 0.00
L 0.00 512.00
M 468.00 127.00 
C 468.95 144.55 468.00 162.42 468.00 180.00
C 468.00 212.33 468.00 244.67 468.00 277.00
C 468.00 312.58 469.36 348.45 468.00 384.00
C 467.85 387.82 467.57 391.25 467.00 395.00
C 466.65 397.31 465.44 400.12 465.00 402.00
C 463.49 413.57 456.53 426.27 449.00 435.00
C 444.76 439.92 440.04 444.98 435.00 449.00
C 427.67 454.84 420.11 459.57 411.00 462.00
C 406.06 463.84 400.71 466.51 395.00 467.00
C 393.36 467.14 391.65 467.00 390.00 467.00
C 358.23 470.38 324.67 467.28 292.00 468.00 C 259.33 468.72 225.75 468.00 193.00 468.00
C 186.00 468.00 179.00 468.00 172.00 468.00
C 155.51 468.00 137.66 468.89 122.00 467.00
C 115.08 466.86 109.95 464.93 104.00 463.00
C 101.97 462.34 99.77 461.70 98.00 461.00
C 90.39 457.98 83.26 454.40 77.00 449.00
C 71.72 444.44 67.47 440.23 63.00 435.00
C 52.52 422.73 45.32 406.23 45.00 390.00
C 41.72 362.91 44.68 334.00 44.00 306.00 C 43.32 278.00 44.00 249.08 44.00 221.00
C 44.00 220.50 44.00 219.50 44.00 219.00
C 44.00 187.22 41.27 152.82 45.00 122.00
C 45.07 118.67 45.41 116.10 46.00 113.00
C 46.38 111.02 46.43 108.95 47.00 107.00
C 47.69 104.65 49.26 101.99 50.00 100.00
C 58.91 76.15 77.92 59.22 101.00 50.00
C 102.10 49.56 103.62 48.52 105.00 48.00
C 108.53 46.66 112.29 45.78 116.00 45.00
C 118.34 44.51 121.05 44.00 124.00 44.00
C 143.33 44.00 162.67 44.00 182.00 44.00
C 185.67 44.00 189.33 44.00 193.00 44.00
C 206.67 44.00 220.33 44.00 234.00 44.00
C 266.67 44.00 299.33 44.00 332.00 44.00
C 349.86 44.00 368.19 42.79 386.00 44.00
C 429.90 46.99 465.61 82.99 468.00 127.00 Z"/>
</g>
<g fill="#2485F7" fill-opacity="1.00" stroke="None">
<path d="
M 116.00 45.00 
C 112.66 49.78 117.44 59.85 116.00 66.00 C 114.56 72.15 116.67 81.29 116.00 88.00 C 115.33 94.71 116.28 101.99 116.00 109.00 C 115.72 116.01 116.10 123.84 116.00 131.00 C 115.90 138.16 116.00 145.79 116.00 153.00
C 117.21 150.33 123.35 151.20 124.00 153.00
C 124.69 150.28 126.65 151.37 127.00 149.00
C 128.33 151.94 129.02 154.11 129.00 149.00
C 130.72 151.90 132.56 147.49 132.00 153.00
C 132.75 149.20 136.46 147.89 136.00 153.00
C 136.75 149.20 140.46 147.89 140.00 153.00
C 140.75 149.20 144.46 147.89 144.00 153.00
C 144.75 149.20 148.46 147.89 148.00 153.00
C 148.75 149.20 152.46 147.89 152.00 153.00
C 152.75 149.20 156.46 147.89 156.00 153.00
C 156.75 149.20 160.46 147.89 160.00 153.00
C 160.75 149.20 164.46 147.89 164.00 153.00
C 164.75 149.20 168.46 147.89 168.00 153.00
C 168.75 149.20 172.46 147.89 172.00 153.00
C 172.75 149.20 176.46 147.89 176.00 153.00
C 177.26 147.19 180.15 154.80 182.00 151.00
C 182.00 115.67 182.00 80.33 182.00 45.00
C 163.41 46.68 141.80 45.72 124.00 44.00
C 121.05 44.00 118.34 44.51 116.00 45.00 Z"/>
</g>
<g fill="#6BB3E1" fill-opacity="0.87" stroke="None">
<path d="
M 182.00 45.00 
C 181.96 45.00 182.00 44.00 182.00 44.00
C 162.67 44.00 143.33 44.00 124.00 44.00
C 141.80 45.72 163.41 46.68 182.00 45.00 Z"/>
</g>
<g fill="#BBEBBB" fill-opacity="0.87" stroke="None">
<path d="
M 182.00 45.00 
C 185.47 45.31 189.53 45.31 193.00 45.00
C 192.96 45.00 193.00 44.00 193.00 44.00
C 189.33 44.00 185.67 44.00 182.00 44.00
C 182.00 44.00 181.96 45.00 182.00 45.00 Z"/>
</g>
<g fill="#7BE17A" fill-opacity="0.76" stroke="None">
<path d="
M 193.00 45.00 
C 205.93 46.17 221.07 46.17 234.00 45.00
C 233.96 45.00 234.00 44.00 234.00 44.00
C 220.33 44.00 206.67 44.00 193.00 44.00
C 193.00 44.00 192.96 45.00 193.00 45.00 Z"/>
</g>
<g fill="#B8E3BA" fill-opacity="0.89" stroke="None">
<path d="
M 234.00 45.00 
C 236.62 45.24 239.37 45.00 242.00 45.00
C 269.33 45.00 296.67 45.00 324.00 45.00
C 326.63 45.00 329.38 45.24 332.00 45.00
C 331.96 45.00 332.00 44.00 332.00 44.00
C 299.33 44.00 266.67 44.00 234.00 44.00
C 234.00 44.00 233.96 45.00 234.00 45.00 Z"/>
</g>
<g fill="#67DF71" fill-opacity="0.75" stroke="None">
<path d="
M 332.00 45.00 
C 349.66 46.60 369.11 44.49 386.00 44.00
C 368.19 42.79 349.86 44.00 332.00 44.00
C 332.00 44.00 331.96 45.00 332.00 45.00 Z"/>
</g>
<g fill="#50D866" fill-opacity="1.00" stroke="None">
<path d="
M 332.00 45.00 
C 328.54 117.37 394.91 182.90 467.00 180.00
C 465.44 162.71 467.29 143.52 468.00 127.00
C 465.61 82.99 429.90 46.99 386.00 44.00
C 369.11 44.49 349.66 46.60 332.00 45.00 Z"/>
</g>
<g fill="#FDFDFD" fill-opacity="1.00" stroke="None">
<path d="
M 105.00 48.00 
C 105.00 77.67 105.00 107.33 105.00 137.00
C 105.00 150.33 105.00 163.67 105.00 177.00
C 108.74 174.66 112.01 174.33 116.00 173.00
C 116.00 166.33 116.00 159.67 116.00 153.00
C 116.00 145.79 115.90 138.16 116.00 131.00 C 116.10 123.84 115.72 116.01 116.00 109.00 C 116.28 101.99 115.33 94.71 116.00 88.00 C 116.67 81.29 114.56 72.15 116.00 66.00 C 117.44 59.85 112.66 49.78 116.00 45.00
C 112.29 45.78 108.53 46.66 105.00 48.00 Z"/>
</g>
<g fill="#F7F8F7" fill-opacity="1.00" stroke="None">
<path d="
M 182.00 151.00 
C 182.00 164.00 182.00 177.00 182.00 190.00
C 161.51 182.60 137.43 181.64 117.00 190.00
C 95.48 198.97 75.66 217.60 68.00 240.00
C 54.47 279.54 67.04 325.16 105.00 347.00
C 131.80 362.42 166.23 362.40 193.00 347.00
C 197.36 344.49 202.20 341.18 206.00 338.00
C 241.86 307.95 245.04 252.51 217.00 217.00
C 211.68 210.26 204.62 203.78 198.00 199.00
C 191.44 194.26 193.00 189.13 193.00 181.00
C 193.00 135.67 193.00 90.33 193.00 45.00
C 189.53 45.31 185.47 45.31 182.00 45.00
C 182.00 80.33 182.00 115.67 182.00 151.00
M 157.00 199.00 
C 210.64 204.19 239.41 271.06 207.75 313.75 C 176.09 356.44 109.41 354.08 84.23 304.77 C 59.05 255.46 100.21 193.50 157.00 199.00 Z"/>
</g>
<g fill="#58D668" fill-opacity="1.00" stroke="None">
<path d="
M 193.00 181.00 
C 193.79 185.43 196.31 195.88 198.00 199.00
C 204.62 203.78 211.68 210.26 217.00 217.00
C 226.90 225.63 239.35 232.24 250.00 240.00
C 258.02 245.85 266.10 251.15 274.08 256.92 C 282.07 262.68 290.15 268.16 298.08 273.92 C 306.02 279.68 314.28 285.06 322.23 290.77 C 330.18 296.48 338.19 302.20 346.23 307.77 C 354.27 313.34 362.78 319.70 370.75 325.25 C 378.71 330.81 387.08 336.63 394.75 342.25 C 402.41 347.87 411.69 353.46 418.75 359.25 C 425.80 365.04 436.99 370.09 442.75 376.25 C 448.50 382.42 465.73 386.67 466.00 395.00
C 466.00 395.02 467.00 395.00 467.00 395.00
C 467.57 391.25 467.85 387.82 468.00 384.00
C 466.13 352.24 467.00 318.51 467.00 286.00
C 463.62 281.22 451.21 287.27 446.00 285.00 C 440.79 282.73 434.11 284.23 428.33 282.67 C 422.55 281.12 415.31 280.74 409.32 278.68 C 403.34 276.62 398.48 275.81 391.98 274.02 C 385.47 272.24 382.79 269.98 375.92 267.08 C 369.05 264.18 369.44 264.38 360.78 260.22 C 352.11 256.07 341.06 248.11 332.78 243.22 C 324.49 238.33 325.90 239.11 319.25 233.75 C 312.61 228.38 314.64 229.97 307.75 223.25 C 300.86 216.53 291.55 207.39 286.08 199.92 C 280.61 192.45 280.00 193.03 276.23 186.77 C 272.46 180.51 271.55 178.63 267.70 173.30 C 263.84 167.98 263.11 163.47 262.00 158.00
C 244.65 122.92 232.72 85.58 234.00 45.00
C 221.07 46.17 205.93 46.17 193.00 45.00
C 193.00 90.33 193.00 135.67 193.00 181.00 Z"/>
</g>
<g fill="#CCCDCC" fill-opacity="1.00" stroke="None">
<path d="
M 262.00 158.00 
C 274.36 182.99 295.89 200.81 314.00 222.00
C 356.96 257.28 410.17 278.41 467.00 277.00
C 466.76 274.38 467.00 271.63 467.00 269.00
C 346.49 273.88 237.64 165.50 242.00 45.00
C 239.37 45.00 236.62 45.24 234.00 45.00
C 232.72 85.58 244.65 122.92 262.00 158.00 Z"/>
</g>
<g fill="#E5E5E5" fill-opacity="1.00" stroke="None">
<path d="
M 467.00 269.00 
C 467.00 241.67 467.00 214.33 467.00 187.00
C 390.40 190.57 321.14 121.44 324.00 45.00
C 296.67 45.00 269.33 45.00 242.00 45.00
C 237.64 165.50 346.49 273.88 467.00 269.00 Z"/>
</g>
<g fill="#C2CEC0" fill-opacity="1.00" stroke="None">
<path d="
M 467.00 187.00 
C 467.00 184.74 466.70 182.24 467.00 180.00
C 394.91 182.90 328.54 117.37 332.00 45.00
C 329.38 45.24 326.63 45.00 324.00 45.00
C 321.14 121.44 390.40 190.57 467.00 187.00 Z"/>
</g>
<g fill="#69CE6A" fill-opacity="1.00" stroke="None">
<path d="
M 101.00 50.00 
C 104.54 52.23 100.00 60.67 101.00 65.00 C 102.00 69.33 100.80 77.02 101.00 82.00 C 101.20 86.98 101.36 95.00 101.00 100.00 C 100.64 105.00 102.28 112.58 101.00 117.00 C 99.72 121.42 103.85 131.97 101.00 135.00
C 102.30 135.81 103.30 137.20 105.00 137.00
C 105.00 107.33 105.00 77.67 105.00 48.00
C 103.62 48.52 102.10 49.56 101.00 50.00 Z"/>
</g>
<g fill="#77E878" fill-opacity="0.99" stroke="None">
<path d="
M 50.00 100.00 
C 53.93 98.32 58.53 106.22 62.25 107.75 C 65.97 109.29 70.82 113.95 74.75 116.25 C 78.67 118.56 82.99 122.47 87.08 124.92 C 91.17 127.36 95.40 131.12 99.00 134.00
C 99.60 134.48 100.39 134.62 101.00 135.00
C 103.85 131.97 99.72 121.42 101.00 117.00 C 102.28 112.58 100.64 105.00 101.00 100.00 C 101.36 95.00 101.20 86.98 101.00 82.00 C 100.80 77.02 102.00 69.33 101.00 65.00 C 100.00 60.67 104.54 52.23 101.00 50.00
C 77.92 59.22 58.91 76.15 50.00 100.00 Z"/>
</g>
<g fill="#F9F9F9" fill-opacity="1.00" stroke="None">
<path d="
M 47.00 107.00 
C 46.76 108.34 46.58 111.08 46.00 113.00
C 45.41 116.10 45.07 118.67 45.00 122.00
C 44.69 137.48 46.70 155.84 45.00 171.00 C 43.30 186.16 49.70 205.59 44.00 219.00
C 44.00 219.50 44.00 220.50 44.00 221.00
C 44.22 221.83 44.89 222.67 45.00 224.00
C 46.24 226.36 51.09 227.34 53.00 229.00
C 53.94 229.09 56.62 225.67 58.25 228.76 C 59.87 231.84 62.76 230.43 65.00 232.00
C 70.02 214.19 85.92 207.91 94.77 192.77 C 103.62 177.63 103.97 150.52 99.00 134.00
C 95.40 131.12 91.17 127.36 87.08 124.92 C 82.99 122.47 78.67 118.56 74.75 116.25 C 70.82 113.95 65.97 109.29 62.25 107.75 C 58.53 106.22 53.93 98.32 50.00 100.00
C 49.26 101.99 47.69 104.65 47.00 107.00 Z"/>
</g>
<g fill="#B9F7B9" fill-opacity="0.51" stroke="None">
<path d="
M 46.00 113.00 
C 46.58 111.08 46.76 108.34 47.00 107.00
C 46.43 108.95 46.38 111.02 46.00 113.00 Z"/>
</g>
<g fill="#CFF6CF" fill-opacity="0.73" stroke="None">
<path d="
M 44.00 219.00 
C 49.70 205.59 43.30 186.16 45.00 171.00 C 46.70 155.84 44.69 137.48 45.00 122.00
C 41.27 152.82 44.00 187.22 44.00 219.00 Z"/>
</g>
<g fill="#51DB66" fill-opacity="0.75" stroke="None">
<path d="
M 467.00 180.00 
C 467.01 179.93 468.00 180.00 468.00 180.00
C 468.00 162.42 468.95 144.55 468.00 127.00
C 467.29 143.52 465.44 162.71 467.00 180.00 Z"/>
</g>
<g fill="#DCDCDD" fill-opacity="1.00" stroke="None">
<path d="
M 53.00 229.00 
C 53.74 229.65 54.17 230.39 55.00 231.00
C 59.28 234.12 63.76 236.86 68.00 240.00
C 75.66 217.60 95.48 198.97 117.00 190.00
C 114.35 188.35 116.00 176.18 116.00 173.00
C 112.01 174.33 108.74 174.66 105.00 177.00
C 105.00 163.67 105.00 150.33 105.00 137.00
C 103.30 137.20 102.30 135.81 101.00 135.00
C 100.39 134.62 99.60 134.48 99.00 134.00
C 103.97 150.52 103.62 177.63 94.77 192.77 C 85.92 207.91 70.02 214.19 65.00 232.00
C 62.76 230.43 59.87 231.84 58.25 228.76 C 56.62 225.67 53.94 229.09 53.00 229.00 Z"/>
</g>
<g fill="#1272E4" fill-opacity="1.00" stroke="None">
<path d="
M 116.00 153.00 
C 116.00 159.67 116.00 166.33 116.00 173.00
C 116.00 176.18 114.35 188.35 117.00 190.00
C 137.43 181.64 161.51 182.60 182.00 190.00
C 182.00 177.00 182.00 164.00 182.00 151.00
C 180.15 154.80 177.26 147.19 176.00 153.00
C 176.46 147.89 172.75 149.20 172.00 153.00
C 172.46 147.89 168.75 149.20 168.00 153.00
C 168.46 147.89 164.75 149.20 164.00 153.00
C 164.46 147.89 160.75 149.20 160.00 153.00
C 160.46 147.89 156.75 149.20 156.00 153.00
C 156.46 147.89 152.75 149.20 152.00 153.00
C 152.46 147.89 148.75 149.20 148.00 153.00
C 148.46 147.89 144.75 149.20 144.00 153.00
C 144.46 147.89 140.75 149.20 140.00 153.00
C 140.46 147.89 136.75 149.20 136.00 153.00
C 136.46 147.89 132.75 149.20 132.00 153.00
C 132.56 147.49 130.72 151.90 129.00 149.00
C 129.02 154.11 128.33 151.94 127.00 149.00
C 126.65 151.37 124.69 150.28 124.00 153.00
C 123.35 151.20 117.21 150.33 116.00 153.00 Z"/>
</g>
<g fill="#50BA61" fill-opacity="1.00" stroke="None">
<path d="
M 467.00 286.00 
C 467.00 284.67 467.00 283.33 467.00 282.00
C 438.51 282.52 402.54 276.99 378.33 264.67 C 354.11 252.35 331.77 242.79 314.00 222.00
C 295.89 200.81 274.36 182.99 262.00 158.00
C 263.11 163.47 263.84 167.98 267.70 173.30 C 271.55 178.63 272.46 180.51 276.23 186.77 C 280.00 193.03 280.61 192.45 286.08 199.92 C 291.55 207.39 300.86 216.53 307.75 223.25 C 314.64 229.97 312.61 228.38 319.25 233.75 C 325.90 239.11 324.49 238.33 332.78 243.22 C 341.06 248.11 352.11 256.07 360.78 260.22 C 369.44 264.38 369.05 264.18 375.92 267.08 C 382.79 269.98 385.47 272.24 391.98 274.02 C 398.48 275.81 403.34 276.62 409.32 278.68 C 415.31 280.74 422.55 281.12 428.33 282.67 C 434.11 284.23 440.79 282.73 446.00 285.00 C 451.21 287.27 463.62 281.22 467.00 286.00 Z"/>
</g>
<g fill="#AAE0B2" fill-opacity="0.89" stroke="None">
<path d="
M 467.00 187.00 
C 467.00 214.33 467.00 241.67 467.00 269.00
C 467.00 271.63 466.76 274.38 467.00 277.00
C 467.05 276.85 468.00 277.00 468.00 277.00
C 468.00 244.67 468.00 212.33 468.00 180.00
C 468.00 180.00 467.01 179.93 467.00 180.00
C 466.70 182.24 467.00 184.74 467.00 187.00 Z"/>
</g>
<g fill="#58AB5C" fill-opacity="1.00" stroke="None">
<path d="
M 198.00 199.00 
C 196.31 195.88 193.79 185.43 193.00 181.00
C 193.00 189.13 191.44 194.26 198.00 199.00 Z"/>
</g>
<g fill="#0577FD" fill-opacity="1.00" stroke="None">
<path d="
M 157.00 199.00 
C 100.21 193.50 59.05 255.46 84.23 304.77 C 109.41 354.08 176.09 356.44 207.75 313.75 C 239.41 271.06 210.64 204.19 157.00 199.00
M 150.00 210.00 
C 162.03 246.77 176.61 282.80 187.00 320.00
C 173.42 309.56 161.21 295.40 149.00 283.00
C 135.06 294.03 125.23 310.06 111.00 320.00
C 113.29 307.26 118.77 295.16 122.93 282.93 C 127.08 270.69 131.07 257.72 135.78 245.78 C 140.49 233.84 142.52 219.22 150.00 210.00 Z"/>
</g>
<g fill="#FBFCFD" fill-opacity="1.00" stroke="None">
<path d="
M 150.00 210.00 
C 142.52 219.22 140.49 233.84 135.78 245.78 C 131.07 257.72 127.08 270.69 122.93 282.93 C 118.77 295.16 113.29 307.26 111.00 320.00
C 125.23 310.06 135.06 294.03 149.00 283.00
C 161.21 295.40 173.42 309.56 187.00 320.00
C 176.61 282.80 162.03 246.77 150.00 210.00 Z"/>
</g>
<g fill="#DCDDDD" fill-opacity="1.00" stroke="None">
<path d="
M 206.00 338.00 
C 208.82 337.98 211.08 341.60 213.00 343.00
C 217.82 346.52 224.18 349.48 229.00 353.00
C 227.04 349.05 224.17 343.49 218.00 341.00
C 243.37 314.20 254.60 274.18 241.00 239.00
C 244.26 240.28 246.86 242.53 250.00 244.00
C 250.00 242.67 250.00 241.33 250.00 240.00
C 239.35 232.24 226.90 225.63 217.00 217.00
C 245.04 252.51 241.86 307.95 206.00 338.00 Z"/>
</g>
<g fill="#CB9EAF" fill-opacity="0.75" stroke="None">
<path d="
M 45.00 390.00 
C 44.45 362.41 46.09 334.56 45.00 307.00 C 43.91 279.44 47.35 251.45 45.00 224.00
C 44.89 222.67 44.22 221.83 44.00 221.00
C 44.00 249.08 43.32 278.00 44.00 306.00 C 44.68 334.00 41.72 362.91 45.00 390.00 Z"/>
</g>
<g fill="#409E53" fill-opacity="1.00" stroke="None">
<path d="
M 467.00 282.00 
C 467.00 280.61 466.55 278.31 467.00 277.00
C 410.17 278.41 356.96 257.28 314.00 222.00
C 331.77 242.79 354.11 252.35 378.33 264.67 C 402.54 276.99 438.51 282.52 467.00 282.00 Z"/>
</g>
<g fill="#FB7DD1" fill-opacity="1.00" stroke="None">
<path d="
M 45.00 390.00 
C 45.32 406.23 52.52 422.73 63.00 435.00
C 67.59 439.59 72.48 444.43 77.00 449.00
C 83.26 454.40 90.39 457.98 98.00 461.00
C 101.32 460.10 98.40 445.89 99.00 440.00 C 99.60 434.11 99.15 423.13 99.00 416.00 C 98.85 408.87 99.90 398.58 99.00 391.00 C 98.10 383.42 99.50 376.84 97.00 369.00 C 94.51 361.16 95.57 359.60 87.77 353.23 C 79.97 346.86 70.42 336.43 64.75 328.25 C 59.08 320.06 59.81 319.33 55.70 312.31 C 51.58 305.28 52.57 300.91 50.02 293.98 C 47.48 287.04 48.42 279.03 47.00 272.00 C 45.58 264.97 50.63 257.18 49.98 250.98 C 49.32 244.77 57.08 236.26 55.00 231.00
C 54.17 230.39 53.74 229.65 53.00 229.00
C 51.09 227.34 46.24 226.36 45.00 224.00
C 47.35 251.45 43.91 279.44 45.00 307.00 C 46.09 334.56 44.45 362.41 45.00 390.00 Z"/>
</g>
<g fill="#E472BE" fill-opacity="1.00" stroke="None">
<path d="
M 98.00 461.00 
C 99.77 461.70 101.97 462.34 104.00 463.00
C 108.20 460.30 103.84 448.58 105.00 443.00 C 106.16 437.42 104.48 427.54 105.00 421.00 C 105.52 414.46 104.77 405.96 105.00 399.00 C 105.23 392.04 104.91 384.14 105.00 377.00 C 105.09 369.86 105.00 362.19 105.00 355.00
C 105.00 352.94 105.81 348.86 105.00 347.00
C 67.04 325.16 54.47 279.54 68.00 240.00
C 63.76 236.86 59.28 234.12 55.00 231.00
C 57.08 236.26 49.32 244.77 49.98 250.98 C 50.63 257.18 45.58 264.97 47.00 272.00 C 48.42 279.03 47.48 287.04 50.02 293.98 C 52.57 300.91 51.58 305.28 55.70 312.31 C 59.81 319.33 59.08 320.06 64.75 328.25 C 70.42 336.43 79.97 346.86 87.77 353.23 C 95.57 359.60 94.51 361.16 97.00 369.00 C 99.50 376.84 98.10 383.42 99.00 391.00 C 99.90 398.58 98.85 408.87 99.00 416.00 C 99.15 423.13 99.60 434.11 99.00 440.00 C 98.40 445.89 101.32 460.10 98.00 461.00 Z"/>
</g>
<g fill="#FCFCFC" fill-opacity="1.00" stroke="None">
<path d="
M 229.00 353.00 
C 255.32 372.18 281.94 391.73 309.08 409.92 C 336.23 428.11 361.67 449.52 389.00 467.00
C 389.50 467.00 390.00 467.00 390.00 467.00
C 391.65 467.00 393.36 467.14 395.00 467.00
C 399.73 466.09 405.87 463.37 411.00 462.00
C 420.11 459.57 427.67 454.84 435.00 449.00
C 439.68 444.63 444.48 439.47 449.00 435.00
C 456.53 426.27 463.49 413.57 465.00 402.00
C 465.31 399.62 464.87 397.15 466.00 395.00
C 465.73 386.67 448.50 382.42 442.75 376.25 C 436.99 370.09 425.80 365.04 418.75 359.25 C 411.69 353.46 402.41 347.87 394.75 342.25 C 387.08 336.63 378.71 330.81 370.75 325.25 C 362.78 319.70 354.27 313.34 346.23 307.77 C 338.19 302.20 330.18 296.48 322.23 290.77 C 314.28 285.06 306.02 279.68 298.08 273.92 C 290.15 268.16 282.07 262.68 274.08 256.92 C 266.10 251.15 258.02 245.85 250.00 240.00
C 250.00 241.33 250.00 242.67 250.00 244.00
C 246.86 242.53 244.26 240.28 241.00 239.00
C 254.60 274.18 243.37 314.20 218.00 341.00
C 224.17 343.49 227.04 349.05 229.00 353.00 Z"/>
</g>
<g fill="#47D860" fill-opacity="0.76" stroke="None">
<path d="
M 467.00 282.00 
C 467.00 283.33 467.00 284.67 467.00 286.00
C 467.00 318.51 466.13 352.24 468.00 384.00
C 469.36 348.45 468.00 312.58 468.00 277.00
C 468.00 277.00 467.05 276.85 467.00 277.00
C 466.55 278.31 467.00 280.61 467.00 282.00 Z"/>
</g>
<g fill="#DCC306" fill-opacity="1.00" stroke="None">
<path d="
M 193.00 347.00 
C 191.99 349.32 193.00 354.43 193.00 357.00
C 193.00 365.98 192.74 375.02 193.00 384.00 C 193.26 392.98 192.33 403.15 193.00 412.00 C 193.67 420.85 191.41 430.52 193.00 439.00 C 194.59 447.48 189.58 459.30 193.00 467.00
C 193.16 466.77 194.50 467.00 195.00 467.00
C 201.68 462.35 196.52 449.56 198.00 442.00 C 199.48 434.44 196.64 422.08 197.00 414.00 C 197.36 405.92 196.83 392.76 197.00 385.00 C 197.17 377.24 198.19 365.56 200.78 359.78 C 203.36 353.99 206.17 343.57 213.00 343.00
C 211.08 341.60 208.82 337.98 206.00 338.00
C 202.20 341.18 197.36 344.49 193.00 347.00 Z"/>
</g>
<g fill="#FDDA05" fill-opacity="1.00" stroke="None">
<path d="
M 195.00 467.00 
C 259.67 467.00 324.33 467.00 389.00 467.00
C 361.67 449.52 336.23 428.11 309.08 409.92 C 281.94 391.73 255.32 372.18 229.00 353.00
C 224.18 349.48 217.82 346.52 213.00 343.00
C 206.17 343.57 203.36 353.99 200.78 359.78 C 198.19 365.56 197.17 377.24 197.00 385.00 C 196.83 392.76 197.36 405.92 197.00 414.00 C 196.64 422.08 199.48 434.44 198.00 442.00 C 196.52 449.56 201.68 462.35 195.00 467.00 Z"/>
</g>
<g fill="#DCDCDC" fill-opacity="1.00" stroke="None">
<path d="
M 105.00 355.00 
C 106.91 358.46 115.50 359.71 119.25 361.76 C 122.99 363.81 129.23 363.88 135.01 364.99 C 140.79 366.10 141.77 365.83 149.75 366.40 C 157.74 366.96 170.73 363.89 178.75 362.61 C 186.77 361.33 185.21 357.47 193.00 357.00
C 193.00 354.43 191.99 349.32 193.00 347.00
C 166.23 362.40 131.80 362.42 105.00 347.00
C 105.81 348.86 105.00 352.94 105.00 355.00 Z"/>
</g>
<g fill="#FAFAFA" fill-opacity="1.00" stroke="None">
<path d="
M 104.00 463.00 
C 109.95 464.93 115.08 466.86 122.00 467.00
C 138.65 467.33 155.34 467.00 172.00 467.00
C 178.90 467.00 186.13 466.38 193.00 467.00
C 189.58 459.30 194.59 447.48 193.00 439.00 C 191.41 430.52 193.67 420.85 193.00 412.00 C 192.33 403.15 193.26 392.98 193.00 384.00 C 192.74 375.02 193.00 365.98 193.00 357.00
C 185.21 357.47 186.77 361.33 178.75 362.61 C 170.73 363.89 157.74 366.96 149.75 366.40 C 141.77 365.83 140.79 366.10 135.01 364.99 C 129.23 363.88 122.99 363.81 119.25 361.76 C 115.50 359.71 106.91 358.46 105.00 355.00
C 105.00 362.19 105.09 369.86 105.00 377.00 C 104.91 384.14 105.23 392.04 105.00 399.00 C 104.77 405.96 105.52 414.46 105.00 421.00 C 104.48 427.54 106.16 437.42 105.00 443.00 C 103.84 448.58 108.20 460.30 104.00 463.00 Z"/>
</g>
<g fill="#B1EFB9" fill-opacity="0.61" stroke="None">
<path d="
M 465.00 402.00 
C 465.44 400.12 466.65 397.31 467.00 395.00
C 467.00 395.00 466.00 395.02 466.00 395.00
C 464.87 397.15 465.31 399.62 465.00 402.00 Z"/>
</g>
<g fill="#D2A5B2" fill-opacity="0.57" stroke="None">
<path d="
M 77.00 449.00 
C 72.48 444.43 67.59 439.59 63.00 435.00
C 67.47 440.23 71.72 444.44 77.00 449.00 Z"/>
</g>
<g fill="#CCF7CE" fill-opacity="0.66" stroke="None">
<path d="
M 435.00 449.00 
C 440.04 444.98 444.76 439.92 449.00 435.00
C 444.48 439.47 439.68 444.63 435.00 449.00 Z"/>
</g>
<g fill="#DEF2A1" fill-opacity="0.65" stroke="None">
<path d="
M 395.00 467.00 
C 400.71 466.51 406.06 463.84 411.00 462.00
C 405.87 463.37 399.73 466.09 395.00 467.00 Z"/>
</g>
<g fill="#BFEABF" fill-opacity="0.70" stroke="None">
<path d="
M 172.00 468.00 
C 171.96 468.00 172.00 467.00 172.00 467.00
C 155.34 467.00 138.65 467.33 122.00 467.00
C 137.66 468.89 155.51 468.00 172.00 468.00 Z"/>
</g>
<g fill="#E0E693" fill-opacity="0.87" stroke="None">
<path d="
M 172.00 468.00 
C 179.00 468.00 186.00 468.00 193.00 468.00
C 192.96 468.00 193.00 467.00 193.00 467.00
C 186.13 466.38 178.90 467.00 172.00 467.00
C 172.00 467.00 171.96 468.00 172.00 468.00 Z"/>
</g>
<g fill="#D0DA29" fill-opacity="0.74" stroke="None">
<path d="
M 193.00 468.00 
C 225.75 468.00 259.33 468.72 292.00 468.00 C 324.67 467.28 358.23 470.38 390.00 467.00
C 390.00 467.00 389.50 467.00 389.00 467.00
C 324.33 467.00 259.67 467.00 195.00 467.00
C 194.50 467.00 193.16 466.77 193.00 467.00
C 193.00 467.00 192.96 468.00 193.00 468.00 Z"/>
</g>
</svg>