<svg xmlns="http://www.w3.org/2000/svg" xmlns:v="https://svgstorm.com"
viewBox = "37 37 435 435">
<g fill="None" fill-opacity="0.0" stroke="#000000" stroke-opacity="0.00" stroke-width="0.3"><path d="
M 0.00 512.00 
L 512.00 512.00
L 512.00 0.00
L 0.00 0.00
L 0.00 512.00
M 453.00 83.00 
C 467.81 105.04 468.00 127.89 468.00 155.00
C 468.00 188.67 468.00 222.33 468.00 256.00
C 468.00 257.33 468.00 258.67 468.00 260.00
C 468.00 294.33 468.00 328.67 468.00 363.00
C 468.00 364.33 468.00 365.67 468.00 367.00
C 468.00 373.60 468.52 380.43 468.00 387.00
C 465.60 417.19 450.45 442.51 421.77 457.77 C 393.09 473.03 348.71 467.62 314.00 468.00 C 279.29 468.38 231.82 468.18 197.00 468.00 C 162.18 467.82 118.59 472.89 89.77 457.23 C 60.95 441.57 45.68 415.99 44.00 385.00
C 43.68 379.04 44.00 372.97 44.00 367.00
C 44.00 365.67 44.00 364.33 44.00 363.00
C 44.00 328.67 44.00 294.33 44.00 260.00
C 44.00 258.67 44.00 257.33 44.00 256.00
C 44.00 229.67 44.00 203.33 44.00 177.00
C 44.00 175.00 44.00 173.00 44.00 171.00
C 44.00 165.67 44.00 160.33 44.00 155.00
C 44.00 128.89 44.46 108.03 57.00 86.00
C 67.28 67.94 79.54 57.83 99.69 49.69 C 119.85 41.56 149.99 44.13 174.00 44.00 C 198.01 43.87 228.30 43.89 253.00 44.00 C 277.70 44.11 308.82 43.59 333.00 44.00 C 357.18 44.41 387.05 41.45 408.01 47.99 C 428.96 54.54 441.38 65.72 453.00 83.00 Z"/>
</g>
<g fill="None" fill-opacity="0.0" stroke="#FCDE5B" stroke-opacity="0.99" stroke-width="0.3"><path d="
M 57.00 86.00 
C 63.49 80.23 70.19 85.95 76.25 84.19 C 82.32 82.43 89.47 85.47 95.30 84.71 C 101.14 83.95 109.79 85.43 114.00 82.00
C 114.38 84.69 117.70 85.56 118.00 82.00
C 118.38 84.69 121.70 85.56 122.00 82.00
C 122.38 84.69 125.70 85.56 126.00 82.00
C 126.38 84.69 129.70 85.56 130.00 82.00
C 130.38 84.69 133.70 85.56 134.00 82.00
C 134.38 84.69 137.70 85.56 138.00 82.00
C 138.38 84.69 141.70 85.56 142.00 82.00
C 142.38 84.69 145.70 85.56 146.00 82.00
C 146.38 84.69 149.70 85.56 150.00 82.00
C 150.38 84.69 153.70 85.56 154.00 82.00
C 154.38 84.69 157.70 85.56 158.00 82.00
C 158.38 84.69 161.70 85.56 162.00 82.00
C 162.38 84.69 165.70 85.56 166.00 82.00
C 166.38 84.69 169.70 85.56 170.00 82.00
C 170.38 84.69 173.70 85.56 174.00 82.00
C 174.38 84.69 177.70 85.56 178.00 82.00
C 178.38 84.69 181.70 85.56 182.00 82.00
C 182.38 84.69 185.70 85.56 186.00 82.00
C 186.38 84.69 189.70 85.56 190.00 82.00
C 190.38 84.69 193.70 85.56 194.00 82.00
C 194.38 84.69 197.70 85.56 198.00 82.00
C 198.38 84.69 201.70 85.56 202.00 82.00
C 202.38 84.69 205.70 85.56 206.00 82.00
C 206.38 84.69 209.70 85.56 210.00 82.00
C 210.38 84.69 213.70 85.56 214.00 82.00
C 214.38 84.69 217.70 85.56 218.00 82.00
C 218.38 84.69 221.70 85.56 222.00 82.00
C 222.38 84.69 225.70 85.56 226.00 82.00
C 226.38 84.69 229.70 85.56 230.00 82.00
C 230.38 84.69 233.70 85.56 234.00 82.00
C 234.38 84.69 237.70 85.56 238.00 82.00
C 238.38 84.69 241.70 85.56 242.00 82.00
C 242.38 84.69 245.70 85.56 246.00 82.00
C 246.38 84.69 249.70 85.56 250.00 82.00
C 250.38 84.69 253.70 85.56 254.00 82.00
C 254.38 84.69 257.70 85.56 258.00 82.00
C 258.38 84.69 261.70 85.56 262.00 82.00
C 262.38 84.69 265.70 85.56 266.00 82.00
C 266.38 84.69 269.70 85.56 270.00 82.00
C 270.38 84.69 273.70 85.56 274.00 82.00
C 274.38 84.69 277.70 85.56 278.00 82.00
C 278.38 84.69 281.70 85.56 282.00 82.00
C 282.38 84.69 285.70 85.56 286.00 82.00
C 286.38 84.69 289.70 85.56 290.00 82.00
C 290.38 84.69 293.70 85.56 294.00 82.00
C 312.30 83.72 329.53 83.62 347.30 83.72 C 365.08 83.82 383.19 82.84 400.75 83.39 C 418.32 83.94 437.75 82.62 453.00 83.00
C 441.38 65.72 428.96 54.54 408.01 47.99 C 387.05 41.45 357.18 44.41 333.00 44.00 C 308.82 43.59 277.70 44.11 253.00 44.00 C 228.30 43.89 198.01 43.87 174.00 44.00 C 149.99 44.13 119.85 41.56 99.69 49.69 C 79.54 57.83 67.28 67.94 57.00 86.00 Z"/>
</g>
<g fill="None" fill-opacity="0.0" stroke="#FCD12C" stroke-opacity="1.00" stroke-width="0.3"><path d="
M 57.00 86.00 
C 44.46 108.03 44.00 128.89 44.00 155.00
C 44.00 154.96 45.00 155.00 45.00 155.00
C 45.50 155.00 46.50 155.00 47.00 155.00
C 186.33 155.00 325.67 155.00 465.00 155.00
C 465.50 155.00 466.50 155.00 467.00 155.00
C 467.50 155.00 468.00 155.00 468.00 155.00
C 468.00 127.89 467.81 105.04 453.00 83.00
C 437.75 82.62 418.32 83.94 400.75 83.39 C 383.19 82.84 365.08 83.82 347.30 83.72 C 329.53 83.62 312.30 83.72 294.00 82.00
C 293.70 85.56 290.38 84.69 290.00 82.00
C 289.70 85.56 286.38 84.69 286.00 82.00
C 285.70 85.56 282.38 84.69 282.00 82.00
C 281.70 85.56 278.38 84.69 278.00 82.00
C 277.70 85.56 274.38 84.69 274.00 82.00
C 273.70 85.56 270.38 84.69 270.00 82.00
C 269.70 85.56 266.38 84.69 266.00 82.00
C 265.70 85.56 262.38 84.69 262.00 82.00
C 261.70 85.56 258.38 84.69 258.00 82.00
C 257.70 85.56 254.38 84.69 254.00 82.00
C 253.70 85.56 250.38 84.69 250.00 82.00
C 249.70 85.56 246.38 84.69 246.00 82.00
C 245.70 85.56 242.38 84.69 242.00 82.00
C 241.70 85.56 238.38 84.69 238.00 82.00
C 237.70 85.56 234.38 84.69 234.00 82.00
C 233.70 85.56 230.38 84.69 230.00 82.00
C 229.70 85.56 226.38 84.69 226.00 82.00
C 225.70 85.56 222.38 84.69 222.00 82.00
C 221.70 85.56 218.38 84.69 218.00 82.00
C 217.70 85.56 214.38 84.69 214.00 82.00
C 213.70 85.56 210.38 84.69 210.00 82.00
C 209.70 85.56 206.38 84.69 206.00 82.00
C 205.70 85.56 202.38 84.69 202.00 82.00
C 201.70 85.56 198.38 84.69 198.00 82.00
C 197.70 85.56 194.38 84.69 194.00 82.00
C 193.70 85.56 190.38 84.69 190.00 82.00
C 189.70 85.56 186.38 84.69 186.00 82.00
C 185.70 85.56 182.38 84.69 182.00 82.00
C 181.70 85.56 178.38 84.69 178.00 82.00
C 177.70 85.56 174.38 84.69 174.00 82.00
C 173.70 85.56 170.38 84.69 170.00 82.00
C 169.70 85.56 166.38 84.69 166.00 82.00
C 165.70 85.56 162.38 84.69 162.00 82.00
C 161.70 85.56 158.38 84.69 158.00 82.00
C 157.70 85.56 154.38 84.69 154.00 82.00
C 153.70 85.56 150.38 84.69 150.00 82.00
C 149.70 85.56 146.38 84.69 146.00 82.00
C 145.70 85.56 142.38 84.69 142.00 82.00
C 141.70 85.56 138.38 84.69 138.00 82.00
C 137.70 85.56 134.38 84.69 134.00 82.00
C 133.70 85.56 130.38 84.69 130.00 82.00
C 129.70 85.56 126.38 84.69 126.00 82.00
C 125.70 85.56 122.38 84.69 122.00 82.00
C 121.70 85.56 118.38 84.69 118.00 82.00
C 117.70 85.56 114.38 84.69 114.00 82.00
C 109.79 85.43 101.14 83.95 95.30 84.71 C 89.47 85.47 82.32 82.43 76.25 84.19 C 70.19 85.95 63.49 80.23 57.00 86.00 Z"/>
</g>
<g fill="None" fill-opacity="0.0" stroke="#DDDFDB" stroke-opacity="0.53" stroke-width="0.3"><path d="
M 44.00 171.00 
C 44.17 169.24 44.98 166.43 45.00 164.00
C 45.01 162.33 45.00 160.67 45.00 159.00
C 45.00 158.15 45.43 155.71 45.00 155.00
C 45.00 155.00 44.00 154.96 44.00 155.00
C 44.00 160.33 44.00 165.67 44.00 171.00 Z"/>
</g>
<g fill="None" fill-opacity="0.0" stroke="#BDBEBA" stroke-opacity="1.00" stroke-width="0.3"><path d="
M 45.00 159.00 
C 47.31 165.42 60.85 161.01 67.00 162.00 C 73.15 162.99 84.64 161.55 92.00 162.00 C 99.36 162.45 109.09 161.80 117.00 162.00 C 124.91 162.20 133.82 161.91 142.00 162.00 C 150.18 162.09 158.65 161.96 167.00 162.00 C 175.35 162.04 184.61 161.98 193.00 162.00 C 201.39 162.02 209.64 161.99 218.00 162.00 C 226.36 162.01 234.65 162.00 243.00 162.00 C 251.35 162.00 259.65 162.00 268.00 162.00 C 276.35 162.00 284.64 162.01 293.00 162.00 C 301.36 161.99 309.61 162.02 318.00 162.00 C 326.39 161.98 335.65 162.04 344.00 162.00 C 352.35 161.96 360.82 162.10 369.00 162.00 C 377.18 161.90 386.09 162.22 394.00 162.00 C 401.91 161.78 411.65 162.49 419.00 162.00 C 426.35 161.51 437.86 163.08 444.00 162.00 C 450.14 160.92 464.64 165.54 467.00 159.00
C 467.00 158.15 466.57 155.71 467.00 155.00
C 466.50 155.00 465.50 155.00 465.00 155.00
C 452.69 164.86 432.24 157.20 416.00 159.00 C 399.76 160.80 380.04 158.22 363.00 159.00 C 345.96 159.78 327.42 158.72 310.00 159.00 C 292.58 159.28 273.51 159.00 256.00 159.00 C 238.49 159.00 220.37 159.31 203.00 159.00 C 185.63 158.69 167.05 159.82 150.00 159.00 C 132.95 158.18 113.30 160.88 97.00 159.00 C 80.70 157.12 59.40 164.94 47.00 155.00
C 46.50 155.00 45.50 155.00 45.00 155.00
C 45.43 155.71 45.00 158.15 45.00 159.00 Z"/>
</g>
<g fill="None" fill-opacity="0.0" stroke="#A3A4A1" stroke-opacity="1.00" stroke-width="0.3"><path d="
M 465.00 155.00 
C 325.67 155.00 186.33 155.00 47.00 155.00
C 59.40 164.94 80.70 157.12 97.00 159.00 C 113.30 160.88 132.95 158.18 150.00 159.00 C 167.05 159.82 185.63 158.69 203.00 159.00 C 220.37 159.31 238.49 159.00 256.00 159.00 C 273.51 159.00 292.58 159.28 310.00 159.00 C 327.42 158.72 345.96 159.78 363.00 159.00 C 380.04 158.22 399.76 160.80 416.00 159.00 C 432.24 157.20 452.69 164.86 465.00 155.00 Z"/>
</g>
<g fill="None" fill-opacity="0.0" stroke="#EBECE7" stroke-opacity="0.51" stroke-width="0.3"><path d="
M 467.00 159.00 
C 467.00 160.67 467.00 162.33 467.00 164.00
C 467.00 194.24 464.27 225.90 467.00 256.00
C 467.50 256.00 468.00 256.00 468.00 256.00
C 468.00 222.33 468.00 188.67 468.00 155.00
C 468.00 155.00 467.50 155.00 467.00 155.00
C 466.57 155.71 467.00 158.15 467.00 159.00 Z"/>
</g>
<g fill="None" fill-opacity="0.0" stroke="#D6D7D3" stroke-opacity="1.00" stroke-width="0.3"><path d="
M 45.00 164.00 
C 47.10 168.95 58.89 165.05 64.00 166.00 C 69.11 166.95 78.80 165.58 85.00 166.00 C 91.20 166.42 99.26 165.82 106.00 166.00 C 112.74 166.18 121.05 165.91 128.00 166.00 C 134.95 166.09 141.98 165.96 149.00 166.00 C 156.02 166.04 162.90 165.98 170.00 166.00 C 177.10 166.02 184.89 165.99 192.00 166.00 C 199.11 166.01 205.91 166.00 213.00 166.00 C 220.09 166.00 226.88 166.00 234.00 166.00 C 241.12 166.00 248.88 166.00 256.00 166.00 C 263.12 166.00 269.93 166.00 277.00 166.00 C 284.07 166.00 290.94 166.00 298.00 166.00 C 305.06 166.00 311.90 166.01 319.00 166.00 C 326.10 165.99 333.91 166.02 341.00 166.00 C 348.09 165.98 354.99 166.04 362.00 166.00 C 369.01 165.96 376.06 166.10 383.00 166.00 C 389.94 165.90 398.26 166.20 405.00 166.00 C 411.74 165.80 419.81 166.47 426.00 166.00 C 432.19 165.53 441.91 167.05 447.00 166.00 C 452.09 164.95 464.86 169.06 467.00 164.00
C 467.00 162.33 467.00 160.67 467.00 159.00
C 464.64 165.54 450.14 160.92 444.00 162.00 C 437.86 163.08 426.35 161.51 419.00 162.00 C 411.65 162.49 401.91 161.78 394.00 162.00 C 386.09 162.22 377.18 161.90 369.00 162.00 C 360.82 162.10 352.35 161.96 344.00 162.00 C 335.65 162.04 326.39 161.98 318.00 162.00 C 309.61 162.02 301.36 161.99 293.00 162.00 C 284.64 162.01 276.35 162.00 268.00 162.00 C 259.65 162.00 251.35 162.00 243.00 162.00 C 234.65 162.00 226.36 162.01 218.00 162.00 C 209.64 161.99 201.39 162.02 193.00 162.00 C 184.61 161.98 175.35 162.04 167.00 162.00 C 158.65 161.96 150.18 162.09 142.00 162.00 C 133.82 161.91 124.91 162.20 117.00 162.00 C 109.09 161.80 99.36 162.45 92.00 162.00 C 84.64 161.55 73.15 162.99 67.00 162.00 C 60.85 161.01 47.31 165.42 45.00 159.00
C 45.00 160.67 45.01 162.33 45.00 164.00 Z"/>
</g>
<g fill="None" fill-opacity="0.0" stroke="#EFF0EB" stroke-opacity="1.00" stroke-width="0.3"><path d="
M 44.00 171.00 
C 44.00 173.00 44.00 175.00 44.00 177.00
C 46.37 201.47 47.28 230.81 45.00 256.00
C 185.67 255.94 326.33 256.00 467.00 256.00
C 464.27 225.90 467.00 194.24 467.00 164.00
C 464.86 169.06 452.09 164.95 447.00 166.00 C 441.91 167.05 432.19 165.53 426.00 166.00 C 419.81 166.47 411.74 165.80 405.00 166.00 C 398.26 166.20 389.94 165.90 383.00 166.00 C 376.06 166.10 369.01 165.96 362.00 166.00 C 354.99 166.04 348.09 165.98 341.00 166.00 C 333.91 166.02 326.10 165.99 319.00 166.00 C 311.90 166.01 305.06 166.00 298.00 166.00 C 290.94 166.00 284.07 166.00 277.00 166.00 C 269.93 166.00 263.12 166.00 256.00 166.00 C 248.88 166.00 241.12 166.00 234.00 166.00 C 226.88 166.00 220.09 166.00 213.00 166.00 C 205.91 166.00 199.11 166.01 192.00 166.00 C 184.89 165.99 177.10 166.02 170.00 166.00 C 162.90 165.98 156.02 166.04 149.00 166.00 C 141.98 165.96 134.95 166.09 128.00 166.00 C 121.05 165.91 112.74 166.18 106.00 166.00 C 99.26 165.82 91.20 166.42 85.00 166.00 C 78.80 165.58 69.11 166.95 64.00 166.00 C 58.89 165.05 47.10 168.95 45.00 164.00
C 44.98 166.43 44.17 169.24 44.00 171.00
M 67.00 170.00 
C 71.33 171.86 68.10 180.10 63.33 177.67 C 58.55 175.24 62.28 167.97 67.00 170.00
M 85.00 170.00 
C 89.33 171.86 86.10 180.10 81.33 177.67 C 76.55 175.24 80.28 167.97 85.00 170.00
M 103.00 170.00 
C 107.33 171.86 104.10 180.10 99.33 177.67 C 94.55 175.24 98.28 167.97 103.00 170.00
M 121.00 170.00 
C 125.33 171.86 122.10 180.10 117.33 177.67 C 112.55 175.24 116.28 167.97 121.00 170.00
M 139.00 170.00 
C 143.33 171.86 140.10 180.10 135.33 177.67 C 130.55 175.24 134.28 167.97 139.00 170.00
M 157.00 170.00 
C 161.33 171.86 158.10 180.10 153.33 177.67 C 148.55 175.24 152.28 167.97 157.00 170.00
M 175.00 170.00 
C 179.33 171.86 176.10 180.10 171.33 177.67 C 166.55 175.24 170.28 167.97 175.00 170.00
M 193.00 170.00 
C 197.33 171.86 194.10 180.10 189.33 177.67 C 184.55 175.24 188.28 167.97 193.00 170.00
M 211.00 170.00 
C 215.33 171.86 212.10 180.10 207.33 177.67 C 202.55 175.24 206.28 167.97 211.00 170.00
M 229.00 170.00 
C 233.33 171.86 230.10 180.10 225.33 177.67 C 220.55 175.24 224.28 167.97 229.00 170.00
M 247.00 170.00 
C 251.33 171.86 248.10 180.10 243.33 177.67 C 238.55 175.24 242.28 167.97 247.00 170.00
M 265.00 170.00 
C 269.33 171.86 266.10 180.10 261.33 177.67 C 256.55 175.24 260.28 167.97 265.00 170.00
M 283.00 170.00 
C 287.33 171.86 284.10 180.10 279.33 177.67 C 274.55 175.24 278.28 167.97 283.00 170.00
M 301.00 170.00 
C 305.33 171.86 302.10 180.10 297.33 177.67 C 292.55 175.24 296.28 167.97 301.00 170.00
M 319.00 170.00 
C 323.33 171.86 320.10 180.10 315.33 177.67 C 310.55 175.24 314.28 167.97 319.00 170.00
M 337.00 170.00 
C 341.33 171.86 338.10 180.10 333.33 177.67 C 328.55 175.24 332.28 167.97 337.00 170.00
M 355.00 170.00 
C 359.33 171.86 356.10 180.10 351.33 177.67 C 346.55 175.24 350.28 167.97 355.00 170.00
M 373.00 170.00 
C 377.33 171.86 374.10 180.10 369.33 177.67 C 364.55 175.24 368.28 167.97 373.00 170.00
M 391.00 170.00 
C 395.33 171.86 392.10 180.10 387.33 177.67 C 382.55 175.24 386.28 167.97 391.00 170.00
M 409.00 170.00 
C 413.33 171.86 410.10 180.10 405.33 177.67 C 400.55 175.24 404.28 167.97 409.00 170.00
M 427.00 170.00 
C 431.33 171.86 428.10 180.10 423.33 177.67 C 418.55 175.24 422.28 167.97 427.00 170.00
M 445.00 170.00 
C 449.33 171.86 446.10 180.10 441.33 177.67 C 436.55 175.24 440.28 167.97 445.00 170.00
M 463.00 170.00 
C 467.33 171.86 464.10 180.10 459.33 177.67 C 454.55 175.24 458.28 167.97 463.00 170.00 Z"/>
</g>
<g fill="None" fill-opacity="0.0" stroke="#CDCDCD" stroke-opacity="1.00" stroke-width="0.3"><path d="
M 67.00 170.00 
C 62.28 167.97 58.55 175.24 63.33 177.67 C 68.10 180.10 71.33 171.86 67.00 170.00 Z"/>
</g>
<g fill="None" fill-opacity="0.0" stroke="#CDCDCD" stroke-opacity="1.00" stroke-width="0.3"><path d="
M 85.00 170.00 
C 80.28 167.97 76.55 175.24 81.33 177.67 C 86.10 180.10 89.33 171.86 85.00 170.00 Z"/>
</g>
<g fill="None" fill-opacity="0.0" stroke="#CDCDCD" stroke-opacity="1.00" stroke-width="0.3"><path d="
M 103.00 170.00 
C 98.28 167.97 94.55 175.24 99.33 177.67 C 104.10 180.10 107.33 171.86 103.00 170.00 Z"/>
</g>
<g fill="None" fill-opacity="0.0" stroke="#CDCDCD" stroke-opacity="1.00" stroke-width="0.3"><path d="
M 121.00 170.00 
C 116.28 167.97 112.55 175.24 117.33 177.67 C 122.10 180.10 125.33 171.86 121.00 170.00 Z"/>
</g>
<g fill="None" fill-opacity="0.0" stroke="#CDCDCD" stroke-opacity="1.00" stroke-width="0.3"><path d="
M 139.00 170.00 
C 134.28 167.97 130.55 175.24 135.33 177.67 C 140.10 180.10 143.33 171.86 139.00 170.00 Z"/>
</g>
<g fill="None" fill-opacity="0.0" stroke="#CDCDCD" stroke-opacity="1.00" stroke-width="0.3"><path d="
M 157.00 170.00 
C 152.28 167.97 148.55 175.24 153.33 177.67 C 158.10 180.10 161.33 171.86 157.00 170.00 Z"/>
</g>
<g fill="None" fill-opacity="0.0" stroke="#CDCDCD" stroke-opacity="1.00" stroke-width="0.3"><path d="
M 175.00 170.00 
C 170.28 167.97 166.55 175.24 171.33 177.67 C 176.10 180.10 179.33 171.86 175.00 170.00 Z"/>
</g>
<g fill="None" fill-opacity="0.0" stroke="#CDCDCD" stroke-opacity="1.00" stroke-width="0.3"><path d="
M 193.00 170.00 
C 188.28 167.97 184.55 175.24 189.33 177.67 C 194.10 180.10 197.33 171.86 193.00 170.00 Z"/>
</g>
<g fill="None" fill-opacity="0.0" stroke="#CDCDCD" stroke-opacity="1.00" stroke-width="0.3"><path d="
M 211.00 170.00 
C 206.28 167.97 202.55 175.24 207.33 177.67 C 212.10 180.10 215.33 171.86 211.00 170.00 Z"/>
</g>
<g fill="None" fill-opacity="0.0" stroke="#CDCDCD" stroke-opacity="1.00" stroke-width="0.3"><path d="
M 229.00 170.00 
C 224.28 167.97 220.55 175.24 225.33 177.67 C 230.10 180.10 233.33 171.86 229.00 170.00 Z"/>
</g>
<g fill="None" fill-opacity="0.0" stroke="#CDCDCD" stroke-opacity="1.00" stroke-width="0.3"><path d="
M 247.00 170.00 
C 242.28 167.97 238.55 175.24 243.33 177.67 C 248.10 180.10 251.33 171.86 247.00 170.00 Z"/>
</g>
<g fill="None" fill-opacity="0.0" stroke="#CDCDCD" stroke-opacity="1.00" stroke-width="0.3"><path d="
M 265.00 170.00 
C 260.28 167.97 256.55 175.24 261.33 177.67 C 266.10 180.10 269.33 171.86 265.00 170.00 Z"/>
</g>
<g fill="None" fill-opacity="0.0" stroke="#CDCDCD" stroke-opacity="1.00" stroke-width="0.3"><path d="
M 283.00 170.00 
C 278.28 167.97 274.55 175.24 279.33 177.67 C 284.10 180.10 287.33 171.86 283.00 170.00 Z"/>
</g>
<g fill="None" fill-opacity="0.0" stroke="#CDCDCD" stroke-opacity="1.00" stroke-width="0.3"><path d="
M 301.00 170.00 
C 296.28 167.97 292.55 175.24 297.33 177.67 C 302.10 180.10 305.33 171.86 301.00 170.00 Z"/>
</g>
<g fill="None" fill-opacity="0.0" stroke="#CDCDCD" stroke-opacity="1.00" stroke-width="0.3"><path d="
M 319.00 170.00 
C 314.28 167.97 310.55 175.24 315.33 177.67 C 320.10 180.10 323.33 171.86 319.00 170.00 Z"/>
</g>
<g fill="None" fill-opacity="0.0" stroke="#CDCDCD" stroke-opacity="1.00" stroke-width="0.3"><path d="
M 337.00 170.00 
C 332.28 167.97 328.55 175.24 333.33 177.67 C 338.10 180.10 341.33 171.86 337.00 170.00 Z"/>
</g>
<g fill="None" fill-opacity="0.0" stroke="#CDCDCD" stroke-opacity="1.00" stroke-width="0.3"><path d="
M 355.00 170.00 
C 350.28 167.97 346.55 175.24 351.33 177.67 C 356.10 180.10 359.33 171.86 355.00 170.00 Z"/>
</g>
<g fill="None" fill-opacity="0.0" stroke="#CDCDCD" stroke-opacity="1.00" stroke-width="0.3"><path d="
M 373.00 170.00 
C 368.28 167.97 364.55 175.24 369.33 177.67 C 374.10 180.10 377.33 171.86 373.00 170.00 Z"/>
</g>
<g fill="None" fill-opacity="0.0" stroke="#CDCDCD" stroke-opacity="1.00" stroke-width="0.3"><path d="
M 391.00 170.00 
C 386.28 167.97 382.55 175.24 387.33 177.67 C 392.10 180.10 395.33 171.86 391.00 170.00 Z"/>
</g>
<g fill="None" fill-opacity="0.0" stroke="#CDCDCD" stroke-opacity="1.00" stroke-width="0.3"><path d="
M 409.00 170.00 
C 404.28 167.97 400.55 175.24 405.33 177.67 C 410.10 180.10 413.33 171.86 409.00 170.00 Z"/>
</g>
<g fill="None" fill-opacity="0.0" stroke="#CDCDCD" stroke-opacity="1.00" stroke-width="0.3"><path d="
M 427.00 170.00 
C 422.28 167.97 418.55 175.24 423.33 177.67 C 428.10 180.10 431.33 171.86 427.00 170.00 Z"/>
</g>
<g fill="None" fill-opacity="0.0" stroke="#CDCDCD" stroke-opacity="1.00" stroke-width="0.3"><path d="
M 445.00 170.00 
C 440.28 167.97 436.55 175.24 441.33 177.67 C 446.10 180.10 449.33 171.86 445.00 170.00 Z"/>
</g>
<g fill="None" fill-opacity="0.0" stroke="#CDCDCD" stroke-opacity="1.00" stroke-width="0.3"><path d="
M 463.00 170.00 
C 458.28 167.97 454.55 175.24 459.33 177.67 C 464.10 180.10 467.33 171.86 463.00 170.00 Z"/>
</g>
<g fill="None" fill-opacity="0.0" stroke="#EFF0EB" stroke-opacity="0.50" stroke-width="0.3"><path d="
M 44.00 256.00 
C 44.13 255.78 45.00 256.00 45.00 256.00
C 47.28 230.81 46.37 201.47 44.00 177.00
C 44.00 203.33 44.00 229.67 44.00 256.00 Z"/>
</g>
<g fill="None" fill-opacity="0.0" stroke="#CFD0CB" stroke-opacity="1.00" stroke-width="0.3"><path d="
M 44.00 260.00 
C 44.13 260.22 45.00 260.00 45.00 260.00
C 185.67 260.00 326.33 259.97 467.00 260.00
C 467.50 260.00 468.00 260.00 468.00 260.00
C 468.00 258.67 468.00 257.33 468.00 256.00
C 468.00 256.00 467.50 256.00 467.00 256.00
C 326.33 256.00 185.67 255.94 45.00 256.00
C 45.00 256.00 44.13 255.78 44.00 256.00
C 44.00 257.33 44.00 258.67 44.00 260.00 Z"/>
</g>
<g fill="None" fill-opacity="0.0" stroke="#ECECE6" stroke-opacity="0.50" stroke-width="0.3"><path d="
M 44.00 363.00 
C 44.13 362.78 45.00 363.00 45.00 363.00
C 46.52 346.19 45.04 328.94 45.00 312.00 C 44.96 295.06 46.53 276.90 45.00 260.00
C 45.00 260.00 44.13 260.22 44.00 260.00
C 44.00 294.33 44.00 328.67 44.00 363.00 Z"/>
</g>
<g fill="None" fill-opacity="0.0" stroke="#ECEDE7" stroke-opacity="1.00" stroke-width="0.3"><path d="
M 45.00 363.00 
C 185.67 362.94 326.33 363.00 467.00 363.00
C 465.48 346.19 466.96 328.94 467.00 312.00 C 467.04 295.06 465.47 276.90 467.00 260.00
C 326.33 259.97 185.67 260.00 45.00 260.00
C 46.53 276.90 44.96 295.06 45.00 312.00 C 45.04 328.94 46.52 346.19 45.00 363.00 Z"/>
</g>
<g fill="None" fill-opacity="0.0" stroke="#EBEBE5" stroke-opacity="0.50" stroke-width="0.3"><path d="
M 467.00 363.00 
C 467.50 363.00 468.00 363.00 468.00 363.00
C 468.00 328.67 468.00 294.33 468.00 260.00
C 468.00 260.00 467.50 260.00 467.00 260.00
C 465.47 276.90 467.04 295.06 467.00 312.00 C 466.96 328.94 465.48 346.19 467.00 363.00 Z"/>
</g>
<g fill="None" fill-opacity="0.0" stroke="#CFD0CB" stroke-opacity="1.00" stroke-width="0.3"><path d="
M 44.00 367.00 
C 44.13 367.22 45.00 367.00 45.00 367.00
C 185.67 367.00 326.33 366.96 467.00 367.00
C 467.50 367.00 468.00 367.00 468.00 367.00
C 468.00 365.67 468.00 364.33 468.00 363.00
C 468.00 363.00 467.50 363.00 467.00 363.00
C 326.33 363.00 185.67 362.94 45.00 363.00
C 45.00 363.00 44.13 362.78 44.00 363.00
C 44.00 364.33 44.00 365.67 44.00 367.00 Z"/>
</g>
<g fill="None" fill-opacity="0.0" stroke="#EAEBE3" stroke-opacity="0.49" stroke-width="0.3"><path d="
M 44.00 385.00 
C 44.22 379.74 45.54 373.00 45.00 367.00
C 45.00 367.00 44.13 367.22 44.00 367.00
C 44.00 372.97 43.68 379.04 44.00 385.00 Z"/>
</g>
<g fill="None" fill-opacity="0.0" stroke="#E9E9E2" stroke-opacity="0.99" stroke-width="0.3"><path d="
M 44.00 385.00 
C 45.68 415.99 60.95 441.57 89.77 457.23 C 118.59 472.89 162.18 467.82 197.00 468.00 C 231.82 468.18 279.29 468.38 314.00 468.00 C 348.71 467.62 393.09 473.03 421.77 457.77 C 450.45 442.51 465.60 417.19 468.00 387.00
C 467.90 381.13 466.40 373.63 467.00 367.00
C 326.33 366.96 185.67 367.00 45.00 367.00
C 45.54 373.00 44.22 379.74 44.00 385.00 Z"/>
</g>
<g fill="None" fill-opacity="0.0" stroke="#E9E9E2" stroke-opacity="0.48" stroke-width="0.3"><path d="
M 468.00 387.00 
C 468.52 380.43 468.00 373.60 468.00 367.00
C 468.00 367.00 467.50 367.00 467.00 367.00
C 466.40 373.63 467.90 381.13 468.00 387.00 Z"/>
</g>
<g fill="#000000" fill-opacity="0.00" stroke="None">
<path d="
M 0.00 512.00 
L 512.00 512.00
L 512.00 0.00
L 0.00 0.00
L 0.00 512.00
M 453.00 83.00 
C 467.81 105.04 468.00 127.89 468.00 155.00
C 468.00 188.67 468.00 222.33 468.00 256.00
C 468.00 257.33 468.00 258.67 468.00 260.00
C 468.00 294.33 468.00 328.67 468.00 363.00
C 468.00 364.33 468.00 365.67 468.00 367.00
C 468.00 373.60 468.52 380.43 468.00 387.00
C 465.60 417.19 450.45 442.51 421.77 457.77 C 393.09 473.03 348.71 467.62 314.00 468.00 C 279.29 468.38 231.82 468.18 197.00 468.00 C 162.18 467.82 118.59 472.89 89.77 457.23 C 60.95 441.57 45.68 415.99 44.00 385.00
C 43.68 379.04 44.00 372.97 44.00 367.00
C 44.00 365.67 44.00 364.33 44.00 363.00
C 44.00 328.67 44.00 294.33 44.00 260.00
C 44.00 258.67 44.00 257.33 44.00 256.00
C 44.00 229.67 44.00 203.33 44.00 177.00
C 44.00 175.00 44.00 173.00 44.00 171.00
C 44.00 165.67 44.00 160.33 44.00 155.00
C 44.00 128.89 44.46 108.03 57.00 86.00
C 67.28 67.94 79.54 57.83 99.69 49.69 C 119.85 41.56 149.99 44.13 174.00 44.00 C 198.01 43.87 228.30 43.89 253.00 44.00 C 277.70 44.11 308.82 43.59 333.00 44.00 C 357.18 44.41 387.05 41.45 408.01 47.99 C 428.96 54.54 441.38 65.72 453.00 83.00 Z"/>
</g>
<g fill="#FCDE5B" fill-opacity="0.99" stroke="None">
<path d="
M 57.00 86.00 
C 63.49 80.23 70.19 85.95 76.25 84.19 C 82.32 82.43 89.47 85.47 95.30 84.71 C 101.14 83.95 109.79 85.43 114.00 82.00
C 114.38 84.69 117.70 85.56 118.00 82.00
C 118.38 84.69 121.70 85.56 122.00 82.00
C 122.38 84.69 125.70 85.56 126.00 82.00
C 126.38 84.69 129.70 85.56 130.00 82.00
C 130.38 84.69 133.70 85.56 134.00 82.00
C 134.38 84.69 137.70 85.56 138.00 82.00
C 138.38 84.69 141.70 85.56 142.00 82.00
C 142.38 84.69 145.70 85.56 146.00 82.00
C 146.38 84.69 149.70 85.56 150.00 82.00
C 150.38 84.69 153.70 85.56 154.00 82.00
C 154.38 84.69 157.70 85.56 158.00 82.00
C 158.38 84.69 161.70 85.56 162.00 82.00
C 162.38 84.69 165.70 85.56 166.00 82.00
C 166.38 84.69 169.70 85.56 170.00 82.00
C 170.38 84.69 173.70 85.56 174.00 82.00
C 174.38 84.69 177.70 85.56 178.00 82.00
C 178.38 84.69 181.70 85.56 182.00 82.00
C 182.38 84.69 185.70 85.56 186.00 82.00
C 186.38 84.69 189.70 85.56 190.00 82.00
C 190.38 84.69 193.70 85.56 194.00 82.00
C 194.38 84.69 197.70 85.56 198.00 82.00
C 198.38 84.69 201.70 85.56 202.00 82.00
C 202.38 84.69 205.70 85.56 206.00 82.00
C 206.38 84.69 209.70 85.56 210.00 82.00
C 210.38 84.69 213.70 85.56 214.00 82.00
C 214.38 84.69 217.70 85.56 218.00 82.00
C 218.38 84.69 221.70 85.56 222.00 82.00
C 222.38 84.69 225.70 85.56 226.00 82.00
C 226.38 84.69 229.70 85.56 230.00 82.00
C 230.38 84.69 233.70 85.56 234.00 82.00
C 234.38 84.69 237.70 85.56 238.00 82.00
C 238.38 84.69 241.70 85.56 242.00 82.00
C 242.38 84.69 245.70 85.56 246.00 82.00
C 246.38 84.69 249.70 85.56 250.00 82.00
C 250.38 84.69 253.70 85.56 254.00 82.00
C 254.38 84.69 257.70 85.56 258.00 82.00
C 258.38 84.69 261.70 85.56 262.00 82.00
C 262.38 84.69 265.70 85.56 266.00 82.00
C 266.38 84.69 269.70 85.56 270.00 82.00
C 270.38 84.69 273.70 85.56 274.00 82.00
C 274.38 84.69 277.70 85.56 278.00 82.00
C 278.38 84.69 281.70 85.56 282.00 82.00
C 282.38 84.69 285.70 85.56 286.00 82.00
C 286.38 84.69 289.70 85.56 290.00 82.00
C 290.38 84.69 293.70 85.56 294.00 82.00
C 312.30 83.72 329.53 83.62 347.30 83.72 C 365.08 83.82 383.19 82.84 400.75 83.39 C 418.32 83.94 437.75 82.62 453.00 83.00
C 441.38 65.72 428.96 54.54 408.01 47.99 C 387.05 41.45 357.18 44.41 333.00 44.00 C 308.82 43.59 277.70 44.11 253.00 44.00 C 228.30 43.89 198.01 43.87 174.00 44.00 C 149.99 44.13 119.85 41.56 99.69 49.69 C 79.54 57.83 67.28 67.94 57.00 86.00 Z"/>
</g>
<g fill="#FCD12C" fill-opacity="1.00" stroke="None">
<path d="
M 57.00 86.00 
C 44.46 108.03 44.00 128.89 44.00 155.00
C 44.00 154.96 45.00 155.00 45.00 155.00
C 45.50 155.00 46.50 155.00 47.00 155.00
C 186.33 155.00 325.67 155.00 465.00 155.00
C 465.50 155.00 466.50 155.00 467.00 155.00
C 467.50 155.00 468.00 155.00 468.00 155.00
C 468.00 127.89 467.81 105.04 453.00 83.00
C 437.75 82.62 418.32 83.94 400.75 83.39 C 383.19 82.84 365.08 83.82 347.30 83.72 C 329.53 83.62 312.30 83.72 294.00 82.00
C 293.70 85.56 290.38 84.69 290.00 82.00
C 289.70 85.56 286.38 84.69 286.00 82.00
C 285.70 85.56 282.38 84.69 282.00 82.00
C 281.70 85.56 278.38 84.69 278.00 82.00
C 277.70 85.56 274.38 84.69 274.00 82.00
C 273.70 85.56 270.38 84.69 270.00 82.00
C 269.70 85.56 266.38 84.69 266.00 82.00
C 265.70 85.56 262.38 84.69 262.00 82.00
C 261.70 85.56 258.38 84.69 258.00 82.00
C 257.70 85.56 254.38 84.69 254.00 82.00
C 253.70 85.56 250.38 84.69 250.00 82.00
C 249.70 85.56 246.38 84.69 246.00 82.00
C 245.70 85.56 242.38 84.69 242.00 82.00
C 241.70 85.56 238.38 84.69 238.00 82.00
C 237.70 85.56 234.38 84.69 234.00 82.00
C 233.70 85.56 230.38 84.69 230.00 82.00
C 229.70 85.56 226.38 84.69 226.00 82.00
C 225.70 85.56 222.38 84.69 222.00 82.00
C 221.70 85.56 218.38 84.69 218.00 82.00
C 217.70 85.56 214.38 84.69 214.00 82.00
C 213.70 85.56 210.38 84.69 210.00 82.00
C 209.70 85.56 206.38 84.69 206.00 82.00
C 205.70 85.56 202.38 84.69 202.00 82.00
C 201.70 85.56 198.38 84.69 198.00 82.00
C 197.70 85.56 194.38 84.69 194.00 82.00
C 193.70 85.56 190.38 84.69 190.00 82.00
C 189.70 85.56 186.38 84.69 186.00 82.00
C 185.70 85.56 182.38 84.69 182.00 82.00
C 181.70 85.56 178.38 84.69 178.00 82.00
C 177.70 85.56 174.38 84.69 174.00 82.00
C 173.70 85.56 170.38 84.69 170.00 82.00
C 169.70 85.56 166.38 84.69 166.00 82.00
C 165.70 85.56 162.38 84.69 162.00 82.00
C 161.70 85.56 158.38 84.69 158.00 82.00
C 157.70 85.56 154.38 84.69 154.00 82.00
C 153.70 85.56 150.38 84.69 150.00 82.00
C 149.70 85.56 146.38 84.69 146.00 82.00
C 145.70 85.56 142.38 84.69 142.00 82.00
C 141.70 85.56 138.38 84.69 138.00 82.00
C 137.70 85.56 134.38 84.69 134.00 82.00
C 133.70 85.56 130.38 84.69 130.00 82.00
C 129.70 85.56 126.38 84.69 126.00 82.00
C 125.70 85.56 122.38 84.69 122.00 82.00
C 121.70 85.56 118.38 84.69 118.00 82.00
C 117.70 85.56 114.38 84.69 114.00 82.00
C 109.79 85.43 101.14 83.95 95.30 84.71 C 89.47 85.47 82.32 82.43 76.25 84.19 C 70.19 85.95 63.49 80.23 57.00 86.00 Z"/>
</g>
<g fill="#DDDFDB" fill-opacity="0.53" stroke="None">
<path d="
M 44.00 171.00 
C 44.17 169.24 44.98 166.43 45.00 164.00
C 45.01 162.33 45.00 160.67 45.00 159.00
C 45.00 158.15 45.43 155.71 45.00 155.00
C 45.00 155.00 44.00 154.96 44.00 155.00
C 44.00 160.33 44.00 165.67 44.00 171.00 Z"/>
</g>
<g fill="#BDBEBA" fill-opacity="1.00" stroke="None">
<path d="
M 45.00 159.00 
C 47.31 165.42 60.85 161.01 67.00 162.00 C 73.15 162.99 84.64 161.55 92.00 162.00 C 99.36 162.45 109.09 161.80 117.00 162.00 C 124.91 162.20 133.82 161.91 142.00 162.00 C 150.18 162.09 158.65 161.96 167.00 162.00 C 175.35 162.04 184.61 161.98 193.00 162.00 C 201.39 162.02 209.64 161.99 218.00 162.00 C 226.36 162.01 234.65 162.00 243.00 162.00 C 251.35 162.00 259.65 162.00 268.00 162.00 C 276.35 162.00 284.64 162.01 293.00 162.00 C 301.36 161.99 309.61 162.02 318.00 162.00 C 326.39 161.98 335.65 162.04 344.00 162.00 C 352.35 161.96 360.82 162.10 369.00 162.00 C 377.18 161.90 386.09 162.22 394.00 162.00 C 401.91 161.78 411.65 162.49 419.00 162.00 C 426.35 161.51 437.86 163.08 444.00 162.00 C 450.14 160.92 464.64 165.54 467.00 159.00
C 467.00 158.15 466.57 155.71 467.00 155.00
C 466.50 155.00 465.50 155.00 465.00 155.00
C 452.69 164.86 432.24 157.20 416.00 159.00 C 399.76 160.80 380.04 158.22 363.00 159.00 C 345.96 159.78 327.42 158.72 310.00 159.00 C 292.58 159.28 273.51 159.00 256.00 159.00 C 238.49 159.00 220.37 159.31 203.00 159.00 C 185.63 158.69 167.05 159.82 150.00 159.00 C 132.95 158.18 113.30 160.88 97.00 159.00 C 80.70 157.12 59.40 164.94 47.00 155.00
C 46.50 155.00 45.50 155.00 45.00 155.00
C 45.43 155.71 45.00 158.15 45.00 159.00 Z"/>
</g>
<g fill="#A3A4A1" fill-opacity="1.00" stroke="None">
<path d="
M 465.00 155.00 
C 325.67 155.00 186.33 155.00 47.00 155.00
C 59.40 164.94 80.70 157.12 97.00 159.00 C 113.30 160.88 132.95 158.18 150.00 159.00 C 167.05 159.82 185.63 158.69 203.00 159.00 C 220.37 159.31 238.49 159.00 256.00 159.00 C 273.51 159.00 292.58 159.28 310.00 159.00 C 327.42 158.72 345.96 159.78 363.00 159.00 C 380.04 158.22 399.76 160.80 416.00 159.00 C 432.24 157.20 452.69 164.86 465.00 155.00 Z"/>
</g>
<g fill="#EBECE7" fill-opacity="0.51" stroke="None">
<path d="
M 467.00 159.00 
C 467.00 160.67 467.00 162.33 467.00 164.00
C 467.00 194.24 464.27 225.90 467.00 256.00
C 467.50 256.00 468.00 256.00 468.00 256.00
C 468.00 222.33 468.00 188.67 468.00 155.00
C 468.00 155.00 467.50 155.00 467.00 155.00
C 466.57 155.71 467.00 158.15 467.00 159.00 Z"/>
</g>
<g fill="#D6D7D3" fill-opacity="1.00" stroke="None">
<path d="
M 45.00 164.00 
C 47.10 168.95 58.89 165.05 64.00 166.00 C 69.11 166.95 78.80 165.58 85.00 166.00 C 91.20 166.42 99.26 165.82 106.00 166.00 C 112.74 166.18 121.05 165.91 128.00 166.00 C 134.95 166.09 141.98 165.96 149.00 166.00 C 156.02 166.04 162.90 165.98 170.00 166.00 C 177.10 166.02 184.89 165.99 192.00 166.00 C 199.11 166.01 205.91 166.00 213.00 166.00 C 220.09 166.00 226.88 166.00 234.00 166.00 C 241.12 166.00 248.88 166.00 256.00 166.00 C 263.12 166.00 269.93 166.00 277.00 166.00 C 284.07 166.00 290.94 166.00 298.00 166.00 C 305.06 166.00 311.90 166.01 319.00 166.00 C 326.10 165.99 333.91 166.02 341.00 166.00 C 348.09 165.98 354.99 166.04 362.00 166.00 C 369.01 165.96 376.06 166.10 383.00 166.00 C 389.94 165.90 398.26 166.20 405.00 166.00 C 411.74 165.80 419.81 166.47 426.00 166.00 C 432.19 165.53 441.91 167.05 447.00 166.00 C 452.09 164.95 464.86 169.06 467.00 164.00
C 467.00 162.33 467.00 160.67 467.00 159.00
C 464.64 165.54 450.14 160.92 444.00 162.00 C 437.86 163.08 426.35 161.51 419.00 162.00 C 411.65 162.49 401.91 161.78 394.00 162.00 C 386.09 162.22 377.18 161.90 369.00 162.00 C 360.82 162.10 352.35 161.96 344.00 162.00 C 335.65 162.04 326.39 161.98 318.00 162.00 C 309.61 162.02 301.36 161.99 293.00 162.00 C 284.64 162.01 276.35 162.00 268.00 162.00 C 259.65 162.00 251.35 162.00 243.00 162.00 C 234.65 162.00 226.36 162.01 218.00 162.00 C 209.64 161.99 201.39 162.02 193.00 162.00 C 184.61 161.98 175.35 162.04 167.00 162.00 C 158.65 161.96 150.18 162.09 142.00 162.00 C 133.82 161.91 124.91 162.20 117.00 162.00 C 109.09 161.80 99.36 162.45 92.00 162.00 C 84.64 161.55 73.15 162.99 67.00 162.00 C 60.85 161.01 47.31 165.42 45.00 159.00
C 45.00 160.67 45.01 162.33 45.00 164.00 Z"/>
</g>
<g fill="#EFF0EB" fill-opacity="1.00" stroke="None">
<path d="
M 44.00 171.00 
C 44.00 173.00 44.00 175.00 44.00 177.00
C 46.37 201.47 47.28 230.81 45.00 256.00
C 185.67 255.94 326.33 256.00 467.00 256.00
C 464.27 225.90 467.00 194.24 467.00 164.00
C 464.86 169.06 452.09 164.95 447.00 166.00 C 441.91 167.05 432.19 165.53 426.00 166.00 C 419.81 166.47 411.74 165.80 405.00 166.00 C 398.26 166.20 389.94 165.90 383.00 166.00 C 376.06 166.10 369.01 165.96 362.00 166.00 C 354.99 166.04 348.09 165.98 341.00 166.00 C 333.91 166.02 326.10 165.99 319.00 166.00 C 311.90 166.01 305.06 166.00 298.00 166.00 C 290.94 166.00 284.07 166.00 277.00 166.00 C 269.93 166.00 263.12 166.00 256.00 166.00 C 248.88 166.00 241.12 166.00 234.00 166.00 C 226.88 166.00 220.09 166.00 213.00 166.00 C 205.91 166.00 199.11 166.01 192.00 166.00 C 184.89 165.99 177.10 166.02 170.00 166.00 C 162.90 165.98 156.02 166.04 149.00 166.00 C 141.98 165.96 134.95 166.09 128.00 166.00 C 121.05 165.91 112.74 166.18 106.00 166.00 C 99.26 165.82 91.20 166.42 85.00 166.00 C 78.80 165.58 69.11 166.95 64.00 166.00 C 58.89 165.05 47.10 168.95 45.00 164.00
C 44.98 166.43 44.17 169.24 44.00 171.00
M 67.00 170.00 
C 71.33 171.86 68.10 180.10 63.33 177.67 C 58.55 175.24 62.28 167.97 67.00 170.00
M 85.00 170.00 
C 89.33 171.86 86.10 180.10 81.33 177.67 C 76.55 175.24 80.28 167.97 85.00 170.00
M 103.00 170.00 
C 107.33 171.86 104.10 180.10 99.33 177.67 C 94.55 175.24 98.28 167.97 103.00 170.00
M 121.00 170.00 
C 125.33 171.86 122.10 180.10 117.33 177.67 C 112.55 175.24 116.28 167.97 121.00 170.00
M 139.00 170.00 
C 143.33 171.86 140.10 180.10 135.33 177.67 C 130.55 175.24 134.28 167.97 139.00 170.00
M 157.00 170.00 
C 161.33 171.86 158.10 180.10 153.33 177.67 C 148.55 175.24 152.28 167.97 157.00 170.00
M 175.00 170.00 
C 179.33 171.86 176.10 180.10 171.33 177.67 C 166.55 175.24 170.28 167.97 175.00 170.00
M 193.00 170.00 
C 197.33 171.86 194.10 180.10 189.33 177.67 C 184.55 175.24 188.28 167.97 193.00 170.00
M 211.00 170.00 
C 215.33 171.86 212.10 180.10 207.33 177.67 C 202.55 175.24 206.28 167.97 211.00 170.00
M 229.00 170.00 
C 233.33 171.86 230.10 180.10 225.33 177.67 C 220.55 175.24 224.28 167.97 229.00 170.00
M 247.00 170.00 
C 251.33 171.86 248.10 180.10 243.33 177.67 C 238.55 175.24 242.28 167.97 247.00 170.00
M 265.00 170.00 
C 269.33 171.86 266.10 180.10 261.33 177.67 C 256.55 175.24 260.28 167.97 265.00 170.00
M 283.00 170.00 
C 287.33 171.86 284.10 180.10 279.33 177.67 C 274.55 175.24 278.28 167.97 283.00 170.00
M 301.00 170.00 
C 305.33 171.86 302.10 180.10 297.33 177.67 C 292.55 175.24 296.28 167.97 301.00 170.00
M 319.00 170.00 
C 323.33 171.86 320.10 180.10 315.33 177.67 C 310.55 175.24 314.28 167.97 319.00 170.00
M 337.00 170.00 
C 341.33 171.86 338.10 180.10 333.33 177.67 C 328.55 175.24 332.28 167.97 337.00 170.00
M 355.00 170.00 
C 359.33 171.86 356.10 180.10 351.33 177.67 C 346.55 175.24 350.28 167.97 355.00 170.00
M 373.00 170.00 
C 377.33 171.86 374.10 180.10 369.33 177.67 C 364.55 175.24 368.28 167.97 373.00 170.00
M 391.00 170.00 
C 395.33 171.86 392.10 180.10 387.33 177.67 C 382.55 175.24 386.28 167.97 391.00 170.00
M 409.00 170.00 
C 413.33 171.86 410.10 180.10 405.33 177.67 C 400.55 175.24 404.28 167.97 409.00 170.00
M 427.00 170.00 
C 431.33 171.86 428.10 180.10 423.33 177.67 C 418.55 175.24 422.28 167.97 427.00 170.00
M 445.00 170.00 
C 449.33 171.86 446.10 180.10 441.33 177.67 C 436.55 175.24 440.28 167.97 445.00 170.00
M 463.00 170.00 
C 467.33 171.86 464.10 180.10 459.33 177.67 C 454.55 175.24 458.28 167.97 463.00 170.00 Z"/>
</g>
<g fill="#CDCDCD" fill-opacity="1.00" stroke="None">
<path d="
M 67.00 170.00 
C 62.28 167.97 58.55 175.24 63.33 177.67 C 68.10 180.10 71.33 171.86 67.00 170.00 Z"/>
</g>
<g fill="#CDCDCD" fill-opacity="1.00" stroke="None">
<path d="
M 85.00 170.00 
C 80.28 167.97 76.55 175.24 81.33 177.67 C 86.10 180.10 89.33 171.86 85.00 170.00 Z"/>
</g>
<g fill="#CDCDCD" fill-opacity="1.00" stroke="None">
<path d="
M 103.00 170.00 
C 98.28 167.97 94.55 175.24 99.33 177.67 C 104.10 180.10 107.33 171.86 103.00 170.00 Z"/>
</g>
<g fill="#CDCDCD" fill-opacity="1.00" stroke="None">
<path d="
M 121.00 170.00 
C 116.28 167.97 112.55 175.24 117.33 177.67 C 122.10 180.10 125.33 171.86 121.00 170.00 Z"/>
</g>
<g fill="#CDCDCD" fill-opacity="1.00" stroke="None">
<path d="
M 139.00 170.00 
C 134.28 167.97 130.55 175.24 135.33 177.67 C 140.10 180.10 143.33 171.86 139.00 170.00 Z"/>
</g>
<g fill="#CDCDCD" fill-opacity="1.00" stroke="None">
<path d="
M 157.00 170.00 
C 152.28 167.97 148.55 175.24 153.33 177.67 C 158.10 180.10 161.33 171.86 157.00 170.00 Z"/>
</g>
<g fill="#CDCDCD" fill-opacity="1.00" stroke="None">
<path d="
M 175.00 170.00 
C 170.28 167.97 166.55 175.24 171.33 177.67 C 176.10 180.10 179.33 171.86 175.00 170.00 Z"/>
</g>
<g fill="#CDCDCD" fill-opacity="1.00" stroke="None">
<path d="
M 193.00 170.00 
C 188.28 167.97 184.55 175.24 189.33 177.67 C 194.10 180.10 197.33 171.86 193.00 170.00 Z"/>
</g>
<g fill="#CDCDCD" fill-opacity="1.00" stroke="None">
<path d="
M 211.00 170.00 
C 206.28 167.97 202.55 175.24 207.33 177.67 C 212.10 180.10 215.33 171.86 211.00 170.00 Z"/>
</g>
<g fill="#CDCDCD" fill-opacity="1.00" stroke="None">
<path d="
M 229.00 170.00 
C 224.28 167.97 220.55 175.24 225.33 177.67 C 230.10 180.10 233.33 171.86 229.00 170.00 Z"/>
</g>
<g fill="#CDCDCD" fill-opacity="1.00" stroke="None">
<path d="
M 247.00 170.00 
C 242.28 167.97 238.55 175.24 243.33 177.67 C 248.10 180.10 251.33 171.86 247.00 170.00 Z"/>
</g>
<g fill="#CDCDCD" fill-opacity="1.00" stroke="None">
<path d="
M 265.00 170.00 
C 260.28 167.97 256.55 175.24 261.33 177.67 C 266.10 180.10 269.33 171.86 265.00 170.00 Z"/>
</g>
<g fill="#CDCDCD" fill-opacity="1.00" stroke="None">
<path d="
M 283.00 170.00 
C 278.28 167.97 274.55 175.24 279.33 177.67 C 284.10 180.10 287.33 171.86 283.00 170.00 Z"/>
</g>
<g fill="#CDCDCD" fill-opacity="1.00" stroke="None">
<path d="
M 301.00 170.00 
C 296.28 167.97 292.55 175.24 297.33 177.67 C 302.10 180.10 305.33 171.86 301.00 170.00 Z"/>
</g>
<g fill="#CDCDCD" fill-opacity="1.00" stroke="None">
<path d="
M 319.00 170.00 
C 314.28 167.97 310.55 175.24 315.33 177.67 C 320.10 180.10 323.33 171.86 319.00 170.00 Z"/>
</g>
<g fill="#CDCDCD" fill-opacity="1.00" stroke="None">
<path d="
M 337.00 170.00 
C 332.28 167.97 328.55 175.24 333.33 177.67 C 338.10 180.10 341.33 171.86 337.00 170.00 Z"/>
</g>
<g fill="#CDCDCD" fill-opacity="1.00" stroke="None">
<path d="
M 355.00 170.00 
C 350.28 167.97 346.55 175.24 351.33 177.67 C 356.10 180.10 359.33 171.86 355.00 170.00 Z"/>
</g>
<g fill="#CDCDCD" fill-opacity="1.00" stroke="None">
<path d="
M 373.00 170.00 
C 368.28 167.97 364.55 175.24 369.33 177.67 C 374.10 180.10 377.33 171.86 373.00 170.00 Z"/>
</g>
<g fill="#CDCDCD" fill-opacity="1.00" stroke="None">
<path d="
M 391.00 170.00 
C 386.28 167.97 382.55 175.24 387.33 177.67 C 392.10 180.10 395.33 171.86 391.00 170.00 Z"/>
</g>
<g fill="#CDCDCD" fill-opacity="1.00" stroke="None">
<path d="
M 409.00 170.00 
C 404.28 167.97 400.55 175.24 405.33 177.67 C 410.10 180.10 413.33 171.86 409.00 170.00 Z"/>
</g>
<g fill="#CDCDCD" fill-opacity="1.00" stroke="None">
<path d="
M 427.00 170.00 
C 422.28 167.97 418.55 175.24 423.33 177.67 C 428.10 180.10 431.33 171.86 427.00 170.00 Z"/>
</g>
<g fill="#CDCDCD" fill-opacity="1.00" stroke="None">
<path d="
M 445.00 170.00 
C 440.28 167.97 436.55 175.24 441.33 177.67 C 446.10 180.10 449.33 171.86 445.00 170.00 Z"/>
</g>
<g fill="#CDCDCD" fill-opacity="1.00" stroke="None">
<path d="
M 463.00 170.00 
C 458.28 167.97 454.55 175.24 459.33 177.67 C 464.10 180.10 467.33 171.86 463.00 170.00 Z"/>
</g>
<g fill="#EFF0EB" fill-opacity="0.50" stroke="None">
<path d="
M 44.00 256.00 
C 44.13 255.78 45.00 256.00 45.00 256.00
C 47.28 230.81 46.37 201.47 44.00 177.00
C 44.00 203.33 44.00 229.67 44.00 256.00 Z"/>
</g>
<g fill="#CFD0CB" fill-opacity="1.00" stroke="None">
<path d="
M 44.00 260.00 
C 44.13 260.22 45.00 260.00 45.00 260.00
C 185.67 260.00 326.33 259.97 467.00 260.00
C 467.50 260.00 468.00 260.00 468.00 260.00
C 468.00 258.67 468.00 257.33 468.00 256.00
C 468.00 256.00 467.50 256.00 467.00 256.00
C 326.33 256.00 185.67 255.94 45.00 256.00
C 45.00 256.00 44.13 255.78 44.00 256.00
C 44.00 257.33 44.00 258.67 44.00 260.00 Z"/>
</g>
<g fill="#ECECE6" fill-opacity="0.50" stroke="None">
<path d="
M 44.00 363.00 
C 44.13 362.78 45.00 363.00 45.00 363.00
C 46.52 346.19 45.04 328.94 45.00 312.00 C 44.96 295.06 46.53 276.90 45.00 260.00
C 45.00 260.00 44.13 260.22 44.00 260.00
C 44.00 294.33 44.00 328.67 44.00 363.00 Z"/>
</g>
<g fill="#ECEDE7" fill-opacity="1.00" stroke="None">
<path d="
M 45.00 363.00 
C 185.67 362.94 326.33 363.00 467.00 363.00
C 465.48 346.19 466.96 328.94 467.00 312.00 C 467.04 295.06 465.47 276.90 467.00 260.00
C 326.33 259.97 185.67 260.00 45.00 260.00
C 46.53 276.90 44.96 295.06 45.00 312.00 C 45.04 328.94 46.52 346.19 45.00 363.00 Z"/>
</g>
<g fill="#EBEBE5" fill-opacity="0.50" stroke="None">
<path d="
M 467.00 363.00 
C 467.50 363.00 468.00 363.00 468.00 363.00
C 468.00 328.67 468.00 294.33 468.00 260.00
C 468.00 260.00 467.50 260.00 467.00 260.00
C 465.47 276.90 467.04 295.06 467.00 312.00 C 466.96 328.94 465.48 346.19 467.00 363.00 Z"/>
</g>
<g fill="#CFD0CB" fill-opacity="1.00" stroke="None">
<path d="
M 44.00 367.00 
C 44.13 367.22 45.00 367.00 45.00 367.00
C 185.67 367.00 326.33 366.96 467.00 367.00
C 467.50 367.00 468.00 367.00 468.00 367.00
C 468.00 365.67 468.00 364.33 468.00 363.00
C 468.00 363.00 467.50 363.00 467.00 363.00
C 326.33 363.00 185.67 362.94 45.00 363.00
C 45.00 363.00 44.13 362.78 44.00 363.00
C 44.00 364.33 44.00 365.67 44.00 367.00 Z"/>
</g>
<g fill="#EAEBE3" fill-opacity="0.49" stroke="None">
<path d="
M 44.00 385.00 
C 44.22 379.74 45.54 373.00 45.00 367.00
C 45.00 367.00 44.13 367.22 44.00 367.00
C 44.00 372.97 43.68 379.04 44.00 385.00 Z"/>
</g>
<g fill="#E9E9E2" fill-opacity="0.99" stroke="None">
<path d="
M 44.00 385.00 
C 45.68 415.99 60.95 441.57 89.77 457.23 C 118.59 472.89 162.18 467.82 197.00 468.00 C 231.82 468.18 279.29 468.38 314.00 468.00 C 348.71 467.62 393.09 473.03 421.77 457.77 C 450.45 442.51 465.60 417.19 468.00 387.00
C 467.90 381.13 466.40 373.63 467.00 367.00
C 326.33 366.96 185.67 367.00 45.00 367.00
C 45.54 373.00 44.22 379.74 44.00 385.00 Z"/>
</g>
<g fill="#E9E9E2" fill-opacity="0.48" stroke="None">
<path d="
M 468.00 387.00 
C 468.52 380.43 468.00 373.60 468.00 367.00
C 468.00 367.00 467.50 367.00 467.00 367.00
C 466.40 373.63 467.90 381.13 468.00 387.00 Z"/>
</g>
</svg>