<svg xmlns="http://www.w3.org/2000/svg" xmlns:v="https://svgstorm.com"
viewBox = "37 37 435 435">
<g fill="None" fill-opacity="0.0" stroke="#000000" stroke-opacity="0.00" stroke-width="0.3"><path d="
M 0.00 512.00 
L 512.00 512.00
L 512.00 0.00
L 0.00 0.00
L 0.00 512.00
M 468.00 125.00 
C 470.28 153.79 467.39 183.08 468.00 212.00 C 468.61 240.92 468.65 270.02 468.00 299.00 C 467.35 327.98 470.30 358.07 468.00 387.00
C 465.61 417.11 450.32 442.61 421.77 457.77 C 393.22 472.93 349.56 467.72 315.00 468.00 C 280.44 468.28 232.61 468.35 198.00 468.00 C 163.39 467.65 119.73 472.98 90.92 458.08 C 62.12 443.17 46.41 417.30 44.00 387.00
C 41.71 358.21 44.61 328.92 44.00 300.00 C 43.39 271.08 43.35 241.98 44.00 213.00 C 44.65 184.02 41.70 153.93 44.00 125.00
C 46.39 94.89 61.68 69.39 90.23 54.23 C 118.78 39.07 162.44 44.28 197.00 44.00 C 231.56 43.72 279.39 43.65 314.00 44.00 C 348.61 44.35 392.27 39.02 421.08 53.92 C 449.88 68.83 465.60 94.70 468.00 125.00 Z"/>
</g>
<g fill="None" fill-opacity="0.0" stroke="#B95EE1" stroke-opacity="1.00" stroke-width="0.3"><path d="
M 44.00 125.00 
C 44.62 160.15 45.00 197.11 45.00 233.00
C 45.93 230.87 49.65 231.43 48.00 235.00
C 49.94 232.84 52.82 229.26 52.00 235.00
C 52.75 231.20 56.46 229.89 56.00 235.00
C 56.75 231.20 60.46 229.89 60.00 235.00
C 60.75 231.20 64.46 229.89 64.00 235.00
C 64.75 231.20 68.46 229.89 68.00 235.00
C 68.75 231.20 72.46 229.89 72.00 235.00
C 74.00 226.91 82.16 237.16 83.00 229.00
C 83.75 232.80 87.46 234.11 87.00 229.00
C 87.75 232.80 91.46 234.11 91.00 229.00
C 91.75 232.80 95.46 234.11 95.00 229.00
C 95.75 232.80 99.46 234.11 99.00 229.00
C 99.75 232.94 101.78 233.05 103.00 229.00
C 104.14 233.79 105.26 231.93 108.00 229.00
C 108.00 231.00 108.00 233.00 108.00 235.00
C 109.98 214.59 115.86 195.86 124.00 177.00
C 128.74 166.02 137.19 155.14 145.00 146.00
C 148.66 141.71 152.76 137.62 157.00 134.00
C 181.26 113.27 213.57 97.00 246.00 97.00
C 252.61 96.36 260.46 96.37 267.00 97.00
C 313.54 97.00 360.95 129.93 384.00 170.00
C 385.50 172.61 386.64 175.33 388.00 178.00
C 389.79 179.50 399.90 179.11 399.00 175.00
C 399.75 178.80 403.46 180.11 403.00 175.00
C 403.75 178.80 407.46 180.11 407.00 175.00
C 407.76 178.80 411.46 180.11 411.00 175.00
C 411.75 178.80 415.46 180.11 415.00 175.00
C 415.75 178.80 419.46 180.11 419.00 175.00
C 419.75 178.94 421.78 179.05 423.00 175.00
C 424.32 177.94 425.02 180.11 425.00 175.00
C 426.72 177.90 428.56 173.49 428.00 179.00
C 428.75 175.20 432.46 173.89 432.00 179.00
C 432.76 175.20 436.46 173.89 436.00 179.00
C 436.75 175.20 440.46 173.89 440.00 179.00
C 440.75 175.20 444.46 173.89 444.00 179.00
C 446.00 170.91 454.16 181.16 455.00 173.00
C 455.75 176.80 459.46 178.11 459.00 173.00
C 459.75 176.80 463.46 178.11 463.00 173.00
C 464.47 177.42 464.42 174.76 467.00 177.00
C 467.00 159.79 467.71 141.41 468.00 125.00
C 465.60 94.70 449.88 68.83 421.08 53.92 C 392.27 39.02 348.61 44.35 314.00 44.00 C 279.39 43.65 231.56 43.72 197.00 44.00 C 162.44 44.28 118.78 39.07 90.23 54.23 C 61.68 69.39 46.39 94.89 44.00 125.00 Z"/>
</g>
<g fill="None" fill-opacity="0.0" stroke="#9D7EAA" stroke-opacity="1.00" stroke-width="0.3"><path d="
M 246.00 97.00 
C 253.00 97.00 260.00 97.00 267.00 97.00
C 260.46 96.37 252.61 96.36 246.00 97.00 Z"/>
</g>
<g fill="None" fill-opacity="0.0" stroke="#A6A4A7" stroke-opacity="1.00" stroke-width="0.3"><path d="
M 157.00 134.00 
C 153.08 137.92 148.87 142.13 145.00 146.00
C 137.19 155.14 128.74 166.02 124.00 177.00
C 152.77 131.01 194.75 101.93 250.00 99.00 C 305.25 96.07 352.14 126.28 384.00 170.00
C 360.95 129.93 313.54 97.00 267.00 97.00
C 260.00 97.00 253.00 97.00 246.00 97.00
C 213.57 97.00 181.26 113.27 157.00 134.00 Z"/>
</g>
<g fill="None" fill-opacity="0.0" stroke="#CFCFCF" stroke-opacity="1.00" stroke-width="0.3"><path d="
M 124.00 177.00 
C 115.86 195.86 109.98 214.59 108.00 235.00
C 108.28 241.99 108.39 249.74 109.00 256.00
C 109.00 228.07 114.81 196.39 129.31 173.31 C 143.80 150.22 158.23 135.68 181.25 121.25 C 204.26 106.82 236.83 99.24 265.00 101.00 C 293.17 102.76 317.88 112.25 340.75 128.25 C 363.62 144.25 374.59 160.16 388.31 184.69 C 402.02 209.23 402.71 243.44 401.00 272.00
C 406.51 239.39 403.05 207.44 388.00 178.00
C 386.64 175.33 385.50 172.61 384.00 170.00
C 352.14 126.28 305.25 96.07 250.00 99.00 C 194.75 101.93 152.77 131.01 124.00 177.00 Z"/>
</g>
<g fill="None" fill-opacity="0.0" stroke="#F7F8F7" stroke-opacity="1.00" stroke-width="0.3"><path d="
M 109.00 256.00 
C 109.00 288.69 125.15 319.60 146.00 344.00
C 149.59 347.59 153.46 351.46 157.00 355.00
C 165.61 362.35 174.57 368.16 184.00 374.00
C 194.43 380.46 206.39 384.49 218.00 388.00
C 218.00 384.33 218.00 380.67 218.00 377.00
C 217.93 376.59 217.26 373.71 217.00 373.00
C 206.76 369.53 195.81 364.17 186.30 358.70 C 176.79 353.22 168.91 347.05 161.25 338.75 C 153.58 330.45 146.14 322.78 141.23 312.77 C 136.32 302.76 129.82 291.69 128.67 280.33 C 127.53 268.97 120.54 250.95 125.00 240.00
C 125.14 238.87 125.83 238.64 126.00 238.00
C 126.00 176.17 181.40 119.81 242.00 115.00
C 244.62 114.49 247.75 114.00 251.00 114.00
C 254.00 114.00 257.00 114.00 260.00 114.00
C 263.56 114.00 267.13 114.49 270.00 115.00
C 326.74 118.86 373.71 166.72 384.00 221.00
C 385.02 226.39 386.00 231.81 386.00 238.00
C 386.36 241.73 387.00 246.59 387.00 251.00
C 387.00 259.95 385.38 270.63 384.00 279.00 C 382.62 287.37 378.85 294.62 376.07 302.07 C 373.29 309.53 368.52 315.31 364.75 321.75 C 360.98 328.18 356.25 333.76 350.75 338.75 C 345.25 343.75 340.51 350.19 334.25 353.25 C 328.00 356.32 321.22 363.32 314.77 364.77 C 308.32 366.22 298.38 375.70 292.00 373.00
C 291.90 376.69 289.77 381.21 291.00 385.00
C 291.43 385.25 290.65 387.60 291.00 388.00
C 314.44 383.79 335.44 371.03 354.00 356.00
C 358.25 351.75 362.80 347.20 367.00 343.00
C 378.61 329.41 387.90 314.53 394.00 298.00
C 397.09 289.62 400.46 281.07 401.00 272.00
C 402.71 243.44 402.02 209.23 388.31 184.69 C 374.59 160.16 363.62 144.25 340.75 128.25 C 317.88 112.25 293.17 102.76 265.00 101.00 C 236.83 99.24 204.26 106.82 181.25 121.25 C 158.23 135.68 143.80 150.22 129.31 173.31 C 114.81 196.39 109.00 228.07 109.00 256.00 Z"/>
</g>
<g fill="None" fill-opacity="0.0" stroke="#C5AFCF" stroke-opacity="1.00" stroke-width="0.3"><path d="
M 242.00 115.00 
C 244.92 114.77 248.75 114.22 251.00 114.00
C 247.75 114.00 244.62 114.49 242.00 115.00 Z"/>
</g>
<g fill="None" fill-opacity="0.0" stroke="#B057DA" stroke-opacity="1.00" stroke-width="0.3"><path d="
M 242.00 115.00 
C 181.40 119.81 126.00 176.17 126.00 238.00
C 126.00 242.00 126.00 246.00 126.00 250.00
C 126.00 254.21 126.32 258.49 127.00 262.00
C 126.76 259.02 127.18 255.99 127.00 253.00
C 127.75 256.80 131.46 258.11 131.00 253.00
C 131.75 256.80 135.46 258.11 135.00 253.00
C 135.75 256.80 139.46 258.11 139.00 253.00
C 139.75 256.80 143.46 258.11 143.00 253.00
C 143.75 256.80 147.46 258.11 147.00 253.00
C 147.75 256.80 151.46 258.11 151.00 253.00
C 151.75 256.94 153.78 257.05 155.00 253.00
C 156.82 253.72 155.08 258.19 158.00 256.00
C 154.84 232.30 161.14 208.53 174.00 189.00
C 208.87 136.05 298.74 128.80 335.00 185.00
C 343.21 197.73 350.12 210.06 353.00 225.00
C 352.97 225.13 356.94 222.87 355.00 221.00
C 355.75 224.80 359.46 226.11 359.00 221.00
C 359.75 224.80 363.46 226.11 363.00 221.00
C 363.75 224.80 367.46 226.11 367.00 221.00
C 367.75 224.94 369.78 225.05 371.00 221.00
C 371.75 224.94 373.78 225.05 375.00 221.00
C 376.32 223.94 377.02 226.11 377.00 221.00
C 378.72 223.90 380.56 219.49 380.00 225.00
C 381.47 220.58 381.42 223.24 384.00 221.00
C 373.71 166.72 326.74 118.86 270.00 115.00
C 266.72 114.78 262.60 114.25 260.00 114.00
C 257.00 114.00 254.00 114.00 251.00 114.00
C 248.75 114.22 244.92 114.77 242.00 115.00 Z"/>
</g>
<g fill="None" fill-opacity="0.0" stroke="#C4ACCF" stroke-opacity="1.00" stroke-width="0.3"><path d="
M 270.00 115.00 
C 267.13 114.49 263.56 114.00 260.00 114.00
C 262.60 114.25 266.72 114.78 270.00 115.00 Z"/>
</g>
<g fill="None" fill-opacity="0.0" stroke="#A34AD1" stroke-opacity="0.50" stroke-width="0.3"><path d="
M 44.00 387.00 
C 44.03 385.16 45.00 381.57 45.00 379.00
C 45.00 330.33 45.00 281.67 45.00 233.00
C 45.00 197.11 44.62 160.15 44.00 125.00
C 41.70 153.93 44.65 184.02 44.00 213.00 C 43.35 241.98 43.39 271.08 44.00 300.00 C 44.61 328.92 41.71 358.21 44.00 387.00 Z"/>
</g>
<g fill="None" fill-opacity="0.0" stroke="#A047D0" stroke-opacity="0.50" stroke-width="0.3"><path d="
M 467.00 177.00 
C 467.00 217.67 467.00 258.33 467.00 299.00
C 467.00 328.21 467.50 358.60 468.00 387.00
C 470.30 358.07 467.35 327.98 468.00 299.00 C 468.65 270.02 468.61 240.92 468.00 212.00 C 467.39 183.08 470.28 153.79 468.00 125.00
C 467.71 141.41 467.00 159.79 467.00 177.00 Z"/>
</g>
<g fill="None" fill-opacity="0.0" stroke="#A07BB1" stroke-opacity="1.00" stroke-width="0.3"><path d="
M 145.00 146.00 
C 148.87 142.13 153.08 137.92 157.00 134.00
C 152.76 137.62 148.66 141.71 145.00 146.00 Z"/>
</g>
<g fill="None" fill-opacity="0.0" stroke="#9B979D" stroke-opacity="1.00" stroke-width="0.3"><path d="
M 174.00 189.00 
C 194.40 164.65 220.02 148.25 252.00 147.00 C 283.98 145.75 313.79 160.66 335.00 185.00
C 298.74 128.80 208.87 136.05 174.00 189.00 Z"/>
</g>
<g fill="None" fill-opacity="0.0" stroke="#BFBFC0" stroke-opacity="1.00" stroke-width="0.3"><path d="
M 174.00 189.00 
C 161.14 208.53 154.84 232.30 158.00 256.00
C 159.03 263.69 160.55 270.11 163.00 277.00
C 154.28 238.27 160.95 197.30 193.25 171.25 C 225.55 145.20 266.65 142.88 302.70 161.31 C 338.74 179.73 354.78 215.85 354.00 255.00
C 355.19 245.16 354.92 234.97 353.00 225.00
C 350.12 210.06 343.21 197.73 335.00 185.00
C 313.79 160.66 283.98 145.75 252.00 147.00 C 220.02 148.25 194.40 164.65 174.00 189.00 Z"/>
</g>
<g fill="None" fill-opacity="0.0" stroke="#F6F7F6" stroke-opacity="1.00" stroke-width="0.3"><path d="
M 163.00 277.00 
C 168.80 302.74 192.73 324.57 216.00 335.00
C 215.35 329.50 217.32 322.67 215.00 318.00
C 213.21 319.88 204.77 311.52 201.25 308.75 C 197.73 305.99 192.52 299.19 189.23 294.77 C 185.94 290.35 182.74 284.75 180.03 278.97 C 177.32 273.20 175.47 265.32 174.67 258.33 C 173.88 251.33 173.41 240.70 175.00 234.00
C 175.18 232.33 175.60 231.53 176.00 230.00
C 184.75 196.21 209.66 166.54 247.00 164.00
C 252.71 162.98 259.35 162.99 265.00 164.00
C 297.85 166.24 324.63 191.54 334.00 222.00
C 335.07 225.47 336.65 230.02 337.00 234.00
C 338.85 243.08 337.58 254.24 336.22 263.22 C 334.86 272.20 330.25 279.26 327.08 287.08 C 323.91 294.90 317.17 299.13 312.75 305.75 C 308.34 312.37 296.69 313.39 294.00 320.00
C 293.12 325.19 294.66 330.78 294.00 336.00
C 326.56 322.81 351.93 290.12 354.00 255.00
C 354.78 215.85 338.74 179.73 302.70 161.31 C 266.65 142.88 225.55 145.20 193.25 171.25 C 160.95 197.30 154.28 238.27 163.00 277.00 Z"/>
</g>
<g fill="None" fill-opacity="0.0" stroke="#C0A5CD" stroke-opacity="1.00" stroke-width="0.3"><path d="
M 247.00 164.00 
C 252.81 163.60 259.19 163.60 265.00 164.00
C 259.35 162.99 252.71 162.98 247.00 164.00 Z"/>
</g>
<g fill="None" fill-opacity="0.0" stroke="#AC53D7" stroke-opacity="1.00" stroke-width="0.3"><path d="
M 176.00 230.00 
C 177.40 228.30 180.21 232.57 179.00 227.00
C 179.75 230.94 181.77 231.05 183.00 227.00
C 183.75 230.94 185.77 231.05 187.00 227.00
C 188.33 229.94 189.02 232.11 189.00 227.00
C 190.72 229.90 192.56 225.49 192.00 231.00
C 192.75 227.20 196.46 225.89 196.00 231.00
C 196.75 227.20 200.46 225.89 200.00 231.00
C 200.75 227.20 204.46 225.89 204.00 231.00
C 206.00 222.91 214.16 233.16 215.00 225.00
C 216.72 226.50 215.53 230.38 218.00 227.00
C 218.91 228.83 218.34 231.74 220.00 233.00
C 220.00 224.98 220.47 218.98 224.00 212.00
C 236.43 187.42 273.58 187.44 286.00 212.00
C 288.10 216.16 289.68 220.28 290.00 225.00
C 291.28 227.01 296.61 227.31 295.00 223.00
C 295.76 226.80 299.46 228.11 299.00 223.00
C 299.75 226.80 303.46 228.11 303.00 223.00
C 303.75 226.80 307.46 228.11 307.00 223.00
C 307.75 226.80 311.46 228.11 311.00 223.00
C 311.75 226.80 315.46 228.11 315.00 223.00
C 315.75 226.94 317.78 227.05 319.00 223.00
C 320.33 225.94 321.02 228.11 321.00 223.00
C 322.72 225.90 324.56 221.49 324.00 227.00
C 324.75 223.20 328.46 221.89 328.00 227.00
C 329.43 222.61 331.50 222.62 333.00 227.00
C 332.77 225.17 333.07 223.53 334.00 222.00
C 324.63 191.54 297.85 166.24 265.00 164.00
C 259.19 163.60 252.81 163.60 247.00 164.00
C 209.66 166.54 184.75 196.21 176.00 230.00 Z"/>
</g>
<g fill="None" fill-opacity="0.0" stroke="#A54BD3" stroke-opacity="1.00" stroke-width="0.3"><path d="
M 388.00 178.00 
C 403.05 207.44 406.51 239.39 401.00 272.00
C 400.46 281.07 397.09 289.62 394.00 298.00
C 396.53 296.20 395.85 299.16 396.00 301.00
C 397.72 298.10 399.56 302.51 399.00 297.00
C 399.75 300.94 401.78 301.05 403.00 297.00
C 403.75 300.94 405.78 301.05 407.00 297.00
C 408.33 299.94 409.02 302.11 409.00 297.00
C 410.72 299.90 412.56 295.49 412.00 301.00
C 412.75 297.20 416.46 295.89 416.00 301.00
C 416.75 297.20 420.46 295.89 420.00 301.00
C 420.75 297.20 424.46 295.89 424.00 301.00
C 424.76 297.20 428.46 295.89 428.00 301.00
C 429.44 294.99 434.02 299.12 436.77 298.58 C 439.52 298.03 442.87 297.99 445.77 297.42 C 448.67 296.86 451.79 299.53 454.77 298.58 C 457.75 297.62 462.33 300.26 463.00 295.00
C 464.47 299.42 464.42 296.76 467.00 299.00
C 467.00 258.33 467.00 217.67 467.00 177.00
C 464.42 174.76 464.47 177.42 463.00 173.00
C 463.46 178.11 459.75 176.80 459.00 173.00
C 459.46 178.11 455.75 176.80 455.00 173.00
C 454.16 181.16 446.00 170.91 444.00 179.00
C 444.46 173.89 440.75 175.20 440.00 179.00
C 440.46 173.89 436.75 175.20 436.00 179.00
C 436.46 173.89 432.76 175.20 432.00 179.00
C 432.46 173.89 428.75 175.20 428.00 179.00
C 428.56 173.49 426.72 177.90 425.00 175.00
C 425.02 180.11 424.32 177.94 423.00 175.00
C 421.78 179.05 419.75 178.94 419.00 175.00
C 419.46 180.11 415.75 178.80 415.00 175.00
C 415.46 180.11 411.75 178.80 411.00 175.00
C 411.46 180.11 407.76 178.80 407.00 175.00
C 407.46 180.11 403.75 178.80 403.00 175.00
C 403.46 180.11 399.75 178.80 399.00 175.00
C 399.90 179.11 389.79 179.50 388.00 178.00 Z"/>
</g>
<g fill="None" fill-opacity="0.0" stroke="#BCB8BE" stroke-opacity="1.00" stroke-width="0.3"><path d="
M 224.00 212.00 
C 239.15 191.00 270.92 191.11 286.00 212.00
C 273.58 187.44 236.43 187.42 224.00 212.00 Z"/>
</g>
<g fill="None" fill-opacity="0.0" stroke="#D9D9D9" stroke-opacity="1.00" stroke-width="0.3"><path d="
M 224.00 212.00 
C 220.47 218.98 220.00 224.98 220.00 233.00
C 220.00 233.50 219.89 234.52 220.00 235.00
C 219.20 216.59 234.89 198.48 254.00 198.00 C 273.11 197.52 290.28 215.17 290.00 234.00
C 290.32 231.17 290.19 227.84 290.00 225.00
C 289.68 220.28 288.10 216.16 286.00 212.00
C 270.92 191.11 239.15 191.00 224.00 212.00 Z"/>
</g>
<g fill="None" fill-opacity="0.0" stroke="#FCFDFC" stroke-opacity="1.00" stroke-width="0.3"><path d="
M 220.00 235.00 
C 228.09 271.49 285.59 273.46 290.00 234.00
C 290.28 215.17 273.11 197.52 254.00 198.00 C 234.89 198.48 219.20 216.59 220.00 235.00 Z"/>
</g>
<g fill="None" fill-opacity="0.0" stroke="#9D45CD" stroke-opacity="1.00" stroke-width="0.3"><path d="
M 353.00 225.00 
C 354.92 234.97 355.19 245.16 354.00 255.00
C 351.93 290.12 326.56 322.81 294.00 336.00
C 294.66 330.78 293.12 325.19 294.00 320.00
C 295.58 310.68 310.87 308.48 316.25 299.25 C 321.63 290.02 329.32 283.60 332.32 272.32 C 335.33 261.04 338.13 246.82 337.00 234.00
C 336.65 230.02 335.07 225.47 334.00 222.00
C 333.07 223.53 332.77 225.17 333.00 227.00
C 331.50 222.62 329.43 222.61 328.00 227.00
C 328.46 221.89 324.75 223.20 324.00 227.00
C 324.56 221.49 322.72 225.90 321.00 223.00
C 321.02 228.11 320.33 225.94 319.00 223.00
C 317.78 227.05 315.75 226.94 315.00 223.00
C 315.46 228.11 311.75 226.80 311.00 223.00
C 311.46 228.11 307.75 226.80 307.00 223.00
C 307.46 228.11 303.75 226.80 303.00 223.00
C 303.46 228.11 299.75 226.80 299.00 223.00
C 299.46 228.11 295.76 226.80 295.00 223.00
C 296.61 227.31 291.28 227.01 290.00 225.00
C 290.19 227.84 290.32 231.17 290.00 234.00
C 285.59 273.46 228.09 271.49 220.00 235.00
C 219.89 234.52 220.00 233.50 220.00 233.00
C 218.34 231.74 218.91 228.83 218.00 227.00
C 215.53 230.38 216.72 226.50 215.00 225.00
C 214.16 233.16 206.00 222.91 204.00 231.00
C 204.46 225.89 200.75 227.20 200.00 231.00
C 200.46 225.89 196.75 227.20 196.00 231.00
C 196.46 225.89 192.75 227.20 192.00 231.00
C 192.56 225.49 190.72 229.90 189.00 227.00
C 189.02 232.11 188.33 229.94 187.00 227.00
C 185.77 231.05 183.75 230.94 183.00 227.00
C 181.77 231.05 179.75 230.94 179.00 227.00
C 180.21 232.57 177.40 228.30 176.00 230.00
C 175.60 231.53 175.18 232.33 175.00 234.00
C 173.46 248.55 176.11 261.84 180.00 275.00
C 182.21 280.18 186.26 285.82 189.25 290.75 C 192.25 295.67 197.65 300.54 201.25 304.75 C 204.85 308.97 214.65 311.39 215.00 317.00
C 215.03 317.50 215.00 318.00 215.00 318.00
C 217.32 322.67 215.35 329.50 216.00 335.00
C 192.73 324.57 168.80 302.74 163.00 277.00
C 160.55 270.11 159.03 263.69 158.00 256.00
C 155.08 258.19 156.82 253.72 155.00 253.00
C 153.78 257.05 151.75 256.94 151.00 253.00
C 151.46 258.11 147.75 256.80 147.00 253.00
C 147.46 258.11 143.75 256.80 143.00 253.00
C 143.46 258.11 139.75 256.80 139.00 253.00
C 139.46 258.11 135.75 256.80 135.00 253.00
C 135.46 258.11 131.75 256.80 131.00 253.00
C 131.46 258.11 127.75 256.80 127.00 253.00
C 127.18 255.99 126.76 259.02 127.00 262.00
C 127.98 274.33 132.30 285.47 136.00 297.00
C 140.12 305.34 145.43 314.41 150.77 322.23 C 156.11 330.05 164.10 335.55 170.25 342.75 C 176.40 349.96 186.99 353.61 193.70 359.30 C 200.40 364.99 218.99 364.78 218.00 375.00
C 218.83 374.08 224.15 373.91 225.00 375.00
C 223.73 361.89 224.45 346.85 224.00 334.00 C 223.55 321.15 220.25 305.85 224.00 294.00
C 227.63 282.53 244.66 281.73 255.00 282.00 C 265.34 282.27 282.34 282.42 286.00 294.00
C 290.43 308.00 284.50 324.24 285.01 339.01 C 285.51 353.78 283.80 370.33 283.00 385.00
C 285.78 384.83 288.44 383.51 291.00 385.00
C 289.77 381.21 291.90 376.69 292.00 373.00
C 292.01 372.50 291.84 371.44 292.00 371.00
C 293.72 366.41 305.98 366.55 310.22 363.22 C 314.47 359.90 322.58 357.79 327.08 354.08 C 331.57 350.36 337.65 347.02 342.00 343.00
C 347.95 337.50 353.67 330.76 359.00 325.00
C 374.68 303.48 386.00 278.29 386.00 251.00
C 386.00 246.67 386.00 242.33 386.00 238.00
C 386.00 231.81 385.02 226.39 384.00 221.00
C 381.42 223.24 381.47 220.58 380.00 225.00
C 380.56 219.49 378.72 223.90 377.00 221.00
C 377.02 226.11 376.32 223.94 375.00 221.00
C 373.78 225.05 371.75 224.94 371.00 221.00
C 369.78 225.05 367.75 224.94 367.00 221.00
C 367.46 226.11 363.75 224.80 363.00 221.00
C 363.46 226.11 359.75 224.80 359.00 221.00
C 359.46 226.11 355.75 224.80 355.00 221.00
C 356.94 222.87 352.97 225.13 353.00 225.00 Z"/>
</g>
<g fill="None" fill-opacity="0.0" stroke="#9A41CC" stroke-opacity="1.00" stroke-width="0.3"><path d="
M 45.00 233.00 
C 45.00 281.67 45.00 330.33 45.00 379.00
C 46.09 382.12 49.09 377.31 48.00 383.00
C 48.75 379.20 52.46 377.89 52.00 383.00
C 52.75 379.20 56.46 377.89 56.00 383.00
C 56.75 379.20 60.46 377.89 60.00 383.00
C 61.03 375.56 67.14 384.56 67.00 377.00
C 67.75 380.80 71.46 382.11 71.00 377.00
C 71.75 380.80 75.46 382.11 75.00 377.00
C 75.75 380.80 79.46 382.11 79.00 377.00
C 79.75 380.80 83.46 382.11 83.00 377.00
C 83.75 380.80 87.46 382.11 87.00 377.00
C 87.75 380.94 89.78 381.05 91.00 377.00
C 91.75 380.94 93.78 381.05 95.00 377.00
C 96.33 379.94 97.02 382.11 97.00 377.00
C 98.72 379.90 100.56 375.49 100.00 381.00
C 100.75 377.20 104.46 375.89 104.00 381.00
C 104.75 377.20 108.46 375.89 108.00 381.00
C 108.75 377.20 112.46 375.89 112.00 381.00
C 113.44 374.99 118.02 379.12 120.77 378.58 C 123.52 378.03 126.87 377.99 129.77 377.42 C 132.67 376.86 135.79 379.53 138.77 378.58 C 141.75 377.62 146.33 380.26 147.00 375.00
C 147.75 378.80 151.46 380.11 151.00 375.00
C 151.75 378.80 155.46 380.11 155.00 375.00
C 155.75 378.80 159.46 380.11 159.00 375.00
C 159.75 378.80 163.46 380.11 163.00 375.00
C 163.75 378.80 167.46 380.11 167.00 375.00
C 167.75 378.94 169.78 379.05 171.00 375.00
C 171.75 378.94 173.78 379.05 175.00 375.00
C 176.33 377.94 177.02 380.11 177.00 375.00
C 178.72 377.90 180.56 373.49 180.00 379.00
C 181.16 374.02 182.27 378.12 184.00 374.00
C 174.57 368.16 165.61 362.35 157.00 355.00
C 153.06 351.63 149.33 347.89 146.00 344.00
C 125.15 319.60 109.00 288.69 109.00 256.00
C 108.39 249.74 108.28 241.99 108.00 235.00
C 108.00 233.00 108.00 231.00 108.00 229.00
C 105.26 231.93 104.14 233.79 103.00 229.00
C 101.78 233.05 99.75 232.94 99.00 229.00
C 99.46 234.11 95.75 232.80 95.00 229.00
C 95.46 234.11 91.75 232.80 91.00 229.00
C 91.46 234.11 87.75 232.80 87.00 229.00
C 87.46 234.11 83.75 232.80 83.00 229.00
C 82.16 237.16 74.00 226.91 72.00 235.00
C 72.46 229.89 68.75 231.20 68.00 235.00
C 68.46 229.89 64.75 231.20 64.00 235.00
C 64.46 229.89 60.75 231.20 60.00 235.00
C 60.46 229.89 56.75 231.20 56.00 235.00
C 56.46 229.89 52.75 231.20 52.00 235.00
C 52.82 229.26 49.94 232.84 48.00 235.00
C 49.65 231.43 45.93 230.87 45.00 233.00 Z"/>
</g>
<g fill="None" fill-opacity="0.0" stroke="#C8C9C8" stroke-opacity="1.00" stroke-width="0.3"><path d="
M 215.00 318.00 
C 215.00 318.00 215.03 317.50 215.00 317.00
C 200.42 304.25 185.76 294.50 180.00 275.00
C 176.11 261.84 173.46 248.55 175.00 234.00
C 173.41 240.70 173.88 251.33 174.67 258.33 C 175.47 265.32 177.32 273.20 180.03 278.97 C 182.74 284.75 185.94 290.35 189.23 294.77 C 192.52 299.19 197.73 305.99 201.25 308.75 C 204.77 311.52 213.21 319.88 215.00 318.00 Z"/>
</g>
<g fill="None" fill-opacity="0.0" stroke="#B3B1B5" stroke-opacity="1.00" stroke-width="0.3"><path d="
M 294.00 320.00 
C 296.69 313.39 308.34 312.37 312.75 305.75 C 317.17 299.13 323.91 294.90 327.08 287.08 C 330.25 279.26 334.86 272.20 336.22 263.22 C 337.58 254.24 338.85 243.08 337.00 234.00
C 338.13 246.82 335.33 261.04 332.32 272.32 C 329.32 283.60 321.63 290.02 316.25 299.25 C 310.87 308.48 295.58 310.68 294.00 320.00 Z"/>
</g>
<g fill="None" fill-opacity="0.0" stroke="#AD9EB5" stroke-opacity="1.00" stroke-width="0.3"><path d="
M 125.00 240.00 
C 124.57 243.50 125.74 247.29 126.00 250.00
C 126.00 246.00 126.00 242.00 126.00 238.00
C 125.83 238.64 125.14 238.87 125.00 240.00 Z"/>
</g>
<g fill="None" fill-opacity="0.0" stroke="#AD9FB5" stroke-opacity="1.00" stroke-width="0.3"><path d="
M 386.00 251.00 
C 386.00 250.96 387.00 251.00 387.00 251.00
C 387.00 246.59 386.36 241.73 386.00 238.00
C 386.00 242.33 386.00 246.67 386.00 251.00 Z"/>
</g>
<g fill="None" fill-opacity="0.0" stroke="#CECFCF" stroke-opacity="1.00" stroke-width="0.3"><path d="
M 217.00 373.00 
C 214.86 367.27 201.14 367.47 195.92 363.08 C 190.70 358.68 182.07 356.06 176.77 351.23 C 171.47 346.40 164.89 341.62 160.25 335.75 C 155.60 329.88 150.10 325.31 146.23 318.77 C 142.36 312.23 138.32 304.26 136.00 297.00
C 132.30 285.47 127.98 274.33 127.00 262.00
C 126.32 258.49 126.00 254.21 126.00 250.00
C 125.74 247.29 124.57 243.50 125.00 240.00
C 120.54 250.95 127.53 268.97 128.67 280.33 C 129.82 291.69 136.32 302.76 141.23 312.77 C 146.14 322.78 153.58 330.45 161.25 338.75 C 168.91 347.05 176.79 353.22 186.30 358.70 C 195.81 364.17 206.76 369.53 217.00 373.00 Z"/>
</g>
<g fill="None" fill-opacity="0.0" stroke="#C5C5C5" stroke-opacity="1.00" stroke-width="0.3"><path d="
M 359.00 325.00 
C 354.11 331.71 347.87 337.13 342.00 343.00
C 334.96 350.04 327.89 354.16 319.77 359.77 C 311.65 365.38 300.41 366.54 292.00 371.00
C 291.84 371.44 292.01 372.50 292.00 373.00
C 298.38 375.70 308.32 366.22 314.77 364.77 C 321.22 363.32 328.00 356.32 334.25 353.25 C 340.51 350.19 345.25 343.75 350.75 338.75 C 356.25 333.76 360.98 328.18 364.75 321.75 C 368.52 315.31 373.29 309.53 376.07 302.07 C 378.85 294.62 382.62 287.37 384.00 279.00 C 385.38 270.63 387.00 259.95 387.00 251.00
C 387.00 251.00 386.00 250.96 386.00 251.00
C 386.00 278.29 374.68 303.48 359.00 325.00 Z"/>
</g>
<g fill="None" fill-opacity="0.0" stroke="#A7A4A9" stroke-opacity="1.00" stroke-width="0.3"><path d="
M 215.00 317.00 
C 214.65 311.39 204.85 308.97 201.25 304.75 C 197.65 300.54 192.25 295.67 189.25 290.75 C 186.26 285.82 182.21 280.18 180.00 275.00
C 185.76 294.50 200.42 304.25 215.00 317.00 Z"/>
</g>
<g fill="None" fill-opacity="0.0" stroke="#B4B0B7" stroke-opacity="1.00" stroke-width="0.3"><path d="
M 224.00 294.00 
C 229.25 284.58 246.02 284.98 255.00 285.00 C 263.98 285.02 280.85 284.76 286.00 294.00
C 282.34 282.42 265.34 282.27 255.00 282.00 C 244.66 281.73 227.63 282.53 224.00 294.00 Z"/>
</g>
<g fill="None" fill-opacity="0.0" stroke="#D8D4DA" stroke-opacity="1.00" stroke-width="0.3"><path d="
M 224.00 294.00 
C 220.25 305.85 223.55 321.15 224.00 334.00 C 224.45 346.85 223.73 361.89 225.00 375.00
C 225.89 384.19 224.09 399.64 228.00 408.00
C 224.94 397.78 228.98 385.61 227.00 375.00 C 225.02 364.39 227.53 352.86 226.00 342.00 C 224.47 331.14 225.87 319.14 225.00 308.00 C 224.13 296.86 227.93 290.45 239.08 288.08 C 250.22 285.71 258.85 287.45 270.22 288.78 C 281.59 290.11 286.20 297.38 285.00 309.00 C 283.80 320.62 284.55 329.89 283.00 341.00 C 281.45 352.11 283.32 362.90 282.00 374.00 C 280.68 385.10 283.41 397.12 281.00 408.00
C 283.57 401.05 282.57 392.86 283.00 385.00
C 283.80 370.33 285.51 353.78 285.01 339.01 C 284.50 324.24 290.43 308.00 286.00 294.00
C 280.85 284.76 263.98 285.02 255.00 285.00 C 246.02 284.98 229.25 284.58 224.00 294.00 Z"/>
</g>
<g fill="None" fill-opacity="0.0" stroke="#FDFDFD" stroke-opacity="1.00" stroke-width="0.3"><path d="
M 228.00 408.00 
C 236.17 425.47 274.09 426.72 281.00 408.00
C 283.41 397.12 280.68 385.10 282.00 374.00 C 283.32 362.90 281.45 352.11 283.00 341.00 C 284.55 329.89 283.80 320.62 285.00 309.00 C 286.20 297.38 281.59 290.11 270.22 288.78 C 258.85 287.45 250.22 285.71 239.08 288.08 C 227.93 290.45 224.13 296.86 225.00 308.00 C 225.87 319.14 224.47 331.14 226.00 342.00 C 227.53 352.86 225.02 364.39 227.00 375.00 C 228.98 385.61 224.94 397.78 228.00 408.00 Z"/>
</g>
<g fill="None" fill-opacity="0.0" stroke="#8B33C1" stroke-opacity="0.99" stroke-width="0.3"><path d="
M 394.00 298.00 
C 387.90 314.53 378.61 329.41 367.00 343.00
C 363.04 347.63 358.58 352.08 354.00 356.00
C 335.44 371.03 314.44 383.79 291.00 388.00
C 290.65 387.60 291.43 385.25 291.00 385.00
C 288.44 383.51 285.78 384.83 283.00 385.00
C 282.57 392.86 283.57 401.05 281.00 408.00
C 274.09 426.72 236.17 425.47 228.00 408.00
C 224.09 399.64 225.89 384.19 225.00 375.00
C 224.15 373.91 218.83 374.08 218.00 375.00
C 217.95 375.50 218.00 376.50 218.00 377.00
C 218.00 380.67 218.00 384.33 218.00 388.00
C 206.39 384.49 194.43 380.46 184.00 374.00
C 182.27 378.12 181.16 374.02 180.00 379.00
C 180.56 373.49 178.72 377.90 177.00 375.00
C 177.02 380.11 176.33 377.94 175.00 375.00
C 173.78 379.05 171.75 378.94 171.00 375.00
C 169.78 379.05 167.75 378.94 167.00 375.00
C 167.46 380.11 163.75 378.80 163.00 375.00
C 163.46 380.11 159.75 378.80 159.00 375.00
C 159.46 380.11 155.75 378.80 155.00 375.00
C 155.46 380.11 151.75 378.80 151.00 375.00
C 151.46 380.11 147.75 378.80 147.00 375.00
C 146.33 380.26 141.75 377.62 138.77 378.58 C 135.79 379.53 132.67 376.86 129.77 377.42 C 126.87 377.99 123.52 378.03 120.77 378.58 C 118.02 379.12 113.44 374.99 112.00 381.00
C 112.46 375.89 108.75 377.20 108.00 381.00
C 108.46 375.89 104.75 377.20 104.00 381.00
C 104.46 375.89 100.75 377.20 100.00 381.00
C 100.56 375.49 98.72 379.90 97.00 377.00
C 97.02 382.11 96.33 379.94 95.00 377.00
C 93.78 381.05 91.75 380.94 91.00 377.00
C 89.78 381.05 87.75 380.94 87.00 377.00
C 87.46 382.11 83.75 380.80 83.00 377.00
C 83.46 382.11 79.75 380.80 79.00 377.00
C 79.46 382.11 75.75 380.80 75.00 377.00
C 75.46 382.11 71.75 380.80 71.00 377.00
C 71.46 382.11 67.75 380.80 67.00 377.00
C 67.14 384.56 61.03 375.56 60.00 383.00
C 60.46 377.89 56.75 379.20 56.00 383.00
C 56.46 377.89 52.75 379.20 52.00 383.00
C 52.46 377.89 48.75 379.20 48.00 383.00
C 49.09 377.31 46.09 382.12 45.00 379.00
C 45.00 381.57 44.03 385.16 44.00 387.00
C 46.41 417.30 62.12 443.17 90.92 458.08 C 119.73 472.98 163.39 467.65 198.00 468.00 C 232.61 468.35 280.44 468.28 315.00 468.00 C 349.56 467.72 393.22 472.93 421.77 457.77 C 450.32 442.61 465.61 417.11 468.00 387.00
C 467.50 358.60 467.00 328.21 467.00 299.00
C 464.42 296.76 464.47 299.42 463.00 295.00
C 462.33 300.26 457.75 297.62 454.77 298.58 C 451.79 299.53 448.67 296.86 445.77 297.42 C 442.87 297.99 439.52 298.03 436.77 298.58 C 434.02 299.12 429.44 294.99 428.00 301.00
C 428.46 295.89 424.76 297.20 424.00 301.00
C 424.46 295.89 420.75 297.20 420.00 301.00
C 420.46 295.89 416.75 297.20 416.00 301.00
C 416.46 295.89 412.75 297.20 412.00 301.00
C 412.56 295.49 410.72 299.90 409.00 297.00
C 409.02 302.11 408.33 299.94 407.00 297.00
C 405.78 301.05 403.75 300.94 403.00 297.00
C 401.78 301.05 399.75 300.94 399.00 297.00
C 399.56 302.51 397.72 298.10 396.00 301.00
C 395.85 299.16 396.53 296.20 394.00 298.00 Z"/>
</g>
<g fill="None" fill-opacity="0.0" stroke="#ADABAF" stroke-opacity="1.00" stroke-width="0.3"><path d="
M 217.00 373.00 
C 217.26 373.71 217.93 376.59 218.00 377.00
C 218.00 376.50 217.95 375.50 218.00 375.00
C 218.99 364.78 200.40 364.99 193.70 359.30 C 186.99 353.61 176.40 349.96 170.25 342.75 C 164.10 335.55 156.11 330.05 150.77 322.23 C 145.43 314.41 140.12 305.34 136.00 297.00
C 138.32 304.26 142.36 312.23 146.23 318.77 C 150.10 325.31 155.60 329.88 160.25 335.75 C 164.89 341.62 171.47 346.40 176.77 351.23 C 182.07 356.06 190.70 358.68 195.92 363.08 C 201.14 367.47 214.86 367.27 217.00 373.00 Z"/>
</g>
<g fill="None" fill-opacity="0.0" stroke="#94839E" stroke-opacity="1.00" stroke-width="0.3"><path d="
M 342.00 343.00 
C 347.87 337.13 354.11 331.71 359.00 325.00
C 353.67 330.76 347.95 337.50 342.00 343.00 Z"/>
</g>
<g fill="None" fill-opacity="0.0" stroke="#9A979C" stroke-opacity="1.00" stroke-width="0.3"><path d="
M 292.00 371.00 
C 300.41 366.54 311.65 365.38 319.77 359.77 C 327.89 354.16 334.96 350.04 342.00 343.00
C 337.65 347.02 331.57 350.36 327.08 354.08 C 322.58 357.79 314.47 359.90 310.22 363.22 C 305.98 366.55 293.72 366.41 292.00 371.00 Z"/>
</g>
<g fill="None" fill-opacity="0.0" stroke="#AF91C0" stroke-opacity="1.00" stroke-width="0.3"><path d="
M 354.00 356.00 
C 358.58 352.08 363.04 347.63 367.00 343.00
C 362.80 347.20 358.25 351.75 354.00 356.00 Z"/>
</g>
<g fill="None" fill-opacity="0.0" stroke="#B096C1" stroke-opacity="1.00" stroke-width="0.3"><path d="
M 157.00 355.00 
C 153.46 351.46 149.59 347.59 146.00 344.00
C 149.33 347.89 153.06 351.63 157.00 355.00 Z"/>
</g>
<g fill="#000000" fill-opacity="0.00" stroke="None">
<path d="
M 0.00 512.00 
L 512.00 512.00
L 512.00 0.00
L 0.00 0.00
L 0.00 512.00
M 468.00 125.00 
C 470.28 153.79 467.39 183.08 468.00 212.00 C 468.61 240.92 468.65 270.02 468.00 299.00 C 467.35 327.98 470.30 358.07 468.00 387.00
C 465.61 417.11 450.32 442.61 421.77 457.77 C 393.22 472.93 349.56 467.72 315.00 468.00 C 280.44 468.28 232.61 468.35 198.00 468.00 C 163.39 467.65 119.73 472.98 90.92 458.08 C 62.12 443.17 46.41 417.30 44.00 387.00
C 41.71 358.21 44.61 328.92 44.00 300.00 C 43.39 271.08 43.35 241.98 44.00 213.00 C 44.65 184.02 41.70 153.93 44.00 125.00
C 46.39 94.89 61.68 69.39 90.23 54.23 C 118.78 39.07 162.44 44.28 197.00 44.00 C 231.56 43.72 279.39 43.65 314.00 44.00 C 348.61 44.35 392.27 39.02 421.08 53.92 C 449.88 68.83 465.60 94.70 468.00 125.00 Z"/>
</g>
<g fill="#B95EE1" fill-opacity="1.00" stroke="None">
<path d="
M 44.00 125.00 
C 44.62 160.15 45.00 197.11 45.00 233.00
C 45.93 230.87 49.65 231.43 48.00 235.00
C 49.94 232.84 52.82 229.26 52.00 235.00
C 52.75 231.20 56.46 229.89 56.00 235.00
C 56.75 231.20 60.46 229.89 60.00 235.00
C 60.75 231.20 64.46 229.89 64.00 235.00
C 64.75 231.20 68.46 229.89 68.00 235.00
C 68.75 231.20 72.46 229.89 72.00 235.00
C 74.00 226.91 82.16 237.16 83.00 229.00
C 83.75 232.80 87.46 234.11 87.00 229.00
C 87.75 232.80 91.46 234.11 91.00 229.00
C 91.75 232.80 95.46 234.11 95.00 229.00
C 95.75 232.80 99.46 234.11 99.00 229.00
C 99.75 232.94 101.78 233.05 103.00 229.00
C 104.14 233.79 105.26 231.93 108.00 229.00
C 108.00 231.00 108.00 233.00 108.00 235.00
C 109.98 214.59 115.86 195.86 124.00 177.00
C 128.74 166.02 137.19 155.14 145.00 146.00
C 148.66 141.71 152.76 137.62 157.00 134.00
C 181.26 113.27 213.57 97.00 246.00 97.00
C 252.61 96.36 260.46 96.37 267.00 97.00
C 313.54 97.00 360.95 129.93 384.00 170.00
C 385.50 172.61 386.64 175.33 388.00 178.00
C 389.79 179.50 399.90 179.11 399.00 175.00
C 399.75 178.80 403.46 180.11 403.00 175.00
C 403.75 178.80 407.46 180.11 407.00 175.00
C 407.76 178.80 411.46 180.11 411.00 175.00
C 411.75 178.80 415.46 180.11 415.00 175.00
C 415.75 178.80 419.46 180.11 419.00 175.00
C 419.75 178.94 421.78 179.05 423.00 175.00
C 424.32 177.94 425.02 180.11 425.00 175.00
C 426.72 177.90 428.56 173.49 428.00 179.00
C 428.75 175.20 432.46 173.89 432.00 179.00
C 432.76 175.20 436.46 173.89 436.00 179.00
C 436.75 175.20 440.46 173.89 440.00 179.00
C 440.75 175.20 444.46 173.89 444.00 179.00
C 446.00 170.91 454.16 181.16 455.00 173.00
C 455.75 176.80 459.46 178.11 459.00 173.00
C 459.75 176.80 463.46 178.11 463.00 173.00
C 464.47 177.42 464.42 174.76 467.00 177.00
C 467.00 159.79 467.71 141.41 468.00 125.00
C 465.60 94.70 449.88 68.83 421.08 53.92 C 392.27 39.02 348.61 44.35 314.00 44.00 C 279.39 43.65 231.56 43.72 197.00 44.00 C 162.44 44.28 118.78 39.07 90.23 54.23 C 61.68 69.39 46.39 94.89 44.00 125.00 Z"/>
</g>
<g fill="#9D7EAA" fill-opacity="1.00" stroke="None">
<path d="
M 246.00 97.00 
C 253.00 97.00 260.00 97.00 267.00 97.00
C 260.46 96.37 252.61 96.36 246.00 97.00 Z"/>
</g>
<g fill="#A6A4A7" fill-opacity="1.00" stroke="None">
<path d="
M 157.00 134.00 
C 153.08 137.92 148.87 142.13 145.00 146.00
C 137.19 155.14 128.74 166.02 124.00 177.00
C 152.77 131.01 194.75 101.93 250.00 99.00 C 305.25 96.07 352.14 126.28 384.00 170.00
C 360.95 129.93 313.54 97.00 267.00 97.00
C 260.00 97.00 253.00 97.00 246.00 97.00
C 213.57 97.00 181.26 113.27 157.00 134.00 Z"/>
</g>
<g fill="#CFCFCF" fill-opacity="1.00" stroke="None">
<path d="
M 124.00 177.00 
C 115.86 195.86 109.98 214.59 108.00 235.00
C 108.28 241.99 108.39 249.74 109.00 256.00
C 109.00 228.07 114.81 196.39 129.31 173.31 C 143.80 150.22 158.23 135.68 181.25 121.25 C 204.26 106.82 236.83 99.24 265.00 101.00 C 293.17 102.76 317.88 112.25 340.75 128.25 C 363.62 144.25 374.59 160.16 388.31 184.69 C 402.02 209.23 402.71 243.44 401.00 272.00
C 406.51 239.39 403.05 207.44 388.00 178.00
C 386.64 175.33 385.50 172.61 384.00 170.00
C 352.14 126.28 305.25 96.07 250.00 99.00 C 194.75 101.93 152.77 131.01 124.00 177.00 Z"/>
</g>
<g fill="#F7F8F7" fill-opacity="1.00" stroke="None">
<path d="
M 109.00 256.00 
C 109.00 288.69 125.15 319.60 146.00 344.00
C 149.59 347.59 153.46 351.46 157.00 355.00
C 165.61 362.35 174.57 368.16 184.00 374.00
C 194.43 380.46 206.39 384.49 218.00 388.00
C 218.00 384.33 218.00 380.67 218.00 377.00
C 217.93 376.59 217.26 373.71 217.00 373.00
C 206.76 369.53 195.81 364.17 186.30 358.70 C 176.79 353.22 168.91 347.05 161.25 338.75 C 153.58 330.45 146.14 322.78 141.23 312.77 C 136.32 302.76 129.82 291.69 128.67 280.33 C 127.53 268.97 120.54 250.95 125.00 240.00
C 125.14 238.87 125.83 238.64 126.00 238.00
C 126.00 176.17 181.40 119.81 242.00 115.00
C 244.62 114.49 247.75 114.00 251.00 114.00
C 254.00 114.00 257.00 114.00 260.00 114.00
C 263.56 114.00 267.13 114.49 270.00 115.00
C 326.74 118.86 373.71 166.72 384.00 221.00
C 385.02 226.39 386.00 231.81 386.00 238.00
C 386.36 241.73 387.00 246.59 387.00 251.00
C 387.00 259.95 385.38 270.63 384.00 279.00 C 382.62 287.37 378.85 294.62 376.07 302.07 C 373.29 309.53 368.52 315.31 364.75 321.75 C 360.98 328.18 356.25 333.76 350.75 338.75 C 345.25 343.75 340.51 350.19 334.25 353.25 C 328.00 356.32 321.22 363.32 314.77 364.77 C 308.32 366.22 298.38 375.70 292.00 373.00
C 291.90 376.69 289.77 381.21 291.00 385.00
C 291.43 385.25 290.65 387.60 291.00 388.00
C 314.44 383.79 335.44 371.03 354.00 356.00
C 358.25 351.75 362.80 347.20 367.00 343.00
C 378.61 329.41 387.90 314.53 394.00 298.00
C 397.09 289.62 400.46 281.07 401.00 272.00
C 402.71 243.44 402.02 209.23 388.31 184.69 C 374.59 160.16 363.62 144.25 340.75 128.25 C 317.88 112.25 293.17 102.76 265.00 101.00 C 236.83 99.24 204.26 106.82 181.25 121.25 C 158.23 135.68 143.80 150.22 129.31 173.31 C 114.81 196.39 109.00 228.07 109.00 256.00 Z"/>
</g>
<g fill="#C5AFCF" fill-opacity="1.00" stroke="None">
<path d="
M 242.00 115.00 
C 244.92 114.77 248.75 114.22 251.00 114.00
C 247.75 114.00 244.62 114.49 242.00 115.00 Z"/>
</g>
<g fill="#B057DA" fill-opacity="1.00" stroke="None">
<path d="
M 242.00 115.00 
C 181.40 119.81 126.00 176.17 126.00 238.00
C 126.00 242.00 126.00 246.00 126.00 250.00
C 126.00 254.21 126.32 258.49 127.00 262.00
C 126.76 259.02 127.18 255.99 127.00 253.00
C 127.75 256.80 131.46 258.11 131.00 253.00
C 131.75 256.80 135.46 258.11 135.00 253.00
C 135.75 256.80 139.46 258.11 139.00 253.00
C 139.75 256.80 143.46 258.11 143.00 253.00
C 143.75 256.80 147.46 258.11 147.00 253.00
C 147.75 256.80 151.46 258.11 151.00 253.00
C 151.75 256.94 153.78 257.05 155.00 253.00
C 156.82 253.72 155.08 258.19 158.00 256.00
C 154.84 232.30 161.14 208.53 174.00 189.00
C 208.87 136.05 298.74 128.80 335.00 185.00
C 343.21 197.73 350.12 210.06 353.00 225.00
C 352.97 225.13 356.94 222.87 355.00 221.00
C 355.75 224.80 359.46 226.11 359.00 221.00
C 359.75 224.80 363.46 226.11 363.00 221.00
C 363.75 224.80 367.46 226.11 367.00 221.00
C 367.75 224.94 369.78 225.05 371.00 221.00
C 371.75 224.94 373.78 225.05 375.00 221.00
C 376.32 223.94 377.02 226.11 377.00 221.00
C 378.72 223.90 380.56 219.49 380.00 225.00
C 381.47 220.58 381.42 223.24 384.00 221.00
C 373.71 166.72 326.74 118.86 270.00 115.00
C 266.72 114.78 262.60 114.25 260.00 114.00
C 257.00 114.00 254.00 114.00 251.00 114.00
C 248.75 114.22 244.92 114.77 242.00 115.00 Z"/>
</g>
<g fill="#C4ACCF" fill-opacity="1.00" stroke="None">
<path d="
M 270.00 115.00 
C 267.13 114.49 263.56 114.00 260.00 114.00
C 262.60 114.25 266.72 114.78 270.00 115.00 Z"/>
</g>
<g fill="#A34AD1" fill-opacity="0.50" stroke="None">
<path d="
M 44.00 387.00 
C 44.03 385.16 45.00 381.57 45.00 379.00
C 45.00 330.33 45.00 281.67 45.00 233.00
C 45.00 197.11 44.62 160.15 44.00 125.00
C 41.70 153.93 44.65 184.02 44.00 213.00 C 43.35 241.98 43.39 271.08 44.00 300.00 C 44.61 328.92 41.71 358.21 44.00 387.00 Z"/>
</g>
<g fill="#A047D0" fill-opacity="0.50" stroke="None">
<path d="
M 467.00 177.00 
C 467.00 217.67 467.00 258.33 467.00 299.00
C 467.00 328.21 467.50 358.60 468.00 387.00
C 470.30 358.07 467.35 327.98 468.00 299.00 C 468.65 270.02 468.61 240.92 468.00 212.00 C 467.39 183.08 470.28 153.79 468.00 125.00
C 467.71 141.41 467.00 159.79 467.00 177.00 Z"/>
</g>
<g fill="#A07BB1" fill-opacity="1.00" stroke="None">
<path d="
M 145.00 146.00 
C 148.87 142.13 153.08 137.92 157.00 134.00
C 152.76 137.62 148.66 141.71 145.00 146.00 Z"/>
</g>
<g fill="#9B979D" fill-opacity="1.00" stroke="None">
<path d="
M 174.00 189.00 
C 194.40 164.65 220.02 148.25 252.00 147.00 C 283.98 145.75 313.79 160.66 335.00 185.00
C 298.74 128.80 208.87 136.05 174.00 189.00 Z"/>
</g>
<g fill="#BFBFC0" fill-opacity="1.00" stroke="None">
<path d="
M 174.00 189.00 
C 161.14 208.53 154.84 232.30 158.00 256.00
C 159.03 263.69 160.55 270.11 163.00 277.00
C 154.28 238.27 160.95 197.30 193.25 171.25 C 225.55 145.20 266.65 142.88 302.70 161.31 C 338.74 179.73 354.78 215.85 354.00 255.00
C 355.19 245.16 354.92 234.97 353.00 225.00
C 350.12 210.06 343.21 197.73 335.00 185.00
C 313.79 160.66 283.98 145.75 252.00 147.00 C 220.02 148.25 194.40 164.65 174.00 189.00 Z"/>
</g>
<g fill="#F6F7F6" fill-opacity="1.00" stroke="None">
<path d="
M 163.00 277.00 
C 168.80 302.74 192.73 324.57 216.00 335.00
C 215.35 329.50 217.32 322.67 215.00 318.00
C 213.21 319.88 204.77 311.52 201.25 308.75 C 197.73 305.99 192.52 299.19 189.23 294.77 C 185.94 290.35 182.74 284.75 180.03 278.97 C 177.32 273.20 175.47 265.32 174.67 258.33 C 173.88 251.33 173.41 240.70 175.00 234.00
C 175.18 232.33 175.60 231.53 176.00 230.00
C 184.75 196.21 209.66 166.54 247.00 164.00
C 252.71 162.98 259.35 162.99 265.00 164.00
C 297.85 166.24 324.63 191.54 334.00 222.00
C 335.07 225.47 336.65 230.02 337.00 234.00
C 338.85 243.08 337.58 254.24 336.22 263.22 C 334.86 272.20 330.25 279.26 327.08 287.08 C 323.91 294.90 317.17 299.13 312.75 305.75 C 308.34 312.37 296.69 313.39 294.00 320.00
C 293.12 325.19 294.66 330.78 294.00 336.00
C 326.56 322.81 351.93 290.12 354.00 255.00
C 354.78 215.85 338.74 179.73 302.70 161.31 C 266.65 142.88 225.55 145.20 193.25 171.25 C 160.95 197.30 154.28 238.27 163.00 277.00 Z"/>
</g>
<g fill="#C0A5CD" fill-opacity="1.00" stroke="None">
<path d="
M 247.00 164.00 
C 252.81 163.60 259.19 163.60 265.00 164.00
C 259.35 162.99 252.71 162.98 247.00 164.00 Z"/>
</g>
<g fill="#AC53D7" fill-opacity="1.00" stroke="None">
<path d="
M 176.00 230.00 
C 177.40 228.30 180.21 232.57 179.00 227.00
C 179.75 230.94 181.77 231.05 183.00 227.00
C 183.75 230.94 185.77 231.05 187.00 227.00
C 188.33 229.94 189.02 232.11 189.00 227.00
C 190.72 229.90 192.56 225.49 192.00 231.00
C 192.75 227.20 196.46 225.89 196.00 231.00
C 196.75 227.20 200.46 225.89 200.00 231.00
C 200.75 227.20 204.46 225.89 204.00 231.00
C 206.00 222.91 214.16 233.16 215.00 225.00
C 216.72 226.50 215.53 230.38 218.00 227.00
C 218.91 228.83 218.34 231.74 220.00 233.00
C 220.00 224.98 220.47 218.98 224.00 212.00
C 236.43 187.42 273.58 187.44 286.00 212.00
C 288.10 216.16 289.68 220.28 290.00 225.00
C 291.28 227.01 296.61 227.31 295.00 223.00
C 295.76 226.80 299.46 228.11 299.00 223.00
C 299.75 226.80 303.46 228.11 303.00 223.00
C 303.75 226.80 307.46 228.11 307.00 223.00
C 307.75 226.80 311.46 228.11 311.00 223.00
C 311.75 226.80 315.46 228.11 315.00 223.00
C 315.75 226.94 317.78 227.05 319.00 223.00
C 320.33 225.94 321.02 228.11 321.00 223.00
C 322.72 225.90 324.56 221.49 324.00 227.00
C 324.75 223.20 328.46 221.89 328.00 227.00
C 329.43 222.61 331.50 222.62 333.00 227.00
C 332.77 225.17 333.07 223.53 334.00 222.00
C 324.63 191.54 297.85 166.24 265.00 164.00
C 259.19 163.60 252.81 163.60 247.00 164.00
C 209.66 166.54 184.75 196.21 176.00 230.00 Z"/>
</g>
<g fill="#A54BD3" fill-opacity="1.00" stroke="None">
<path d="
M 388.00 178.00 
C 403.05 207.44 406.51 239.39 401.00 272.00
C 400.46 281.07 397.09 289.62 394.00 298.00
C 396.53 296.20 395.85 299.16 396.00 301.00
C 397.72 298.10 399.56 302.51 399.00 297.00
C 399.75 300.94 401.78 301.05 403.00 297.00
C 403.75 300.94 405.78 301.05 407.00 297.00
C 408.33 299.94 409.02 302.11 409.00 297.00
C 410.72 299.90 412.56 295.49 412.00 301.00
C 412.75 297.20 416.46 295.89 416.00 301.00
C 416.75 297.20 420.46 295.89 420.00 301.00
C 420.75 297.20 424.46 295.89 424.00 301.00
C 424.76 297.20 428.46 295.89 428.00 301.00
C 429.44 294.99 434.02 299.12 436.77 298.58 C 439.52 298.03 442.87 297.99 445.77 297.42 C 448.67 296.86 451.79 299.53 454.77 298.58 C 457.75 297.62 462.33 300.26 463.00 295.00
C 464.47 299.42 464.42 296.76 467.00 299.00
C 467.00 258.33 467.00 217.67 467.00 177.00
C 464.42 174.76 464.47 177.42 463.00 173.00
C 463.46 178.11 459.75 176.80 459.00 173.00
C 459.46 178.11 455.75 176.80 455.00 173.00
C 454.16 181.16 446.00 170.91 444.00 179.00
C 444.46 173.89 440.75 175.20 440.00 179.00
C 440.46 173.89 436.75 175.20 436.00 179.00
C 436.46 173.89 432.76 175.20 432.00 179.00
C 432.46 173.89 428.75 175.20 428.00 179.00
C 428.56 173.49 426.72 177.90 425.00 175.00
C 425.02 180.11 424.32 177.94 423.00 175.00
C 421.78 179.05 419.75 178.94 419.00 175.00
C 419.46 180.11 415.75 178.80 415.00 175.00
C 415.46 180.11 411.75 178.80 411.00 175.00
C 411.46 180.11 407.76 178.80 407.00 175.00
C 407.46 180.11 403.75 178.80 403.00 175.00
C 403.46 180.11 399.75 178.80 399.00 175.00
C 399.90 179.11 389.79 179.50 388.00 178.00 Z"/>
</g>
<g fill="#BCB8BE" fill-opacity="1.00" stroke="None">
<path d="
M 224.00 212.00 
C 239.15 191.00 270.92 191.11 286.00 212.00
C 273.58 187.44 236.43 187.42 224.00 212.00 Z"/>
</g>
<g fill="#D9D9D9" fill-opacity="1.00" stroke="None">
<path d="
M 224.00 212.00 
C 220.47 218.98 220.00 224.98 220.00 233.00
C 220.00 233.50 219.89 234.52 220.00 235.00
C 219.20 216.59 234.89 198.48 254.00 198.00 C 273.11 197.52 290.28 215.17 290.00 234.00
C 290.32 231.17 290.19 227.84 290.00 225.00
C 289.68 220.28 288.10 216.16 286.00 212.00
C 270.92 191.11 239.15 191.00 224.00 212.00 Z"/>
</g>
<g fill="#FCFDFC" fill-opacity="1.00" stroke="None">
<path d="
M 220.00 235.00 
C 228.09 271.49 285.59 273.46 290.00 234.00
C 290.28 215.17 273.11 197.52 254.00 198.00 C 234.89 198.48 219.20 216.59 220.00 235.00 Z"/>
</g>
<g fill="#9D45CD" fill-opacity="1.00" stroke="None">
<path d="
M 353.00 225.00 
C 354.92 234.97 355.19 245.16 354.00 255.00
C 351.93 290.12 326.56 322.81 294.00 336.00
C 294.66 330.78 293.12 325.19 294.00 320.00
C 295.58 310.68 310.87 308.48 316.25 299.25 C 321.63 290.02 329.32 283.60 332.32 272.32 C 335.33 261.04 338.13 246.82 337.00 234.00
C 336.65 230.02 335.07 225.47 334.00 222.00
C 333.07 223.53 332.77 225.17 333.00 227.00
C 331.50 222.62 329.43 222.61 328.00 227.00
C 328.46 221.89 324.75 223.20 324.00 227.00
C 324.56 221.49 322.72 225.90 321.00 223.00
C 321.02 228.11 320.33 225.94 319.00 223.00
C 317.78 227.05 315.75 226.94 315.00 223.00
C 315.46 228.11 311.75 226.80 311.00 223.00
C 311.46 228.11 307.75 226.80 307.00 223.00
C 307.46 228.11 303.75 226.80 303.00 223.00
C 303.46 228.11 299.75 226.80 299.00 223.00
C 299.46 228.11 295.76 226.80 295.00 223.00
C 296.61 227.31 291.28 227.01 290.00 225.00
C 290.19 227.84 290.32 231.17 290.00 234.00
C 285.59 273.46 228.09 271.49 220.00 235.00
C 219.89 234.52 220.00 233.50 220.00 233.00
C 218.34 231.74 218.91 228.83 218.00 227.00
C 215.53 230.38 216.72 226.50 215.00 225.00
C 214.16 233.16 206.00 222.91 204.00 231.00
C 204.46 225.89 200.75 227.20 200.00 231.00
C 200.46 225.89 196.75 227.20 196.00 231.00
C 196.46 225.89 192.75 227.20 192.00 231.00
C 192.56 225.49 190.72 229.90 189.00 227.00
C 189.02 232.11 188.33 229.94 187.00 227.00
C 185.77 231.05 183.75 230.94 183.00 227.00
C 181.77 231.05 179.75 230.94 179.00 227.00
C 180.21 232.57 177.40 228.30 176.00 230.00
C 175.60 231.53 175.18 232.33 175.00 234.00
C 173.46 248.55 176.11 261.84 180.00 275.00
C 182.21 280.18 186.26 285.82 189.25 290.75 C 192.25 295.67 197.65 300.54 201.25 304.75 C 204.85 308.97 214.65 311.39 215.00 317.00
C 215.03 317.50 215.00 318.00 215.00 318.00
C 217.32 322.67 215.35 329.50 216.00 335.00
C 192.73 324.57 168.80 302.74 163.00 277.00
C 160.55 270.11 159.03 263.69 158.00 256.00
C 155.08 258.19 156.82 253.72 155.00 253.00
C 153.78 257.05 151.75 256.94 151.00 253.00
C 151.46 258.11 147.75 256.80 147.00 253.00
C 147.46 258.11 143.75 256.80 143.00 253.00
C 143.46 258.11 139.75 256.80 139.00 253.00
C 139.46 258.11 135.75 256.80 135.00 253.00
C 135.46 258.11 131.75 256.80 131.00 253.00
C 131.46 258.11 127.75 256.80 127.00 253.00
C 127.18 255.99 126.76 259.02 127.00 262.00
C 127.98 274.33 132.30 285.47 136.00 297.00
C 140.12 305.34 145.43 314.41 150.77 322.23 C 156.11 330.05 164.10 335.55 170.25 342.75 C 176.40 349.96 186.99 353.61 193.70 359.30 C 200.40 364.99 218.99 364.78 218.00 375.00
C 218.83 374.08 224.15 373.91 225.00 375.00
C 223.73 361.89 224.45 346.85 224.00 334.00 C 223.55 321.15 220.25 305.85 224.00 294.00
C 227.63 282.53 244.66 281.73 255.00 282.00 C 265.34 282.27 282.34 282.42 286.00 294.00
C 290.43 308.00 284.50 324.24 285.01 339.01 C 285.51 353.78 283.80 370.33 283.00 385.00
C 285.78 384.83 288.44 383.51 291.00 385.00
C 289.77 381.21 291.90 376.69 292.00 373.00
C 292.01 372.50 291.84 371.44 292.00 371.00
C 293.72 366.41 305.98 366.55 310.22 363.22 C 314.47 359.90 322.58 357.79 327.08 354.08 C 331.57 350.36 337.65 347.02 342.00 343.00
C 347.95 337.50 353.67 330.76 359.00 325.00
C 374.68 303.48 386.00 278.29 386.00 251.00
C 386.00 246.67 386.00 242.33 386.00 238.00
C 386.00 231.81 385.02 226.39 384.00 221.00
C 381.42 223.24 381.47 220.58 380.00 225.00
C 380.56 219.49 378.72 223.90 377.00 221.00
C 377.02 226.11 376.32 223.94 375.00 221.00
C 373.78 225.05 371.75 224.94 371.00 221.00
C 369.78 225.05 367.75 224.94 367.00 221.00
C 367.46 226.11 363.75 224.80 363.00 221.00
C 363.46 226.11 359.75 224.80 359.00 221.00
C 359.46 226.11 355.75 224.80 355.00 221.00
C 356.94 222.87 352.97 225.13 353.00 225.00 Z"/>
</g>
<g fill="#9A41CC" fill-opacity="1.00" stroke="None">
<path d="
M 45.00 233.00 
C 45.00 281.67 45.00 330.33 45.00 379.00
C 46.09 382.12 49.09 377.31 48.00 383.00
C 48.75 379.20 52.46 377.89 52.00 383.00
C 52.75 379.20 56.46 377.89 56.00 383.00
C 56.75 379.20 60.46 377.89 60.00 383.00
C 61.03 375.56 67.14 384.56 67.00 377.00
C 67.75 380.80 71.46 382.11 71.00 377.00
C 71.75 380.80 75.46 382.11 75.00 377.00
C 75.75 380.80 79.46 382.11 79.00 377.00
C 79.75 380.80 83.46 382.11 83.00 377.00
C 83.75 380.80 87.46 382.11 87.00 377.00
C 87.75 380.94 89.78 381.05 91.00 377.00
C 91.75 380.94 93.78 381.05 95.00 377.00
C 96.33 379.94 97.02 382.11 97.00 377.00
C 98.72 379.90 100.56 375.49 100.00 381.00
C 100.75 377.20 104.46 375.89 104.00 381.00
C 104.75 377.20 108.46 375.89 108.00 381.00
C 108.75 377.20 112.46 375.89 112.00 381.00
C 113.44 374.99 118.02 379.12 120.77 378.58 C 123.52 378.03 126.87 377.99 129.77 377.42 C 132.67 376.86 135.79 379.53 138.77 378.58 C 141.75 377.62 146.33 380.26 147.00 375.00
C 147.75 378.80 151.46 380.11 151.00 375.00
C 151.75 378.80 155.46 380.11 155.00 375.00
C 155.75 378.80 159.46 380.11 159.00 375.00
C 159.75 378.80 163.46 380.11 163.00 375.00
C 163.75 378.80 167.46 380.11 167.00 375.00
C 167.75 378.94 169.78 379.05 171.00 375.00
C 171.75 378.94 173.78 379.05 175.00 375.00
C 176.33 377.94 177.02 380.11 177.00 375.00
C 178.72 377.90 180.56 373.49 180.00 379.00
C 181.16 374.02 182.27 378.12 184.00 374.00
C 174.57 368.16 165.61 362.35 157.00 355.00
C 153.06 351.63 149.33 347.89 146.00 344.00
C 125.15 319.60 109.00 288.69 109.00 256.00
C 108.39 249.74 108.28 241.99 108.00 235.00
C 108.00 233.00 108.00 231.00 108.00 229.00
C 105.26 231.93 104.14 233.79 103.00 229.00
C 101.78 233.05 99.75 232.94 99.00 229.00
C 99.46 234.11 95.75 232.80 95.00 229.00
C 95.46 234.11 91.75 232.80 91.00 229.00
C 91.46 234.11 87.75 232.80 87.00 229.00
C 87.46 234.11 83.75 232.80 83.00 229.00
C 82.16 237.16 74.00 226.91 72.00 235.00
C 72.46 229.89 68.75 231.20 68.00 235.00
C 68.46 229.89 64.75 231.20 64.00 235.00
C 64.46 229.89 60.75 231.20 60.00 235.00
C 60.46 229.89 56.75 231.20 56.00 235.00
C 56.46 229.89 52.75 231.20 52.00 235.00
C 52.82 229.26 49.94 232.84 48.00 235.00
C 49.65 231.43 45.93 230.87 45.00 233.00 Z"/>
</g>
<g fill="#C8C9C8" fill-opacity="1.00" stroke="None">
<path d="
M 215.00 318.00 
C 215.00 318.00 215.03 317.50 215.00 317.00
C 200.42 304.25 185.76 294.50 180.00 275.00
C 176.11 261.84 173.46 248.55 175.00 234.00
C 173.41 240.70 173.88 251.33 174.67 258.33 C 175.47 265.32 177.32 273.20 180.03 278.97 C 182.74 284.75 185.94 290.35 189.23 294.77 C 192.52 299.19 197.73 305.99 201.25 308.75 C 204.77 311.52 213.21 319.88 215.00 318.00 Z"/>
</g>
<g fill="#B3B1B5" fill-opacity="1.00" stroke="None">
<path d="
M 294.00 320.00 
C 296.69 313.39 308.34 312.37 312.75 305.75 C 317.17 299.13 323.91 294.90 327.08 287.08 C 330.25 279.26 334.86 272.20 336.22 263.22 C 337.58 254.24 338.85 243.08 337.00 234.00
C 338.13 246.82 335.33 261.04 332.32 272.32 C 329.32 283.60 321.63 290.02 316.25 299.25 C 310.87 308.48 295.58 310.68 294.00 320.00 Z"/>
</g>
<g fill="#AD9EB5" fill-opacity="1.00" stroke="None">
<path d="
M 125.00 240.00 
C 124.57 243.50 125.74 247.29 126.00 250.00
C 126.00 246.00 126.00 242.00 126.00 238.00
C 125.83 238.64 125.14 238.87 125.00 240.00 Z"/>
</g>
<g fill="#AD9FB5" fill-opacity="1.00" stroke="None">
<path d="
M 386.00 251.00 
C 386.00 250.96 387.00 251.00 387.00 251.00
C 387.00 246.59 386.36 241.73 386.00 238.00
C 386.00 242.33 386.00 246.67 386.00 251.00 Z"/>
</g>
<g fill="#CECFCF" fill-opacity="1.00" stroke="None">
<path d="
M 217.00 373.00 
C 214.86 367.27 201.14 367.47 195.92 363.08 C 190.70 358.68 182.07 356.06 176.77 351.23 C 171.47 346.40 164.89 341.62 160.25 335.75 C 155.60 329.88 150.10 325.31 146.23 318.77 C 142.36 312.23 138.32 304.26 136.00 297.00
C 132.30 285.47 127.98 274.33 127.00 262.00
C 126.32 258.49 126.00 254.21 126.00 250.00
C 125.74 247.29 124.57 243.50 125.00 240.00
C 120.54 250.95 127.53 268.97 128.67 280.33 C 129.82 291.69 136.32 302.76 141.23 312.77 C 146.14 322.78 153.58 330.45 161.25 338.75 C 168.91 347.05 176.79 353.22 186.30 358.70 C 195.81 364.17 206.76 369.53 217.00 373.00 Z"/>
</g>
<g fill="#C5C5C5" fill-opacity="1.00" stroke="None">
<path d="
M 359.00 325.00 
C 354.11 331.71 347.87 337.13 342.00 343.00
C 334.96 350.04 327.89 354.16 319.77 359.77 C 311.65 365.38 300.41 366.54 292.00 371.00
C 291.84 371.44 292.01 372.50 292.00 373.00
C 298.38 375.70 308.32 366.22 314.77 364.77 C 321.22 363.32 328.00 356.32 334.25 353.25 C 340.51 350.19 345.25 343.75 350.75 338.75 C 356.25 333.76 360.98 328.18 364.75 321.75 C 368.52 315.31 373.29 309.53 376.07 302.07 C 378.85 294.62 382.62 287.37 384.00 279.00 C 385.38 270.63 387.00 259.95 387.00 251.00
C 387.00 251.00 386.00 250.96 386.00 251.00
C 386.00 278.29 374.68 303.48 359.00 325.00 Z"/>
</g>
<g fill="#A7A4A9" fill-opacity="1.00" stroke="None">
<path d="
M 215.00 317.00 
C 214.65 311.39 204.85 308.97 201.25 304.75 C 197.65 300.54 192.25 295.67 189.25 290.75 C 186.26 285.82 182.21 280.18 180.00 275.00
C 185.76 294.50 200.42 304.25 215.00 317.00 Z"/>
</g>
<g fill="#B4B0B7" fill-opacity="1.00" stroke="None">
<path d="
M 224.00 294.00 
C 229.25 284.58 246.02 284.98 255.00 285.00 C 263.98 285.02 280.85 284.76 286.00 294.00
C 282.34 282.42 265.34 282.27 255.00 282.00 C 244.66 281.73 227.63 282.53 224.00 294.00 Z"/>
</g>
<g fill="#D8D4DA" fill-opacity="1.00" stroke="None">
<path d="
M 224.00 294.00 
C 220.25 305.85 223.55 321.15 224.00 334.00 C 224.45 346.85 223.73 361.89 225.00 375.00
C 225.89 384.19 224.09 399.64 228.00 408.00
C 224.94 397.78 228.98 385.61 227.00 375.00 C 225.02 364.39 227.53 352.86 226.00 342.00 C 224.47 331.14 225.87 319.14 225.00 308.00 C 224.13 296.86 227.93 290.45 239.08 288.08 C 250.22 285.71 258.85 287.45 270.22 288.78 C 281.59 290.11 286.20 297.38 285.00 309.00 C 283.80 320.62 284.55 329.89 283.00 341.00 C 281.45 352.11 283.32 362.90 282.00 374.00 C 280.68 385.10 283.41 397.12 281.00 408.00
C 283.57 401.05 282.57 392.86 283.00 385.00
C 283.80 370.33 285.51 353.78 285.01 339.01 C 284.50 324.24 290.43 308.00 286.00 294.00
C 280.85 284.76 263.98 285.02 255.00 285.00 C 246.02 284.98 229.25 284.58 224.00 294.00 Z"/>
</g>
<g fill="#FDFDFD" fill-opacity="1.00" stroke="None">
<path d="
M 228.00 408.00 
C 236.17 425.47 274.09 426.72 281.00 408.00
C 283.41 397.12 280.68 385.10 282.00 374.00 C 283.32 362.90 281.45 352.11 283.00 341.00 C 284.55 329.89 283.80 320.62 285.00 309.00 C 286.20 297.38 281.59 290.11 270.22 288.78 C 258.85 287.45 250.22 285.71 239.08 288.08 C 227.93 290.45 224.13 296.86 225.00 308.00 C 225.87 319.14 224.47 331.14 226.00 342.00 C 227.53 352.86 225.02 364.39 227.00 375.00 C 228.98 385.61 224.94 397.78 228.00 408.00 Z"/>
</g>
<g fill="#8B33C1" fill-opacity="0.99" stroke="None">
<path d="
M 394.00 298.00 
C 387.90 314.53 378.61 329.41 367.00 343.00
C 363.04 347.63 358.58 352.08 354.00 356.00
C 335.44 371.03 314.44 383.79 291.00 388.00
C 290.65 387.60 291.43 385.25 291.00 385.00
C 288.44 383.51 285.78 384.83 283.00 385.00
C 282.57 392.86 283.57 401.05 281.00 408.00
C 274.09 426.72 236.17 425.47 228.00 408.00
C 224.09 399.64 225.89 384.19 225.00 375.00
C 224.15 373.91 218.83 374.08 218.00 375.00
C 217.95 375.50 218.00 376.50 218.00 377.00
C 218.00 380.67 218.00 384.33 218.00 388.00
C 206.39 384.49 194.43 380.46 184.00 374.00
C 182.27 378.12 181.16 374.02 180.00 379.00
C 180.56 373.49 178.72 377.90 177.00 375.00
C 177.02 380.11 176.33 377.94 175.00 375.00
C 173.78 379.05 171.75 378.94 171.00 375.00
C 169.78 379.05 167.75 378.94 167.00 375.00
C 167.46 380.11 163.75 378.80 163.00 375.00
C 163.46 380.11 159.75 378.80 159.00 375.00
C 159.46 380.11 155.75 378.80 155.00 375.00
C 155.46 380.11 151.75 378.80 151.00 375.00
C 151.46 380.11 147.75 378.80 147.00 375.00
C 146.33 380.26 141.75 377.62 138.77 378.58 C 135.79 379.53 132.67 376.86 129.77 377.42 C 126.87 377.99 123.52 378.03 120.77 378.58 C 118.02 379.12 113.44 374.99 112.00 381.00
C 112.46 375.89 108.75 377.20 108.00 381.00
C 108.46 375.89 104.75 377.20 104.00 381.00
C 104.46 375.89 100.75 377.20 100.00 381.00
C 100.56 375.49 98.72 379.90 97.00 377.00
C 97.02 382.11 96.33 379.94 95.00 377.00
C 93.78 381.05 91.75 380.94 91.00 377.00
C 89.78 381.05 87.75 380.94 87.00 377.00
C 87.46 382.11 83.75 380.80 83.00 377.00
C 83.46 382.11 79.75 380.80 79.00 377.00
C 79.46 382.11 75.75 380.80 75.00 377.00
C 75.46 382.11 71.75 380.80 71.00 377.00
C 71.46 382.11 67.75 380.80 67.00 377.00
C 67.14 384.56 61.03 375.56 60.00 383.00
C 60.46 377.89 56.75 379.20 56.00 383.00
C 56.46 377.89 52.75 379.20 52.00 383.00
C 52.46 377.89 48.75 379.20 48.00 383.00
C 49.09 377.31 46.09 382.12 45.00 379.00
C 45.00 381.57 44.03 385.16 44.00 387.00
C 46.41 417.30 62.12 443.17 90.92 458.08 C 119.73 472.98 163.39 467.65 198.00 468.00 C 232.61 468.35 280.44 468.28 315.00 468.00 C 349.56 467.72 393.22 472.93 421.77 457.77 C 450.32 442.61 465.61 417.11 468.00 387.00
C 467.50 358.60 467.00 328.21 467.00 299.00
C 464.42 296.76 464.47 299.42 463.00 295.00
C 462.33 300.26 457.75 297.62 454.77 298.58 C 451.79 299.53 448.67 296.86 445.77 297.42 C 442.87 297.99 439.52 298.03 436.77 298.58 C 434.02 299.12 429.44 294.99 428.00 301.00
C 428.46 295.89 424.76 297.20 424.00 301.00
C 424.46 295.89 420.75 297.20 420.00 301.00
C 420.46 295.89 416.75 297.20 416.00 301.00
C 416.46 295.89 412.75 297.20 412.00 301.00
C 412.56 295.49 410.72 299.90 409.00 297.00
C 409.02 302.11 408.33 299.94 407.00 297.00
C 405.78 301.05 403.75 300.94 403.00 297.00
C 401.78 301.05 399.75 300.94 399.00 297.00
C 399.56 302.51 397.72 298.10 396.00 301.00
C 395.85 299.16 396.53 296.20 394.00 298.00 Z"/>
</g>
<g fill="#ADABAF" fill-opacity="1.00" stroke="None">
<path d="
M 217.00 373.00 
C 217.26 373.71 217.93 376.59 218.00 377.00
C 218.00 376.50 217.95 375.50 218.00 375.00
C 218.99 364.78 200.40 364.99 193.70 359.30 C 186.99 353.61 176.40 349.96 170.25 342.75 C 164.10 335.55 156.11 330.05 150.77 322.23 C 145.43 314.41 140.12 305.34 136.00 297.00
C 138.32 304.26 142.36 312.23 146.23 318.77 C 150.10 325.31 155.60 329.88 160.25 335.75 C 164.89 341.62 171.47 346.40 176.77 351.23 C 182.07 356.06 190.70 358.68 195.92 363.08 C 201.14 367.47 214.86 367.27 217.00 373.00 Z"/>
</g>
<g fill="#94839E" fill-opacity="1.00" stroke="None">
<path d="
M 342.00 343.00 
C 347.87 337.13 354.11 331.71 359.00 325.00
C 353.67 330.76 347.95 337.50 342.00 343.00 Z"/>
</g>
<g fill="#9A979C" fill-opacity="1.00" stroke="None">
<path d="
M 292.00 371.00 
C 300.41 366.54 311.65 365.38 319.77 359.77 C 327.89 354.16 334.96 350.04 342.00 343.00
C 337.65 347.02 331.57 350.36 327.08 354.08 C 322.58 357.79 314.47 359.90 310.22 363.22 C 305.98 366.55 293.72 366.41 292.00 371.00 Z"/>
</g>
<g fill="#AF91C0" fill-opacity="1.00" stroke="None">
<path d="
M 354.00 356.00 
C 358.58 352.08 363.04 347.63 367.00 343.00
C 362.80 347.20 358.25 351.75 354.00 356.00 Z"/>
</g>
<g fill="#B096C1" fill-opacity="1.00" stroke="None">
<path d="
M 157.00 355.00 
C 153.46 351.46 149.59 347.59 146.00 344.00
C 149.33 347.89 153.06 351.63 157.00 355.00 Z"/>
</g>
</svg>