<svg xmlns="http://www.w3.org/2000/svg" xmlns:v="https://svgstorm.com"
viewBox = "37 37 435 435">
<g fill="None" fill-opacity="0.0" stroke="#000000" stroke-opacity="0.00" stroke-width="0.3"><path d="
M 0.00 512.00 
L 512.00 512.00
L 512.00 0.00
L 0.00 0.00
L 0.00 512.00
M 390.00 44.00 
C 412.64 46.19 431.67 56.75 447.75 75.25 C 463.84 93.75 469.19 117.46 468.00 144.00 C 466.81 170.54 468.86 205.31 468.00 233.00 C 467.14 260.69 469.10 295.60 468.00 323.00 C 466.90 350.40 471.88 383.45 463.68 407.68 C 455.48 431.91 445.30 442.90 423.77 456.77 C 402.24 470.64 373.09 468.01 346.00 468.00 C 318.91 467.99 283.77 468.01 256.00 468.00 C 228.23 467.99 194.08 468.01 167.00 468.00 C 139.92 467.99 110.65 470.75 88.92 457.08 C 67.20 443.41 57.06 432.56 48.68 408.32 C 40.30 384.08 44.87 350.41 44.00 323.00 C 43.13 295.59 44.52 261.66 44.00 234.00 C 43.48 206.34 44.52 171.57 44.00 145.00 C 43.48 118.43 46.33 94.52 63.77 75.77 C 81.21 57.02 95.95 46.23 122.22 44.22 C 148.49 42.21 182.97 44.26 211.00 44.00 C 239.03 43.74 271.29 43.02 300.00 44.00 C 328.71 44.98 360.26 41.12 389.00 44.00 Z"/>
</g>
<g fill="None" fill-opacity="0.0" stroke="#F9F8F7" stroke-opacity="1.00" stroke-width="0.3"><path d="
M 389.00 44.00 
C 360.26 41.12 328.71 44.98 300.00 44.00 C 271.29 43.02 239.03 43.74 211.00 44.00 C 182.97 44.26 148.49 42.21 122.22 44.22 C 95.95 46.23 81.21 57.02 63.77 75.77 C 46.33 94.52 43.48 118.43 44.00 145.00 C 44.52 171.57 43.48 206.34 44.00 234.00 C 44.52 261.66 43.13 295.59 44.00 323.00 C 44.87 350.41 40.30 384.08 48.68 408.32 C 57.06 432.56 67.20 443.41 88.92 457.08 C 110.65 470.75 139.92 467.99 167.00 468.00 C 194.08 468.01 228.23 467.99 256.00 468.00 C 283.77 468.01 318.91 467.99 346.00 468.00 C 373.09 468.01 402.24 470.64 423.77 456.77 C 445.30 442.90 455.48 431.91 463.68 407.68 C 471.88 383.45 466.90 350.40 468.00 323.00 C 469.10 295.60 467.14 260.69 468.00 233.00 C 468.86 205.31 466.81 170.54 468.00 144.00 C 469.19 117.46 463.84 93.75 447.75 75.25 C 431.67 56.75 412.64 46.19 390.00 44.00
M 136.00 121.00 
C 159.86 125.94 169.24 160.09 152.25 177.25 C 135.25 194.40 103.68 190.95 95.08 165.92 C 86.47 140.90 108.98 115.40 136.00 121.00
M 415.00 151.00 
C 421.25 155.36 410.02 159.79 405.00 158.00 C 399.98 156.21 390.89 158.82 385.00 158.00 C 379.11 157.18 371.23 158.39 365.00 158.00 C 358.77 157.61 352.42 158.18 346.00 158.00 C 339.58 157.82 332.53 158.10 326.00 158.00 C 319.47 157.90 312.56 158.09 306.00 158.00 C 299.44 157.91 292.50 158.15 286.00 158.00 C 279.50 157.85 273.44 158.31 267.00 158.00 C 260.56 157.69 253.34 158.65 247.00 158.00 C 240.66 157.35 233.01 159.41 227.00 158.00 C 220.99 156.59 212.50 161.29 207.33 157.67 C 202.16 154.05 211.71 149.22 217.00 151.00 C 222.29 152.78 230.99 150.19 237.00 151.00 C 243.01 151.81 250.72 150.61 257.00 151.00 C 263.28 151.39 269.56 150.82 276.00 151.00 C 282.44 151.18 289.46 150.90 296.00 151.00 C 302.54 151.10 309.45 150.91 316.00 151.00 C 322.55 151.09 329.53 150.86 336.00 151.00 C 342.47 151.14 348.64 150.69 355.00 151.00 C 361.36 151.31 368.82 150.35 375.00 151.00 C 381.18 151.65 389.34 149.59 395.00 151.00 C 400.66 152.41 410.52 147.88 415.00 151.00
M 134.00 222.00 
C 158.49 226.39 168.99 258.46 153.25 277.25 C 137.50 296.04 106.15 293.34 95.69 269.31 C 85.24 245.27 107.44 217.24 134.00 222.00
M 414.00 252.00 
C 421.40 255.83 410.01 262.28 404.00 260.00 C 397.99 257.72 387.92 261.02 381.00 260.00 C 374.08 258.98 365.32 260.45 358.00 260.00 C 350.68 259.55 342.49 260.18 335.00 260.00 C 327.51 259.82 319.54 260.02 312.00 260.00 C 304.46 259.98 296.50 259.88 289.00 260.00 C 281.50 260.12 273.36 259.65 266.00 260.00 C 258.64 260.35 250.01 259.19 243.00 260.00 C 235.99 260.81 226.23 258.20 220.00 260.00 C 213.77 261.80 201.71 257.78 207.75 252.75 C 213.80 247.73 222.94 253.76 230.00 252.00 C 237.06 250.24 245.61 252.78 253.00 252.00 C 260.39 251.22 268.47 252.33 276.00 252.00 C 283.53 251.67 291.42 252.10 299.00 252.00 C 306.58 251.90 314.43 251.94 322.00 252.00 C 329.57 252.06 337.49 251.75 345.00 252.00 C 352.51 252.25 360.67 251.38 368.00 252.00 C 375.33 252.62 384.07 250.59 391.00 252.00 C 397.93 253.41 407.95 248.88 414.00 252.00
M 136.00 324.00 
C 160.05 328.98 169.23 363.03 152.25 380.25 C 135.26 397.46 103.54 393.98 95.03 368.97 C 86.51 343.97 108.89 318.38 136.00 324.00
M 415.00 354.00 
C 420.92 358.12 410.33 363.95 405.00 362.00 C 399.67 360.05 390.23 362.88 384.00 362.00 C 377.77 361.12 369.61 362.40 363.00 362.00 C 356.39 361.60 348.74 362.18 342.00 362.00 C 335.26 361.82 328.82 362.05 322.00 362.00 C 315.18 361.95 307.87 361.96 301.00 362.00 C 294.13 362.04 286.82 361.86 280.00 362.00 C 273.18 362.14 265.66 361.66 259.00 362.00 C 252.34 362.34 245.35 361.18 239.00 362.00 C 232.65 362.82 223.77 360.26 218.00 362.00 C 212.23 363.74 202.12 359.16 207.75 354.75 C 213.39 350.35 221.58 355.55 228.00 354.00 C 234.42 352.45 241.30 354.65 248.00 354.00 C 254.70 353.35 262.16 354.29 269.00 354.00 C 275.84 353.71 283.12 354.11 290.00 354.00 C 296.88 353.89 304.15 354.00 311.00 354.00 C 317.85 354.00 324.19 353.88 331.00 354.00 C 337.81 354.12 345.26 353.71 352.00 354.00 C 358.74 354.29 366.49 353.34 373.00 354.00 C 379.51 354.66 388.04 352.52 394.00 354.00 C 399.96 355.48 410.30 350.72 415.00 354.00 Z"/>
</g>
<g fill="None" fill-opacity="0.0" stroke="#2976D4" stroke-opacity="1.00" stroke-width="0.3"><path d="
M 136.00 121.00 
C 108.98 115.40 86.47 140.90 95.08 165.92 C 103.68 190.95 135.25 194.40 152.25 177.25 C 169.24 160.09 159.86 125.94 136.00 121.00
M 134.00 126.00 
C 170.08 131.86 156.43 193.17 120.33 182.67 C 84.23 172.17 97.26 120.03 134.00 126.00 Z"/>
</g>
<g fill="None" fill-opacity="0.0" stroke="#F6F9FC" stroke-opacity="1.00" stroke-width="0.3"><path d="
M 134.00 126.00 
C 97.26 120.03 84.23 172.17 120.33 182.67 C 156.43 193.17 170.08 131.86 134.00 126.00
M 133.00 132.00 
C 160.96 137.79 150.22 184.13 121.78 176.22 C 93.33 168.31 103.69 125.93 133.00 132.00 Z"/>
</g>
<g fill="None" fill-opacity="0.0" stroke="#2180F2" stroke-opacity="1.00" stroke-width="0.3"><path d="
M 133.00 132.00 
C 103.69 125.93 93.33 168.31 121.78 176.22 C 150.22 184.13 160.96 137.79 133.00 132.00 Z"/>
</g>
<g fill="None" fill-opacity="0.0" stroke="#B1B1B4" stroke-opacity="1.00" stroke-width="0.3"><path d="
M 415.00 151.00 
C 410.52 147.88 400.66 152.41 395.00 151.00 C 389.34 149.59 381.18 151.65 375.00 151.00 C 368.82 150.35 361.36 151.31 355.00 151.00 C 348.64 150.69 342.47 151.14 336.00 151.00 C 329.53 150.86 322.55 151.09 316.00 151.00 C 309.45 150.91 302.54 151.10 296.00 151.00 C 289.46 150.90 282.44 151.18 276.00 151.00 C 269.56 150.82 263.28 151.39 257.00 151.00 C 250.72 150.61 243.01 151.81 237.00 151.00 C 230.99 150.19 222.29 152.78 217.00 151.00 C 211.71 149.22 202.16 154.05 207.33 157.67 C 212.50 161.29 220.99 156.59 227.00 158.00 C 233.01 159.41 240.66 157.35 247.00 158.00 C 253.34 158.65 260.56 157.69 267.00 158.00 C 273.44 158.31 279.50 157.85 286.00 158.00 C 292.50 158.15 299.44 157.91 306.00 158.00 C 312.56 158.09 319.47 157.90 326.00 158.00 C 332.53 158.10 339.58 157.82 346.00 158.00 C 352.42 158.18 358.77 157.61 365.00 158.00 C 371.23 158.39 379.11 157.18 385.00 158.00 C 390.89 158.82 399.98 156.21 405.00 158.00 C 410.02 159.79 421.25 155.36 415.00 151.00 Z"/>
</g>
<g fill="None" fill-opacity="0.0" stroke="#D44339" stroke-opacity="1.00" stroke-width="0.3"><path d="
M 134.00 222.00 
C 107.44 217.24 85.24 245.27 95.69 269.31 C 106.15 293.34 137.50 296.04 153.25 277.25 C 168.99 258.46 158.49 226.39 134.00 222.00
M 133.00 227.00 
C 153.46 230.67 163.03 258.65 149.25 274.25 C 135.46 289.84 109.40 287.57 100.69 267.31 C 91.99 247.04 110.13 222.90 133.00 227.00 Z"/>
</g>
<g fill="None" fill-opacity="0.0" stroke="#FCF7F7" stroke-opacity="1.00" stroke-width="0.3"><path d="
M 133.00 227.00 
C 110.13 222.90 91.99 247.04 100.69 267.31 C 109.40 287.57 135.46 289.84 149.25 274.25 C 163.03 258.65 153.46 230.67 133.00 227.00
M 131.00 233.00 
C 159.62 237.65 152.54 283.34 123.33 278.67 C 94.12 274.00 102.10 228.31 131.00 233.00 Z"/>
</g>
<g fill="None" fill-opacity="0.0" stroke="#F53227" stroke-opacity="1.00" stroke-width="0.3"><path d="
M 131.00 233.00 
C 102.10 228.31 94.12 274.00 123.33 278.67 C 152.54 283.34 159.62 237.65 131.00 233.00 Z"/>
</g>
<g fill="None" fill-opacity="0.0" stroke="#B1B1B5" stroke-opacity="1.00" stroke-width="0.3"><path d="
M 414.00 252.00 
C 407.95 248.88 397.93 253.41 391.00 252.00 C 384.07 250.59 375.33 252.62 368.00 252.00 C 360.67 251.38 352.51 252.25 345.00 252.00 C 337.49 251.75 329.57 252.06 322.00 252.00 C 314.43 251.94 306.58 251.90 299.00 252.00 C 291.42 252.10 283.53 251.67 276.00 252.00 C 268.47 252.33 260.39 251.22 253.00 252.00 C 245.61 252.78 237.06 250.24 230.00 252.00 C 222.94 253.76 213.80 247.73 207.75 252.75 C 201.71 257.78 213.77 261.80 220.00 260.00 C 226.23 258.20 235.99 260.81 243.00 260.00 C 250.01 259.19 258.64 260.35 266.00 260.00 C 273.36 259.65 281.50 260.12 289.00 260.00 C 296.50 259.88 304.46 259.98 312.00 260.00 C 319.54 260.02 327.51 259.82 335.00 260.00 C 342.49 260.18 350.68 259.55 358.00 260.00 C 365.32 260.45 374.08 258.98 381.00 260.00 C 387.92 261.02 397.99 257.72 404.00 260.00 C 410.01 262.28 421.40 255.83 414.00 252.00 Z"/>
</g>
<g fill="None" fill-opacity="0.0" stroke="#D88724" stroke-opacity="1.00" stroke-width="0.3"><path d="
M 136.00 324.00 
C 108.89 318.38 86.51 343.97 95.03 368.97 C 103.54 393.98 135.26 397.46 152.25 380.25 C 169.23 363.03 160.05 328.98 136.00 324.00
M 134.00 329.00 
C 170.04 334.85 156.40 396.21 120.33 385.67 C 84.26 375.13 97.35 323.05 134.00 329.00 Z"/>
</g>
<g fill="None" fill-opacity="0.0" stroke="#F3F0EB" stroke-opacity="1.00" stroke-width="0.3"><path d="
M 134.00 329.00 
C 97.35 323.05 84.26 375.13 120.33 385.67 C 156.40 396.21 170.04 334.85 134.00 329.00
M 105.00 362.00 
C 104.19 358.71 104.20 356.23 105.00 353.00
C 111.13 328.25 149.42 329.90 150.00 357.00 C 150.58 384.11 111.38 387.77 105.00 362.00 Z"/>
</g>
<g fill="None" fill-opacity="0.0" stroke="#C88029" stroke-opacity="1.00" stroke-width="0.3"><path d="
M 105.00 353.00 
C 104.66 355.71 104.66 359.29 105.00 362.00
C 111.38 387.77 150.58 384.11 150.00 357.00 C 149.42 329.90 111.13 328.25 105.00 353.00
M 134.00 337.00 
C 159.52 343.32 146.68 387.30 120.99 378.01 C 95.30 368.72 106.20 330.11 134.00 337.00 Z"/>
</g>
<g fill="None" fill-opacity="0.0" stroke="#ED8C0B" stroke-opacity="1.00" stroke-width="0.3"><path d="
M 134.00 337.00 
C 106.20 330.11 95.30 368.72 120.99 378.01 C 146.68 387.30 159.52 343.32 134.00 337.00 Z"/>
</g>
<g fill="None" fill-opacity="0.0" stroke="#DAB787" stroke-opacity="1.00" stroke-width="0.3"><path d="
M 105.00 362.00 
C 104.66 359.29 104.66 355.71 105.00 353.00
C 104.20 356.23 104.19 358.71 105.00 362.00 Z"/>
</g>
<g fill="None" fill-opacity="0.0" stroke="#B3B3B6" stroke-opacity="1.00" stroke-width="0.3"><path d="
M 415.00 354.00 
C 410.30 350.72 399.96 355.48 394.00 354.00 C 388.04 352.52 379.51 354.66 373.00 354.00 C 366.49 353.34 358.74 354.29 352.00 354.00 C 345.26 353.71 337.81 354.12 331.00 354.00 C 324.19 353.88 317.85 354.00 311.00 354.00 C 304.15 354.00 296.88 353.89 290.00 354.00 C 283.12 354.11 275.84 353.71 269.00 354.00 C 262.16 354.29 254.70 353.35 248.00 354.00 C 241.30 354.65 234.42 352.45 228.00 354.00 C 221.58 355.55 213.39 350.35 207.75 354.75 C 202.12 359.16 212.23 363.74 218.00 362.00 C 223.77 360.26 232.65 362.82 239.00 362.00 C 245.35 361.18 252.34 362.34 259.00 362.00 C 265.66 361.66 273.18 362.14 280.00 362.00 C 286.82 361.86 294.13 362.04 301.00 362.00 C 307.87 361.96 315.18 361.95 322.00 362.00 C 328.82 362.05 335.26 361.82 342.00 362.00 C 348.74 362.18 356.39 361.60 363.00 362.00 C 369.61 362.40 377.77 361.12 384.00 362.00 C 390.23 362.88 399.67 360.05 405.00 362.00 C 410.33 363.95 420.92 358.12 415.00 354.00 Z"/>
</g>
<g fill="#000000" fill-opacity="0.00" stroke="None">
<path d="
M 0.00 512.00 
L 512.00 512.00
L 512.00 0.00
L 0.00 0.00
L 0.00 512.00
M 390.00 44.00 
C 412.64 46.19 431.67 56.75 447.75 75.25 C 463.84 93.75 469.19 117.46 468.00 144.00 C 466.81 170.54 468.86 205.31 468.00 233.00 C 467.14 260.69 469.10 295.60 468.00 323.00 C 466.90 350.40 471.88 383.45 463.68 407.68 C 455.48 431.91 445.30 442.90 423.77 456.77 C 402.24 470.64 373.09 468.01 346.00 468.00 C 318.91 467.99 283.77 468.01 256.00 468.00 C 228.23 467.99 194.08 468.01 167.00 468.00 C 139.92 467.99 110.65 470.75 88.92 457.08 C 67.20 443.41 57.06 432.56 48.68 408.32 C 40.30 384.08 44.87 350.41 44.00 323.00 C 43.13 295.59 44.52 261.66 44.00 234.00 C 43.48 206.34 44.52 171.57 44.00 145.00 C 43.48 118.43 46.33 94.52 63.77 75.77 C 81.21 57.02 95.95 46.23 122.22 44.22 C 148.49 42.21 182.97 44.26 211.00 44.00 C 239.03 43.74 271.29 43.02 300.00 44.00 C 328.71 44.98 360.26 41.12 389.00 44.00 Z"/>
</g>
<g fill="#F9F8F7" fill-opacity="1.00" stroke="None">
<path d="
M 389.00 44.00 
C 360.26 41.12 328.71 44.98 300.00 44.00 C 271.29 43.02 239.03 43.74 211.00 44.00 C 182.97 44.26 148.49 42.21 122.22 44.22 C 95.95 46.23 81.21 57.02 63.77 75.77 C 46.33 94.52 43.48 118.43 44.00 145.00 C 44.52 171.57 43.48 206.34 44.00 234.00 C 44.52 261.66 43.13 295.59 44.00 323.00 C 44.87 350.41 40.30 384.08 48.68 408.32 C 57.06 432.56 67.20 443.41 88.92 457.08 C 110.65 470.75 139.92 467.99 167.00 468.00 C 194.08 468.01 228.23 467.99 256.00 468.00 C 283.77 468.01 318.91 467.99 346.00 468.00 C 373.09 468.01 402.24 470.64 423.77 456.77 C 445.30 442.90 455.48 431.91 463.68 407.68 C 471.88 383.45 466.90 350.40 468.00 323.00 C 469.10 295.60 467.14 260.69 468.00 233.00 C 468.86 205.31 466.81 170.54 468.00 144.00 C 469.19 117.46 463.84 93.75 447.75 75.25 C 431.67 56.75 412.64 46.19 390.00 44.00
M 136.00 121.00 
C 159.86 125.94 169.24 160.09 152.25 177.25 C 135.25 194.40 103.68 190.95 95.08 165.92 C 86.47 140.90 108.98 115.40 136.00 121.00
M 415.00 151.00 
C 421.25 155.36 410.02 159.79 405.00 158.00 C 399.98 156.21 390.89 158.82 385.00 158.00 C 379.11 157.18 371.23 158.39 365.00 158.00 C 358.77 157.61 352.42 158.18 346.00 158.00 C 339.58 157.82 332.53 158.10 326.00 158.00 C 319.47 157.90 312.56 158.09 306.00 158.00 C 299.44 157.91 292.50 158.15 286.00 158.00 C 279.50 157.85 273.44 158.31 267.00 158.00 C 260.56 157.69 253.34 158.65 247.00 158.00 C 240.66 157.35 233.01 159.41 227.00 158.00 C 220.99 156.59 212.50 161.29 207.33 157.67 C 202.16 154.05 211.71 149.22 217.00 151.00 C 222.29 152.78 230.99 150.19 237.00 151.00 C 243.01 151.81 250.72 150.61 257.00 151.00 C 263.28 151.39 269.56 150.82 276.00 151.00 C 282.44 151.18 289.46 150.90 296.00 151.00 C 302.54 151.10 309.45 150.91 316.00 151.00 C 322.55 151.09 329.53 150.86 336.00 151.00 C 342.47 151.14 348.64 150.69 355.00 151.00 C 361.36 151.31 368.82 150.35 375.00 151.00 C 381.18 151.65 389.34 149.59 395.00 151.00 C 400.66 152.41 410.52 147.88 415.00 151.00
M 134.00 222.00 
C 158.49 226.39 168.99 258.46 153.25 277.25 C 137.50 296.04 106.15 293.34 95.69 269.31 C 85.24 245.27 107.44 217.24 134.00 222.00
M 414.00 252.00 
C 421.40 255.83 410.01 262.28 404.00 260.00 C 397.99 257.72 387.92 261.02 381.00 260.00 C 374.08 258.98 365.32 260.45 358.00 260.00 C 350.68 259.55 342.49 260.18 335.00 260.00 C 327.51 259.82 319.54 260.02 312.00 260.00 C 304.46 259.98 296.50 259.88 289.00 260.00 C 281.50 260.12 273.36 259.65 266.00 260.00 C 258.64 260.35 250.01 259.19 243.00 260.00 C 235.99 260.81 226.23 258.20 220.00 260.00 C 213.77 261.80 201.71 257.78 207.75 252.75 C 213.80 247.73 222.94 253.76 230.00 252.00 C 237.06 250.24 245.61 252.78 253.00 252.00 C 260.39 251.22 268.47 252.33 276.00 252.00 C 283.53 251.67 291.42 252.10 299.00 252.00 C 306.58 251.90 314.43 251.94 322.00 252.00 C 329.57 252.06 337.49 251.75 345.00 252.00 C 352.51 252.25 360.67 251.38 368.00 252.00 C 375.33 252.62 384.07 250.59 391.00 252.00 C 397.93 253.41 407.95 248.88 414.00 252.00
M 136.00 324.00 
C 160.05 328.98 169.23 363.03 152.25 380.25 C 135.26 397.46 103.54 393.98 95.03 368.97 C 86.51 343.97 108.89 318.38 136.00 324.00
M 415.00 354.00 
C 420.92 358.12 410.33 363.95 405.00 362.00 C 399.67 360.05 390.23 362.88 384.00 362.00 C 377.77 361.12 369.61 362.40 363.00 362.00 C 356.39 361.60 348.74 362.18 342.00 362.00 C 335.26 361.82 328.82 362.05 322.00 362.00 C 315.18 361.95 307.87 361.96 301.00 362.00 C 294.13 362.04 286.82 361.86 280.00 362.00 C 273.18 362.14 265.66 361.66 259.00 362.00 C 252.34 362.34 245.35 361.18 239.00 362.00 C 232.65 362.82 223.77 360.26 218.00 362.00 C 212.23 363.74 202.12 359.16 207.75 354.75 C 213.39 350.35 221.58 355.55 228.00 354.00 C 234.42 352.45 241.30 354.65 248.00 354.00 C 254.70 353.35 262.16 354.29 269.00 354.00 C 275.84 353.71 283.12 354.11 290.00 354.00 C 296.88 353.89 304.15 354.00 311.00 354.00 C 317.85 354.00 324.19 353.88 331.00 354.00 C 337.81 354.12 345.26 353.71 352.00 354.00 C 358.74 354.29 366.49 353.34 373.00 354.00 C 379.51 354.66 388.04 352.52 394.00 354.00 C 399.96 355.48 410.30 350.72 415.00 354.00 Z"/>
</g>
<g fill="#2976D4" fill-opacity="1.00" stroke="None">
<path d="
M 136.00 121.00 
C 108.98 115.40 86.47 140.90 95.08 165.92 C 103.68 190.95 135.25 194.40 152.25 177.25 C 169.24 160.09 159.86 125.94 136.00 121.00
M 134.00 126.00 
C 170.08 131.86 156.43 193.17 120.33 182.67 C 84.23 172.17 97.26 120.03 134.00 126.00 Z"/>
</g>
<g fill="#F6F9FC" fill-opacity="1.00" stroke="None">
<path d="
M 134.00 126.00 
C 97.26 120.03 84.23 172.17 120.33 182.67 C 156.43 193.17 170.08 131.86 134.00 126.00
M 133.00 132.00 
C 160.96 137.79 150.22 184.13 121.78 176.22 C 93.33 168.31 103.69 125.93 133.00 132.00 Z"/>
</g>
<g fill="#2180F2" fill-opacity="1.00" stroke="None">
<path d="
M 133.00 132.00 
C 103.69 125.93 93.33 168.31 121.78 176.22 C 150.22 184.13 160.96 137.79 133.00 132.00 Z"/>
</g>
<g fill="#B1B1B4" fill-opacity="1.00" stroke="None">
<path d="
M 415.00 151.00 
C 410.52 147.88 400.66 152.41 395.00 151.00 C 389.34 149.59 381.18 151.65 375.00 151.00 C 368.82 150.35 361.36 151.31 355.00 151.00 C 348.64 150.69 342.47 151.14 336.00 151.00 C 329.53 150.86 322.55 151.09 316.00 151.00 C 309.45 150.91 302.54 151.10 296.00 151.00 C 289.46 150.90 282.44 151.18 276.00 151.00 C 269.56 150.82 263.28 151.39 257.00 151.00 C 250.72 150.61 243.01 151.81 237.00 151.00 C 230.99 150.19 222.29 152.78 217.00 151.00 C 211.71 149.22 202.16 154.05 207.33 157.67 C 212.50 161.29 220.99 156.59 227.00 158.00 C 233.01 159.41 240.66 157.35 247.00 158.00 C 253.34 158.65 260.56 157.69 267.00 158.00 C 273.44 158.31 279.50 157.85 286.00 158.00 C 292.50 158.15 299.44 157.91 306.00 158.00 C 312.56 158.09 319.47 157.90 326.00 158.00 C 332.53 158.10 339.58 157.82 346.00 158.00 C 352.42 158.18 358.77 157.61 365.00 158.00 C 371.23 158.39 379.11 157.18 385.00 158.00 C 390.89 158.82 399.98 156.21 405.00 158.00 C 410.02 159.79 421.25 155.36 415.00 151.00 Z"/>
</g>
<g fill="#D44339" fill-opacity="1.00" stroke="None">
<path d="
M 134.00 222.00 
C 107.44 217.24 85.24 245.27 95.69 269.31 C 106.15 293.34 137.50 296.04 153.25 277.25 C 168.99 258.46 158.49 226.39 134.00 222.00
M 133.00 227.00 
C 153.46 230.67 163.03 258.65 149.25 274.25 C 135.46 289.84 109.40 287.57 100.69 267.31 C 91.99 247.04 110.13 222.90 133.00 227.00 Z"/>
</g>
<g fill="#FCF7F7" fill-opacity="1.00" stroke="None">
<path d="
M 133.00 227.00 
C 110.13 222.90 91.99 247.04 100.69 267.31 C 109.40 287.57 135.46 289.84 149.25 274.25 C 163.03 258.65 153.46 230.67 133.00 227.00
M 131.00 233.00 
C 159.62 237.65 152.54 283.34 123.33 278.67 C 94.12 274.00 102.10 228.31 131.00 233.00 Z"/>
</g>
<g fill="#F53227" fill-opacity="1.00" stroke="None">
<path d="
M 131.00 233.00 
C 102.10 228.31 94.12 274.00 123.33 278.67 C 152.54 283.34 159.62 237.65 131.00 233.00 Z"/>
</g>
<g fill="#B1B1B5" fill-opacity="1.00" stroke="None">
<path d="
M 414.00 252.00 
C 407.95 248.88 397.93 253.41 391.00 252.00 C 384.07 250.59 375.33 252.62 368.00 252.00 C 360.67 251.38 352.51 252.25 345.00 252.00 C 337.49 251.75 329.57 252.06 322.00 252.00 C 314.43 251.94 306.58 251.90 299.00 252.00 C 291.42 252.10 283.53 251.67 276.00 252.00 C 268.47 252.33 260.39 251.22 253.00 252.00 C 245.61 252.78 237.06 250.24 230.00 252.00 C 222.94 253.76 213.80 247.73 207.75 252.75 C 201.71 257.78 213.77 261.80 220.00 260.00 C 226.23 258.20 235.99 260.81 243.00 260.00 C 250.01 259.19 258.64 260.35 266.00 260.00 C 273.36 259.65 281.50 260.12 289.00 260.00 C 296.50 259.88 304.46 259.98 312.00 260.00 C 319.54 260.02 327.51 259.82 335.00 260.00 C 342.49 260.18 350.68 259.55 358.00 260.00 C 365.32 260.45 374.08 258.98 381.00 260.00 C 387.92 261.02 397.99 257.72 404.00 260.00 C 410.01 262.28 421.40 255.83 414.00 252.00 Z"/>
</g>
<g fill="#D88724" fill-opacity="1.00" stroke="None">
<path d="
M 136.00 324.00 
C 108.89 318.38 86.51 343.97 95.03 368.97 C 103.54 393.98 135.26 397.46 152.25 380.25 C 169.23 363.03 160.05 328.98 136.00 324.00
M 134.00 329.00 
C 170.04 334.85 156.40 396.21 120.33 385.67 C 84.26 375.13 97.35 323.05 134.00 329.00 Z"/>
</g>
<g fill="#F3F0EB" fill-opacity="1.00" stroke="None">
<path d="
M 134.00 329.00 
C 97.35 323.05 84.26 375.13 120.33 385.67 C 156.40 396.21 170.04 334.85 134.00 329.00
M 105.00 362.00 
C 104.19 358.71 104.20 356.23 105.00 353.00
C 111.13 328.25 149.42 329.90 150.00 357.00 C 150.58 384.11 111.38 387.77 105.00 362.00 Z"/>
</g>
<g fill="#C88029" fill-opacity="1.00" stroke="None">
<path d="
M 105.00 353.00 
C 104.66 355.71 104.66 359.29 105.00 362.00
C 111.38 387.77 150.58 384.11 150.00 357.00 C 149.42 329.90 111.13 328.25 105.00 353.00
M 134.00 337.00 
C 159.52 343.32 146.68 387.30 120.99 378.01 C 95.30 368.72 106.20 330.11 134.00 337.00 Z"/>
</g>
<g fill="#ED8C0B" fill-opacity="1.00" stroke="None">
<path d="
M 134.00 337.00 
C 106.20 330.11 95.30 368.72 120.99 378.01 C 146.68 387.30 159.52 343.32 134.00 337.00 Z"/>
</g>
<g fill="#DAB787" fill-opacity="1.00" stroke="None">
<path d="
M 105.00 362.00 
C 104.66 359.29 104.66 355.71 105.00 353.00
C 104.20 356.23 104.19 358.71 105.00 362.00 Z"/>
</g>
<g fill="#B3B3B6" fill-opacity="1.00" stroke="None">
<path d="
M 415.00 354.00 
C 410.30 350.72 399.96 355.48 394.00 354.00 C 388.04 352.52 379.51 354.66 373.00 354.00 C 366.49 353.34 358.74 354.29 352.00 354.00 C 345.26 353.71 337.81 354.12 331.00 354.00 C 324.19 353.88 317.85 354.00 311.00 354.00 C 304.15 354.00 296.88 353.89 290.00 354.00 C 283.12 354.11 275.84 353.71 269.00 354.00 C 262.16 354.29 254.70 353.35 248.00 354.00 C 241.30 354.65 234.42 352.45 228.00 354.00 C 221.58 355.55 213.39 350.35 207.75 354.75 C 202.12 359.16 212.23 363.74 218.00 362.00 C 223.77 360.26 232.65 362.82 239.00 362.00 C 245.35 361.18 252.34 362.34 259.00 362.00 C 265.66 361.66 273.18 362.14 280.00 362.00 C 286.82 361.86 294.13 362.04 301.00 362.00 C 307.87 361.96 315.18 361.95 322.00 362.00 C 328.82 362.05 335.26 361.82 342.00 362.00 C 348.74 362.18 356.39 361.60 363.00 362.00 C 369.61 362.40 377.77 361.12 384.00 362.00 C 390.23 362.88 399.67 360.05 405.00 362.00 C 410.33 363.95 420.92 358.12 415.00 354.00 Z"/>
</g>
</svg>