<svg xmlns="http://www.w3.org/2000/svg" xmlns:v="https://svgstorm.com"
viewBox = "37 37 435 435">
<g fill="None" fill-opacity="0.0" stroke="#000000" stroke-opacity="0.00" stroke-width="0.3"><path d="
M 0.00 512.00 
L 512.00 512.00
L 512.00 0.00
L 0.00 0.00
L 0.00 512.00
M 288.00 37.00 
C 305.68 37.35 328.31 39.66 345.00 42.00 C 361.70 44.34 381.62 47.43 396.02 52.98 C 410.43 58.53 431.34 63.93 430.00 82.00
C 430.95 85.21 433.13 94.89 431.00 102.00 C 428.88 109.12 429.36 117.63 428.00 125.00 C 426.64 132.37 426.10 139.52 425.00 147.00 C 423.91 154.48 422.88 162.44 422.00 170.00 C 421.13 177.57 419.38 184.26 419.00 192.00 C 418.62 199.74 418.35 208.50 417.00 216.00 C 415.66 223.50 415.29 230.53 414.00 238.00 C 412.71 245.47 411.93 253.45 411.00 261.00 C 410.07 268.55 408.73 275.40 408.00 283.00 C 407.28 290.60 405.27 298.28 405.00 306.00 C 404.73 313.73 403.96 321.50 403.00 329.00 C 402.04 336.50 400.17 344.15 399.67 351.67 C 399.17 359.19 396.83 365.75 396.07 373.07 C 395.31 380.40 393.82 388.63 392.67 395.67 C 391.52 402.71 389.28 408.81 387.22 415.22 C 385.16 421.63 382.83 427.81 379.25 433.25 C 375.67 438.69 372.59 442.24 367.75 446.75 C 362.91 451.26 357.67 453.81 351.92 456.92 C 346.18 460.04 341.46 462.91 334.93 464.93 C 328.40 466.94 320.77 468.38 313.93 469.93 C 307.08 471.48 299.19 471.85 292.33 472.67 C 285.47 473.49 277.93 475.17 270.00 475.00 C 262.07 474.83 252.98 474.84 245.00 475.00 C 237.02 475.16 228.46 474.05 220.98 473.02 C 213.49 472.00 205.94 471.78 198.99 470.01 C 192.04 468.23 185.21 466.56 178.78 464.22 C 172.34 461.89 166.57 460.36 160.77 457.23 C 154.97 454.10 149.67 451.66 144.75 447.25 C 139.84 442.83 136.83 439.27 133.08 433.92 C 129.34 428.57 127.92 422.00 125.07 415.93 C 122.23 409.85 121.55 402.86 120.00 396.00 C 118.46 389.14 116.92 381.25 116.00 374.00 C 115.08 366.74 113.72 359.45 113.00 352.00 C 112.28 344.55 110.21 336.92 109.67 329.33 C 109.13 321.74 106.90 314.84 107.00 307.00 C 107.10 299.16 105.10 291.36 104.22 283.78 C 103.34 276.20 102.48 268.91 101.67 261.33 C 100.86 253.75 98.95 246.39 98.22 238.78 C 97.49 231.17 96.01 224.38 95.22 216.78 C 94.43 209.18 93.01 201.39 92.22 193.78 C 91.43 186.17 91.63 178.20 90.22 170.78 C 88.81 163.36 88.37 155.33 87.07 147.93 C 85.78 140.52 85.57 133.27 84.07 125.93 C 82.58 118.58 83.33 110.04 81.07 102.93 C 78.81 95.81 80.75 85.36 82.00 82.00
C 81.02 63.59 102.19 58.46 117.68 52.68 C 133.17 46.89 155.77 43.25 174.02 41.02 C 192.28 38.80 217.80 36.73 237.00 36.00
C 254.27 35.34 271.62 36.67 288.00 37.00 Z"/>
</g>
<g fill="None" fill-opacity="0.0" stroke="#E0E1E3" stroke-opacity="1.00" stroke-width="0.3"><path d="
M 82.00 82.00 
C 82.08 83.57 82.91 86.75 83.00 89.00
C 83.43 92.57 84.78 96.87 85.00 101.00
C 87.03 138.33 94.91 176.08 99.00 213.00 C 103.08 249.92 108.01 288.57 113.00 325.00 C 117.98 361.43 119.66 396.31 136.00 429.00
C 142.25 437.00 150.23 443.61 159.00 448.00
C 162.01 449.51 165.21 451.71 168.00 453.00
C 183.91 458.30 199.17 462.60 216.00 465.00
C 237.79 464.07 266.25 466.42 288.01 463.01 C 309.76 459.60 328.76 455.10 348.00 451.00
C 364.59 443.24 377.66 430.17 384.00 413.00
C 396.57 378.95 395.78 342.04 401.93 305.93 C 408.08 269.81 410.93 230.55 415.93 193.93 C 420.92 157.30 427.26 119.00 430.00 82.00
C 431.34 63.93 410.43 58.53 396.02 52.98 C 381.62 47.43 361.70 44.34 345.00 42.00 C 328.31 39.66 305.68 37.35 288.00 37.00
C 280.02 37.77 270.63 37.59 262.00 38.00 C 253.37 38.41 243.40 37.11 237.00 36.00
C 217.80 36.73 192.28 38.80 174.02 41.02 C 155.77 43.25 133.17 46.89 117.68 52.68 C 102.19 58.46 81.02 63.59 82.00 82.00
M 420.00 70.00 
C 428.33 77.78 424.87 86.10 416.00 92.00
C 401.82 101.44 387.94 104.35 370.99 107.99 C 354.05 111.63 334.87 113.43 316.78 115.78 C 298.69 118.13 277.09 117.88 258.00 118.00 C 238.91 118.12 216.51 117.87 198.00 116.00 C 179.49 114.13 162.69 111.80 144.98 108.02 C 127.26 104.25 114.38 101.67 97.92 93.08 C 81.47 84.48 87.64 67.67 104.08 62.08 C 120.51 56.48 133.25 49.20 151.07 47.07 C 168.90 44.94 187.52 42.53 206.00 41.00 C 224.48 39.47 246.99 38.67 266.00 39.00 C 285.01 39.33 305.29 40.52 323.22 42.78 C 341.15 45.04 360.63 46.26 377.02 50.98 C 393.42 55.69 407.57 58.40 420.00 70.00
M 171.00 405.00 
C 182.46 411.43 197.42 411.42 208.00 421.00
C 202.39 423.77 209.18 422.55 212.00 422.00
C 208.87 427.80 218.77 430.14 216.86 433.92 C 214.96 437.69 213.96 443.16 210.00 442.00
C 208.90 446.26 213.13 446.62 213.00 450.00
C 198.31 461.01 176.73 451.22 161.77 444.23 C 146.81 437.24 134.34 417.99 147.00 406.00
C 156.03 405.73 160.46 406.90 171.00 405.00 Z"/>
</g>
<g fill="None" fill-opacity="0.0" stroke="#D6D6D7" stroke-opacity="0.57" stroke-width="0.3"><path d="
M 288.00 37.00 
C 271.62 36.67 254.27 35.34 237.00 36.00
C 243.40 37.11 253.37 38.41 262.00 38.00 C 270.63 37.59 280.02 37.77 288.00 37.00 Z"/>
</g>
<g fill="None" fill-opacity="0.0" stroke="#DEDEE0" stroke-opacity="0.72" stroke-width="0.3"><path d="
M 416.00 92.00 
C 413.10 85.79 420.88 74.32 420.00 70.00
C 407.57 58.40 393.42 55.69 377.02 50.98 C 360.63 46.26 341.15 45.04 323.22 42.78 C 305.29 40.52 285.01 39.33 266.00 39.00 C 246.99 38.67 224.48 39.47 206.00 41.00 C 187.52 42.53 168.90 44.94 151.07 47.07 C 133.25 49.20 120.51 56.48 104.08 62.08 C 87.64 67.67 81.47 84.48 97.92 93.08 C 114.38 101.67 127.26 104.25 144.98 108.02 C 162.69 111.80 179.49 114.13 198.00 116.00 C 216.51 117.87 238.91 118.12 258.00 118.00 C 277.09 117.88 298.69 118.13 316.78 115.78 C 334.87 113.43 354.05 111.63 370.99 107.99 C 387.94 104.35 401.82 101.44 416.00 92.00 Z"/>
</g>
<g fill="None" fill-opacity="0.0" stroke="#D4D6D7" stroke-opacity="0.81" stroke-width="0.3"><path d="
M 416.00 92.00 
C 424.87 86.10 428.33 77.78 420.00 70.00
C 420.88 74.32 413.10 85.79 416.00 92.00 Z"/>
</g>
<g fill="None" fill-opacity="0.0" stroke="#000000" stroke-opacity="0.12" stroke-width="0.3"><path d="
M 430.00 82.00 
C 427.26 119.00 420.92 157.30 415.93 193.93 C 410.93 230.55 408.08 269.81 401.93 305.93 C 395.78 342.04 396.57 378.95 384.00 413.00
C 379.73 433.47 362.36 448.87 341.77 457.77 C 321.18 466.67 291.09 470.31 267.97 470.98 C 244.86 471.64 211.71 469.69 189.93 464.07 C 168.14 458.46 146.31 449.61 136.00 429.00
C 119.66 396.31 117.98 361.43 113.00 325.00 C 108.01 288.57 103.08 249.92 99.00 213.00 C 94.91 176.08 87.03 138.33 85.00 101.00
C 84.47 97.30 83.18 93.39 83.00 89.00
C 82.91 86.75 82.08 83.57 82.00 82.00
C 80.75 85.36 78.81 95.81 81.07 102.93 C 83.33 110.04 82.58 118.58 84.07 125.93 C 85.57 133.27 85.78 140.52 87.07 147.93 C 88.37 155.33 88.81 163.36 90.22 170.78 C 91.63 178.20 91.43 186.17 92.22 193.78 C 93.01 201.39 94.43 209.18 95.22 216.78 C 96.01 224.38 97.49 231.17 98.22 238.78 C 98.95 246.39 100.86 253.75 101.67 261.33 C 102.48 268.91 103.34 276.20 104.22 283.78 C 105.10 291.36 107.10 299.16 107.00 307.00 C 106.90 314.84 109.13 321.74 109.67 329.33 C 110.21 336.92 112.28 344.55 113.00 352.00 C 113.72 359.45 115.08 366.74 116.00 374.00 C 116.92 381.25 118.46 389.14 120.00 396.00 C 121.55 402.86 122.23 409.85 125.07 415.93 C 127.92 422.00 129.34 428.57 133.08 433.92 C 136.83 439.27 139.84 442.83 144.75 447.25 C 149.67 451.66 154.97 454.10 160.77 457.23 C 166.57 460.36 172.34 461.89 178.78 464.22 C 185.21 466.56 192.04 468.23 198.99 470.01 C 205.94 471.78 213.49 472.00 220.98 473.02 C 228.46 474.05 237.02 475.16 245.00 475.00 C 252.98 474.84 262.07 474.83 270.00 475.00 C 277.93 475.17 285.47 473.49 292.33 472.67 C 299.19 471.85 307.08 471.48 313.93 469.93 C 320.77 468.38 328.40 466.94 334.93 464.93 C 341.46 462.91 346.18 460.04 351.92 456.92 C 357.67 453.81 362.91 451.26 367.75 446.75 C 372.59 442.24 375.67 438.69 379.25 433.25 C 382.83 427.81 385.16 421.63 387.22 415.22 C 389.28 408.81 391.52 402.71 392.67 395.67 C 393.82 388.63 395.31 380.40 396.07 373.07 C 396.83 365.75 399.17 359.19 399.67 351.67 C 400.17 344.15 402.04 336.50 403.00 329.00 C 403.96 321.50 404.73 313.73 405.00 306.00 C 405.27 298.28 407.28 290.60 408.00 283.00 C 408.73 275.40 410.07 268.55 411.00 261.00 C 411.93 253.45 412.71 245.47 414.00 238.00 C 415.29 230.53 415.66 223.50 417.00 216.00 C 418.35 208.50 418.62 199.74 419.00 192.00 C 419.38 184.26 421.13 177.57 422.00 170.00 C 422.88 162.44 423.91 154.48 425.00 147.00 C 426.10 139.52 426.64 132.37 428.00 125.00 C 429.36 117.63 428.88 109.12 431.00 102.00 C 433.13 94.89 430.95 85.21 430.00 82.00 Z"/>
</g>
<g fill="None" fill-opacity="0.0" stroke="#686A6B" stroke-opacity="0.31" stroke-width="0.3"><path d="
M 85.00 101.00 
C 84.78 96.87 83.43 92.57 83.00 89.00
C 83.18 93.39 84.47 97.30 85.00 101.00 Z"/>
</g>
<g fill="None" fill-opacity="0.0" stroke="#F6F7F8" stroke-opacity="1.00" stroke-width="0.3"><path d="
M 171.00 405.00 
C 160.46 406.90 156.03 405.73 147.00 406.00
C 134.34 417.99 146.81 437.24 161.77 444.23 C 176.73 451.22 198.31 461.01 213.00 450.00
C 213.13 446.62 208.90 446.26 210.00 442.00
C 213.96 443.16 214.96 437.69 216.86 433.92 C 218.77 430.14 208.87 427.80 212.00 422.00
C 209.18 422.55 202.39 423.77 208.00 421.00
C 197.42 411.42 182.46 411.43 171.00 405.00 Z"/>
</g>
<g fill="None" fill-opacity="0.0" stroke="#000000" stroke-opacity="0.23" stroke-width="0.3"><path d="
M 348.00 451.00 
C 326.81 460.91 302.62 465.72 279.00 467.00
C 275.36 467.20 271.63 466.65 268.00 467.00
C 260.45 467.73 251.48 467.72 244.00 467.00
C 240.37 466.65 236.64 467.20 233.00 467.00
C 227.30 466.69 221.61 465.80 216.00 465.00
C 199.17 462.60 183.91 458.30 168.00 453.00
C 164.40 451.80 161.98 449.86 159.00 448.00
C 150.23 443.61 142.25 437.00 136.00 429.00
C 146.31 449.61 168.14 458.46 189.93 464.07 C 211.71 469.69 244.86 471.64 267.97 470.98 C 291.09 470.31 321.18 466.67 341.77 457.77 C 362.36 448.87 379.73 433.47 384.00 413.00
C 377.66 430.17 364.59 443.24 348.00 451.00 Z"/>
</g>
<g fill="None" fill-opacity="0.0" stroke="#6B6D6E" stroke-opacity="0.48" stroke-width="0.3"><path d="
M 168.00 453.00 
C 165.21 451.71 162.01 449.51 159.00 448.00
C 161.98 449.86 164.40 451.80 168.00 453.00 Z"/>
</g>
<g fill="None" fill-opacity="0.0" stroke="#A9ACB0" stroke-opacity="0.90" stroke-width="0.3"><path d="
M 216.00 465.00 
C 221.61 465.80 227.30 466.69 233.00 467.00
C 236.23 466.86 240.76 466.69 244.00 467.00
C 251.51 467.73 260.49 467.73 268.00 467.00
C 271.30 466.68 275.84 466.87 279.00 467.00
C 302.62 465.72 326.81 460.91 348.00 451.00
C 328.76 455.10 309.76 459.60 288.01 463.01 C 266.25 466.42 237.79 464.07 216.00 465.00 Z"/>
</g>
<g fill="None" fill-opacity="0.0" stroke="#898B8E" stroke-opacity="0.69" stroke-width="0.3"><path d="
M 233.00 467.00 
C 236.64 467.20 240.37 466.65 244.00 467.00
C 240.76 466.69 236.23 466.86 233.00 467.00 Z"/>
</g>
<g fill="None" fill-opacity="0.0" stroke="#888A8D" stroke-opacity="0.69" stroke-width="0.3"><path d="
M 268.00 467.00 
C 271.63 466.65 275.36 467.20 279.00 467.00
C 275.84 466.87 271.30 466.68 268.00 467.00 Z"/>
</g>
<g fill="None" fill-opacity="0.0" stroke="#626567" stroke-opacity="0.41" stroke-width="0.3"><path d="
M 268.00 467.00 
C 260.49 467.73 251.51 467.73 244.00 467.00
C 251.48 467.72 260.45 467.73 268.00 467.00 Z"/>
</g>
<g fill="#000000" fill-opacity="0.00" stroke="None">
<path d="
M 0.00 512.00 
L 512.00 512.00
L 512.00 0.00
L 0.00 0.00
L 0.00 512.00
M 288.00 37.00 
C 305.68 37.35 328.31 39.66 345.00 42.00 C 361.70 44.34 381.62 47.43 396.02 52.98 C 410.43 58.53 431.34 63.93 430.00 82.00
C 430.95 85.21 433.13 94.89 431.00 102.00 C 428.88 109.12 429.36 117.63 428.00 125.00 C 426.64 132.37 426.10 139.52 425.00 147.00 C 423.91 154.48 422.88 162.44 422.00 170.00 C 421.13 177.57 419.38 184.26 419.00 192.00 C 418.62 199.74 418.35 208.50 417.00 216.00 C 415.66 223.50 415.29 230.53 414.00 238.00 C 412.71 245.47 411.93 253.45 411.00 261.00 C 410.07 268.55 408.73 275.40 408.00 283.00 C 407.28 290.60 405.27 298.28 405.00 306.00 C 404.73 313.73 403.96 321.50 403.00 329.00 C 402.04 336.50 400.17 344.15 399.67 351.67 C 399.17 359.19 396.83 365.75 396.07 373.07 C 395.31 380.40 393.82 388.63 392.67 395.67 C 391.52 402.71 389.28 408.81 387.22 415.22 C 385.16 421.63 382.83 427.81 379.25 433.25 C 375.67 438.69 372.59 442.24 367.75 446.75 C 362.91 451.26 357.67 453.81 351.92 456.92 C 346.18 460.04 341.46 462.91 334.93 464.93 C 328.40 466.94 320.77 468.38 313.93 469.93 C 307.08 471.48 299.19 471.85 292.33 472.67 C 285.47 473.49 277.93 475.17 270.00 475.00 C 262.07 474.83 252.98 474.84 245.00 475.00 C 237.02 475.16 228.46 474.05 220.98 473.02 C 213.49 472.00 205.94 471.78 198.99 470.01 C 192.04 468.23 185.21 466.56 178.78 464.22 C 172.34 461.89 166.57 460.36 160.77 457.23 C 154.97 454.10 149.67 451.66 144.75 447.25 C 139.84 442.83 136.83 439.27 133.08 433.92 C 129.34 428.57 127.92 422.00 125.07 415.93 C 122.23 409.85 121.55 402.86 120.00 396.00 C 118.46 389.14 116.92 381.25 116.00 374.00 C 115.08 366.74 113.72 359.45 113.00 352.00 C 112.28 344.55 110.21 336.92 109.67 329.33 C 109.13 321.74 106.90 314.84 107.00 307.00 C 107.10 299.16 105.10 291.36 104.22 283.78 C 103.34 276.20 102.48 268.91 101.67 261.33 C 100.86 253.75 98.95 246.39 98.22 238.78 C 97.49 231.17 96.01 224.38 95.22 216.78 C 94.43 209.18 93.01 201.39 92.22 193.78 C 91.43 186.17 91.63 178.20 90.22 170.78 C 88.81 163.36 88.37 155.33 87.07 147.93 C 85.78 140.52 85.57 133.27 84.07 125.93 C 82.58 118.58 83.33 110.04 81.07 102.93 C 78.81 95.81 80.75 85.36 82.00 82.00
C 81.02 63.59 102.19 58.46 117.68 52.68 C 133.17 46.89 155.77 43.25 174.02 41.02 C 192.28 38.80 217.80 36.73 237.00 36.00
C 254.27 35.34 271.62 36.67 288.00 37.00 Z"/>
</g>
<g fill="#E0E1E3" fill-opacity="1.00" stroke="None">
<path d="
M 82.00 82.00 
C 82.08 83.57 82.91 86.75 83.00 89.00
C 83.43 92.57 84.78 96.87 85.00 101.00
C 87.03 138.33 94.91 176.08 99.00 213.00 C 103.08 249.92 108.01 288.57 113.00 325.00 C 117.98 361.43 119.66 396.31 136.00 429.00
C 142.25 437.00 150.23 443.61 159.00 448.00
C 162.01 449.51 165.21 451.71 168.00 453.00
C 183.91 458.30 199.17 462.60 216.00 465.00
C 237.79 464.07 266.25 466.42 288.01 463.01 C 309.76 459.60 328.76 455.10 348.00 451.00
C 364.59 443.24 377.66 430.17 384.00 413.00
C 396.57 378.95 395.78 342.04 401.93 305.93 C 408.08 269.81 410.93 230.55 415.93 193.93 C 420.92 157.30 427.26 119.00 430.00 82.00
C 431.34 63.93 410.43 58.53 396.02 52.98 C 381.62 47.43 361.70 44.34 345.00 42.00 C 328.31 39.66 305.68 37.35 288.00 37.00
C 280.02 37.77 270.63 37.59 262.00 38.00 C 253.37 38.41 243.40 37.11 237.00 36.00
C 217.80 36.73 192.28 38.80 174.02 41.02 C 155.77 43.25 133.17 46.89 117.68 52.68 C 102.19 58.46 81.02 63.59 82.00 82.00
M 420.00 70.00 
C 428.33 77.78 424.87 86.10 416.00 92.00
C 401.82 101.44 387.94 104.35 370.99 107.99 C 354.05 111.63 334.87 113.43 316.78 115.78 C 298.69 118.13 277.09 117.88 258.00 118.00 C 238.91 118.12 216.51 117.87 198.00 116.00 C 179.49 114.13 162.69 111.80 144.98 108.02 C 127.26 104.25 114.38 101.67 97.92 93.08 C 81.47 84.48 87.64 67.67 104.08 62.08 C 120.51 56.48 133.25 49.20 151.07 47.07 C 168.90 44.94 187.52 42.53 206.00 41.00 C 224.48 39.47 246.99 38.67 266.00 39.00 C 285.01 39.33 305.29 40.52 323.22 42.78 C 341.15 45.04 360.63 46.26 377.02 50.98 C 393.42 55.69 407.57 58.40 420.00 70.00
M 171.00 405.00 
C 182.46 411.43 197.42 411.42 208.00 421.00
C 202.39 423.77 209.18 422.55 212.00 422.00
C 208.87 427.80 218.77 430.14 216.86 433.92 C 214.96 437.69 213.96 443.16 210.00 442.00
C 208.90 446.26 213.13 446.62 213.00 450.00
C 198.31 461.01 176.73 451.22 161.77 444.23 C 146.81 437.24 134.34 417.99 147.00 406.00
C 156.03 405.73 160.46 406.90 171.00 405.00 Z"/>
</g>
<g fill="#D6D6D7" fill-opacity="0.57" stroke="None">
<path d="
M 288.00 37.00 
C 271.62 36.67 254.27 35.34 237.00 36.00
C 243.40 37.11 253.37 38.41 262.00 38.00 C 270.63 37.59 280.02 37.77 288.00 37.00 Z"/>
</g>
<g fill="#DEDEE0" fill-opacity="0.72" stroke="None">
<path d="
M 416.00 92.00 
C 413.10 85.79 420.88 74.32 420.00 70.00
C 407.57 58.40 393.42 55.69 377.02 50.98 C 360.63 46.26 341.15 45.04 323.22 42.78 C 305.29 40.52 285.01 39.33 266.00 39.00 C 246.99 38.67 224.48 39.47 206.00 41.00 C 187.52 42.53 168.90 44.94 151.07 47.07 C 133.25 49.20 120.51 56.48 104.08 62.08 C 87.64 67.67 81.47 84.48 97.92 93.08 C 114.38 101.67 127.26 104.25 144.98 108.02 C 162.69 111.80 179.49 114.13 198.00 116.00 C 216.51 117.87 238.91 118.12 258.00 118.00 C 277.09 117.88 298.69 118.13 316.78 115.78 C 334.87 113.43 354.05 111.63 370.99 107.99 C 387.94 104.35 401.82 101.44 416.00 92.00 Z"/>
</g>
<g fill="#D4D6D7" fill-opacity="0.81" stroke="None">
<path d="
M 416.00 92.00 
C 424.87 86.10 428.33 77.78 420.00 70.00
C 420.88 74.32 413.10 85.79 416.00 92.00 Z"/>
</g>
<g fill="#000000" fill-opacity="0.12" stroke="None">
<path d="
M 430.00 82.00 
C 427.26 119.00 420.92 157.30 415.93 193.93 C 410.93 230.55 408.08 269.81 401.93 305.93 C 395.78 342.04 396.57 378.95 384.00 413.00
C 379.73 433.47 362.36 448.87 341.77 457.77 C 321.18 466.67 291.09 470.31 267.97 470.98 C 244.86 471.64 211.71 469.69 189.93 464.07 C 168.14 458.46 146.31 449.61 136.00 429.00
C 119.66 396.31 117.98 361.43 113.00 325.00 C 108.01 288.57 103.08 249.92 99.00 213.00 C 94.91 176.08 87.03 138.33 85.00 101.00
C 84.47 97.30 83.18 93.39 83.00 89.00
C 82.91 86.75 82.08 83.57 82.00 82.00
C 80.75 85.36 78.81 95.81 81.07 102.93 C 83.33 110.04 82.58 118.58 84.07 125.93 C 85.57 133.27 85.78 140.52 87.07 147.93 C 88.37 155.33 88.81 163.36 90.22 170.78 C 91.63 178.20 91.43 186.17 92.22 193.78 C 93.01 201.39 94.43 209.18 95.22 216.78 C 96.01 224.38 97.49 231.17 98.22 238.78 C 98.95 246.39 100.86 253.75 101.67 261.33 C 102.48 268.91 103.34 276.20 104.22 283.78 C 105.10 291.36 107.10 299.16 107.00 307.00 C 106.90 314.84 109.13 321.74 109.67 329.33 C 110.21 336.92 112.28 344.55 113.00 352.00 C 113.72 359.45 115.08 366.74 116.00 374.00 C 116.92 381.25 118.46 389.14 120.00 396.00 C 121.55 402.86 122.23 409.85 125.07 415.93 C 127.92 422.00 129.34 428.57 133.08 433.92 C 136.83 439.27 139.84 442.83 144.75 447.25 C 149.67 451.66 154.97 454.10 160.77 457.23 C 166.57 460.36 172.34 461.89 178.78 464.22 C 185.21 466.56 192.04 468.23 198.99 470.01 C 205.94 471.78 213.49 472.00 220.98 473.02 C 228.46 474.05 237.02 475.16 245.00 475.00 C 252.98 474.84 262.07 474.83 270.00 475.00 C 277.93 475.17 285.47 473.49 292.33 472.67 C 299.19 471.85 307.08 471.48 313.93 469.93 C 320.77 468.38 328.40 466.94 334.93 464.93 C 341.46 462.91 346.18 460.04 351.92 456.92 C 357.67 453.81 362.91 451.26 367.75 446.75 C 372.59 442.24 375.67 438.69 379.25 433.25 C 382.83 427.81 385.16 421.63 387.22 415.22 C 389.28 408.81 391.52 402.71 392.67 395.67 C 393.82 388.63 395.31 380.40 396.07 373.07 C 396.83 365.75 399.17 359.19 399.67 351.67 C 400.17 344.15 402.04 336.50 403.00 329.00 C 403.96 321.50 404.73 313.73 405.00 306.00 C 405.27 298.28 407.28 290.60 408.00 283.00 C 408.73 275.40 410.07 268.55 411.00 261.00 C 411.93 253.45 412.71 245.47 414.00 238.00 C 415.29 230.53 415.66 223.50 417.00 216.00 C 418.35 208.50 418.62 199.74 419.00 192.00 C 419.38 184.26 421.13 177.57 422.00 170.00 C 422.88 162.44 423.91 154.48 425.00 147.00 C 426.10 139.52 426.64 132.37 428.00 125.00 C 429.36 117.63 428.88 109.12 431.00 102.00 C 433.13 94.89 430.95 85.21 430.00 82.00 Z"/>
</g>
<g fill="#686A6B" fill-opacity="0.31" stroke="None">
<path d="
M 85.00 101.00 
C 84.78 96.87 83.43 92.57 83.00 89.00
C 83.18 93.39 84.47 97.30 85.00 101.00 Z"/>
</g>
<g fill="#F6F7F8" fill-opacity="1.00" stroke="None">
<path d="
M 171.00 405.00 
C 160.46 406.90 156.03 405.73 147.00 406.00
C 134.34 417.99 146.81 437.24 161.77 444.23 C 176.73 451.22 198.31 461.01 213.00 450.00
C 213.13 446.62 208.90 446.26 210.00 442.00
C 213.96 443.16 214.96 437.69 216.86 433.92 C 218.77 430.14 208.87 427.80 212.00 422.00
C 209.18 422.55 202.39 423.77 208.00 421.00
C 197.42 411.42 182.46 411.43 171.00 405.00 Z"/>
</g>
<g fill="#000000" fill-opacity="0.23" stroke="None">
<path d="
M 348.00 451.00 
C 326.81 460.91 302.62 465.72 279.00 467.00
C 275.36 467.20 271.63 466.65 268.00 467.00
C 260.45 467.73 251.48 467.72 244.00 467.00
C 240.37 466.65 236.64 467.20 233.00 467.00
C 227.30 466.69 221.61 465.80 216.00 465.00
C 199.17 462.60 183.91 458.30 168.00 453.00
C 164.40 451.80 161.98 449.86 159.00 448.00
C 150.23 443.61 142.25 437.00 136.00 429.00
C 146.31 449.61 168.14 458.46 189.93 464.07 C 211.71 469.69 244.86 471.64 267.97 470.98 C 291.09 470.31 321.18 466.67 341.77 457.77 C 362.36 448.87 379.73 433.47 384.00 413.00
C 377.66 430.17 364.59 443.24 348.00 451.00 Z"/>
</g>
<g fill="#6B6D6E" fill-opacity="0.48" stroke="None">
<path d="
M 168.00 453.00 
C 165.21 451.71 162.01 449.51 159.00 448.00
C 161.98 449.86 164.40 451.80 168.00 453.00 Z"/>
</g>
<g fill="#A9ACB0" fill-opacity="0.90" stroke="None">
<path d="
M 216.00 465.00 
C 221.61 465.80 227.30 466.69 233.00 467.00
C 236.23 466.86 240.76 466.69 244.00 467.00
C 251.51 467.73 260.49 467.73 268.00 467.00
C 271.30 466.68 275.84 466.87 279.00 467.00
C 302.62 465.72 326.81 460.91 348.00 451.00
C 328.76 455.10 309.76 459.60 288.01 463.01 C 266.25 466.42 237.79 464.07 216.00 465.00 Z"/>
</g>
<g fill="#898B8E" fill-opacity="0.69" stroke="None">
<path d="
M 233.00 467.00 
C 236.64 467.20 240.37 466.65 244.00 467.00
C 240.76 466.69 236.23 466.86 233.00 467.00 Z"/>
</g>
<g fill="#888A8D" fill-opacity="0.69" stroke="None">
<path d="
M 268.00 467.00 
C 271.63 466.65 275.36 467.20 279.00 467.00
C 275.84 466.87 271.30 466.68 268.00 467.00 Z"/>
</g>
<g fill="#626567" fill-opacity="0.41" stroke="None">
<path d="
M 268.00 467.00 
C 260.49 467.73 251.51 467.73 244.00 467.00
C 251.48 467.72 260.45 467.73 268.00 467.00 Z"/>
</g>
</svg>