<svg xmlns="http://www.w3.org/2000/svg" xmlns:v="https://svgstorm.com"
viewBox = "40 40 430 430">
<g fill="None" fill-opacity="0.0" stroke="#000000" stroke-opacity="0.00" stroke-width="0.3"><path d="
M 0.00 512.00 
L 512.00 512.00
L 512.00 0.00
L 0.00 0.00
L 0.00 512.00
M 468.00 125.00 
C 470.28 153.79 467.39 183.08 468.00 212.00 C 468.61 240.92 468.65 270.02 468.00 299.00 C 467.35 327.98 470.30 358.07 468.00 387.00
C 465.58 417.44 449.29 443.52 420.92 457.92 C 392.55 472.32 353.27 467.85 318.00 468.00 C 282.73 468.15 234.28 468.35 199.00 468.00 C 163.72 467.65 121.06 472.81 91.77 458.23 C 62.48 443.64 46.44 417.71 44.00 387.00
C 40.60 344.10 44.15 300.10 44.00 257.00 C 43.85 213.90 41.07 169.03 44.00 126.00
C 46.07 95.52 61.11 70.21 89.70 54.70 C 118.28 39.18 161.23 44.16 196.00 44.00 C 230.77 43.84 279.23 43.61 314.00 44.00 C 348.77 44.39 392.22 39.00 421.08 53.92 C 449.93 68.85 465.59 94.68 468.00 125.00 Z"/>
</g>
<g fill="None" fill-opacity="0.0" stroke="#1E2A28" stroke-opacity="1.00" stroke-width="0.3"><path d="
M 44.00 126.00 
C 45.51 178.12 45.00 232.13 45.00 285.00
C 46.09 288.12 49.09 283.31 48.00 289.00
C 48.75 285.20 52.46 283.89 52.00 289.00
C 52.75 285.20 56.46 283.89 56.00 289.00
C 57.60 284.22 58.33 287.81 60.00 283.00
C 59.27 286.57 61.19 291.33 61.00 285.00
C 63.39 288.69 62.16 284.22 64.00 283.00
C 63.27 286.57 65.19 291.33 65.00 285.00
C 67.39 288.69 66.16 284.22 68.00 283.00
C 67.27 286.57 69.19 291.33 69.00 285.00
C 71.39 288.69 70.16 284.22 72.00 283.00
C 71.27 286.57 73.19 291.33 73.00 285.00
C 75.39 288.69 74.16 284.22 76.00 283.00
C 75.27 286.57 77.19 291.33 77.00 285.00
C 79.39 288.69 78.16 284.22 80.00 283.00
C 79.27 286.57 81.19 291.33 81.00 285.00
C 83.39 288.69 82.16 284.22 84.00 283.00
C 83.46 285.18 84.47 290.44 84.98 286.95 C 85.48 283.46 87.72 288.96 87.00 283.00
C 87.75 286.80 91.46 288.11 91.00 283.00
C 91.75 286.80 95.46 288.11 95.00 283.00
C 96.17 287.99 100.14 287.31 99.00 281.00
C 101.18 281.35 98.85 287.92 101.00 286.00
C 103.08 287.29 103.24 284.47 103.00 281.00
C 105.18 281.35 102.85 287.92 105.00 286.00
C 107.08 287.29 107.24 284.47 107.00 281.00
C 108.59 280.36 107.70 289.50 108.93 285.86 C 110.15 282.21 108.95 284.60 111.00 287.00
C 112.98 280.04 108.54 273.88 110.00 268.00
C 108.70 262.68 108.00 257.74 108.00 252.00
C 107.67 248.54 107.67 244.39 108.00 241.00
C 108.00 223.55 116.94 211.10 132.68 203.68 C 148.42 196.26 166.71 212.18 182.02 204.02 C 197.34 195.87 217.40 202.15 227.00 216.00
C 219.81 220.82 215.20 225.97 212.22 234.22 C 209.24 242.47 211.23 254.48 215.26 261.74 C 219.28 269.01 228.17 271.79 230.00 278.00
C 229.68 277.40 234.43 279.93 232.00 283.00
C 234.55 281.34 235.53 282.69 235.00 277.00
C 237.18 277.35 234.85 283.92 237.00 282.00
C 239.08 283.29 239.24 280.47 239.00 277.00
C 241.18 277.35 238.85 283.92 241.00 282.00
C 243.08 283.29 243.24 280.47 243.00 277.00
C 244.43 279.37 244.55 286.00 245.00 279.00
C 246.69 284.33 247.21 281.57 247.00 277.00
C 248.44 279.37 248.55 286.00 249.00 279.00
C 250.69 284.33 251.21 281.57 251.00 277.00
C 252.44 279.37 252.55 286.00 253.00 279.00
C 254.69 284.33 255.21 281.57 255.00 277.00
C 256.59 276.36 255.70 285.50 256.93 281.86 C 258.15 278.21 256.95 280.60 259.00 283.00
C 259.04 275.68 259.43 278.01 261.00 283.00
C 261.66 273.17 259.67 262.01 262.00 253.00
C 262.00 245.67 262.00 238.33 262.00 231.00
C 257.33 231.00 252.67 231.00 248.00 231.00
C 247.92 224.75 248.10 220.45 248.00 214.00 C 247.90 207.55 257.55 210.66 262.00 210.00
C 262.66 202.84 260.67 194.34 263.00 188.00
C 265.30 185.70 272.65 187.01 276.00 187.00 C 279.35 186.99 286.73 185.73 289.00 188.00
C 293.36 192.36 287.81 204.37 290.00 210.00
C 294.29 212.17 305.76 206.56 308.74 211.26 C 311.73 215.96 307.04 225.81 309.00 231.00
C 302.67 231.00 296.33 231.00 290.00 231.00
C 290.00 239.67 290.00 248.33 290.00 257.00
C 290.81 265.34 291.49 274.54 292.00 283.00
C 293.43 280.63 293.55 274.00 294.00 281.00
C 295.69 275.67 296.21 278.43 296.00 283.00
C 297.43 280.63 297.55 274.00 298.00 281.00
C 299.69 275.67 300.21 278.43 300.00 283.00
C 302.18 282.65 299.85 276.08 302.00 278.00
C 304.08 276.71 304.24 279.53 304.00 283.00
C 306.18 282.65 303.85 276.08 306.00 278.00
C 308.08 276.71 308.24 279.53 308.00 283.00
C 310.18 282.65 307.85 276.08 310.00 278.00
C 312.08 276.71 312.24 279.53 312.00 283.00
C 314.18 282.65 311.85 276.08 314.00 278.00
C 315.32 277.93 316.47 277.12 316.00 281.00
C 316.75 277.20 320.46 275.89 320.00 281.00
C 320.75 277.20 324.46 275.89 324.00 281.00
C 325.60 276.21 326.33 279.81 328.00 275.00
C 327.27 278.57 329.19 283.33 329.00 277.00
C 331.39 280.69 330.16 276.22 332.00 275.00
C 331.27 278.57 333.19 283.33 333.00 277.00
C 337.12 280.46 333.75 269.29 333.00 266.00 C 332.25 262.71 327.94 256.54 330.00 253.00
C 324.78 238.86 319.56 224.62 316.00 210.00
C 325.67 210.00 335.33 210.00 345.00 210.00
C 351.73 236.07 358.48 262.80 367.00 288.00
C 373.10 261.77 381.55 236.16 388.00 210.00
C 397.67 210.00 407.33 210.00 417.00 210.00
C 412.17 223.24 408.25 236.86 403.00 250.00
C 401.89 257.96 398.30 268.34 398.00 277.00
C 399.69 271.67 400.21 274.43 400.00 279.00
C 401.60 274.21 402.33 277.81 404.00 273.00
C 403.27 276.57 405.19 281.33 405.00 275.00
C 407.39 278.69 406.16 274.22 408.00 273.00
C 407.27 276.57 409.19 281.33 409.00 275.00
C 411.39 278.69 410.16 274.22 412.00 273.00
C 411.27 276.57 413.19 281.33 413.00 275.00
C 415.39 278.69 414.16 274.22 416.00 273.00
C 415.27 276.57 417.19 281.33 417.00 275.00
C 419.71 277.71 420.08 270.12 420.00 279.00
C 421.44 276.63 421.55 270.00 422.00 277.00
C 423.69 271.67 424.21 274.43 424.00 279.00
C 425.43 276.63 425.55 270.00 426.00 277.00
C 427.69 271.67 428.21 274.43 428.00 279.00
C 429.43 276.63 429.55 270.00 430.00 277.00
C 431.69 271.67 432.21 274.43 432.00 279.00
C 433.43 276.63 433.55 270.00 434.00 277.00
C 435.69 271.67 436.21 274.43 436.00 279.00
C 438.18 278.65 435.85 272.08 438.00 274.00
C 440.08 272.71 440.24 275.53 440.00 279.00
C 442.18 278.65 439.85 272.08 442.00 274.00
C 444.08 272.71 444.24 275.53 444.00 279.00
C 446.18 278.65 443.85 272.08 446.00 274.00
C 447.32 273.93 448.47 273.12 448.00 277.00
C 448.75 273.20 452.46 271.89 452.00 277.00
C 452.75 273.20 456.46 271.89 456.00 277.00
C 457.60 272.21 458.33 275.81 460.00 271.00
C 459.27 274.57 461.19 279.33 461.00 273.00
C 463.39 276.69 462.16 272.22 464.00 271.00
C 463.27 274.57 465.19 279.33 465.00 273.00
C 466.26 273.08 465.56 275.06 467.00 275.00
C 467.00 225.14 467.14 174.05 468.00 125.00
C 465.59 94.68 449.93 68.85 421.08 53.92 C 392.22 39.00 348.77 44.39 314.00 44.00 C 279.23 43.61 230.77 43.84 196.00 44.00 C 161.23 44.16 118.28 39.18 89.70 54.70 C 61.11 70.21 46.07 95.52 44.00 126.00
M 199.00 164.00 
C 201.21 181.68 186.61 200.85 168.00 199.00
C 167.75 181.98 181.72 165.17 199.00 164.00 Z"/>
</g>
<g fill="None" fill-opacity="0.0" stroke="#172120" stroke-opacity="0.50" stroke-width="0.3"><path d="
M 467.00 275.00 
C 467.00 312.20 467.36 350.61 468.00 387.00
C 470.30 358.07 467.35 327.98 468.00 299.00 C 468.65 270.02 468.61 240.92 468.00 212.00 C 467.39 183.08 470.28 153.79 468.00 125.00
C 467.14 174.05 467.00 225.14 467.00 275.00 Z"/>
</g>
<g fill="None" fill-opacity="0.0" stroke="#192322" stroke-opacity="0.50" stroke-width="0.3"><path d="
M 44.00 387.00 
C 44.58 353.85 45.00 318.89 45.00 285.00
C 45.00 232.13 45.51 178.12 44.00 126.00
C 41.07 169.03 43.85 213.90 44.00 257.00 C 44.15 300.10 40.60 344.10 44.00 387.00 Z"/>
</g>
<g fill="None" fill-opacity="0.0" stroke="#F9FAFA" stroke-opacity="1.00" stroke-width="0.3"><path d="
M 199.00 164.00 
C 181.72 165.17 167.75 181.98 168.00 199.00
C 186.61 200.85 201.21 181.68 199.00 164.00 Z"/>
</g>
<g fill="None" fill-opacity="0.0" stroke="#808685" stroke-opacity="1.00" stroke-width="0.3"><path d="
M 263.00 188.00 
C 265.04 186.57 273.38 188.00 276.00 188.00 C 278.62 188.00 286.96 186.57 289.00 188.00
C 286.73 185.73 279.35 186.99 276.00 187.00 C 272.65 187.01 265.30 185.70 263.00 188.00 Z"/>
</g>
<g fill="None" fill-opacity="0.0" stroke="#FBFBFB" stroke-opacity="1.00" stroke-width="0.3"><path d="
M 262.00 253.00 
C 262.00 262.94 261.56 275.30 262.00 285.00 C 262.44 294.70 262.82 301.29 271.25 307.75 C 279.68 314.22 286.50 311.15 298.00 313.00 C 309.50 314.85 311.22 303.04 309.00 292.00
C 302.31 292.49 290.66 293.09 290.03 283.97 C 289.39 274.86 290.45 266.08 290.00 257.00
C 290.00 248.33 290.00 239.67 290.00 231.00
C 296.33 231.00 302.67 231.00 309.00 231.00
C 307.04 225.81 311.73 215.96 308.74 211.26 C 305.76 206.56 294.29 212.17 290.00 210.00
C 287.81 204.37 293.36 192.36 289.00 188.00
C 286.96 186.57 278.62 188.00 276.00 188.00 C 273.38 188.00 265.04 186.57 263.00 188.00
C 260.67 194.34 262.66 202.84 262.00 210.00
C 257.55 210.66 247.90 207.55 248.00 214.00 C 248.10 220.45 247.92 224.75 248.00 231.00
C 252.67 231.00 257.33 231.00 262.00 231.00
C 262.00 238.33 262.00 245.67 262.00 253.00 Z"/>
</g>
<g fill="None" fill-opacity="0.0" stroke="#FDFDFD" stroke-opacity="1.00" stroke-width="0.3"><path d="
M 108.00 241.00 
C 108.00 244.67 108.00 248.33 108.00 252.00
C 108.00 257.74 108.70 262.68 110.00 268.00
C 113.73 283.29 120.15 289.90 128.25 303.75 C 136.35 317.61 153.25 316.47 165.67 310.67 C 178.09 304.88 198.69 323.25 208.25 311.25 C 217.80 299.24 228.26 293.12 230.00 278.00
C 228.17 271.79 219.28 269.01 215.26 261.74 C 211.23 254.48 209.24 242.47 212.22 234.22 C 215.20 225.97 219.81 220.82 227.00 216.00
C 217.40 202.15 197.34 195.87 182.02 204.02 C 166.71 212.18 148.42 196.26 132.68 203.68 C 116.94 211.10 108.00 223.55 108.00 241.00 Z"/>
</g>
<g fill="None" fill-opacity="0.0" stroke="#FBFBFB" stroke-opacity="1.00" stroke-width="0.3"><path d="
M 330.00 253.00 
C 333.46 262.38 335.67 271.21 339.32 280.68 C 342.98 290.14 345.08 298.22 348.98 308.02 C 352.87 317.83 372.65 311.00 382.00 313.00
C 388.01 291.74 396.62 271.21 403.00 250.00
C 408.25 236.86 412.17 223.24 417.00 210.00
C 407.33 210.00 397.67 210.00 388.00 210.00
C 381.55 236.16 373.10 261.77 367.00 288.00
C 358.48 262.80 351.73 236.07 345.00 210.00
C 335.33 210.00 325.67 210.00 316.00 210.00
C 319.56 224.62 324.78 238.86 330.00 253.00 Z"/>
</g>
<g fill="None" fill-opacity="0.0" stroke="#9A9E9D" stroke-opacity="1.00" stroke-width="0.3"><path d="
M 108.00 252.00 
C 108.00 248.33 108.00 244.67 108.00 241.00
C 107.67 244.39 107.67 248.54 108.00 252.00 Z"/>
</g>
<g fill="None" fill-opacity="0.0" stroke="#11181A" stroke-opacity="1.00" stroke-width="0.3"><path d="
M 330.00 253.00 
C 327.94 256.54 332.25 262.71 333.00 266.00 C 333.75 269.29 337.12 280.46 333.00 277.00
C 333.19 283.33 331.27 278.57 332.00 275.00
C 330.16 276.22 331.39 280.69 329.00 277.00
C 329.19 283.33 327.27 278.57 328.00 275.00
C 326.33 279.81 325.60 276.21 324.00 281.00
C 324.46 275.89 320.75 277.20 320.00 281.00
C 320.46 275.89 316.75 277.20 316.00 281.00
C 316.47 277.12 315.32 277.93 314.00 278.00
C 311.85 276.08 314.18 282.65 312.00 283.00
C 312.24 279.53 312.08 276.71 310.00 278.00
C 307.85 276.08 310.18 282.65 308.00 283.00
C 308.24 279.53 308.08 276.71 306.00 278.00
C 303.85 276.08 306.18 282.65 304.00 283.00
C 304.24 279.53 304.08 276.71 302.00 278.00
C 299.85 276.08 302.18 282.65 300.00 283.00
C 300.21 278.43 299.69 275.67 298.00 281.00
C 297.55 274.00 297.43 280.63 296.00 283.00
C 296.21 278.43 295.69 275.67 294.00 281.00
C 293.55 274.00 293.43 280.63 292.00 283.00
C 291.49 274.54 290.81 265.34 290.00 257.00
C 290.45 266.08 289.39 274.86 290.03 283.97 C 290.66 293.09 302.31 292.49 309.00 292.00
C 311.22 303.04 309.50 314.85 298.00 313.00 C 286.50 311.15 279.68 314.22 271.25 307.75 C 262.82 301.29 262.44 294.70 262.00 285.00 C 261.56 275.30 262.00 262.94 262.00 253.00
C 259.67 262.01 261.66 273.17 261.00 283.00
C 259.43 278.01 259.04 275.68 259.00 283.00
C 256.95 280.60 258.15 278.21 256.93 281.86 C 255.70 285.50 256.59 276.36 255.00 277.00
C 255.21 281.57 254.69 284.33 253.00 279.00
C 252.55 286.00 252.44 279.37 251.00 277.00
C 251.21 281.57 250.69 284.33 249.00 279.00
C 248.55 286.00 248.44 279.37 247.00 277.00
C 247.21 281.57 246.69 284.33 245.00 279.00
C 244.55 286.00 244.43 279.37 243.00 277.00
C 243.24 280.47 243.08 283.29 241.00 282.00
C 238.85 283.92 241.18 277.35 239.00 277.00
C 239.24 280.47 239.08 283.29 237.00 282.00
C 234.85 283.92 237.18 277.35 235.00 277.00
C 235.53 282.69 234.55 281.34 232.00 283.00
C 234.43 279.93 229.68 277.40 230.00 278.00
C 228.26 293.12 217.80 299.24 208.25 311.25 C 198.69 323.25 178.09 304.88 165.67 310.67 C 153.25 316.47 136.35 317.61 128.25 303.75 C 120.15 289.90 113.73 283.29 110.00 268.00
C 108.54 273.88 112.98 280.04 111.00 287.00
C 108.95 284.60 110.15 282.21 108.93 285.86 C 107.70 289.50 108.59 280.36 107.00 281.00
C 107.24 284.47 107.08 287.29 105.00 286.00
C 102.85 287.92 105.18 281.35 103.00 281.00
C 103.24 284.47 103.08 287.29 101.00 286.00
C 98.85 287.92 101.18 281.35 99.00 281.00
C 100.14 287.31 96.17 287.99 95.00 283.00
C 95.46 288.11 91.75 286.80 91.00 283.00
C 91.46 288.11 87.75 286.80 87.00 283.00
C 87.72 288.96 85.48 283.46 84.98 286.95 C 84.47 290.44 83.46 285.18 84.00 283.00
C 82.16 284.22 83.39 288.69 81.00 285.00
C 81.19 291.33 79.27 286.57 80.00 283.00
C 78.16 284.22 79.39 288.69 77.00 285.00
C 77.19 291.33 75.27 286.57 76.00 283.00
C 74.16 284.22 75.39 288.69 73.00 285.00
C 73.19 291.33 71.27 286.57 72.00 283.00
C 70.16 284.22 71.39 288.69 69.00 285.00
C 69.19 291.33 67.27 286.57 68.00 283.00
C 66.16 284.22 67.39 288.69 65.00 285.00
C 65.19 291.33 63.27 286.57 64.00 283.00
C 62.16 284.22 63.39 288.69 61.00 285.00
C 61.19 291.33 59.27 286.57 60.00 283.00
C 58.33 287.81 57.60 284.22 56.00 289.00
C 56.46 283.89 52.75 285.20 52.00 289.00
C 52.46 283.89 48.75 285.20 48.00 289.00
C 49.09 283.31 46.09 288.12 45.00 285.00
C 45.00 318.89 44.58 353.85 44.00 387.00
C 46.44 417.71 62.48 443.64 91.77 458.23 C 121.06 472.81 163.72 467.65 199.00 468.00 C 234.28 468.35 282.73 468.15 318.00 468.00 C 353.27 467.85 392.55 472.32 420.92 457.92 C 449.29 443.52 465.58 417.44 468.00 387.00
C 467.36 350.61 467.00 312.20 467.00 275.00
C 465.56 275.06 466.26 273.08 465.00 273.00
C 465.19 279.33 463.27 274.57 464.00 271.00
C 462.16 272.22 463.39 276.69 461.00 273.00
C 461.19 279.33 459.27 274.57 460.00 271.00
C 458.33 275.81 457.60 272.21 456.00 277.00
C 456.46 271.89 452.75 273.20 452.00 277.00
C 452.46 271.89 448.75 273.20 448.00 277.00
C 448.47 273.12 447.32 273.93 446.00 274.00
C 443.85 272.08 446.18 278.65 444.00 279.00
C 444.24 275.53 444.08 272.71 442.00 274.00
C 439.85 272.08 442.18 278.65 440.00 279.00
C 440.24 275.53 440.08 272.71 438.00 274.00
C 435.85 272.08 438.18 278.65 436.00 279.00
C 436.21 274.43 435.69 271.67 434.00 277.00
C 433.55 270.00 433.43 276.63 432.00 279.00
C 432.21 274.43 431.69 271.67 430.00 277.00
C 429.55 270.00 429.43 276.63 428.00 279.00
C 428.21 274.43 427.69 271.67 426.00 277.00
C 425.55 270.00 425.43 276.63 424.00 279.00
C 424.21 274.43 423.69 271.67 422.00 277.00
C 421.55 270.00 421.44 276.63 420.00 279.00
C 420.08 270.12 419.71 277.71 417.00 275.00
C 417.19 281.33 415.27 276.57 416.00 273.00
C 414.16 274.22 415.39 278.69 413.00 275.00
C 413.19 281.33 411.27 276.57 412.00 273.00
C 410.16 274.22 411.39 278.69 409.00 275.00
C 409.19 281.33 407.27 276.57 408.00 273.00
C 406.16 274.22 407.39 278.69 405.00 275.00
C 405.19 281.33 403.27 276.57 404.00 273.00
C 402.33 277.81 401.60 274.21 400.00 279.00
C 400.21 274.43 399.69 271.67 398.00 277.00
C 398.30 268.34 401.89 257.96 403.00 250.00
C 396.62 271.21 388.01 291.74 382.00 313.00
C 372.65 311.00 352.87 317.83 348.98 308.02 C 345.08 298.22 342.98 290.14 339.32 280.68 C 335.67 271.21 333.46 262.38 330.00 253.00 Z"/>
</g>
<g fill="#000000" fill-opacity="0.00" stroke="None">
<path d="
M 0.00 512.00 
L 512.00 512.00
L 512.00 0.00
L 0.00 0.00
L 0.00 512.00
M 468.00 125.00 
C 470.28 153.79 467.39 183.08 468.00 212.00 C 468.61 240.92 468.65 270.02 468.00 299.00 C 467.35 327.98 470.30 358.07 468.00 387.00
C 465.58 417.44 449.29 443.52 420.92 457.92 C 392.55 472.32 353.27 467.85 318.00 468.00 C 282.73 468.15 234.28 468.35 199.00 468.00 C 163.72 467.65 121.06 472.81 91.77 458.23 C 62.48 443.64 46.44 417.71 44.00 387.00
C 40.60 344.10 44.15 300.10 44.00 257.00 C 43.85 213.90 41.07 169.03 44.00 126.00
C 46.07 95.52 61.11 70.21 89.70 54.70 C 118.28 39.18 161.23 44.16 196.00 44.00 C 230.77 43.84 279.23 43.61 314.00 44.00 C 348.77 44.39 392.22 39.00 421.08 53.92 C 449.93 68.85 465.59 94.68 468.00 125.00 Z"/>
</g>
<g fill="#1E2A28" fill-opacity="1.00" stroke="None">
<path d="
M 44.00 126.00 
C 45.51 178.12 45.00 232.13 45.00 285.00
C 46.09 288.12 49.09 283.31 48.00 289.00
C 48.75 285.20 52.46 283.89 52.00 289.00
C 52.75 285.20 56.46 283.89 56.00 289.00
C 57.60 284.22 58.33 287.81 60.00 283.00
C 59.27 286.57 61.19 291.33 61.00 285.00
C 63.39 288.69 62.16 284.22 64.00 283.00
C 63.27 286.57 65.19 291.33 65.00 285.00
C 67.39 288.69 66.16 284.22 68.00 283.00
C 67.27 286.57 69.19 291.33 69.00 285.00
C 71.39 288.69 70.16 284.22 72.00 283.00
C 71.27 286.57 73.19 291.33 73.00 285.00
C 75.39 288.69 74.16 284.22 76.00 283.00
C 75.27 286.57 77.19 291.33 77.00 285.00
C 79.39 288.69 78.16 284.22 80.00 283.00
C 79.27 286.57 81.19 291.33 81.00 285.00
C 83.39 288.69 82.16 284.22 84.00 283.00
C 83.46 285.18 84.47 290.44 84.98 286.95 C 85.48 283.46 87.72 288.96 87.00 283.00
C 87.75 286.80 91.46 288.11 91.00 283.00
C 91.75 286.80 95.46 288.11 95.00 283.00
C 96.17 287.99 100.14 287.31 99.00 281.00
C 101.18 281.35 98.85 287.92 101.00 286.00
C 103.08 287.29 103.24 284.47 103.00 281.00
C 105.18 281.35 102.85 287.92 105.00 286.00
C 107.08 287.29 107.24 284.47 107.00 281.00
C 108.59 280.36 107.70 289.50 108.93 285.86 C 110.15 282.21 108.95 284.60 111.00 287.00
C 112.98 280.04 108.54 273.88 110.00 268.00
C 108.70 262.68 108.00 257.74 108.00 252.00
C 107.67 248.54 107.67 244.39 108.00 241.00
C 108.00 223.55 116.94 211.10 132.68 203.68 C 148.42 196.26 166.71 212.18 182.02 204.02 C 197.34 195.87 217.40 202.15 227.00 216.00
C 219.81 220.82 215.20 225.97 212.22 234.22 C 209.24 242.47 211.23 254.48 215.26 261.74 C 219.28 269.01 228.17 271.79 230.00 278.00
C 229.68 277.40 234.43 279.93 232.00 283.00
C 234.55 281.34 235.53 282.69 235.00 277.00
C 237.18 277.35 234.85 283.92 237.00 282.00
C 239.08 283.29 239.24 280.47 239.00 277.00
C 241.18 277.35 238.85 283.92 241.00 282.00
C 243.08 283.29 243.24 280.47 243.00 277.00
C 244.43 279.37 244.55 286.00 245.00 279.00
C 246.69 284.33 247.21 281.57 247.00 277.00
C 248.44 279.37 248.55 286.00 249.00 279.00
C 250.69 284.33 251.21 281.57 251.00 277.00
C 252.44 279.37 252.55 286.00 253.00 279.00
C 254.69 284.33 255.21 281.57 255.00 277.00
C 256.59 276.36 255.70 285.50 256.93 281.86 C 258.15 278.21 256.95 280.60 259.00 283.00
C 259.04 275.68 259.43 278.01 261.00 283.00
C 261.66 273.17 259.67 262.01 262.00 253.00
C 262.00 245.67 262.00 238.33 262.00 231.00
C 257.33 231.00 252.67 231.00 248.00 231.00
C 247.92 224.75 248.10 220.45 248.00 214.00 C 247.90 207.55 257.55 210.66 262.00 210.00
C 262.66 202.84 260.67 194.34 263.00 188.00
C 265.30 185.70 272.65 187.01 276.00 187.00 C 279.35 186.99 286.73 185.73 289.00 188.00
C 293.36 192.36 287.81 204.37 290.00 210.00
C 294.29 212.17 305.76 206.56 308.74 211.26 C 311.73 215.96 307.04 225.81 309.00 231.00
C 302.67 231.00 296.33 231.00 290.00 231.00
C 290.00 239.67 290.00 248.33 290.00 257.00
C 290.81 265.34 291.49 274.54 292.00 283.00
C 293.43 280.63 293.55 274.00 294.00 281.00
C 295.69 275.67 296.21 278.43 296.00 283.00
C 297.43 280.63 297.55 274.00 298.00 281.00
C 299.69 275.67 300.21 278.43 300.00 283.00
C 302.18 282.65 299.85 276.08 302.00 278.00
C 304.08 276.71 304.24 279.53 304.00 283.00
C 306.18 282.65 303.85 276.08 306.00 278.00
C 308.08 276.71 308.24 279.53 308.00 283.00
C 310.18 282.65 307.85 276.08 310.00 278.00
C 312.08 276.71 312.24 279.53 312.00 283.00
C 314.18 282.65 311.85 276.08 314.00 278.00
C 315.32 277.93 316.47 277.12 316.00 281.00
C 316.75 277.20 320.46 275.89 320.00 281.00
C 320.75 277.20 324.46 275.89 324.00 281.00
C 325.60 276.21 326.33 279.81 328.00 275.00
C 327.27 278.57 329.19 283.33 329.00 277.00
C 331.39 280.69 330.16 276.22 332.00 275.00
C 331.27 278.57 333.19 283.33 333.00 277.00
C 337.12 280.46 333.75 269.29 333.00 266.00 C 332.25 262.71 327.94 256.54 330.00 253.00
C 324.78 238.86 319.56 224.62 316.00 210.00
C 325.67 210.00 335.33 210.00 345.00 210.00
C 351.73 236.07 358.48 262.80 367.00 288.00
C 373.10 261.77 381.55 236.16 388.00 210.00
C 397.67 210.00 407.33 210.00 417.00 210.00
C 412.17 223.24 408.25 236.86 403.00 250.00
C 401.89 257.96 398.30 268.34 398.00 277.00
C 399.69 271.67 400.21 274.43 400.00 279.00
C 401.60 274.21 402.33 277.81 404.00 273.00
C 403.27 276.57 405.19 281.33 405.00 275.00
C 407.39 278.69 406.16 274.22 408.00 273.00
C 407.27 276.57 409.19 281.33 409.00 275.00
C 411.39 278.69 410.16 274.22 412.00 273.00
C 411.27 276.57 413.19 281.33 413.00 275.00
C 415.39 278.69 414.16 274.22 416.00 273.00
C 415.27 276.57 417.19 281.33 417.00 275.00
C 419.71 277.71 420.08 270.12 420.00 279.00
C 421.44 276.63 421.55 270.00 422.00 277.00
C 423.69 271.67 424.21 274.43 424.00 279.00
C 425.43 276.63 425.55 270.00 426.00 277.00
C 427.69 271.67 428.21 274.43 428.00 279.00
C 429.43 276.63 429.55 270.00 430.00 277.00
C 431.69 271.67 432.21 274.43 432.00 279.00
C 433.43 276.63 433.55 270.00 434.00 277.00
C 435.69 271.67 436.21 274.43 436.00 279.00
C 438.18 278.65 435.85 272.08 438.00 274.00
C 440.08 272.71 440.24 275.53 440.00 279.00
C 442.18 278.65 439.85 272.08 442.00 274.00
C 444.08 272.71 444.24 275.53 444.00 279.00
C 446.18 278.65 443.85 272.08 446.00 274.00
C 447.32 273.93 448.47 273.12 448.00 277.00
C 448.75 273.20 452.46 271.89 452.00 277.00
C 452.75 273.20 456.46 271.89 456.00 277.00
C 457.60 272.21 458.33 275.81 460.00 271.00
C 459.27 274.57 461.19 279.33 461.00 273.00
C 463.39 276.69 462.16 272.22 464.00 271.00
C 463.27 274.57 465.19 279.33 465.00 273.00
C 466.26 273.08 465.56 275.06 467.00 275.00
C 467.00 225.14 467.14 174.05 468.00 125.00
C 465.59 94.68 449.93 68.85 421.08 53.92 C 392.22 39.00 348.77 44.39 314.00 44.00 C 279.23 43.61 230.77 43.84 196.00 44.00 C 161.23 44.16 118.28 39.18 89.70 54.70 C 61.11 70.21 46.07 95.52 44.00 126.00
M 199.00 164.00 
C 201.21 181.68 186.61 200.85 168.00 199.00
C 167.75 181.98 181.72 165.17 199.00 164.00 Z"/>
</g>
<g fill="#172120" fill-opacity="0.50" stroke="None">
<path d="
M 467.00 275.00 
C 467.00 312.20 467.36 350.61 468.00 387.00
C 470.30 358.07 467.35 327.98 468.00 299.00 C 468.65 270.02 468.61 240.92 468.00 212.00 C 467.39 183.08 470.28 153.79 468.00 125.00
C 467.14 174.05 467.00 225.14 467.00 275.00 Z"/>
</g>
<g fill="#192322" fill-opacity="0.50" stroke="None">
<path d="
M 44.00 387.00 
C 44.58 353.85 45.00 318.89 45.00 285.00
C 45.00 232.13 45.51 178.12 44.00 126.00
C 41.07 169.03 43.85 213.90 44.00 257.00 C 44.15 300.10 40.60 344.10 44.00 387.00 Z"/>
</g>
<g fill="#F9FAFA" fill-opacity="1.00" stroke="None">
<path d="
M 199.00 164.00 
C 181.72 165.17 167.75 181.98 168.00 199.00
C 186.61 200.85 201.21 181.68 199.00 164.00 Z"/>
</g>
<g fill="#808685" fill-opacity="1.00" stroke="None">
<path d="
M 263.00 188.00 
C 265.04 186.57 273.38 188.00 276.00 188.00 C 278.62 188.00 286.96 186.57 289.00 188.00
C 286.73 185.73 279.35 186.99 276.00 187.00 C 272.65 187.01 265.30 185.70 263.00 188.00 Z"/>
</g>
<g fill="#FBFBFB" fill-opacity="1.00" stroke="None">
<path d="
M 262.00 253.00 
C 262.00 262.94 261.56 275.30 262.00 285.00 C 262.44 294.70 262.82 301.29 271.25 307.75 C 279.68 314.22 286.50 311.15 298.00 313.00 C 309.50 314.85 311.22 303.04 309.00 292.00
C 302.31 292.49 290.66 293.09 290.03 283.97 C 289.39 274.86 290.45 266.08 290.00 257.00
C 290.00 248.33 290.00 239.67 290.00 231.00
C 296.33 231.00 302.67 231.00 309.00 231.00
C 307.04 225.81 311.73 215.96 308.74 211.26 C 305.76 206.56 294.29 212.17 290.00 210.00
C 287.81 204.37 293.36 192.36 289.00 188.00
C 286.96 186.57 278.62 188.00 276.00 188.00 C 273.38 188.00 265.04 186.57 263.00 188.00
C 260.67 194.34 262.66 202.84 262.00 210.00
C 257.55 210.66 247.90 207.55 248.00 214.00 C 248.10 220.45 247.92 224.75 248.00 231.00
C 252.67 231.00 257.33 231.00 262.00 231.00
C 262.00 238.33 262.00 245.67 262.00 253.00 Z"/>
</g>
<g fill="#FDFDFD" fill-opacity="1.00" stroke="None">
<path d="
M 108.00 241.00 
C 108.00 244.67 108.00 248.33 108.00 252.00
C 108.00 257.74 108.70 262.68 110.00 268.00
C 113.73 283.29 120.15 289.90 128.25 303.75 C 136.35 317.61 153.25 316.47 165.67 310.67 C 178.09 304.88 198.69 323.25 208.25 311.25 C 217.80 299.24 228.26 293.12 230.00 278.00
C 228.17 271.79 219.28 269.01 215.26 261.74 C 211.23 254.48 209.24 242.47 212.22 234.22 C 215.20 225.97 219.81 220.82 227.00 216.00
C 217.40 202.15 197.34 195.87 182.02 204.02 C 166.71 212.18 148.42 196.26 132.68 203.68 C 116.94 211.10 108.00 223.55 108.00 241.00 Z"/>
</g>
<g fill="#FBFBFB" fill-opacity="1.00" stroke="None">
<path d="
M 330.00 253.00 
C 333.46 262.38 335.67 271.21 339.32 280.68 C 342.98 290.14 345.08 298.22 348.98 308.02 C 352.87 317.83 372.65 311.00 382.00 313.00
C 388.01 291.74 396.62 271.21 403.00 250.00
C 408.25 236.86 412.17 223.24 417.00 210.00
C 407.33 210.00 397.67 210.00 388.00 210.00
C 381.55 236.16 373.10 261.77 367.00 288.00
C 358.48 262.80 351.73 236.07 345.00 210.00
C 335.33 210.00 325.67 210.00 316.00 210.00
C 319.56 224.62 324.78 238.86 330.00 253.00 Z"/>
</g>
<g fill="#9A9E9D" fill-opacity="1.00" stroke="None">
<path d="
M 108.00 252.00 
C 108.00 248.33 108.00 244.67 108.00 241.00
C 107.67 244.39 107.67 248.54 108.00 252.00 Z"/>
</g>
<g fill="#11181A" fill-opacity="1.00" stroke="None">
<path d="
M 330.00 253.00 
C 327.94 256.54 332.25 262.71 333.00 266.00 C 333.75 269.29 337.12 280.46 333.00 277.00
C 333.19 283.33 331.27 278.57 332.00 275.00
C 330.16 276.22 331.39 280.69 329.00 277.00
C 329.19 283.33 327.27 278.57 328.00 275.00
C 326.33 279.81 325.60 276.21 324.00 281.00
C 324.46 275.89 320.75 277.20 320.00 281.00
C 320.46 275.89 316.75 277.20 316.00 281.00
C 316.47 277.12 315.32 277.93 314.00 278.00
C 311.85 276.08 314.18 282.65 312.00 283.00
C 312.24 279.53 312.08 276.71 310.00 278.00
C 307.85 276.08 310.18 282.65 308.00 283.00
C 308.24 279.53 308.08 276.71 306.00 278.00
C 303.85 276.08 306.18 282.65 304.00 283.00
C 304.24 279.53 304.08 276.71 302.00 278.00
C 299.85 276.08 302.18 282.65 300.00 283.00
C 300.21 278.43 299.69 275.67 298.00 281.00
C 297.55 274.00 297.43 280.63 296.00 283.00
C 296.21 278.43 295.69 275.67 294.00 281.00
C 293.55 274.00 293.43 280.63 292.00 283.00
C 291.49 274.54 290.81 265.34 290.00 257.00
C 290.45 266.08 289.39 274.86 290.03 283.97 C 290.66 293.09 302.31 292.49 309.00 292.00
C 311.22 303.04 309.50 314.85 298.00 313.00 C 286.50 311.15 279.68 314.22 271.25 307.75 C 262.82 301.29 262.44 294.70 262.00 285.00 C 261.56 275.30 262.00 262.94 262.00 253.00
C 259.67 262.01 261.66 273.17 261.00 283.00
C 259.43 278.01 259.04 275.68 259.00 283.00
C 256.95 280.60 258.15 278.21 256.93 281.86 C 255.70 285.50 256.59 276.36 255.00 277.00
C 255.21 281.57 254.69 284.33 253.00 279.00
C 252.55 286.00 252.44 279.37 251.00 277.00
C 251.21 281.57 250.69 284.33 249.00 279.00
C 248.55 286.00 248.44 279.37 247.00 277.00
C 247.21 281.57 246.69 284.33 245.00 279.00
C 244.55 286.00 244.43 279.37 243.00 277.00
C 243.24 280.47 243.08 283.29 241.00 282.00
C 238.85 283.92 241.18 277.35 239.00 277.00
C 239.24 280.47 239.08 283.29 237.00 282.00
C 234.85 283.92 237.18 277.35 235.00 277.00
C 235.53 282.69 234.55 281.34 232.00 283.00
C 234.43 279.93 229.68 277.40 230.00 278.00
C 228.26 293.12 217.80 299.24 208.25 311.25 C 198.69 323.25 178.09 304.88 165.67 310.67 C 153.25 316.47 136.35 317.61 128.25 303.75 C 120.15 289.90 113.73 283.29 110.00 268.00
C 108.54 273.88 112.98 280.04 111.00 287.00
C 108.95 284.60 110.15 282.21 108.93 285.86 C 107.70 289.50 108.59 280.36 107.00 281.00
C 107.24 284.47 107.08 287.29 105.00 286.00
C 102.85 287.92 105.18 281.35 103.00 281.00
C 103.24 284.47 103.08 287.29 101.00 286.00
C 98.85 287.92 101.18 281.35 99.00 281.00
C 100.14 287.31 96.17 287.99 95.00 283.00
C 95.46 288.11 91.75 286.80 91.00 283.00
C 91.46 288.11 87.75 286.80 87.00 283.00
C 87.72 288.96 85.48 283.46 84.98 286.95 C 84.47 290.44 83.46 285.18 84.00 283.00
C 82.16 284.22 83.39 288.69 81.00 285.00
C 81.19 291.33 79.27 286.57 80.00 283.00
C 78.16 284.22 79.39 288.69 77.00 285.00
C 77.19 291.33 75.27 286.57 76.00 283.00
C 74.16 284.22 75.39 288.69 73.00 285.00
C 73.19 291.33 71.27 286.57 72.00 283.00
C 70.16 284.22 71.39 288.69 69.00 285.00
C 69.19 291.33 67.27 286.57 68.00 283.00
C 66.16 284.22 67.39 288.69 65.00 285.00
C 65.19 291.33 63.27 286.57 64.00 283.00
C 62.16 284.22 63.39 288.69 61.00 285.00
C 61.19 291.33 59.27 286.57 60.00 283.00
C 58.33 287.81 57.60 284.22 56.00 289.00
C 56.46 283.89 52.75 285.20 52.00 289.00
C 52.46 283.89 48.75 285.20 48.00 289.00
C 49.09 283.31 46.09 288.12 45.00 285.00
C 45.00 318.89 44.58 353.85 44.00 387.00
C 46.44 417.71 62.48 443.64 91.77 458.23 C 121.06 472.81 163.72 467.65 199.00 468.00 C 234.28 468.35 282.73 468.15 318.00 468.00 C 353.27 467.85 392.55 472.32 420.92 457.92 C 449.29 443.52 465.58 417.44 468.00 387.00
C 467.36 350.61 467.00 312.20 467.00 275.00
C 465.56 275.06 466.26 273.08 465.00 273.00
C 465.19 279.33 463.27 274.57 464.00 271.00
C 462.16 272.22 463.39 276.69 461.00 273.00
C 461.19 279.33 459.27 274.57 460.00 271.00
C 458.33 275.81 457.60 272.21 456.00 277.00
C 456.46 271.89 452.75 273.20 452.00 277.00
C 452.46 271.89 448.75 273.20 448.00 277.00
C 448.47 273.12 447.32 273.93 446.00 274.00
C 443.85 272.08 446.18 278.65 444.00 279.00
C 444.24 275.53 444.08 272.71 442.00 274.00
C 439.85 272.08 442.18 278.65 440.00 279.00
C 440.24 275.53 440.08 272.71 438.00 274.00
C 435.85 272.08 438.18 278.65 436.00 279.00
C 436.21 274.43 435.69 271.67 434.00 277.00
C 433.55 270.00 433.43 276.63 432.00 279.00
C 432.21 274.43 431.69 271.67 430.00 277.00
C 429.55 270.00 429.43 276.63 428.00 279.00
C 428.21 274.43 427.69 271.67 426.00 277.00
C 425.55 270.00 425.43 276.63 424.00 279.00
C 424.21 274.43 423.69 271.67 422.00 277.00
C 421.55 270.00 421.44 276.63 420.00 279.00
C 420.08 270.12 419.71 277.71 417.00 275.00
C 417.19 281.33 415.27 276.57 416.00 273.00
C 414.16 274.22 415.39 278.69 413.00 275.00
C 413.19 281.33 411.27 276.57 412.00 273.00
C 410.16 274.22 411.39 278.69 409.00 275.00
C 409.19 281.33 407.27 276.57 408.00 273.00
C 406.16 274.22 407.39 278.69 405.00 275.00
C 405.19 281.33 403.27 276.57 404.00 273.00
C 402.33 277.81 401.60 274.21 400.00 279.00
C 400.21 274.43 399.69 271.67 398.00 277.00
C 398.30 268.34 401.89 257.96 403.00 250.00
C 396.62 271.21 388.01 291.74 382.00 313.00
C 372.65 311.00 352.87 317.83 348.98 308.02 C 345.08 298.22 342.98 290.14 339.32 280.68 C 335.67 271.21 333.46 262.38 330.00 253.00 Z"/>
</g>
</svg>