<svg xmlns="http://www.w3.org/2000/svg" xmlns:v="https://svgstorm.com"
viewBox = "30 30 450 450"
width="512"
height="512">
<g fill="None" fill-opacity="0.0" stroke="#000000" stroke-opacity="0.00" stroke-width="0.3"><path d="
M 0.00 512.00 
L 512.00 512.00
L 512.00 0.00
L 0.00 0.00
L 0.00 512.00
M 467.00 117.00 
C 489.68 127.61 479.80 156.86 481.00 179.00 C 482.20 201.14 481.03 233.01 481.00 256.00 C 480.97 278.99 482.32 309.85 481.00 332.00 C 479.68 354.15 489.91 384.29 467.00 395.00
C 461.62 403.25 462.86 417.65 455.70 425.70 C 448.53 433.74 445.01 442.01 435.75 448.75 C 426.50 455.49 419.17 459.77 407.78 463.78 C 396.38 467.78 382.37 468.31 369.00 468.00 C 355.63 467.69 339.87 468.14 326.00 468.00 C 312.13 467.86 297.06 468.06 283.00 468.00 C 268.94 467.94 254.07 468.02 240.00 468.00 C 225.93 467.98 210.90 468.00 197.00 468.00 C 183.10 468.00 167.44 467.97 154.00 468.00 C 140.56 468.03 124.87 468.61 112.99 466.01 C 101.12 463.40 92.20 459.60 82.77 453.23 C 73.34 446.86 68.12 441.82 61.25 432.75 C 54.37 423.69 50.54 415.48 47.07 403.93 C 43.61 392.37 43.90 377.37 44.00 364.00 C 44.10 350.63 43.96 334.87 44.00 321.00 C 44.04 307.13 43.99 292.05 44.00 278.00 C 44.01 263.95 44.01 249.05 44.00 235.00 C 43.99 220.95 44.04 205.87 44.00 192.00 C 43.96 178.13 44.10 162.38 44.00 149.00 C 43.90 135.62 43.41 120.45 46.93 108.93 C 50.45 97.40 53.85 88.85 60.77 79.77 C 67.69 70.69 73.35 65.04 82.75 58.75 C 92.14 52.45 100.25 48.96 112.02 46.02 C 123.80 43.09 139.60 44.10 153.00 44.00 C 166.40 43.90 182.12 44.06 196.00 44.00 C 209.88 43.94 224.93 44.05 239.00 44.00 C 253.07 43.95 267.93 44.07 282.00 44.00 C 296.07 43.93 311.10 44.15 325.00 44.00 C 338.90 43.85 354.55 44.32 368.00 44.00 C 381.45 43.68 395.46 44.15 407.02 47.98 C 418.59 51.80 425.65 56.27 435.08 62.92 C 444.52 69.57 447.92 77.64 455.25 85.75 C 462.59 93.85 461.52 108.59 467.00 117.00 Z"/>
</g>
<g fill="None" fill-opacity="0.0" stroke="#202024" stroke-opacity="1.00" stroke-width="0.3"><path d="
M 467.00 395.00 
C 452.65 401.71 436.29 409.57 421.92 415.92 C 407.56 422.28 390.07 437.55 375.00 427.00
C 349.12 408.89 328.70 382.86 304.25 362.75 C 279.79 342.65 257.28 319.43 234.00 298.00
C 223.52 304.68 215.65 310.19 205.75 318.75 C 195.85 327.31 187.30 329.85 177.25 340.25 C 167.20 350.65 154.63 343.85 145.75 335.25 C 136.88 326.65 123.84 315.71 133.75 304.75 C 143.67 293.79 150.50 290.42 159.75 280.75 C 169.00 271.08 176.92 266.31 186.00 257.00
C 185.21 252.73 179.87 250.78 178.00 247.00
C 169.63 239.70 161.96 234.32 154.25 225.75 C 146.54 217.19 137.43 214.96 131.23 203.77 C 125.03 192.58 139.03 184.30 146.25 176.25 C 153.47 168.19 165.50 161.91 174.75 170.25 C 184.01 178.58 191.28 182.32 200.25 189.75 C 209.22 197.19 217.00 202.24 226.00 209.00
C 228.49 210.87 231.18 213.02 234.00 214.00
C 280.21 170.21 327.70 127.44 375.00 85.00
C 390.00 74.50 408.72 90.17 422.70 96.31 C 436.67 102.44 452.98 110.45 467.00 117.00
C 461.52 108.59 462.59 93.85 455.25 85.75 C 447.92 77.64 444.52 69.57 435.08 62.92 C 425.65 56.27 418.59 51.80 407.02 47.98 C 395.46 44.15 381.45 43.68 368.00 44.00 C 354.55 44.32 338.90 43.85 325.00 44.00 C 311.10 44.15 296.07 43.93 282.00 44.00 C 267.93 44.07 253.07 43.95 239.00 44.00 C 224.93 44.05 209.88 43.94 196.00 44.00 C 182.12 44.06 166.40 43.90 153.00 44.00 C 139.60 44.10 123.80 43.09 112.02 46.02 C 100.25 48.96 92.14 52.45 82.75 58.75 C 73.35 65.04 67.69 70.69 60.77 79.77 C 53.85 88.85 50.45 97.40 46.93 108.93 C 43.41 120.45 43.90 135.62 44.00 149.00 C 44.10 162.38 43.96 178.13 44.00 192.00 C 44.04 205.87 43.99 220.95 44.00 235.00 C 44.01 249.05 44.01 263.95 44.00 278.00 C 43.99 292.05 44.04 307.13 44.00 321.00 C 43.96 334.87 44.10 350.63 44.00 364.00 C 43.90 377.37 43.61 392.37 47.07 403.93 C 50.54 415.48 54.37 423.69 61.25 432.75 C 68.12 441.82 73.34 446.86 82.77 453.23 C 92.20 459.60 101.12 463.40 112.99 466.01 C 124.87 468.61 140.56 468.03 154.00 468.00 C 167.44 467.97 183.10 468.00 197.00 468.00 C 210.90 468.00 225.93 467.98 240.00 468.00 C 254.07 468.02 268.94 467.94 283.00 468.00 C 297.06 468.06 312.13 467.86 326.00 468.00 C 339.87 468.14 355.63 467.69 369.00 468.00 C 382.37 468.31 396.38 467.78 407.78 463.78 C 419.17 459.77 426.50 455.49 435.75 448.75 C 445.01 442.01 448.53 433.74 455.70 425.70 C 462.86 417.65 461.62 403.25 467.00 395.00 Z"/>
</g>
<g fill="None" fill-opacity="0.0" stroke="#2CA1F1" stroke-opacity="1.00" stroke-width="0.3"><path d="
M 375.00 85.00 
C 382.39 81.91 391.90 87.11 393.00 96.00
C 396.22 121.98 391.42 149.65 393.33 175.67 C 395.24 201.69 394.57 228.67 394.00 255.00 C 393.43 281.33 396.46 308.77 394.00 335.00
C 392.59 350.05 392.09 376.55 393.00 391.00 C 393.91 405.45 394.92 435.32 375.00 427.00
C 390.07 437.55 407.56 422.28 421.92 415.92 C 436.29 409.57 452.65 401.71 467.00 395.00
C 489.91 384.29 479.68 354.15 481.00 332.00 C 482.32 309.85 480.97 278.99 481.00 256.00 C 481.03 233.01 482.20 201.14 481.00 179.00 C 479.80 156.86 489.68 127.61 467.00 117.00
C 452.98 110.45 436.67 102.44 422.70 96.31 C 408.72 90.17 390.00 74.50 375.00 85.00 Z"/>
</g>
<g fill="None" fill-opacity="0.0" stroke="#1581CE" stroke-opacity="1.00" stroke-width="0.3"><path d="
M 375.00 85.00 
C 327.70 127.44 280.21 170.21 234.00 214.00
C 231.18 213.02 228.49 210.87 226.00 209.00
C 209.39 202.74 194.14 191.90 178.92 179.08 C 163.71 166.25 130.68 186.13 140.32 204.68 C 149.96 223.22 166.23 231.17 178.00 247.00
C 179.87 250.78 185.21 252.73 186.00 257.00
C 176.92 266.31 169.00 271.08 159.75 280.75 C 150.50 290.42 143.67 293.79 133.75 304.75 C 123.84 315.71 136.88 326.65 145.75 335.25 C 154.63 343.85 167.20 350.65 177.25 340.25 C 187.30 329.85 195.85 327.31 205.75 318.75 C 215.65 310.19 223.52 304.68 234.00 298.00
C 257.28 319.43 279.79 342.65 304.25 362.75 C 328.70 382.86 349.12 408.89 375.00 427.00
C 394.92 435.32 393.91 405.45 393.00 391.00 C 392.09 376.55 392.59 350.05 394.00 335.00
C 393.19 336.37 392.53 335.25 392.00 335.00
C 379.38 329.02 369.72 316.67 357.92 309.08 C 346.12 301.50 335.12 291.67 323.77 283.23 C 312.42 274.79 300.02 265.88 289.00 257.00
C 272.07 243.37 251.86 230.82 237.00 215.00
C 256.42 208.85 271.39 190.32 288.25 176.25 C 305.11 162.18 319.51 146.38 336.75 132.75 C 353.99 119.12 369.51 95.97 393.00 96.00
C 391.90 87.11 382.39 81.91 375.00 85.00
M 190.00 259.00 
C 202.47 270.75 216.50 281.81 228.00 295.00
C 213.65 297.47 202.89 309.10 191.25 317.25 C 179.61 325.41 166.39 338.75 152.30 326.70 C 138.21 314.64 152.49 300.22 163.25 291.25 C 174.01 282.28 185.51 271.59 190.00 259.00 Z"/>
</g>
<g fill="None" fill-opacity="0.0" stroke="#106FB0" stroke-opacity="1.00" stroke-width="0.3"><path d="
M 289.00 257.00 
C 288.70 255.64 289.83 255.20 290.00 254.00
C 290.77 248.45 292.19 242.12 298.25 237.25 C 304.31 232.38 309.02 227.66 315.23 223.23 C 321.44 218.80 326.87 214.20 332.75 209.75 C 338.62 205.29 345.31 200.77 349.75 195.75 C 354.20 190.74 364.27 187.43 368.08 183.08 C 371.88 178.73 389.95 174.70 388.00 180.00
C 389.60 178.80 391.18 177.77 393.00 177.00
C 392.33 229.50 394.34 283.32 392.00 335.00
C 392.53 335.25 393.19 336.37 394.00 335.00
C 396.46 308.77 393.43 281.33 394.00 255.00 C 394.57 228.67 395.24 201.69 393.33 175.67 C 391.42 149.65 396.22 121.98 393.00 96.00
C 369.51 95.97 353.99 119.12 336.75 132.75 C 319.51 146.38 305.11 162.18 288.25 176.25 C 271.39 190.32 256.42 208.85 237.00 215.00
C 251.86 230.82 272.07 243.37 289.00 257.00 Z"/>
</g>
<g fill="None" fill-opacity="0.0" stroke="#2E91DB" stroke-opacity="1.00" stroke-width="0.3"><path d="
M 178.00 247.00 
C 166.23 231.17 149.96 223.22 140.32 204.68 C 130.68 186.13 163.71 166.25 178.92 179.08 C 194.14 191.90 209.39 202.74 226.00 209.00
C 217.00 202.24 209.22 197.19 200.25 189.75 C 191.28 182.32 184.01 178.58 174.75 170.25 C 165.50 161.91 153.47 168.19 146.25 176.25 C 139.03 184.30 125.03 192.58 131.23 203.77 C 137.43 214.96 146.54 217.19 154.25 225.75 C 161.96 234.32 169.63 239.70 178.00 247.00 Z"/>
</g>
<g fill="None" fill-opacity="0.0" stroke="#237DBF" stroke-opacity="1.00" stroke-width="0.3"><path d="
M 290.00 254.00 
C 298.30 244.07 313.18 238.94 322.75 229.75 C 332.31 220.56 344.79 213.67 355.23 205.23 C 365.67 196.79 377.36 187.99 388.00 180.00
C 389.95 174.70 371.88 178.73 368.08 183.08 C 364.27 187.43 354.20 190.74 349.75 195.75 C 345.31 200.77 338.62 205.29 332.75 209.75 C 326.87 214.20 321.44 218.80 315.23 223.23 C 309.02 227.66 304.31 232.38 298.25 237.25 C 292.19 242.12 290.77 248.45 290.00 254.00 Z"/>
</g>
<g fill="None" fill-opacity="0.0" stroke="#25252B" stroke-opacity="1.00" stroke-width="0.3"><path d="
M 388.00 180.00 
C 377.36 187.99 365.67 196.79 355.23 205.23 C 344.79 213.67 332.31 220.56 322.75 229.75 C 313.18 238.94 298.30 244.07 290.00 254.00
C 289.83 255.20 288.70 255.64 289.00 257.00
C 300.02 265.88 312.42 274.79 323.77 283.23 C 335.12 291.67 346.12 301.50 357.92 309.08 C 369.72 316.67 379.38 329.02 392.00 335.00
C 394.34 283.32 392.33 229.50 393.00 177.00
C 391.18 177.77 389.60 178.80 388.00 180.00 Z"/>
</g>
<g fill="None" fill-opacity="0.0" stroke="#0C6DB0" stroke-opacity="1.00" stroke-width="0.3"><path d="
M 190.00 259.00 
C 185.51 271.59 174.01 282.28 163.25 291.25 C 152.49 300.22 138.21 314.64 152.30 326.70 C 166.39 338.75 179.61 325.41 191.25 317.25 C 202.89 309.10 213.65 297.47 228.00 295.00
C 216.50 281.81 202.47 270.75 190.00 259.00 Z"/>
</g>
<g fill="#000000" fill-opacity="0.00" stroke="None">
<path d="
M 0.00 512.00 
L 512.00 512.00
L 512.00 0.00
L 0.00 0.00
L 0.00 512.00
M 467.00 117.00 
C 489.68 127.61 479.80 156.86 481.00 179.00 C 482.20 201.14 481.03 233.01 481.00 256.00 C 480.97 278.99 482.32 309.85 481.00 332.00 C 479.68 354.15 489.91 384.29 467.00 395.00
C 461.62 403.25 462.86 417.65 455.70 425.70 C 448.53 433.74 445.01 442.01 435.75 448.75 C 426.50 455.49 419.17 459.77 407.78 463.78 C 396.38 467.78 382.37 468.31 369.00 468.00 C 355.63 467.69 339.87 468.14 326.00 468.00 C 312.13 467.86 297.06 468.06 283.00 468.00 C 268.94 467.94 254.07 468.02 240.00 468.00 C 225.93 467.98 210.90 468.00 197.00 468.00 C 183.10 468.00 167.44 467.97 154.00 468.00 C 140.56 468.03 124.87 468.61 112.99 466.01 C 101.12 463.40 92.20 459.60 82.77 453.23 C 73.34 446.86 68.12 441.82 61.25 432.75 C 54.37 423.69 50.54 415.48 47.07 403.93 C 43.61 392.37 43.90 377.37 44.00 364.00 C 44.10 350.63 43.96 334.87 44.00 321.00 C 44.04 307.13 43.99 292.05 44.00 278.00 C 44.01 263.95 44.01 249.05 44.00 235.00 C 43.99 220.95 44.04 205.87 44.00 192.00 C 43.96 178.13 44.10 162.38 44.00 149.00 C 43.90 135.62 43.41 120.45 46.93 108.93 C 50.45 97.40 53.85 88.85 60.77 79.77 C 67.69 70.69 73.35 65.04 82.75 58.75 C 92.14 52.45 100.25 48.96 112.02 46.02 C 123.80 43.09 139.60 44.10 153.00 44.00 C 166.40 43.90 182.12 44.06 196.00 44.00 C 209.88 43.94 224.93 44.05 239.00 44.00 C 253.07 43.95 267.93 44.07 282.00 44.00 C 296.07 43.93 311.10 44.15 325.00 44.00 C 338.90 43.85 354.55 44.32 368.00 44.00 C 381.45 43.68 395.46 44.15 407.02 47.98 C 418.59 51.80 425.65 56.27 435.08 62.92 C 444.52 69.57 447.92 77.64 455.25 85.75 C 462.59 93.85 461.52 108.59 467.00 117.00 Z"/>
</g>
<g fill="#202024" fill-opacity="1.00" stroke="None">
<path d="
M 467.00 395.00 
C 452.65 401.71 436.29 409.57 421.92 415.92 C 407.56 422.28 390.07 437.55 375.00 427.00
C 349.12 408.89 328.70 382.86 304.25 362.75 C 279.79 342.65 257.28 319.43 234.00 298.00
C 223.52 304.68 215.65 310.19 205.75 318.75 C 195.85 327.31 187.30 329.85 177.25 340.25 C 167.20 350.65 154.63 343.85 145.75 335.25 C 136.88 326.65 123.84 315.71 133.75 304.75 C 143.67 293.79 150.50 290.42 159.75 280.75 C 169.00 271.08 176.92 266.31 186.00 257.00
C 185.21 252.73 179.87 250.78 178.00 247.00
C 169.63 239.70 161.96 234.32 154.25 225.75 C 146.54 217.19 137.43 214.96 131.23 203.77 C 125.03 192.58 139.03 184.30 146.25 176.25 C 153.47 168.19 165.50 161.91 174.75 170.25 C 184.01 178.58 191.28 182.32 200.25 189.75 C 209.22 197.19 217.00 202.24 226.00 209.00
C 228.49 210.87 231.18 213.02 234.00 214.00
C 280.21 170.21 327.70 127.44 375.00 85.00
C 390.00 74.50 408.72 90.17 422.70 96.31 C 436.67 102.44 452.98 110.45 467.00 117.00
C 461.52 108.59 462.59 93.85 455.25 85.75 C 447.92 77.64 444.52 69.57 435.08 62.92 C 425.65 56.27 418.59 51.80 407.02 47.98 C 395.46 44.15 381.45 43.68 368.00 44.00 C 354.55 44.32 338.90 43.85 325.00 44.00 C 311.10 44.15 296.07 43.93 282.00 44.00 C 267.93 44.07 253.07 43.95 239.00 44.00 C 224.93 44.05 209.88 43.94 196.00 44.00 C 182.12 44.06 166.40 43.90 153.00 44.00 C 139.60 44.10 123.80 43.09 112.02 46.02 C 100.25 48.96 92.14 52.45 82.75 58.75 C 73.35 65.04 67.69 70.69 60.77 79.77 C 53.85 88.85 50.45 97.40 46.93 108.93 C 43.41 120.45 43.90 135.62 44.00 149.00 C 44.10 162.38 43.96 178.13 44.00 192.00 C 44.04 205.87 43.99 220.95 44.00 235.00 C 44.01 249.05 44.01 263.95 44.00 278.00 C 43.99 292.05 44.04 307.13 44.00 321.00 C 43.96 334.87 44.10 350.63 44.00 364.00 C 43.90 377.37 43.61 392.37 47.07 403.93 C 50.54 415.48 54.37 423.69 61.25 432.75 C 68.12 441.82 73.34 446.86 82.77 453.23 C 92.20 459.60 101.12 463.40 112.99 466.01 C 124.87 468.61 140.56 468.03 154.00 468.00 C 167.44 467.97 183.10 468.00 197.00 468.00 C 210.90 468.00 225.93 467.98 240.00 468.00 C 254.07 468.02 268.94 467.94 283.00 468.00 C 297.06 468.06 312.13 467.86 326.00 468.00 C 339.87 468.14 355.63 467.69 369.00 468.00 C 382.37 468.31 396.38 467.78 407.78 463.78 C 419.17 459.77 426.50 455.49 435.75 448.75 C 445.01 442.01 448.53 433.74 455.70 425.70 C 462.86 417.65 461.62 403.25 467.00 395.00 Z"/>
</g>
<g fill="#2CA1F1" fill-opacity="1.00" stroke="None">
<path d="
M 375.00 85.00 
C 382.39 81.91 391.90 87.11 393.00 96.00
C 396.22 121.98 391.42 149.65 393.33 175.67 C 395.24 201.69 394.57 228.67 394.00 255.00 C 393.43 281.33 396.46 308.77 394.00 335.00
C 392.59 350.05 392.09 376.55 393.00 391.00 C 393.91 405.45 394.92 435.32 375.00 427.00
C 390.07 437.55 407.56 422.28 421.92 415.92 C 436.29 409.57 452.65 401.71 467.00 395.00
C 489.91 384.29 479.68 354.15 481.00 332.00 C 482.32 309.85 480.97 278.99 481.00 256.00 C 481.03 233.01 482.20 201.14 481.00 179.00 C 479.80 156.86 489.68 127.61 467.00 117.00
C 452.98 110.45 436.67 102.44 422.70 96.31 C 408.72 90.17 390.00 74.50 375.00 85.00 Z"/>
</g>
<g fill="#1581CE" fill-opacity="1.00" stroke="None">
<path d="
M 375.00 85.00 
C 327.70 127.44 280.21 170.21 234.00 214.00
C 231.18 213.02 228.49 210.87 226.00 209.00
C 209.39 202.74 194.14 191.90 178.92 179.08 C 163.71 166.25 130.68 186.13 140.32 204.68 C 149.96 223.22 166.23 231.17 178.00 247.00
C 179.87 250.78 185.21 252.73 186.00 257.00
C 176.92 266.31 169.00 271.08 159.75 280.75 C 150.50 290.42 143.67 293.79 133.75 304.75 C 123.84 315.71 136.88 326.65 145.75 335.25 C 154.63 343.85 167.20 350.65 177.25 340.25 C 187.30 329.85 195.85 327.31 205.75 318.75 C 215.65 310.19 223.52 304.68 234.00 298.00
C 257.28 319.43 279.79 342.65 304.25 362.75 C 328.70 382.86 349.12 408.89 375.00 427.00
C 394.92 435.32 393.91 405.45 393.00 391.00 C 392.09 376.55 392.59 350.05 394.00 335.00
C 393.19 336.37 392.53 335.25 392.00 335.00
C 379.38 329.02 369.72 316.67 357.92 309.08 C 346.12 301.50 335.12 291.67 323.77 283.23 C 312.42 274.79 300.02 265.88 289.00 257.00
C 272.07 243.37 251.86 230.82 237.00 215.00
C 256.42 208.85 271.39 190.32 288.25 176.25 C 305.11 162.18 319.51 146.38 336.75 132.75 C 353.99 119.12 369.51 95.97 393.00 96.00
C 391.90 87.11 382.39 81.91 375.00 85.00
M 190.00 259.00 
C 202.47 270.75 216.50 281.81 228.00 295.00
C 213.65 297.47 202.89 309.10 191.25 317.25 C 179.61 325.41 166.39 338.75 152.30 326.70 C 138.21 314.64 152.49 300.22 163.25 291.25 C 174.01 282.28 185.51 271.59 190.00 259.00 Z"/>
</g>
<g fill="#106FB0" fill-opacity="1.00" stroke="None">
<path d="
M 289.00 257.00 
C 288.70 255.64 289.83 255.20 290.00 254.00
C 290.77 248.45 292.19 242.12 298.25 237.25 C 304.31 232.38 309.02 227.66 315.23 223.23 C 321.44 218.80 326.87 214.20 332.75 209.75 C 338.62 205.29 345.31 200.77 349.75 195.75 C 354.20 190.74 364.27 187.43 368.08 183.08 C 371.88 178.73 389.95 174.70 388.00 180.00
C 389.60 178.80 391.18 177.77 393.00 177.00
C 392.33 229.50 394.34 283.32 392.00 335.00
C 392.53 335.25 393.19 336.37 394.00 335.00
C 396.46 308.77 393.43 281.33 394.00 255.00 C 394.57 228.67 395.24 201.69 393.33 175.67 C 391.42 149.65 396.22 121.98 393.00 96.00
C 369.51 95.97 353.99 119.12 336.75 132.75 C 319.51 146.38 305.11 162.18 288.25 176.25 C 271.39 190.32 256.42 208.85 237.00 215.00
C 251.86 230.82 272.07 243.37 289.00 257.00 Z"/>
</g>
<g fill="#2E91DB" fill-opacity="1.00" stroke="None">
<path d="
M 178.00 247.00 
C 166.23 231.17 149.96 223.22 140.32 204.68 C 130.68 186.13 163.71 166.25 178.92 179.08 C 194.14 191.90 209.39 202.74 226.00 209.00
C 217.00 202.24 209.22 197.19 200.25 189.75 C 191.28 182.32 184.01 178.58 174.75 170.25 C 165.50 161.91 153.47 168.19 146.25 176.25 C 139.03 184.30 125.03 192.58 131.23 203.77 C 137.43 214.96 146.54 217.19 154.25 225.75 C 161.96 234.32 169.63 239.70 178.00 247.00 Z"/>
</g>
<g fill="#237DBF" fill-opacity="1.00" stroke="None">
<path d="
M 290.00 254.00 
C 298.30 244.07 313.18 238.94 322.75 229.75 C 332.31 220.56 344.79 213.67 355.23 205.23 C 365.67 196.79 377.36 187.99 388.00 180.00
C 389.95 174.70 371.88 178.73 368.08 183.08 C 364.27 187.43 354.20 190.74 349.75 195.75 C 345.31 200.77 338.62 205.29 332.75 209.75 C 326.87 214.20 321.44 218.80 315.23 223.23 C 309.02 227.66 304.31 232.38 298.25 237.25 C 292.19 242.12 290.77 248.45 290.00 254.00 Z"/>
</g>
<g fill="#25252B" fill-opacity="1.00" stroke="None">
<path d="
M 388.00 180.00 
C 377.36 187.99 365.67 196.79 355.23 205.23 C 344.79 213.67 332.31 220.56 322.75 229.75 C 313.18 238.94 298.30 244.07 290.00 254.00
C 289.83 255.20 288.70 255.64 289.00 257.00
C 300.02 265.88 312.42 274.79 323.77 283.23 C 335.12 291.67 346.12 301.50 357.92 309.08 C 369.72 316.67 379.38 329.02 392.00 335.00
C 394.34 283.32 392.33 229.50 393.00 177.00
C 391.18 177.77 389.60 178.80 388.00 180.00 Z"/>
</g>
<g fill="#0C6DB0" fill-opacity="1.00" stroke="None">
<path d="
M 190.00 259.00 
C 185.51 271.59 174.01 282.28 163.25 291.25 C 152.49 300.22 138.21 314.64 152.30 326.70 C 166.39 338.75 179.61 325.41 191.25 317.25 C 202.89 309.10 213.65 297.47 228.00 295.00
C 216.50 281.81 202.47 270.75 190.00 259.00 Z"/>
</g>
</svg>